<svg width="473" height="120" viewBox="0 0 473 120" fill="none" xmlns="http://www.w3.org/2000/svg">
<rect x="11" y="11" width="462" height="109" fill="#FF4681"/>
<rect width="462" height="109" fill="#F9B60D"/>
<path d="M48.3467 38.3047H58.1489V63.7441C58.1489 65.7542 57.8885 67.569 57.3677 69.1885C56.855 70.7998 56.0737 72.1914 55.0239 73.3633C53.9741 74.5352 52.6639 75.4344 51.0933 76.061C49.5226 76.6877 47.7078 77.001 45.6489 77.001C41.5962 77.001 38.3654 75.1496 35.9565 71.4468L41.5962 65.502C43.175 67.6341 44.4933 68.7002 45.5513 68.7002C46.772 68.7002 47.541 68.1834 47.8584 67.1499C48.1839 66.1082 48.3467 64.7736 48.3467 63.146V38.3047ZM83.3198 37.0474C86.0216 37.0474 88.6299 37.5234 91.1445 38.4756C93.6592 39.4196 95.8931 40.7664 97.8462 42.5161C99.8075 44.2576 101.35 46.3206 102.473 48.7051C103.604 51.0814 104.169 53.6611 104.169 56.4443C104.169 59.431 103.657 62.2101 102.631 64.7817C101.614 67.3452 100.166 69.5628 98.2856 71.4346C96.4058 73.2982 94.1882 74.7345 91.6328 75.7437C89.0856 76.7446 86.3146 77.2451 83.3198 77.2451C80.325 77.2451 77.554 76.7446 75.0068 75.7437C72.4596 74.7345 70.238 73.29 68.3418 71.4102C66.4538 69.5303 65.0011 67.3127 63.9839 64.7573C62.9666 62.202 62.458 59.431 62.458 56.4443C62.458 53.6611 63.0195 51.0814 64.1426 48.7051C65.2738 46.3206 66.8159 44.2576 68.769 42.5161C70.7303 40.7664 72.9723 39.4196 75.4951 38.4756C78.0179 37.5234 80.6261 37.0474 83.3198 37.0474ZM83.3198 46.5444C81.4237 46.5444 79.6536 47.0083 78.0098 47.936C76.374 48.8638 75.0719 50.0967 74.1035 51.6348C73.1432 53.1647 72.6631 54.7882 72.6631 56.5054C72.6631 58.6294 73.1392 60.55 74.0913 62.2671C75.0516 63.9842 76.3455 65.327 77.9731 66.2954C79.6089 67.2638 81.3911 67.748 83.3198 67.748C85.2567 67.748 87.0389 67.2638 88.6665 66.2954C90.2941 65.3188 91.584 63.9761 92.5361 62.2671C93.4883 60.55 93.9644 58.6294 93.9644 56.5054C93.9644 54.7882 93.4842 53.1647 92.5239 51.6348C91.5636 50.0967 90.2656 48.8638 88.6299 47.936C86.9941 47.0083 85.2241 46.5444 83.3198 46.5444ZM118.5 38.3047V76H108.698V38.3047H118.5ZM124.909 76V38.3047H134.711L152.656 61.3516H152.766V38.3047H162.556V76H152.766L134.809 52.9043H134.711V76H124.909ZM193.952 76V38.3047H207.856C210.452 38.3047 212.918 38.7848 215.253 39.7451C217.589 40.7054 219.636 42.04 221.394 43.749C223.151 45.458 224.527 47.4681 225.52 49.7793C226.512 52.0824 227.009 54.54 227.009 57.1523C227.009 60.5947 226.142 63.7645 224.409 66.6616C222.683 69.5506 220.348 71.8293 217.402 73.4976C214.464 75.1659 211.282 76 207.856 76H193.952ZM203.754 46.6055V67.6992H205.952C207.962 67.6992 209.789 67.3208 211.433 66.564C213.076 65.8071 214.383 64.6353 215.351 63.0483C216.319 61.4614 216.804 59.4961 216.804 57.1523C216.804 53.832 215.815 51.2441 213.837 49.3887C211.86 47.5332 209.264 46.6055 206.049 46.6055H203.754ZM241.352 38.3047V76H231.55V38.3047H241.352ZM272.358 40.4043L268.464 47.9971C266.454 46.3288 264.285 45.4946 261.958 45.4946C260.932 45.4946 259.976 45.7754 259.089 46.3369C258.202 46.8984 257.758 47.6675 257.758 48.644C257.758 49.6125 258.153 50.3449 258.942 50.8413C259.732 51.3377 260.79 51.8057 262.116 52.2451L264.606 53.002C267.544 53.8564 269.827 55.0812 271.455 56.6763C273.09 58.2632 273.908 60.4727 273.908 63.3047C273.908 67.862 272.61 71.2433 270.014 73.4487C267.215 75.8169 263.646 77.001 259.309 77.001C254.564 77.001 250.149 75.5687 246.064 72.7041L250.263 64.7939C253.217 67.3981 256.118 68.7002 258.967 68.7002C260.228 68.7002 261.335 68.3787 262.287 67.7358C263.239 67.0848 263.715 66.1408 263.715 64.9038C263.715 63.7075 263.174 62.8245 262.092 62.2549C261.009 61.6771 259.565 61.1237 257.758 60.5947C255.39 59.9274 253.498 59.2397 252.082 58.5317C250.674 57.8237 249.567 56.7943 248.762 55.4434C247.964 54.0924 247.565 52.2614 247.565 49.9502C247.565 47.4437 248.119 45.2342 249.226 43.3218C250.332 41.4012 251.875 39.9201 253.852 38.8784C255.83 37.8286 258.068 37.3037 260.566 37.3037C262.495 37.3037 264.525 37.5845 266.657 38.146C268.789 38.6994 270.69 39.4521 272.358 40.4043ZM305.524 39.1958V50.9512C304.54 49.6165 303.282 48.5911 301.752 47.875C300.231 47.1589 298.619 46.8008 296.918 46.8008C294.973 46.8008 293.232 47.2646 291.694 48.1924C290.164 49.112 288.976 50.3734 288.129 51.9766C287.291 53.5716 286.872 55.3294 286.872 57.25C286.872 59.2194 287.299 60.9854 288.154 62.5479C289.008 64.1022 290.209 65.3188 291.755 66.1978C293.309 67.0685 295.083 67.5039 297.077 67.5039C298.664 67.5039 300.206 67.1458 301.704 66.4297C303.209 65.7135 304.483 64.737 305.524 63.5V75.2554C303.343 75.9146 301.687 76.3703 300.556 76.6226C299.433 76.8748 298.204 77.001 296.87 77.001C294.257 77.001 291.739 76.5208 289.313 75.5605C286.888 74.6003 284.691 73.229 282.722 71.4468C278.685 67.8009 276.667 63.0524 276.667 57.2012C276.667 54.6133 277.143 52.1312 278.095 49.7549C279.056 47.3704 280.431 45.2505 282.221 43.395C283.466 42.1255 284.866 41.035 286.42 40.1235C287.975 39.2121 289.619 38.5163 291.352 38.0361C293.094 37.5479 294.835 37.3037 296.577 37.3037C299.482 37.3037 302.465 37.9344 305.524 39.1958ZM330.537 37.0474C333.238 37.0474 335.847 37.5234 338.361 38.4756C340.876 39.4196 343.11 40.7664 345.063 42.5161C347.024 44.2576 348.566 46.3206 349.689 48.7051C350.821 51.0814 351.386 53.6611 351.386 56.4443C351.386 59.431 350.874 62.2101 349.848 64.7817C348.831 67.3452 347.382 69.5628 345.502 71.4346C343.623 73.2982 341.405 74.7345 338.85 75.7437C336.302 76.7446 333.531 77.2451 330.537 77.2451C327.542 77.2451 324.771 76.7446 322.224 75.7437C319.676 74.7345 317.455 73.29 315.559 71.4102C313.671 69.5303 312.218 67.3127 311.201 64.7573C310.183 62.202 309.675 59.431 309.675 56.4443C309.675 53.6611 310.236 51.0814 311.359 48.7051C312.491 46.3206 314.033 44.2576 315.986 42.5161C317.947 40.7664 320.189 39.4196 322.712 38.4756C325.235 37.5234 327.843 37.0474 330.537 37.0474ZM330.537 46.5444C328.64 46.5444 326.87 47.0083 325.227 47.936C323.591 48.8638 322.289 50.0967 321.32 51.6348C320.36 53.1647 319.88 54.7882 319.88 56.5054C319.88 58.6294 320.356 60.55 321.308 62.2671C322.268 63.9842 323.562 65.327 325.19 66.2954C326.826 67.2638 328.608 67.748 330.537 67.748C332.473 67.748 334.256 67.2638 335.883 66.2954C337.511 65.3188 338.801 63.9761 339.753 62.2671C340.705 60.55 341.181 58.6294 341.181 56.5054C341.181 54.7882 340.701 53.1647 339.741 51.6348C338.78 50.0967 337.482 48.8638 335.847 47.936C334.211 47.0083 332.441 46.5444 330.537 46.5444ZM375.422 60.5459L387.263 76H375.068L365.815 61.498H365.717V76H355.915V38.3047H370.563C373.111 38.3047 375.369 38.7197 377.338 39.5498C379.316 40.3799 380.862 41.6698 381.977 43.4194C383.1 45.161 383.662 47.3216 383.662 49.9014C383.662 51.6592 383.34 53.2909 382.697 54.7964C382.062 56.3019 381.127 57.5592 379.89 58.5684C378.661 59.5693 377.172 60.2285 375.422 60.5459ZM365.717 45.7998V55.1992H366.669C367.947 55.1992 369.074 55.0812 370.051 54.8452C371.035 54.6092 371.849 54.1453 372.492 53.4536C373.143 52.7537 373.469 51.769 373.469 50.4995C373.469 49.23 373.143 48.2493 372.492 47.5576C371.849 46.8577 371.04 46.3898 370.063 46.1538C369.086 45.9178 367.955 45.7998 366.669 45.7998H365.717ZM389.899 76V38.3047H403.803C406.399 38.3047 408.865 38.7848 411.201 39.7451C413.536 40.7054 415.583 42.04 417.341 43.749C419.099 45.458 420.474 47.4681 421.467 49.7793C422.46 52.0824 422.956 54.54 422.956 57.1523C422.956 60.5947 422.089 63.7645 420.356 66.6616C418.631 69.5506 416.295 71.8293 413.349 73.4976C410.411 75.1659 407.229 76 403.803 76H389.899ZM399.702 46.6055V67.6992H401.899C403.909 67.6992 405.736 67.3208 407.38 66.564C409.024 65.8071 410.33 64.6353 411.298 63.0483C412.267 61.4614 412.751 59.4961 412.751 57.1523C412.751 53.832 411.762 51.2441 409.785 49.3887C407.807 47.5332 405.211 46.6055 401.997 46.6055H399.702Z" fill="#5E0CC3"/>
</svg>
