<svg width="128" height="72" viewBox="0 0 128 72" fill="none" xmlns="http://www.w3.org/2000/svg">
<g clip-path="url(#clip0)">
<path d="M40.15 35.12V27.7001H35.15V35.12H21.6V10.47H25.31V6.76005H29V3.05005H46.25V6.76005H50V10.47H53.71V35.12H40.15ZM40.15 17.89V16.57H35.15V17.89H40.15Z" fill="white"/>
<path d="M43.2 6.1V9.81H46.91V13.52H50.62V32.07H43.2V24.65H32.07V32.07H24.65V13.52H28.36V9.81H32.07V6.1H43.2ZM32.07 20.94H43.2V13.52H39.49V9.81H35.78V13.52H32.07V20.94ZM49.3 0H26V3.71H22.26V7.42H18.55V38.17H56.73V7.42H53V3.71H49.3V0Z" fill="#FDA80A"/>
<path d="M66.13 35.12V31.41H64.81V35.12H51.28V3.05005H79.65V6.76005H83.36V24H79.65V25.32H83.36V35.1301L66.13 35.12ZM66.13 17.89V14.18H69.84V12.86H64.84V17.86L66.13 17.89Z" fill="white"/>
<path d="M76.6 6.1V9.81H80.31V20.94H72.89V24.65H76.6V28.36H80.31V32.07H69.18V28.36H65.47V24.65H61.76V32.07H54.33V6.1H76.6ZM61.76 20.94H69.18V17.23H72.89V9.81H61.76V20.94ZM82.7 0H48.23V38.17H86.41V3.71H82.7V0Z" fill="#FDA80A"/>
<path d="M88.39 35.12V12.86H80.97V3.05005H109.33V12.86H101.91V35.12H88.39Z" fill="white"/>
<path d="M106.28 6.1V9.81H98.86V32.07H91.44V9.81H84V6.1H106.26H106.28ZM112.36 0H77.92V15.91H85.34V38.17H105V15.91H112.42V0H112.36Z" fill="#FDA80A"/>
<path d="M10.47 68.6V64.89H6.76V61.18H3.05V43.95H6.76V40.24H10.47V36.53H31.41V40.24H35.12V50.05H21.6V46.34H20.28V50.05H16.57V55.08H20.28V58.79H21.6V55.08H35.12V64.89H31.41V68.6H10.47Z" fill="white"/>
<path d="M28.36 39.58V43.29H32.07V47H24.65V43.29H17.23V47H13.52V58.13H17.23V61.84H24.65V58.13H32.07V61.84H28.36V65.55H13.52V61.84H9.81V58.13H6.1V47H9.81V43.29H13.52V39.58H28.36ZM34.46 33.48H7.46V37.19H3.71V40.9H0V64.23H3.71V67.94H7.42V71.65H34.42V67.94H38.13V37.19H34.46V33.48Z" fill="#FDA80A"/>
<path d="M51.28 68.6V61.18H46.28V68.6H32.73V44H36.44V40.24H40.15V36.53H57.39V40.24H61.1V44H64.81V68.6H51.28ZM51.28 51.37V50.05H46.28V51.37H51.28Z" fill="white"/>
<path d="M54.33 39.58V43.29H58.05V47H61.76V65.55H54.33V58.13H43.2V65.55H35.78V47H39.49V43.29H43.2V39.58H54.33ZM43.2 54.42H54.33V47H50.62V43.29H46.91V47H43.2V54.42ZM60.44 33.48H37.1V37.19H33.39V40.9H29.68V71.65H67.86V40.9H64.15V37.19H60.44V33.48Z" fill="#FDA80A"/>
<path d="M62.42 68.6V36.53H90.78V40.24H94.49V57.47H90.78V61.18H75.94V68.6H62.42ZM81 51.37V46.37H76V51.37H81Z" fill="white"/>
<path d="M87.73 39.58V43.29H91.44V54.42H87.73V58.13H72.89V65.55H65.47V39.55H87.73V39.58ZM72.89 54.42H84V43.29H72.89V54.42ZM93.83 33.48H59.36V71.65H79V64.23H93.83V60.52H97.54V37.19H93.83V33.48Z" fill="#FDA80A"/>
<path d="M95.81 68.6V64.89H92.1V55.08H95.81V53.76H92.1V40.24H95.81V36.53H120.46V40.24H124.17V50.05H120.46V51.37H124.17V64.89H120.46V68.6H95.81ZM110.65 58.79V57.47H105.65V58.79H110.65ZM110.65 47.66V46.34H105.65V47.66H110.65Z" fill="white"/>
<path d="M117.41 39.58V43.29H121.12V47H113.7V43.29H102.57V50.71H117.41V54.42H121.12V61.84H117.41V65.55H98.86V61.84H95.15V58.13H102.57V61.84H113.7V54.42H98.86V50.71H95.15V43.29H98.86V39.58H117.41ZM123.51 33.48H92.76V37.19H89.05V67.94H92.76V71.65H123.51V67.94H127.22V37.19H123.51V33.48Z" fill="#FDA80A"/>
</g>
<defs>
<clipPath id="clip0">
<rect width="127.22" height="71.65" fill="white"/>
</clipPath>
</defs>
</svg>
