<svg width="24" height="40" viewBox="0 0 24 40" fill="none" xmlns="http://www.w3.org/2000/svg">
<path d="M6.47487 1.52513C5.10804 0.158291 2.89196 0.158291 1.52513 1.52513C0.158291 2.89196 0.158291 5.10804 1.52513 6.47487L6.47487 1.52513ZM20 20L22.4749 22.4749C23.8417 21.108 23.8417 18.892 22.4749 17.5251L20 20ZM1.52513 33.5251C0.158291 34.892 0.158291 37.108 1.52513 38.4749C2.89196 39.8417 5.10804 39.8417 6.47487 38.4749L1.52513 33.5251ZM1.52513 6.47487L17.5251 22.4749L22.4749 17.5251L6.47487 1.52513L1.52513 6.47487ZM17.5251 17.5251L1.52513 33.5251L6.47487 38.4749L22.4749 22.4749L17.5251 17.5251Z" fill="#FDA80A"/>
</svg>
