<svg width="220" height="342" viewBox="0 0 220 342" fill="none" xmlns="http://www.w3.org/2000/svg">
<g clip-path="url(#clip0)">
<path d="M195.12 48.7798V73.1698V97.5598V121.95V146.34V170.73V195.12V219.51V243.9V268.29V292.68H219.51V268.29V243.9V219.51V195.12V170.73V146.34V121.95V97.5598V73.1698V48.7798H195.12Z" fill="white"/>
<path d="M195.12 24.3901H170.73V48.7801H195.12V24.3901Z" fill="white"/>
<path d="M195.12 292.68H170.73V317.07H195.12V292.68Z" fill="white"/>
<path d="M170.73 195.12H146.34V219.51H170.73V195.12Z" fill="white"/>
<path d="M121.95 317.07H97.56H73.17H48.78V341.46H73.17H97.56H121.95H146.34H170.73V317.07H146.34H121.95Z" fill="white"/>
<path d="M121.95 121.95V97.5599V73.1699H97.5601V97.5599V121.95V146.34H121.95V121.95Z" fill="white"/>
<path d="M121.95 195.12V170.73H97.56V195.12V219.51H73.17V243.9H97.56V268.29H121.95V243.9H146.34V219.51H121.95V195.12Z" fill="white"/>
<path d="M97.56 24.39H121.95H146.34H170.73V0H146.34H121.95H97.56H73.17H48.78V24.39H73.17H97.56Z" fill="white"/>
<path d="M73.17 195.12H48.78V219.51H73.17V195.12Z" fill="white"/>
<path d="M48.78 24.3901H24.39V48.7801H48.78V24.3901Z" fill="white"/>
<path d="M48.78 292.68H24.39V317.07H48.78V292.68Z" fill="white"/>
<path d="M24.39 243.9V219.51V195.12V170.73V146.34V121.95V97.5598V73.1698V48.7798H0V73.1698V97.5598V121.95V146.34V170.73V195.12V219.51V243.9V268.29V292.68H24.39V268.29V243.9Z" fill="white"/>
</g>
<defs>
<clipPath id="clip0">
<rect width="219.51" height="341.46" fill="white"/>
</clipPath>
</defs>
</svg>
