<svg width="206" height="104" viewBox="0 0 206 104" fill="none" xmlns="http://www.w3.org/2000/svg">
<path d="M0 53.8226V43.0581H10.7645V32.2935H21.529V21.529H32.2935V10.7645H0V0H75.3516V10.7645H64.5871V21.529H53.8226V32.2935H43.0581V43.0581H75.3516V53.8226H0Z" fill="#F2F2F2"/>
<path d="M92.9595 78.1254V70.4118H100.673V62.6981H108.387V54.9844H116.1V47.2708H92.9595V39.5571H146.955V47.2708H139.241V54.9844H131.528V62.6981H123.814V70.4118H146.955V78.1254H92.9595Z" fill="#F2F2F2"/>
<path d="M161.196 103.838V97.5088H167.525V91.1796H173.854V84.8504H180.183V78.5213H161.196V72.1921H205.5V78.5213H199.17V84.8504H192.841V91.1796H186.512V97.5088H205.5V103.838H161.196Z" fill="#F2F2F2"/>
</svg>
