<svg width="242" height="76" viewBox="0 0 242 76" fill="none" xmlns="http://www.w3.org/2000/svg">
<path d="M241.11 14.7888V75.4688H12.01L0 63.7888V0.798828H230.57L241.11 14.7888Z" fill="#515151"/>
<path d="M230.57 0.798828H0V63.7888H230.57V0.798828Z" fill="#727272"/>
<path d="M241.11 75.4688H12.01L0 63.7888H230.57L241.11 75.4688Z" fill="#1E1E1E"/>
<path d="M78.03 42.3237V25.6287H82.8V28.0137H85.185V30.3987H87.57V28.0137H89.955V25.6287H94.725V42.3237H89.955V32.7837H87.57V37.5537H85.185V32.7837H82.8V42.3237H78.03ZM99.495 42.3237V39.9387H104.265V28.0137H99.495V25.6287H113.805V28.0137H109.035V39.9387H113.805V42.3237H99.495ZM116.19 42.3237V25.6287H120.96V28.0137H123.345V30.3987H125.73V32.7837H128.115V25.6287H132.885V42.3237H128.115V37.5537H125.73V35.1687H123.345V32.7837H120.96V42.3237H116.19ZM142.425 42.3237V28.0137H137.655V25.6287H151.965V28.0137H147.195V42.3237H142.425Z" fill="#8C8C8C"/>
</svg>
