<svg width="375" height="117" viewBox="0 0 375 117" fill="none" xmlns="http://www.w3.org/2000/svg">
<path d="M375 21.7587V116.135H18.6792L0 97.9688V0H358.607L375 21.7587Z" fill="#5254F9"/>
<path d="M358.607 0H0V97.9688H358.607V0Z" fill="#FDCE0A"/>
<path d="M375 116.135H18.6792L0 97.9692H358.607L375 116.135Z" fill="#5B00E2"/>
<path d="M121.361 65.0338V39.0679H128.779V42.7773H132.489V46.4867H136.198V42.7773H139.908V39.0679H147.326V65.0338H139.908V50.1961H136.198V57.6149H132.489V50.1961H128.779V65.0338H121.361ZM154.745 65.0338V61.3244H162.164V42.7773H154.745V39.0679H177.002V42.7773H169.583V61.3244H177.002V65.0338H154.745ZM180.711 65.0338V39.0679H188.13V42.7773H191.839V46.4867H195.549V50.1961H199.258V39.0679H206.677V65.0338H199.258V57.6149H195.549V53.9055H191.839V50.1961H188.13V65.0338H180.711ZM221.515 65.0338V42.7773H214.096V39.0679H236.352V42.7773H228.933V65.0338H221.515Z" fill="#5254F9"/>
</svg>
