<svg width="376" height="117" viewBox="0 0 376 117" fill="none" xmlns="http://www.w3.org/2000/svg">
<path d="M376 21.8526V116.32H19.3333L0.635986 98.1366V0.0727539H359.591L376 21.8526Z" fill="#515151"/>
<path d="M359.591 0.0727539H0.635986V98.1366H359.591V0.0727539Z" fill="#CBB86B"/>
<path d="M376 116.321H19.3333L0.635986 98.1372H359.591L376 116.321Z" fill="#1E1E1E"/>
<path d="M122.115 65.1405V39.1495H129.541V42.8625H133.254V46.5755H136.967V42.8625H140.68V39.1495H148.106V65.1405H140.68V50.2885H136.967V57.7145H133.254V50.2885H129.541V65.1405H122.115ZM155.532 65.1405V61.4275H162.958V42.8625H155.532V39.1495H177.81V42.8625H170.384V61.4275H177.81V65.1405H155.532ZM181.523 65.1405V39.1495H188.949V42.8625H192.662V46.5755H196.375V50.2885H200.088V39.1495H207.514V65.1405H200.088V57.7145H196.375V54.0015H192.662V50.2885H188.949V65.1405H181.523ZM222.366 65.1405V42.8625H214.94V39.1495H237.218V42.8625H229.792V65.1405H222.366Z" fill="#8C8C8C"/>
</svg>
