<svg width="281" height="174" viewBox="0 0 281 174" fill="none" xmlns="http://www.w3.org/2000/svg">
<g clip-path="url(#clip0)">
<path d="M254.227 120.475H240.841V133.861H254.227V120.475Z" fill="#F9F9F9"/>
<path d="M240.842 133.862H227.456V147.194H240.842V133.862Z" fill="#F9F9F9"/>
<path d="M254.227 133.862H240.841V147.194H254.227V133.862Z" fill="#F9F9F9"/>
<path d="M254.227 147.194H240.841V160.58H254.227V147.194Z" fill="#F9F9F9"/>
<path d="M267.613 133.862H254.227V147.194H267.613V133.862Z" fill="#F9F9F9"/>
<path d="M267.613 120.475H254.227V133.861H267.613V120.475Z" fill="#F9F9F9"/>
<path d="M267.613 107.087H254.227V120.474H267.613V107.087Z" fill="#F9F9F9"/>
<path d="M280.999 147.194H267.613V160.58H280.999V147.194Z" fill="#F9F9F9"/>
<path d="M267.613 147.194H254.227V160.58H267.613V147.194Z" fill="#F9F9F9"/>
<path d="M280.999 160.579H267.613V173.965H280.999V160.579Z" fill="#F9F9F9"/>
<path d="M13.3861 40.1592H0V53.5453H13.3861V40.1592Z" fill="#F9F9F9"/>
<path d="M26.7722 107.087H13.3861V120.474H26.7722V107.087Z" fill="#F9F9F9"/>
<path d="M40.158 120.475H26.7719V133.861H40.158V120.475Z" fill="#F9F9F9"/>
<path d="M53.544 120.475H40.1578V133.861H53.544V120.475Z" fill="#F9F9F9"/>
<path d="M267.613 93.7031H254.227V107.089H267.613V93.7031Z" fill="#F9F9F9"/>
<path d="M267.613 80.3154H254.227V93.7016H267.613V80.3154Z" fill="#F9F9F9"/>
<path d="M267.613 66.9312H254.227V80.3173H267.613V66.9312Z" fill="#F9F9F9"/>
<path d="M267.613 53.5439H254.227V66.9301H267.613V53.5439Z" fill="#F9F9F9"/>
<path d="M267.613 40.1592H254.227V53.5453H267.613V40.1592Z" fill="#F9F9F9"/>
<path d="M254.227 107.087H240.841V120.474H254.227V107.087Z" fill="#F9F9F9"/>
<path d="M254.227 93.7031H240.841V107.089H254.227V93.7031Z" fill="#F9F9F9"/>
<path d="M254.227 80.3154H240.841V93.7016H254.227V80.3154Z" fill="#F9F9F9"/>
<path d="M254.227 66.9312H240.841V80.3173H254.227V66.9312Z" fill="#F9F9F9"/>
<path d="M254.227 53.5439H240.841V66.9301H254.227V53.5439Z" fill="#F9F9F9"/>
<path d="M254.227 40.1592H240.841V53.5453H254.227V40.1592Z" fill="#F9F9F9"/>
<path d="M254.227 26.772H240.841V40.1581H254.227V26.772Z" fill="#F9F9F9"/>
<path d="M254.227 13.3872H240.841V26.7733H254.227V13.3872Z" fill="#F9F9F9"/>
<path d="M240.842 120.475H227.456V133.861H240.842V120.475Z" fill="#F9F9F9"/>
<path d="M240.842 107.087H227.456V120.474H240.842V107.087Z" fill="#F9F9F9"/>
<path d="M240.842 93.7031H227.456V107.089H240.842V93.7031Z" fill="#F9F9F9"/>
<path d="M240.842 80.3154H227.456V93.7016H240.842V80.3154Z" fill="#F9F9F9"/>
<path d="M240.842 66.9312H227.456V80.3173H240.842V66.9312Z" fill="#F9F9F9"/>
<path d="M240.842 53.5439H227.456V66.9301H240.842V53.5439Z" fill="#F9F9F9"/>
<path d="M240.842 40.1592H227.456V53.5453H240.842V40.1592Z" fill="#F9F9F9"/>
<path d="M240.842 26.772H227.456V40.1581H240.842V26.772Z" fill="#F9F9F9"/>
<path d="M240.842 13.3872H227.456V26.7733H240.842V13.3872Z" fill="#F9F9F9"/>
<path d="M227.455 120.475H214.124V133.861H227.455V120.475Z" fill="#F9F9F9"/>
<path d="M227.455 107.087H214.124V120.474H227.455V107.087Z" fill="#F9F9F9"/>
<path d="M227.455 93.7031H214.124V107.089H227.455V93.7031Z" fill="#F9F9F9"/>
<path d="M227.455 80.3154H214.124V93.7016H227.455V80.3154Z" fill="#F9F9F9"/>
<path d="M227.455 66.9312H214.124V80.3173H227.455V66.9312Z" fill="#F9F9F9"/>
<path d="M227.455 53.5439H214.124V66.9301H227.455V53.5439Z" fill="#F9F9F9"/>
<path d="M227.455 40.1592H214.124V53.5453H227.455V40.1592Z" fill="#F9F9F9"/>
<path d="M227.455 26.772H214.124V40.1581H227.455V26.772Z" fill="#F9F9F9"/>
<path d="M227.455 13.3872H214.124V26.7733H227.455V13.3872Z" fill="#F9F9F9"/>
<path d="M214.124 120.475H200.738V133.861H214.124V120.475Z" fill="#F9F9F9"/>
<path d="M214.124 107.087H200.738V120.474H214.124V107.087Z" fill="#F9F9F9"/>
<path d="M214.124 93.7031H200.738V107.089H214.124V93.7031Z" fill="#F9F9F9"/>
<path d="M214.124 80.3154H200.738V93.7016H214.124V80.3154Z" fill="#F9F9F9"/>
<path d="M214.124 66.9312H200.738V80.3173H214.124V66.9312Z" fill="#F9F9F9"/>
<path d="M214.124 53.5439H200.738V66.9301H214.124V53.5439Z" fill="#F9F9F9"/>
<path d="M214.124 40.1592H200.738V53.5453H214.124V40.1592Z" fill="#F9F9F9"/>
<path d="M214.124 26.772H200.738V40.1581H214.124V26.772Z" fill="#F9F9F9"/>
<path d="M214.124 13.3872H200.738V26.7733H214.124V13.3872Z" fill="#F9F9F9"/>
<path d="M214.124 0H200.738V13.3861H214.124V0Z" fill="#F9F9F9"/>
<path d="M200.738 120.475H187.352V133.861H200.738V120.475Z" fill="#F9F9F9"/>
<path d="M200.738 107.087H187.352V120.474H200.738V107.087Z" fill="#F9F9F9"/>
<path d="M200.738 93.7031H187.352V107.089H200.738V93.7031Z" fill="#F9F9F9"/>
<path d="M200.738 80.3154H187.352V93.7016H200.738V80.3154Z" fill="#F9F9F9"/>
<path d="M200.738 66.9312H187.352V80.3173H200.738V66.9312Z" fill="#F9F9F9"/>
<path d="M200.738 53.5439H187.352V66.9301H200.738V53.5439Z" fill="#F9F9F9"/>
<path d="M200.738 40.1592H187.352V53.5453H200.738V40.1592Z" fill="#F9F9F9"/>
<path d="M200.738 26.772H187.352V40.1581H200.738V26.772Z" fill="#F9F9F9"/>
<path d="M200.738 13.3872H187.352V26.7733H200.738V13.3872Z" fill="#F9F9F9"/>
<path d="M200.738 0H187.352V13.3861H200.738V0Z" fill="#F9F9F9"/>
<path d="M187.352 120.475H173.966V133.861H187.352V120.475Z" fill="#F9F9F9"/>
<path d="M187.352 107.087H173.966V120.474H187.352V107.087Z" fill="#F9F9F9"/>
<path d="M187.352 93.7031H173.966V107.089H187.352V93.7031Z" fill="#F9F9F9"/>
<path d="M187.352 80.3154H173.966V93.7016H187.352V80.3154Z" fill="#F9F9F9"/>
<path d="M187.352 66.9312H173.966V80.3173H187.352V66.9312Z" fill="#F9F9F9"/>
<path d="M187.352 53.5439H173.966V66.9301H187.352V53.5439Z" fill="#F9F9F9"/>
<path d="M187.352 40.1592H173.966V53.5453H187.352V40.1592Z" fill="#F9F9F9"/>
<path d="M187.352 26.772H173.966V40.1581H187.352V26.772Z" fill="#F9F9F9"/>
<path d="M187.352 13.3872H173.966V26.7733H187.352V13.3872Z" fill="#F9F9F9"/>
<path d="M187.352 0H173.966V13.3861H187.352V0Z" fill="#F9F9F9"/>
<path d="M173.965 120.475H160.579V133.861H173.965V120.475Z" fill="#F9F9F9"/>
<path d="M173.965 107.087H160.579V120.474H173.965V107.087Z" fill="#F9F9F9"/>
<path d="M173.965 93.7031H160.579V107.089H173.965V93.7031Z" fill="#F9F9F9"/>
<path d="M173.965 80.3154H160.579V93.7016H173.965V80.3154Z" fill="#F9F9F9"/>
<path d="M173.965 66.9312H160.579V80.3173H173.965V66.9312Z" fill="#F9F9F9"/>
<path d="M173.965 53.5439H160.579V66.9301H173.965V53.5439Z" fill="#F9F9F9"/>
<path d="M173.965 40.1592H160.579V53.5453H173.965V40.1592Z" fill="#F9F9F9"/>
<path d="M173.965 26.772H160.579V40.1581H173.965V26.772Z" fill="#F9F9F9"/>
<path d="M173.965 13.3872H160.579V26.7733H173.965V13.3872Z" fill="#F9F9F9"/>
<path d="M173.965 0H160.579V13.3861H173.965V0Z" fill="#F9F9F9"/>
<path d="M160.578 120.475H147.192V133.861H160.578V120.475Z" fill="#F9F9F9"/>
<path d="M160.578 107.087H147.192V120.474H160.578V107.087Z" fill="#F9F9F9"/>
<path d="M160.578 93.7031H147.192V107.089H160.578V93.7031Z" fill="#F9F9F9"/>
<path d="M160.578 80.3154H147.192V93.7016H160.578V80.3154Z" fill="#F9F9F9"/>
<path d="M160.578 66.9312H147.192V80.3173H160.578V66.9312Z" fill="#F9F9F9"/>
<path d="M160.578 53.5439H147.192V66.9301H160.578V53.5439Z" fill="#F9F9F9"/>
<path d="M160.578 40.1592H147.192V53.5453H160.578V40.1592Z" fill="#F9F9F9"/>
<path d="M160.578 26.772H147.192V40.1581H160.578V26.772Z" fill="#F9F9F9"/>
<path d="M160.578 13.3872H147.192V26.7733H160.578V13.3872Z" fill="#F9F9F9"/>
<path d="M160.578 0H147.192V13.3861H160.578V0Z" fill="#F9F9F9"/>
<path d="M147.193 120.475H133.807V133.861H147.193V120.475Z" fill="#F9F9F9"/>
<path d="M147.193 107.087H133.807V120.474H147.193V107.087Z" fill="#F9F9F9"/>
<path d="M147.193 93.7031H133.807V107.089H147.193V93.7031Z" fill="#F9F9F9"/>
<path d="M147.193 80.3154H133.807V93.7016H147.193V80.3154Z" fill="#F9F9F9"/>
<path d="M147.193 66.9312H133.807V80.3173H147.193V66.9312Z" fill="#F9F9F9"/>
<path d="M147.193 53.5439H133.807V66.9301H147.193V53.5439Z" fill="#F9F9F9"/>
<path d="M147.193 40.1592H133.807V53.5453H147.193V40.1592Z" fill="#F9F9F9"/>
<path d="M147.193 26.772H133.807V40.1581H147.193V26.772Z" fill="#F9F9F9"/>
<path d="M147.193 13.3872H133.807V26.7733H147.193V13.3872Z" fill="#F9F9F9"/>
<path d="M147.193 0H133.807V13.3861H147.193V0Z" fill="#F9F9F9"/>
<path d="M133.807 120.475H120.421V133.861H133.807V120.475Z" fill="#F9F9F9"/>
<path d="M133.807 107.087H120.421V120.474H133.807V107.087Z" fill="#F9F9F9"/>
<path d="M133.807 93.7031H120.421V107.089H133.807V93.7031Z" fill="#F9F9F9"/>
<path d="M133.807 80.3154H120.421V93.7016H133.807V80.3154Z" fill="#F9F9F9"/>
<path d="M133.807 66.9312H120.421V80.3173H133.807V66.9312Z" fill="#F9F9F9"/>
<path d="M133.807 53.5439H120.421V66.9301H133.807V53.5439Z" fill="#F9F9F9"/>
<path d="M133.807 40.1592H120.421V53.5453H133.807V40.1592Z" fill="#F9F9F9"/>
<path d="M133.807 26.772H120.421V40.1581H133.807V26.772Z" fill="#F9F9F9"/>
<path d="M133.807 13.3872H120.421V26.7733H133.807V13.3872Z" fill="#F9F9F9"/>
<path d="M133.807 0H120.421V13.3861H133.807V0Z" fill="#F9F9F9"/>
<path d="M120.421 120.475H107.035V133.861H120.421V120.475Z" fill="#F9F9F9"/>
<path d="M120.421 107.087H107.035V120.474H120.421V107.087Z" fill="#F9F9F9"/>
<path d="M120.421 93.7031H107.035V107.089H120.421V93.7031Z" fill="#F9F9F9"/>
<path d="M120.421 80.3154H107.035V93.7016H120.421V80.3154Z" fill="#F9F9F9"/>
<path d="M120.421 66.9312H107.035V80.3173H120.421V66.9312Z" fill="#F9F9F9"/>
<path d="M120.421 53.5439H107.035V66.9301H120.421V53.5439Z" fill="#F9F9F9"/>
<path d="M120.421 40.1592H107.035V53.5453H120.421V40.1592Z" fill="#F9F9F9"/>
<path d="M120.421 26.772H107.035V40.1581H120.421V26.772Z" fill="#F9F9F9"/>
<path d="M120.421 13.3872H107.035V26.7733H120.421V13.3872Z" fill="#F9F9F9"/>
<path d="M120.421 0H107.035V13.3861H120.421V0Z" fill="#F9F9F9"/>
<path d="M107.035 120.475H93.6489V133.861H107.035V120.475Z" fill="#F9F9F9"/>
<path d="M107.035 107.087H93.6489V120.474H107.035V107.087Z" fill="#F9F9F9"/>
<path d="M107.035 93.7031H93.6489V107.089H107.035V93.7031Z" fill="#F9F9F9"/>
<path d="M107.035 80.3154H93.6489V93.7016H107.035V80.3154Z" fill="#F9F9F9"/>
<path d="M107.035 66.9312H93.6489V80.3173H107.035V66.9312Z" fill="#F9F9F9"/>
<path d="M107.035 53.5439H93.6489V66.9301H107.035V53.5439Z" fill="#F9F9F9"/>
<path d="M107.035 40.1592H93.6489V53.5453H107.035V40.1592Z" fill="#F9F9F9"/>
<path d="M107.035 26.772H93.6489V40.1581H107.035V26.772Z" fill="#F9F9F9"/>
<path d="M107.035 13.3872H93.6489V26.7733H107.035V13.3872Z" fill="#F9F9F9"/>
<path d="M107.035 0H93.6489V13.3861H107.035V0Z" fill="#F9F9F9"/>
<path d="M93.6488 120.475H80.2627V133.861H93.6488V120.475Z" fill="#F9F9F9"/>
<path d="M93.6488 107.087H80.2627V120.474H93.6488V107.087Z" fill="#F9F9F9"/>
<path d="M93.6488 93.7031H80.2627V107.089H93.6488V93.7031Z" fill="#F9F9F9"/>
<path d="M93.6488 80.3154H80.2627V93.7016H93.6488V80.3154Z" fill="#F9F9F9"/>
<path d="M93.6488 66.9312H80.2627V80.3173H93.6488V66.9312Z" fill="#F9F9F9"/>
<path d="M93.6488 53.5439H80.2627V66.9301H93.6488V53.5439Z" fill="#F9F9F9"/>
<path d="M93.6488 40.1592H80.2627V53.5453H93.6488V40.1592Z" fill="#F9F9F9"/>
<path d="M93.6488 26.772H80.2627V40.1581H93.6488V26.772Z" fill="#F9F9F9"/>
<path d="M93.6488 13.3872H80.2627V26.7733H93.6488V13.3872Z" fill="#F9F9F9"/>
<path d="M93.6488 0H80.2627V13.3861H93.6488V0Z" fill="#F9F9F9"/>
<path d="M80.2628 120.475H66.8767V133.861H80.2628V120.475Z" fill="#F9F9F9"/>
<path d="M80.2628 107.087H66.8767V120.474H80.2628V107.087Z" fill="#F9F9F9"/>
<path d="M80.2628 93.7031H66.8767V107.089H80.2628V93.7031Z" fill="#F9F9F9"/>
<path d="M80.2628 80.3154H66.8767V93.7016H80.2628V80.3154Z" fill="#F9F9F9"/>
<path d="M80.2628 66.9312H66.8767V80.3173H80.2628V66.9312Z" fill="#F9F9F9"/>
<path d="M80.2628 53.5439H66.8767V66.9301H80.2628V53.5439Z" fill="#F9F9F9"/>
<path d="M80.2628 40.1592H66.8767V53.5453H80.2628V40.1592Z" fill="#F9F9F9"/>
<path d="M80.2628 26.772H66.8767V40.1581H80.2628V26.772Z" fill="#F9F9F9"/>
<path d="M80.2628 13.3872H66.8767V26.7733H80.2628V13.3872Z" fill="#F9F9F9"/>
<path d="M80.2628 0H66.8767V13.3861H80.2628V0Z" fill="#F9F9F9"/>
<path d="M66.8759 120.475H53.5439V133.861H66.8759V120.475Z" fill="#F9F9F9"/>
<path d="M66.8759 107.087H53.5439V120.474H66.8759V107.087Z" fill="#F9F9F9"/>
<path d="M66.8759 93.7031H53.5439V107.089H66.8759V93.7031Z" fill="#F9F9F9"/>
<path d="M66.8759 80.3154H53.5439V93.7016H66.8759V80.3154Z" fill="#F9F9F9"/>
<path d="M66.8759 66.9312H53.5439V80.3173H66.8759V66.9312Z" fill="#F9F9F9"/>
<path d="M66.8759 53.5439H53.5439V66.9301H66.8759V53.5439Z" fill="#F9F9F9"/>
<path d="M66.8759 40.1592H53.5439V53.5453H66.8759V40.1592Z" fill="#F9F9F9"/>
<path d="M66.8759 26.772H53.5439V40.1581H66.8759V26.772Z" fill="#F9F9F9"/>
<path d="M66.8759 13.3872H53.5439V26.7733H66.8759V13.3872Z" fill="#F9F9F9"/>
<path d="M66.8759 0H53.5439V13.3861H66.8759V0Z" fill="#F9F9F9"/>
<path d="M53.544 107.087H40.1578V120.474H53.544V107.087Z" fill="#F9F9F9"/>
<path d="M53.544 93.7031H40.1578V107.089H53.544V93.7031Z" fill="#F9F9F9"/>
<path d="M53.544 80.3154H40.1578V93.7016H53.544V80.3154Z" fill="#F9F9F9"/>
<path d="M53.544 66.9312H40.1578V80.3173H53.544V66.9312Z" fill="#F9F9F9"/>
<path d="M53.544 53.5439H40.1578V66.9301H53.544V53.5439Z" fill="#F9F9F9"/>
<path d="M53.544 40.1592H40.1578V53.5453H53.544V40.1592Z" fill="#F9F9F9"/>
<path d="M53.544 26.772H40.1578V40.1581H53.544V26.772Z" fill="#F9F9F9"/>
<path d="M53.544 13.3872H40.1578V26.7733H53.544V13.3872Z" fill="#F9F9F9"/>
<path d="M40.158 107.087H26.7719V120.474H40.158V107.087Z" fill="#F9F9F9"/>
<path d="M40.158 93.7031H26.7719V107.089H40.158V93.7031Z" fill="#F9F9F9"/>
<path d="M40.158 80.3154H26.7719V93.7016H40.158V80.3154Z" fill="#F9F9F9"/>
<path d="M40.158 66.9312H26.7719V80.3173H40.158V66.9312Z" fill="#F9F9F9"/>
<path d="M40.158 53.5439H26.7719V66.9301H40.158V53.5439Z" fill="#F9F9F9"/>
<path d="M40.158 40.1592H26.7719V53.5453H40.158V40.1592Z" fill="#F9F9F9"/>
<path d="M40.158 26.772H26.7719V40.1581H40.158V26.772Z" fill="#F9F9F9"/>
<path d="M40.158 13.3872H26.7719V26.7733H40.158V13.3872Z" fill="#F9F9F9"/>
<path d="M26.7722 93.7031H13.3861V107.089H26.7722V93.7031Z" fill="#F9F9F9"/>
<path d="M26.7722 80.3154H13.3861V93.7016H26.7722V80.3154Z" fill="#F9F9F9"/>
<path d="M26.7722 66.9312H13.3861V80.3173H26.7722V66.9312Z" fill="#F9F9F9"/>
<path d="M26.7722 53.5439H13.3861V66.9301H26.7722V53.5439Z" fill="#F9F9F9"/>
<path d="M26.7722 40.1592H13.3861V53.5453H26.7722V40.1592Z" fill="#F9F9F9"/>
<path d="M26.7722 26.772H13.3861V40.1581H26.7722V26.772Z" fill="#F9F9F9"/>
<path d="M13.3861 93.7031H0V107.089H13.3861V93.7031Z" fill="#F9F9F9"/>
<path d="M13.3861 80.3154H0V93.7016H13.3861V80.3154Z" fill="#F9F9F9"/>
<path d="M13.3861 66.9312H0V80.3173H13.3861V66.9312Z" fill="#F9F9F9"/>
<path d="M13.3861 53.5439H0V66.9301H13.3861V53.5439Z" fill="#F9F9F9"/>
</g>
<path d="M45 70.9135V49.3077H63.5192V52.3943H66.6057V61.6539H63.5192V64.7404H51.1731V70.9135H45ZM51.1731 61.6539H60.4327V52.3943H51.1731V61.6539ZM72.7788 70.9135V67.8269H78.9519V52.3943H75.8653V49.3077H85.1249V67.8269H91.298V70.9135H72.7788ZM97.471 70.9135V67.8269H94.3845V58.5673H97.471V55.4808H112.904V58.5673H115.99V64.7404H100.558V67.8269H112.904V70.9135H97.471ZM100.558 61.6539H109.817V58.5673H100.558V61.6539ZM122.163 70.9135V67.8269H119.077V64.7404H122.163V61.6539H134.509V58.5673H122.163V55.4808H137.596V58.5673H140.682V70.9135H122.163ZM125.25 67.8269H134.509V64.7404H125.25V67.8269ZM143.769 70.9135V67.8269H159.202V64.7404H146.856V61.6539H143.769V58.5673H146.856V55.4808H162.288V58.5673H149.942V61.6539H162.288V64.7404H165.375V67.8269H162.288V70.9135H143.769ZM171.548 70.9135V67.8269H168.461V58.5673H171.548V55.4808H186.98V58.5673H190.067V64.7404H174.634V67.8269H186.98V70.9135H171.548ZM174.634 61.6539H183.894V58.5673H174.634V61.6539ZM51.1731 92.8269H54.2596V95.9135H48.0865V92.8269H45V80.4808H51.1731V92.8269ZM57.3461 80.4808V92.8269H54.2596V80.4808H57.3461ZM66.6057 80.4808V92.8269H63.5192V95.9135H57.3461V92.8269H60.4327V80.4808H66.6057ZM72.7788 95.9135V92.8269H69.6923V89.7404H72.7788V86.6539H85.1249V83.5673H72.7788V80.4808H88.2114V83.5673H91.298V95.9135H72.7788ZM75.8653 92.8269H85.1249V89.7404H75.8653V92.8269ZM103.644 77.3943V74.3077H109.817V77.3943H103.644ZM97.471 95.9135V92.8269H103.644V83.5673H100.558V80.4808H109.817V92.8269H115.99V95.9135H97.471ZM128.336 95.9135V83.5673H122.163V80.4808H128.336V74.3077H134.509V80.4808H140.682V83.5673H134.509V95.9135H128.336Z" fill="#8C8C8C"/>
<defs>
<clipPath id="clip0">
<rect width="281" height="173.965" fill="white"/>
</clipPath>
</defs>
</svg>
