<svg width="106" height="156" viewBox="0 0 106 156" fill="none" xmlns="http://www.w3.org/2000/svg">
<path d="M105.526 110.119H100.938V114.707H105.526V110.119Z" fill="#F26403"/>
<path d="M105.526 105.531H100.938V110.119H105.526V105.531Z" fill="#F26403"/>
<path d="M105.526 100.943H100.938V105.531H105.526V100.943Z" fill="#F26403"/>
<path d="M105.526 96.355H100.938V100.943H105.526V96.355Z" fill="#F26403"/>
<path d="M105.526 91.7666H100.938V96.3547H105.526V91.7666Z" fill="#F26403"/>
<path d="M100.938 119.295H96.3496V123.883H100.938V119.295Z" fill="#F26403"/>
<path d="M100.938 114.707H96.3496V119.295H100.938V114.707Z" fill="#F26403"/>
<path d="M100.938 110.119H96.3496V114.707H100.938V110.119Z" fill="#F2C900"/>
<path d="M100.938 105.531H96.3496V110.119H100.938V105.531Z" fill="#F2C900"/>
<path d="M100.938 100.943H96.3496V105.531H100.938V100.943Z" fill="#F2C900"/>
<path d="M100.938 96.355H96.3496V100.943H100.938V96.355Z" fill="#F2C900"/>
<path d="M100.938 91.7666H96.3496V96.3547H100.938V91.7666Z" fill="#F2C900"/>
<path d="M100.938 87.1787H96.3496V91.7668H100.938V87.1787Z" fill="#F26403"/>
<path d="M100.938 82.5908H96.3496V87.1789H100.938V82.5908Z" fill="#F26403"/>
<path d="M96.3498 128.471H91.7617V133.059H96.3498V128.471Z" fill="#F26403"/>
<path d="M96.3498 123.883H91.7617V128.471H96.3498V123.883Z" fill="#F26403"/>
<path d="M96.3498 119.295H91.7617V123.883H96.3498V119.295Z" fill="#F2C900"/>
<path d="M96.3498 114.707H91.7617V119.295H96.3498V114.707Z" fill="#F2C900"/>
<path d="M96.3498 110.119H91.7617V114.707H96.3498V110.119Z" fill="#F2C900"/>
<path d="M96.3498 105.531H91.7617V110.119H96.3498V105.531Z" fill="#F2C900"/>
<path d="M96.3498 100.943H91.7617V105.531H96.3498V100.943Z" fill="#F2C900"/>
<path d="M96.3498 96.355H91.7617V100.943H96.3498V96.355Z" fill="#F2C900"/>
<path d="M96.3498 91.7666H91.7617V96.3547H96.3498V91.7666Z" fill="#F2C900"/>
<path d="M96.3498 87.1787H91.7617V91.7668H96.3498V87.1787Z" fill="#F2C900"/>
<path d="M96.3498 82.5908H91.7617V87.1789H96.3498V82.5908Z" fill="#F2C900"/>
<path d="M96.3498 78.0024H91.7617V82.5905H96.3498V78.0024Z" fill="#F26403"/>
<path d="M96.3498 73.4146H91.7617V78.0026H96.3498V73.4146Z" fill="#F26403"/>
<path d="M91.7614 133.06H87.1733V137.648H91.7614V133.06Z" fill="#F26403"/>
<path d="M91.7614 128.471H87.1733V133.059H91.7614V128.471Z" fill="#F2C900"/>
<path d="M91.7614 78.0024H87.1733V82.5905H91.7614V78.0024Z" fill="#F2C900"/>
<path d="M91.7614 73.4146H87.1733V78.0026H91.7614V73.4146Z" fill="#F2C900"/>
<path d="M91.7614 68.8262H87.1733V73.4143H91.7614V68.8262Z" fill="#F26403"/>
<path d="M87.1735 137.648H82.5854V142.236H87.1735V137.648Z" fill="#F26403"/>
<path d="M87.1735 133.06H82.5854V137.648H87.1735V133.06Z" fill="#F2C900"/>
<path d="M87.1735 73.4146H82.5854V78.0026H87.1735V73.4146Z" fill="#F2C900"/>
<path d="M87.1735 68.8262H82.5854V73.4143H87.1735V68.8262Z" fill="#F2C900"/>
<path d="M87.1735 64.2383H82.5854V68.8264H87.1735V64.2383Z" fill="#F26403"/>
<path d="M82.5854 142.236H77.9973V146.824H82.5854V142.236Z" fill="#F26403"/>
<path d="M82.5854 137.648H77.9973V142.236H82.5854V137.648Z" fill="#F26403"/>
<path d="M82.5854 133.06H77.9973V137.648H82.5854V133.06Z" fill="#F2C900"/>
<path d="M82.5854 110.119H77.9973V114.707H82.5854V110.119Z" fill="#0600F4"/>
<path d="M82.5854 105.531H77.9973V110.119H82.5854V105.531Z" fill="#0600F4"/>
<path d="M82.5854 100.943H77.9973V105.531H82.5854V100.943Z" fill="#0600F4"/>
<path d="M82.5854 91.7666H77.9973V96.3547H82.5854V91.7666Z" fill="#0600F4"/>
<path d="M82.5854 68.8262H77.9973V73.4143H82.5854V68.8262Z" fill="white"/>
<path d="M82.5854 64.2383H77.9973V68.8264H82.5854V64.2383Z" fill="#F2C900"/>
<path d="M82.5854 59.6504H77.9973V64.2385H82.5854V59.6504Z" fill="#F26403"/>
<path d="M77.9973 142.236H73.4092V146.824H77.9973V142.236Z" fill="#F26403"/>
<path d="M77.9973 137.648H73.4092V142.236H77.9973V137.648Z" fill="#F2C900"/>
<path d="M77.9973 133.06H73.4092V137.648H77.9973V133.06Z" fill="#F2C900"/>
<path d="M77.9973 110.119H73.4092V114.707H77.9973V110.119Z" fill="#0600F4"/>
<path d="M77.9973 100.943H73.4092V105.531H77.9973V100.943Z" fill="#0600F4"/>
<path d="M77.9973 91.7666H73.4092V96.3547H77.9973V91.7666Z" fill="#0600F4"/>
<path d="M77.9973 68.8262H73.4092V73.4143H77.9973V68.8262Z" fill="white"/>
<path d="M77.9973 64.2383H73.4092V68.8264H77.9973V64.2383Z" fill="#F2C900"/>
<path d="M77.9973 59.6504H73.4092V64.2385H77.9973V59.6504Z" fill="#F26403"/>
<path d="M73.4091 146.824H68.821V151.412H73.4091V146.824Z" fill="#F26403"/>
<path d="M73.4091 142.236H68.821V146.824H73.4091V142.236Z" fill="#F2C900"/>
<path d="M73.4091 137.648H68.821V142.236H73.4091V137.648Z" fill="#F2C900"/>
<path d="M73.4091 133.06H68.821V137.648H73.4091V133.06Z" fill="#F2C900"/>
<path d="M73.4091 110.119H68.821V114.707H73.4091V110.119Z" fill="#0600F4"/>
<path d="M73.4091 105.531H68.821V110.119H73.4091V105.531Z" fill="#0600F4"/>
<path d="M73.4091 100.943H68.821V105.531H73.4091V100.943Z" fill="#0600F4"/>
<path d="M73.4091 96.355H68.821V100.943H73.4091V96.355Z" fill="#0600F4"/>
<path d="M73.4091 91.7666H68.821V96.3547H73.4091V91.7666Z" fill="#0600F4"/>
<path d="M73.4091 68.8262H68.821V73.4143H73.4091V68.8262Z" fill="#F2C900"/>
<path d="M73.4091 64.2383H68.821V68.8264H73.4091V64.2383Z" fill="white"/>
<path d="M73.4091 59.6504H68.821V64.2385H73.4091V59.6504Z" fill="#F2C900"/>
<path d="M73.4091 55.062H68.821V59.6501H73.4091V55.062Z" fill="#F26403"/>
<path d="M68.8212 146.824H64.2332V151.412H68.8212V146.824Z" fill="#F26403"/>
<path d="M68.8212 142.236H64.2332V146.824H68.8212V142.236Z" fill="#F2C900"/>
<path d="M68.8212 137.648H64.2332V142.236H68.8212V137.648Z" fill="#F2C900"/>
<path d="M68.8212 133.06H64.2332V137.648H68.8212V133.06Z" fill="#F2C900"/>
<path d="M68.8212 68.8262H64.2332V73.4143H68.8212V68.8262Z" fill="#F2C900"/>
<path d="M68.8212 64.2383H64.2332V68.8264H68.8212V64.2383Z" fill="white"/>
<path d="M68.8212 59.6504H64.2332V64.2385H68.8212V59.6504Z" fill="#F2C900"/>
<path d="M68.8212 55.062H64.2332V59.6501H68.8212V55.062Z" fill="#F26403"/>
<path d="M64.2331 151.412H59.645V156H64.2331V151.412Z" fill="#F26403"/>
<path d="M64.2331 146.824H59.645V151.412H64.2331V146.824Z" fill="#F2C900"/>
<path d="M64.2331 142.236H59.645V146.824H64.2331V142.236Z" fill="#F2C900"/>
<path d="M64.2331 137.648H59.645V142.236H64.2331V137.648Z" fill="#F2C900"/>
<path d="M64.2331 133.06H59.645V137.648H64.2331V133.06Z" fill="#F2C900"/>
<path d="M64.2331 110.119H59.645V114.707H64.2331V110.119Z" fill="#0600F4"/>
<path d="M64.2331 105.531H59.645V110.119H64.2331V105.531Z" fill="#0600F4"/>
<path d="M64.2331 100.943H59.645V105.531H64.2331V100.943Z" fill="#0600F4"/>
<path d="M64.2331 96.355H59.645V100.943H64.2331V96.355Z" fill="#0600F4"/>
<path d="M64.2331 91.7666H59.645V96.3547H64.2331V91.7666Z" fill="#0600F4"/>
<path d="M64.2331 68.8262H59.645V73.4143H64.2331V68.8262Z" fill="#F2C900"/>
<path d="M64.2331 64.2383H59.645V68.8264H64.2331V64.2383Z" fill="#F2C900"/>
<path d="M64.2331 59.6504H59.645V64.2385H64.2331V59.6504Z" fill="white"/>
<path d="M64.2331 55.062H59.645V59.6501H64.2331V55.062Z" fill="#F2C900"/>
<path d="M64.2331 50.4741H59.645V55.0622H64.2331V50.4741Z" fill="#F26403"/>
<path d="M59.645 151.412H55.0569V156H59.645V151.412Z" fill="#F26403"/>
<path d="M59.645 146.824H55.0569V151.412H59.645V146.824Z" fill="#F2C900"/>
<path d="M59.645 142.236H55.0569V146.824H59.645V142.236Z" fill="#F2C900"/>
<path d="M59.645 137.648H55.0569V142.236H59.645V137.648Z" fill="#F2C900"/>
<path d="M59.645 133.06H55.0569V137.648H59.645V133.06Z" fill="#F2C900"/>
<path d="M59.645 110.119H55.0569V114.707H59.645V110.119Z" fill="#0600F4"/>
<path d="M59.645 91.7666H55.0569V96.3547H59.645V91.7666Z" fill="#0600F4"/>
<path d="M59.645 68.8262H55.0569V73.4143H59.645V68.8262Z" fill="#F2C900"/>
<path d="M59.645 64.2383H55.0569V68.8264H59.645V64.2383Z" fill="#F2C900"/>
<path d="M59.645 59.6504H55.0569V64.2385H59.645V59.6504Z" fill="white"/>
<path d="M59.645 55.062H55.0569V59.6501H59.645V55.062Z" fill="#F2C900"/>
<path d="M59.645 50.4741H55.0569V55.0622H59.645V50.4741Z" fill="#F26403"/>
<path d="M55.0568 151.412H50.4688V156H55.0568V151.412Z" fill="#F26403"/>
<path d="M55.0568 146.824H50.4688V151.412H55.0568V146.824Z" fill="#F2C900"/>
<path d="M55.0568 142.236H50.4688V146.824H55.0568V142.236Z" fill="#F2C900"/>
<path d="M55.0568 137.648H50.4688V142.236H55.0568V137.648Z" fill="#F2C900"/>
<path d="M55.0568 133.06H50.4688V137.648H55.0568V133.06Z" fill="#F2C900"/>
<path d="M55.0568 110.119H50.4688V114.707H55.0568V110.119Z" fill="#0600F4"/>
<path d="M55.0568 105.531H50.4688V110.119H55.0568V105.531Z" fill="#0600F4"/>
<path d="M55.0568 100.943H50.4688V105.531H55.0568V100.943Z" fill="#0600F4"/>
<path d="M55.0568 96.355H50.4688V100.943H55.0568V96.355Z" fill="#0600F4"/>
<path d="M55.0568 91.7666H50.4688V96.3547H55.0568V91.7666Z" fill="#0600F4"/>
<path d="M55.0568 68.8262H50.4688V73.4143H55.0568V68.8262Z" fill="#F2C900"/>
<path d="M55.0568 64.2383H50.4688V68.8264H55.0568V64.2383Z" fill="#F2C900"/>
<path d="M55.0568 59.6504H50.4688V64.2385H55.0568V59.6504Z" fill="#F2C900"/>
<path d="M55.0568 55.062H50.4688V59.6501H55.0568V55.062Z" fill="#F2C900"/>
<path d="M55.0568 50.4741H50.4688V55.0622H55.0568V50.4741Z" fill="#F26403"/>
<path d="M50.4689 151.412H45.8809V156H50.4689V151.412Z" fill="#F26403"/>
<path d="M50.4689 146.824H45.8809V151.412H50.4689V146.824Z" fill="#F2C900"/>
<path d="M50.4689 142.236H45.8809V146.824H50.4689V142.236Z" fill="#F2C900"/>
<path d="M50.4689 137.648H45.8809V142.236H50.4689V137.648Z" fill="#F2C900"/>
<path d="M50.4689 133.06H45.8809V137.648H50.4689V133.06Z" fill="#F2C900"/>
<path d="M50.4689 68.8262H45.8809V73.4143H50.4689V68.8262Z" fill="#F2C900"/>
<path d="M50.4689 64.2383H45.8809V68.8264H50.4689V64.2383Z" fill="#F2C900"/>
<path d="M50.4689 59.6504H45.8809V64.2385H50.4689V59.6504Z" fill="#F2C900"/>
<path d="M50.4689 55.062H45.8809V59.6501H50.4689V55.062Z" fill="#F2C900"/>
<path d="M50.4689 50.4741H45.8809V55.0622H50.4689V50.4741Z" fill="#F26403"/>
<path d="M45.8808 151.412H41.2927V156H45.8808V151.412Z" fill="#F26403"/>
<path d="M45.8808 146.824H41.2927V151.412H45.8808V146.824Z" fill="#F2C900"/>
<path d="M45.8808 142.236H41.2927V146.824H45.8808V142.236Z" fill="#F2C900"/>
<path d="M45.8808 137.648H41.2927V142.236H45.8808V137.648Z" fill="#F2C900"/>
<path d="M45.8808 133.06H41.2927V137.648H45.8808V133.06Z" fill="#F2C900"/>
<path d="M45.8808 114.707H41.2927V119.295H45.8808V114.707Z" fill="#0600F4"/>
<path d="M45.8808 110.119H41.2927V114.707H45.8808V110.119Z" fill="#0600F4"/>
<path d="M45.8808 68.8262H41.2927V73.4143H45.8808V68.8262Z" fill="#F2C900"/>
<path d="M45.8808 59.6504H41.2927V64.2385H45.8808V59.6504Z" fill="#F2C900"/>
<path d="M45.8808 55.062H41.2927V59.6501H45.8808V55.062Z" fill="#F2C900"/>
<path d="M45.8808 50.4741H41.2927V55.0622H45.8808V50.4741Z" fill="#F26403"/>
<path d="M41.2927 146.824H36.7046V151.412H41.2927V146.824Z" fill="#F26403"/>
<path d="M41.2927 142.236H36.7046V146.824H41.2927V142.236Z" fill="#F2C900"/>
<path d="M41.2927 137.648H36.7046V142.236H41.2927V137.648Z" fill="#F2C900"/>
<path d="M41.2927 133.06H36.7046V137.648H41.2927V133.06Z" fill="#F2C900"/>
<path d="M41.2927 68.8262H36.7046V73.4143H41.2927V68.8262Z" fill="#F2C900"/>
<path d="M41.2927 64.2383H36.7046V68.8264H41.2927V64.2383Z" fill="#F2C900"/>
<path d="M45.8808 64.2383H41.2927V68.8264H45.8808V64.2383Z" fill="#F2C900"/>
<path d="M41.2927 59.6504H36.7046V64.2385H41.2927V59.6504Z" fill="#F2C900"/>
<path d="M41.2927 55.062H36.7046V59.6501H41.2927V55.062Z" fill="#F26403"/>
<path d="M36.7045 146.824H32.1165V151.412H36.7045V146.824Z" fill="#F26403"/>
<path d="M36.7045 142.236H32.1165V146.824H36.7045V142.236Z" fill="#F2C900"/>
<path d="M36.7045 137.648H32.1165V142.236H36.7045V137.648Z" fill="#F2C900"/>
<path d="M36.7045 133.06H32.1165V137.648H36.7045V133.06Z" fill="#F2C900"/>
<path d="M36.7045 110.119H32.1165V114.707H36.7045V110.119Z" fill="#0600F4"/>
<path d="M36.7045 105.531H32.1165V110.119H36.7045V105.531Z" fill="#0600F4"/>
<path d="M36.7045 100.943H32.1165V105.531H36.7045V100.943Z" fill="#0600F4"/>
<path d="M36.7045 96.355H32.1165V100.943H36.7045V96.355Z" fill="#0600F4"/>
<path d="M36.7045 91.7666H32.1165V96.3547H36.7045V91.7666Z" fill="#0600F4"/>
<path d="M36.7045 68.8262H32.1165V73.4143H36.7045V68.8262Z" fill="#F2C900"/>
<path d="M36.7045 64.2383H32.1165V68.8264H36.7045V64.2383Z" fill="#F2C900"/>
<path d="M36.7045 59.6504H32.1165V64.2385H36.7045V59.6504Z" fill="#F2C900"/>
<path d="M36.7045 55.062H32.1165V59.6501H36.7045V55.062Z" fill="#F26403"/>
<path d="M32.1166 142.236H27.5286V146.824H32.1166V142.236Z" fill="#F26403"/>
<path d="M32.1166 137.648H27.5286V142.236H32.1166V137.648Z" fill="#F2C900"/>
<path d="M32.1166 133.06H27.5286V137.648H32.1166V133.06Z" fill="#F2C900"/>
<path d="M32.1166 110.119H27.5286V114.707H32.1166V110.119Z" fill="#0600F4"/>
<path d="M32.1166 91.7666H27.5286V96.3547H32.1166V91.7666Z" fill="#0600F4"/>
<path d="M32.1166 68.8262H27.5286V73.4143H32.1166V68.8262Z" fill="#F2C900"/>
<path d="M32.1166 64.2383H27.5286V68.8264H32.1166V64.2383Z" fill="#F2C900"/>
<path d="M32.1166 59.6504H27.5286V64.2385H32.1166V59.6504Z" fill="#F26403"/>
<path d="M27.5283 142.236H22.9402V146.824H27.5283V142.236Z" fill="#F26403"/>
<path d="M27.5283 137.648H22.9402V142.236H27.5283V137.648Z" fill="#F2C900"/>
<path d="M27.5283 133.06H22.9402V137.648H27.5283V133.06Z" fill="#F2C900"/>
<path d="M27.5283 110.119H22.9402V114.707H27.5283V110.119Z" fill="#0600F4"/>
<path d="M27.5283 105.531H22.9402V110.119H27.5283V105.531Z" fill="#0600F4"/>
<path d="M27.5283 100.943H22.9402V105.531H27.5283V100.943Z" fill="#0600F4"/>
<path d="M32.1166 96.355H27.5286V110.119H32.1166V96.355Z" fill="#F2C900"/>
<path d="M27.5283 96.355H22.9402V100.943H27.5283V96.355Z" fill="#0600F4"/>
<path d="M27.5283 91.7666H22.9402V96.3547H27.5283V91.7666Z" fill="#0600F4"/>
<path d="M27.5283 68.8262H22.9402V73.4143H27.5283V68.8262Z" fill="#F2C900"/>
<path d="M27.5283 64.2383H22.9402V68.8264H27.5283V64.2383Z" fill="#F2C900"/>
<path d="M27.5283 59.6504H22.9402V64.2385H27.5283V59.6504Z" fill="#F26403"/>
<path d="M22.9404 137.648H18.3523V142.236H22.9404V137.648Z" fill="#F26403"/>
<path d="M22.9404 133.06H18.3523V137.648H22.9404V133.06Z" fill="#F2C900"/>
<path d="M22.9404 128.471H18.3523V133.059H22.9404V128.471Z" fill="#F2C900"/>
<path d="M22.9404 123.883H18.3523V128.471H22.9404V123.883Z" fill="#F2C900"/>
<path d="M22.9404 119.295H18.3523V123.883H22.9404V119.295Z" fill="#F2C900"/>
<path d="M22.9404 114.707H18.3523V119.295H22.9404V114.707Z" fill="#F2C900"/>
<path d="M22.9404 110.119H18.3523V114.707H22.9404V110.119Z" fill="#F2C900"/>
<path d="M22.9404 105.531H18.3523V110.119H22.9404V105.531Z" fill="#F2C900"/>
<path d="M22.9404 100.943H18.3523V105.531H22.9404V100.943Z" fill="#F2C900"/>
<path d="M22.9404 96.355H18.3523V100.943H22.9404V96.355Z" fill="#F2C900"/>
<path d="M22.9404 91.7666H18.3523V96.3547H22.9404V91.7666Z" fill="#F2C900"/>
<path d="M22.9404 87.1787H18.3523V91.7668H22.9404V87.1787Z" fill="#F2C900"/>
<path d="M22.9404 82.5908H18.3523V87.1789H22.9404V82.5908Z" fill="#F2C900"/>
<path d="M22.9404 78.0024H18.3523V82.5905H22.9404V78.0024Z" fill="#F2C900"/>
<path d="M87.1734 82.5905V78.0024H82.5853V73.4194H22.9402V91.7718H36.7147V114.712H22.9505V133.065H87.1734V128.476H91.7615V82.5956L87.1734 82.5905ZM45.8806 119.295H41.2926V110.119H45.8806V119.295ZM64.233 114.707H50.4687V91.7666H64.233V114.707ZM82.5853 96.3547H73.4092V100.943H82.5853V114.707H68.8211V91.7666H82.5853V96.3547Z" fill="#F2C900"/>
<path d="M77.9973 105.531H73.4092V110.119H77.9973V105.531Z" fill="#F2C900"/>
<path d="M59.645 96.355H55.0569V110.119H59.645V96.355Z" fill="#F2C900"/>
<path d="M22.9404 73.4146H18.3523V78.0026H22.9404V73.4146Z" fill="#F2C900"/>
<path d="M22.9404 68.8262H18.3523V73.4143H22.9404V68.8262Z" fill="#F2C900"/>
<path d="M22.9404 64.2383H18.3523V68.8264H22.9404V64.2383Z" fill="#F26403"/>
<path d="M18.3522 133.06H13.7642V137.648H18.3522V133.06Z" fill="#F26403"/>
<path d="M18.3522 128.471H13.7642V133.059H18.3522V128.471Z" fill="#F26403"/>
<path d="M18.3522 123.883H13.7642V128.471H18.3522V123.883Z" fill="#F2C900"/>
<path d="M18.3522 119.295H13.7642V123.883H18.3522V119.295Z" fill="#F2C900"/>
<path d="M18.3522 114.707H13.7642V119.295H18.3522V114.707Z" fill="#F2C900"/>
<path d="M18.3522 110.119H13.7642V114.707H18.3522V110.119Z" fill="#F2C900"/>
<path d="M18.3522 105.531H13.7642V110.119H18.3522V105.531Z" fill="#F2C900"/>
<path d="M18.3522 100.943H13.7642V105.531H18.3522V100.943Z" fill="#F2C900"/>
<path d="M18.3522 96.355H13.7642V100.943H18.3522V96.355Z" fill="#F2C900"/>
<path d="M18.3522 91.7666H13.7642V96.3547H18.3522V91.7666Z" fill="#F2C900"/>
<path d="M18.3522 87.1787H13.7642V91.7668H18.3522V87.1787Z" fill="#F2C900"/>
<path d="M18.3522 82.5908H13.7642V87.1789H18.3522V82.5908Z" fill="#F2C900"/>
<path d="M18.3522 78.0024H13.7642V82.5905H18.3522V78.0024Z" fill="#F2C900"/>
<path d="M18.3522 73.4146H13.7642V78.0026H18.3522V73.4146Z" fill="#F26403"/>
<path d="M18.3522 68.8262H13.7642V73.4143H18.3522V68.8262Z" fill="#F26403"/>
<path d="M13.7641 128.471H9.17603V133.059H13.7641V128.471Z" fill="#F26403"/>
<path d="M13.7641 123.883H9.17603V128.471H13.7641V123.883Z" fill="#F26403"/>
<path d="M13.7641 119.295H9.17603V123.883H13.7641V119.295Z" fill="#F2C900"/>
<path d="M13.7641 114.707H9.17603V119.295H13.7641V114.707Z" fill="#F2C900"/>
<path d="M13.7641 110.119H9.17603V114.707H13.7641V110.119Z" fill="#F2C900"/>
<path d="M13.7641 105.531H9.17603V110.119H13.7641V105.531Z" fill="#F2C900"/>
<path d="M13.7641 100.943H9.17603V105.531H13.7641V100.943Z" fill="#F2C900"/>
<path d="M13.7641 96.355H9.17603V100.943H13.7641V96.355Z" fill="#F2C900"/>
<path d="M13.7641 91.7666H9.17603V96.3547H13.7641V91.7666Z" fill="#F2C900"/>
<path d="M13.7641 87.1787H9.17603V91.7668H13.7641V87.1787Z" fill="#F2C900"/>
<path d="M13.7641 82.5908H9.17603V87.1789H13.7641V82.5908Z" fill="#F2C900"/>
<path d="M13.7641 78.0024H9.17603V82.5905H13.7641V78.0024Z" fill="#F26403"/>
<path d="M13.7641 73.4146H9.17603V78.0026H13.7641V73.4146Z" fill="#F26403"/>
<path d="M9.17597 119.295H4.58789V123.883H9.17597V119.295Z" fill="#F26403"/>
<path d="M9.17597 114.707H4.58789V119.295H9.17597V114.707Z" fill="#F26403"/>
<path d="M9.17597 110.119H4.58789V114.707H9.17597V110.119Z" fill="#F2C900"/>
<path d="M9.17597 105.531H4.58789V110.119H9.17597V105.531Z" fill="#F2C900"/>
<path d="M9.17597 100.943H4.58789V105.531H9.17597V100.943Z" fill="#F2C900"/>
<path d="M9.17597 96.355H4.58789V100.943H9.17597V96.355Z" fill="#F2C900"/>
<path d="M9.17597 91.7666H4.58789V96.3547H9.17597V91.7666Z" fill="#F2C900"/>
<path d="M9.17597 87.1787H4.58789V91.7668H9.17597V87.1787Z" fill="#F26403"/>
<path d="M9.17597 82.5908H4.58789V87.1789H9.17597V82.5908Z" fill="#F26403"/>
<path d="M4.58808 110.119H0V114.707H4.58808V110.119Z" fill="#F26403"/>
<path d="M4.58808 105.531H0V110.119H4.58808V105.531Z" fill="#F26403"/>
<path d="M4.58808 100.943H0V105.531H4.58808V100.943Z" fill="#F26403"/>
<path d="M4.58808 96.355H0V100.943H4.58808V96.355Z" fill="#F26403"/>
<path d="M4.58808 91.7666H0V96.3547H4.58808V91.7666Z" fill="#F26403"/>
<path d="M100.938 61.9419H96.3496V66.53H100.938V61.9419Z" fill="#F26403"/>
<path d="M100.938 57.3535H96.3496V61.9416H100.938V57.3535Z" fill="#F26403"/>
<path d="M96.3498 61.9419H91.7617V66.53H96.3498V61.9419Z" fill="#F2C900"/>
<path d="M96.3498 57.3535H91.7617V61.9416H96.3498V57.3535Z" fill="#F2C900"/>
<path d="M96.3498 52.7656H91.7617V57.3537H96.3498V52.7656Z" fill="#F26403"/>
<path d="M96.3498 48.1772H91.7617V52.7653H96.3498V48.1772Z" fill="#F26403"/>
<path d="M91.7614 52.7656H87.1733V57.3537H91.7614V52.7656Z" fill="#F2C900"/>
<path d="M91.7614 48.1772H87.1733V52.7653H91.7614V48.1772Z" fill="#F2C900"/>
<path d="M91.7614 43.5894H87.1733V48.1774H91.7614V43.5894Z" fill="#F26403"/>
<path d="M87.1735 48.1772H82.5854V52.7653H87.1735V48.1772Z" fill="#F2C900"/>
<path d="M87.1735 43.5894H82.5854V48.1774H87.1735V43.5894Z" fill="#F2C900"/>
<path d="M87.1735 39.0015H82.5854V43.5895H87.1735V39.0015Z" fill="#F26403"/>
<path d="M82.5854 43.5894H77.9973V48.1774H82.5854V43.5894Z" fill="white"/>
<path d="M82.5854 39.0015H77.9973V43.5895H82.5854V39.0015Z" fill="#F2C900"/>
<path d="M82.5854 34.4131H77.9973V39.0012H82.5854V34.4131Z" fill="#F26403"/>
<path d="M77.9973 43.5894H73.4092V48.1774H77.9973V43.5894Z" fill="white"/>
<path d="M77.9973 39.0015H73.4092V43.5895H77.9973V39.0015Z" fill="#F2C900"/>
<path d="M77.9973 34.4131H73.4092V39.0012H77.9973V34.4131Z" fill="#F26403"/>
<path d="M73.4091 39.0015H68.821V43.5895H73.4091V39.0015Z" fill="white"/>
<path d="M73.4091 34.4131H68.821V39.0012H73.4091V34.4131Z" fill="#F2C900"/>
<path d="M73.4091 29.8252H68.821V34.4133H73.4091V29.8252Z" fill="#F26403"/>
<path d="M68.8212 39.0015H64.2332V43.5895H68.8212V39.0015Z" fill="white"/>
<path d="M68.8212 34.4131H64.2332V39.0012H68.8212V34.4131Z" fill="#F2C900"/>
<path d="M68.8212 29.8252H64.2332V34.4133H68.8212V29.8252Z" fill="#F26403"/>
<path d="M64.2331 34.4131H59.645V39.0012H64.2331V34.4131Z" fill="white"/>
<path d="M64.2331 29.8252H59.645V34.4133H64.2331V29.8252Z" fill="#F2C900"/>
<path d="M64.2331 25.2373H59.645V29.8254H64.2331V25.2373Z" fill="#F26403"/>
<path d="M59.645 34.4131H55.0569V39.0012H59.645V34.4131Z" fill="white"/>
<path d="M59.645 29.8252H55.0569V34.4133H59.645V29.8252Z" fill="#F2C900"/>
<path d="M59.645 25.2373H55.0569V29.8254H59.645V25.2373Z" fill="#F26403"/>
<path d="M55.0568 34.4131H50.4688V39.0012H55.0568V34.4131Z" fill="#F2C900"/>
<path d="M55.0568 29.8252H50.4688V34.4133H55.0568V29.8252Z" fill="#F2C900"/>
<path d="M55.0568 25.2373H50.4688V29.8254H55.0568V25.2373Z" fill="#F26403"/>
<path d="M50.4689 34.4131H45.8809V39.0012H50.4689V34.4131Z" fill="#F2C900"/>
<path d="M50.4689 29.8252H45.8809V34.4133H50.4689V29.8252Z" fill="#F2C900"/>
<path d="M50.4689 25.2373H45.8809V29.8254H50.4689V25.2373Z" fill="#F26403"/>
<path d="M45.8808 34.4131H41.2927V39.0012H45.8808V34.4131Z" fill="#F2C900"/>
<path d="M45.8808 29.8252H41.2927V34.4133H45.8808V29.8252Z" fill="#F2C900"/>
<path d="M45.8808 25.2373H41.2927V29.8254H45.8808V25.2373Z" fill="#F26403"/>
<path d="M41.2927 39.0015H36.7046V43.5895H41.2927V39.0015Z" fill="#F2C900"/>
<path d="M41.2927 34.4131H36.7046V39.0012H41.2927V34.4131Z" fill="#F2C900"/>
<path d="M41.2927 29.8252H36.7046V34.4133H41.2927V29.8252Z" fill="#F26403"/>
<path d="M36.7045 39.0015H32.1165V43.5895H36.7045V39.0015Z" fill="#F2C900"/>
<path d="M36.7045 34.4131H32.1165V39.0012H36.7045V34.4131Z" fill="#F2C900"/>
<path d="M36.7045 29.8252H32.1165V34.4133H36.7045V29.8252Z" fill="#F26403"/>
<path d="M32.1166 43.5894H27.5286V48.1774H32.1166V43.5894Z" fill="#F2C900"/>
<path d="M32.1166 39.0015H27.5286V43.5895H32.1166V39.0015Z" fill="#F2C900"/>
<path d="M32.1166 34.4131H27.5286V39.0012H32.1166V34.4131Z" fill="#F26403"/>
<path d="M27.5283 43.5894H22.9402V48.1774H27.5283V43.5894Z" fill="#F2C900"/>
<path d="M27.5283 39.0015H22.9402V43.5895H27.5283V39.0015Z" fill="#F2C900"/>
<path d="M27.5283 34.4131H22.9402V39.0012H27.5283V34.4131Z" fill="#F26403"/>
<path d="M22.9404 52.7656H18.3523V57.3537H22.9404V52.7656Z" fill="#F2C900"/>
<path d="M22.9404 48.1772H18.3523V52.7653H22.9404V48.1772Z" fill="#F2C900"/>
<path d="M22.9404 43.5894H18.3523V48.1774H22.9404V43.5894Z" fill="#F2C900"/>
<path d="M22.9404 39.0015H18.3523V43.5895H22.9404V39.0015Z" fill="#F26403"/>
<path d="M18.3522 57.3535H13.7642V61.9416H18.3522V57.3535Z" fill="#F2C900"/>
<path d="M18.3522 52.7656H13.7642V57.3537H18.3522V52.7656Z" fill="#F2C900"/>
<path d="M18.3522 48.1772H13.7642V52.7653H18.3522V48.1772Z" fill="#F26403"/>
<path d="M18.3522 43.5894H13.7642V48.1774H18.3522V43.5894Z" fill="#F26403"/>
<path d="M13.7641 61.9419H9.17603V66.53H13.7641V61.9419Z" fill="#F2C900"/>
<path d="M13.7641 57.3535H9.17603V61.9416H13.7641V57.3535Z" fill="#F2C900"/>
<path d="M13.7641 52.7656H9.17603V57.3537H13.7641V52.7656Z" fill="#F26403"/>
<path d="M13.7641 48.1772H9.17603V52.7653H13.7641V48.1772Z" fill="#F26403"/>
<path d="M9.17597 61.9419H4.58789V66.53H9.17597V61.9419Z" fill="#F26403"/>
<path d="M9.17597 57.3535H4.58789V61.9416H9.17597V57.3535Z" fill="#F26403"/>
<path d="M100.938 36.7046H96.3496V41.2927H100.938V36.7046Z" fill="#F26403"/>
<path d="M100.938 32.1167H96.3496V36.7048H100.938V32.1167Z" fill="#F26403"/>
<path d="M96.3498 36.7046H91.7617V41.2927H96.3498V36.7046Z" fill="#F2C900"/>
<path d="M96.3498 32.1167H91.7617V36.7048H96.3498V32.1167Z" fill="#F2C900"/>
<path d="M96.3498 27.5283H91.7617V32.1164H96.3498V27.5283Z" fill="#F26403"/>
<path d="M96.3498 22.9404H91.7617V27.5285H96.3498V22.9404Z" fill="#F26403"/>
<path d="M91.7614 27.5283H87.1733V32.1164H91.7614V27.5283Z" fill="#F2C900"/>
<path d="M91.7614 22.9404H87.1733V27.5285H91.7614V22.9404Z" fill="#F2C900"/>
<path d="M91.7614 18.3525H87.1733V22.9406H91.7614V18.3525Z" fill="#F26403"/>
<path d="M87.1735 22.9404H82.5854V27.5285H87.1735V22.9404Z" fill="#F2C900"/>
<path d="M87.1735 18.3525H82.5854V22.9406H87.1735V18.3525Z" fill="#F2C900"/>
<path d="M87.1735 13.7642H82.5854V18.3522H87.1735V13.7642Z" fill="#F26403"/>
<path d="M82.5854 18.3525H77.9973V22.9406H82.5854V18.3525Z" fill="white"/>
<path d="M82.5854 13.7642H77.9973V18.3522H82.5854V13.7642Z" fill="#F2C900"/>
<path d="M82.5854 9.17627H77.9973V13.7644H82.5854V9.17627Z" fill="#F26403"/>
<path d="M77.9973 18.3525H73.4092V22.9406H77.9973V18.3525Z" fill="white"/>
<path d="M77.9973 13.7642H73.4092V18.3522H77.9973V13.7642Z" fill="#F2C900"/>
<path d="M77.9973 9.17627H73.4092V13.7644H77.9973V9.17627Z" fill="#F26403"/>
<path d="M73.4091 13.7642H68.821V18.3522H73.4091V13.7642Z" fill="white"/>
<path d="M73.4091 9.17627H68.821V13.7644H73.4091V9.17627Z" fill="#F2C900"/>
<path d="M73.4091 4.58838H68.821V9.17646H73.4091V4.58838Z" fill="#F26403"/>
<path d="M68.8212 13.7642H64.2332V18.3522H68.8212V13.7642Z" fill="white"/>
<path d="M68.8212 9.17627H64.2332V13.7644H68.8212V9.17627Z" fill="#F2C900"/>
<path d="M68.8212 4.58838H64.2332V9.17646H68.8212V4.58838Z" fill="#F26403"/>
<path d="M64.2331 9.17627H59.645V13.7644H64.2331V9.17627Z" fill="white"/>
<path d="M64.2331 4.58838H59.645V9.17646H64.2331V4.58838Z" fill="#F2C900"/>
<path d="M64.2331 0H59.645V4.58808H64.2331V0Z" fill="#F26403"/>
<path d="M59.645 9.17627H55.0569V13.7644H59.645V9.17627Z" fill="white"/>
<path d="M59.645 4.58838H55.0569V9.17646H59.645V4.58838Z" fill="#F2C900"/>
<path d="M59.645 0H55.0569V4.58808H59.645V0Z" fill="#F26403"/>
<path d="M55.0568 9.17627H50.4688V13.7644H55.0568V9.17627Z" fill="#F2C900"/>
<path d="M55.0568 4.58838H50.4688V9.17646H55.0568V4.58838Z" fill="#F2C900"/>
<path d="M55.0568 0H50.4688V4.58808H55.0568V0Z" fill="#F26403"/>
<path d="M50.4689 9.17627H45.8809V13.7644H50.4689V9.17627Z" fill="#F2C900"/>
<path d="M50.4689 4.58838H45.8809V9.17646H50.4689V4.58838Z" fill="#F2C900"/>
<path d="M50.4689 0H45.8809V4.58808H50.4689V0Z" fill="#F26403"/>
<path d="M45.8808 9.17627H41.2927V13.7644H45.8808V9.17627Z" fill="#F2C900"/>
<path d="M45.8808 4.58838H41.2927V9.17646H45.8808V4.58838Z" fill="#F2C900"/>
<path d="M45.8808 0H41.2927V4.58808H45.8808V0Z" fill="#F26403"/>
<path d="M41.2927 13.7642H36.7046V18.3522H41.2927V13.7642Z" fill="#F2C900"/>
<path d="M41.2927 9.17627H36.7046V13.7644H41.2927V9.17627Z" fill="#F2C900"/>
<path d="M41.2927 4.58838H36.7046V9.17646H41.2927V4.58838Z" fill="#F26403"/>
<path d="M36.7045 13.7642H32.1165V18.3522H36.7045V13.7642Z" fill="#F2C900"/>
<path d="M36.7045 9.17627H32.1165V13.7644H36.7045V9.17627Z" fill="#F2C900"/>
<path d="M36.7045 4.58838H32.1165V9.17646H36.7045V4.58838Z" fill="#F26403"/>
<path d="M32.1166 18.3525H27.5286V22.9406H32.1166V18.3525Z" fill="#F2C900"/>
<path d="M32.1166 13.7642H27.5286V18.3522H32.1166V13.7642Z" fill="#F2C900"/>
<path d="M32.1166 9.17627H27.5286V13.7644H32.1166V9.17627Z" fill="#F26403"/>
<path d="M27.5283 18.3525H22.9402V22.9406H27.5283V18.3525Z" fill="#F2C900"/>
<path d="M27.5283 13.7642H22.9402V18.3522H27.5283V13.7642Z" fill="#F2C900"/>
<path d="M27.5283 9.17627H22.9402V13.7644H27.5283V9.17627Z" fill="#F26403"/>
<path d="M22.9404 27.5283H18.3523V32.1164H22.9404V27.5283Z" fill="#F2C900"/>
<path d="M22.9404 22.9404H18.3523V27.5285H22.9404V22.9404Z" fill="#F2C900"/>
<path d="M22.9404 18.3525H18.3523V22.9406H22.9404V18.3525Z" fill="#F2C900"/>
<path d="M22.9404 13.7642H18.3523V18.3522H22.9404V13.7642Z" fill="#F26403"/>
<path d="M18.3522 32.1167H13.7642V36.7048H18.3522V32.1167Z" fill="#F2C900"/>
<path d="M18.3522 27.5283H13.7642V32.1164H18.3522V27.5283Z" fill="#F2C900"/>
<path d="M18.3522 22.9404H13.7642V27.5285H18.3522V22.9404Z" fill="#F26403"/>
<path d="M18.3522 18.3525H13.7642V22.9406H18.3522V18.3525Z" fill="#F26403"/>
<path d="M13.7641 36.7046H9.17603V41.2927H13.7641V36.7046Z" fill="#F2C900"/>
<path d="M13.7641 32.1167H9.17603V36.7048H13.7641V32.1167Z" fill="#F2C900"/>
<path d="M13.7641 27.5283H9.17603V32.1164H13.7641V27.5283Z" fill="#F26403"/>
<path d="M13.7641 22.9404H9.17603V27.5285H13.7641V22.9404Z" fill="#F26403"/>
<path d="M9.17597 36.7046H4.58789V41.2927H9.17597V36.7046Z" fill="#F26403"/>
<path d="M9.17597 32.1167H4.58789V36.7048H9.17597V32.1167Z" fill="#F26403"/>
</svg>
