<svg width="106" height="106" viewBox="0 0 106 106" fill="none" xmlns="http://www.w3.org/2000/svg">
<path d="M105.526 60.1191H100.938V64.7072H105.526V60.1191Z" fill="#F26403"/>
<path d="M105.526 55.5312H100.938V60.1193H105.526V55.5312Z" fill="#F26403"/>
<path d="M105.526 50.9429H100.938V55.531H105.526V50.9429Z" fill="#F26403"/>
<path d="M105.526 46.355H100.938V50.9431H105.526V46.355Z" fill="#F26403"/>
<path d="M105.526 41.7666H100.938V46.3547H105.526V41.7666Z" fill="#F26403"/>
<path d="M100.938 69.2954H96.3496V73.8835H100.938V69.2954Z" fill="#F26403"/>
<path d="M100.938 64.707H96.3496V69.2951H100.938V64.707Z" fill="#F26403"/>
<path d="M100.938 60.1191H96.3496V64.7072H100.938V60.1191Z" fill="#F2C900"/>
<path d="M100.938 55.5312H96.3496V60.1193H100.938V55.5312Z" fill="#F2C900"/>
<path d="M100.938 50.9429H96.3496V55.531H100.938V50.9429Z" fill="#F2C900"/>
<path d="M100.938 46.355H96.3496V50.9431H100.938V46.355Z" fill="#F2C900"/>
<path d="M100.938 41.7666H96.3496V46.3547H100.938V41.7666Z" fill="#F2C900"/>
<path d="M100.938 37.1787H96.3496V41.7668H100.938V37.1787Z" fill="#F26403"/>
<path d="M100.938 32.5908H96.3496V37.1789H100.938V32.5908Z" fill="#F26403"/>
<path d="M96.3498 78.4712H91.7617V83.0593H96.3498V78.4712Z" fill="#F26403"/>
<path d="M96.3498 73.8833H91.7617V78.4714H96.3498V73.8833Z" fill="#F26403"/>
<path d="M96.3498 69.2954H91.7617V73.8835H96.3498V69.2954Z" fill="#F2C900"/>
<path d="M96.3498 64.707H91.7617V69.2951H96.3498V64.707Z" fill="#F2C900"/>
<path d="M96.3498 60.1191H91.7617V64.7072H96.3498V60.1191Z" fill="#F2C900"/>
<path d="M96.3498 55.5312H91.7617V60.1193H96.3498V55.5312Z" fill="#F2C900"/>
<path d="M96.3498 50.9429H91.7617V55.531H96.3498V50.9429Z" fill="#F2C900"/>
<path d="M96.3498 46.355H91.7617V50.9431H96.3498V46.355Z" fill="#F2C900"/>
<path d="M96.3498 41.7666H91.7617V46.3547H96.3498V41.7666Z" fill="#F2C900"/>
<path d="M96.3498 37.1787H91.7617V41.7668H96.3498V37.1787Z" fill="#F2C900"/>
<path d="M96.3498 32.5908H91.7617V37.1789H96.3498V32.5908Z" fill="#F2C900"/>
<path d="M96.3498 28.0024H91.7617V32.5905H96.3498V28.0024Z" fill="#F26403"/>
<path d="M96.3498 23.4146H91.7617V28.0026H96.3498V23.4146Z" fill="#F26403"/>
<path d="M91.7614 83.0596H87.1733V87.6477H91.7614V83.0596Z" fill="#F26403"/>
<path d="M91.7614 78.4712H87.1733V83.0593H91.7614V78.4712Z" fill="#F2C900"/>
<path d="M91.7614 28.0024H87.1733V32.5905H91.7614V28.0024Z" fill="#F2C900"/>
<path d="M91.7614 23.4146H87.1733V28.0026H91.7614V23.4146Z" fill="#F2C900"/>
<path d="M91.7614 18.8262H87.1733V23.4143H91.7614V18.8262Z" fill="#F26403"/>
<path d="M87.1735 87.6479H82.5854V92.236H87.1735V87.6479Z" fill="#F26403"/>
<path d="M87.1735 83.0596H82.5854V87.6477H87.1735V83.0596Z" fill="#F2C900"/>
<path d="M87.1735 23.4146H82.5854V28.0026H87.1735V23.4146Z" fill="#F2C900"/>
<path d="M87.1735 18.8262H82.5854V23.4143H87.1735V18.8262Z" fill="#F2C900"/>
<path d="M87.1735 14.2383H82.5854V18.8264H87.1735V14.2383Z" fill="#F26403"/>
<path d="M82.5854 92.2358H77.9973V96.8239H82.5854V92.2358Z" fill="#F26403"/>
<path d="M82.5854 87.6479H77.9973V92.236H82.5854V87.6479Z" fill="#F26403"/>
<path d="M82.5854 83.0596H77.9973V87.6477H82.5854V83.0596Z" fill="#F2C900"/>
<path d="M82.5854 60.1191H77.9973V64.7072H82.5854V60.1191Z" fill="#F2C900"/>
<path d="M82.5854 55.5312H77.9973V60.1193H82.5854V55.5312Z" fill="#F2C900"/>
<path d="M82.5854 50.9429H77.9973V55.531H82.5854V50.9429Z" fill="#F2C900"/>
<path d="M82.5854 41.7666H77.9973V46.3547H82.5854V41.7666Z" fill="#F2C900"/>
<path d="M82.5854 18.8262H77.9973V23.4143H82.5854V18.8262Z" fill="white"/>
<path d="M82.5854 14.2383H77.9973V18.8264H82.5854V14.2383Z" fill="#F2C900"/>
<path d="M82.5854 9.65039H77.9973V14.2385H82.5854V9.65039Z" fill="#F26403"/>
<path d="M77.9973 92.2358H73.4092V96.8239H77.9973V92.2358Z" fill="#F26403"/>
<path d="M77.9973 87.6479H73.4092V92.236H77.9973V87.6479Z" fill="#F2C900"/>
<path d="M77.9973 83.0596H73.4092V87.6477H77.9973V83.0596Z" fill="#F2C900"/>
<path d="M77.9973 60.1191H73.4092V64.7072H77.9973V60.1191Z" fill="#F2C900"/>
<path d="M77.9973 50.9429H73.4092V55.531H77.9973V50.9429Z" fill="#F2C900"/>
<path d="M77.9973 41.7666H73.4092V46.3547H77.9973V41.7666Z" fill="#F2C900"/>
<path d="M77.9973 18.8262H73.4092V23.4143H77.9973V18.8262Z" fill="white"/>
<path d="M77.9973 14.2383H73.4092V18.8264H77.9973V14.2383Z" fill="#F2C900"/>
<path d="M77.9973 9.65039H73.4092V14.2385H77.9973V9.65039Z" fill="#F26403"/>
<path d="M73.4091 96.8237H68.821V101.412H73.4091V96.8237Z" fill="#F26403"/>
<path d="M73.4091 92.2358H68.821V96.8239H73.4091V92.2358Z" fill="#F2C900"/>
<path d="M73.4091 87.6479H68.821V92.236H73.4091V87.6479Z" fill="#F2C900"/>
<path d="M73.4091 83.0596H68.821V87.6477H73.4091V83.0596Z" fill="#F2C900"/>
<path d="M73.4091 60.1191H68.821V64.7072H73.4091V60.1191Z" fill="#F2C900"/>
<path d="M73.4091 55.5312H68.821V60.1193H73.4091V55.5312Z" fill="#F2C900"/>
<path d="M73.4091 50.9429H68.821V55.531H73.4091V50.9429Z" fill="#F2C900"/>
<path d="M73.4091 46.355H68.821V50.9431H73.4091V46.355Z" fill="#F2C900"/>
<path d="M73.4091 41.7666H68.821V46.3547H73.4091V41.7666Z" fill="#F2C900"/>
<path d="M73.4091 18.8262H68.821V23.4143H73.4091V18.8262Z" fill="#F2C900"/>
<path d="M73.4091 14.2383H68.821V18.8264H73.4091V14.2383Z" fill="white"/>
<path d="M73.4091 9.65039H68.821V14.2385H73.4091V9.65039Z" fill="#F2C900"/>
<path d="M73.4091 5.06201H68.821V9.6501H73.4091V5.06201Z" fill="#F26403"/>
<path d="M68.8212 96.8237H64.2332V101.412H68.8212V96.8237Z" fill="#F26403"/>
<path d="M68.8212 92.2358H64.2332V96.8239H68.8212V92.2358Z" fill="#F2C900"/>
<path d="M68.8212 87.6479H64.2332V92.236H68.8212V87.6479Z" fill="#F2C900"/>
<path d="M68.8212 83.0596H64.2332V87.6477H68.8212V83.0596Z" fill="#F2C900"/>
<path d="M68.8212 18.8262H64.2332V23.4143H68.8212V18.8262Z" fill="#F2C900"/>
<path d="M68.8212 14.2383H64.2332V18.8264H68.8212V14.2383Z" fill="white"/>
<path d="M68.8212 9.65039H64.2332V14.2385H68.8212V9.65039Z" fill="#F2C900"/>
<path d="M68.8212 5.06201H64.2332V9.6501H68.8212V5.06201Z" fill="#F26403"/>
<path d="M64.2331 101.412H59.645V106H64.2331V101.412Z" fill="#F26403"/>
<path d="M64.2331 96.8237H59.645V101.412H64.2331V96.8237Z" fill="#F2C900"/>
<path d="M64.2331 92.2358H59.645V96.8239H64.2331V92.2358Z" fill="#F2C900"/>
<path d="M64.2331 87.6479H59.645V92.236H64.2331V87.6479Z" fill="#F2C900"/>
<path d="M64.2331 83.0596H59.645V87.6477H64.2331V83.0596Z" fill="#F2C900"/>
<path d="M64.2331 60.1191H59.645V64.7072H64.2331V60.1191Z" fill="#F2C900"/>
<path d="M64.2331 55.5312H59.645V60.1193H64.2331V55.5312Z" fill="#F2C900"/>
<path d="M64.2331 50.9429H59.645V55.531H64.2331V50.9429Z" fill="#F2C900"/>
<path d="M64.2331 46.355H59.645V50.9431H64.2331V46.355Z" fill="#F2C900"/>
<path d="M64.2331 41.7666H59.645V46.3547H64.2331V41.7666Z" fill="#F2C900"/>
<path d="M64.2331 18.8262H59.645V23.4143H64.2331V18.8262Z" fill="#F2C900"/>
<path d="M64.2331 14.2383H59.645V18.8264H64.2331V14.2383Z" fill="#F2C900"/>
<path d="M64.2331 9.65039H59.645V14.2385H64.2331V9.65039Z" fill="white"/>
<path d="M64.2331 5.06201H59.645V9.6501H64.2331V5.06201Z" fill="#F2C900"/>
<path d="M64.2331 0.474121H59.645V5.06221H64.2331V0.474121Z" fill="#F26403"/>
<path d="M59.645 101.412H55.0569V106H59.645V101.412Z" fill="#F26403"/>
<path d="M59.645 96.8237H55.0569V101.412H59.645V96.8237Z" fill="#F2C900"/>
<path d="M59.645 92.2358H55.0569V96.8239H59.645V92.2358Z" fill="#F2C900"/>
<path d="M59.645 87.6479H55.0569V92.236H59.645V87.6479Z" fill="#F2C900"/>
<path d="M59.645 83.0596H55.0569V87.6477H59.645V83.0596Z" fill="#F2C900"/>
<path d="M59.645 60.1191H55.0569V64.7072H59.645V60.1191Z" fill="#F2C900"/>
<path d="M59.645 41.7666H55.0569V46.3547H59.645V41.7666Z" fill="#F2C900"/>
<path d="M59.645 18.8262H55.0569V23.4143H59.645V18.8262Z" fill="#F2C900"/>
<path d="M59.645 14.2383H55.0569V18.8264H59.645V14.2383Z" fill="#F2C900"/>
<path d="M59.645 9.65039H55.0569V14.2385H59.645V9.65039Z" fill="white"/>
<path d="M59.645 5.06201H55.0569V9.6501H59.645V5.06201Z" fill="#F2C900"/>
<path d="M59.645 0.474121H55.0569V5.06221H59.645V0.474121Z" fill="#F26403"/>
<path d="M55.0568 101.412H50.4688V106H55.0568V101.412Z" fill="#F26403"/>
<path d="M55.0568 96.8237H50.4688V101.412H55.0568V96.8237Z" fill="#F2C900"/>
<path d="M55.0568 92.2358H50.4688V96.8239H55.0568V92.2358Z" fill="#F2C900"/>
<path d="M55.0568 87.6479H50.4688V92.236H55.0568V87.6479Z" fill="#F2C900"/>
<path d="M55.0568 83.0596H50.4688V87.6477H55.0568V83.0596Z" fill="#F2C900"/>
<path d="M55.0568 60.1191H50.4688V64.7072H55.0568V60.1191Z" fill="#F2C900"/>
<path d="M55.0568 55.5312H50.4688V60.1193H55.0568V55.5312Z" fill="#F2C900"/>
<path d="M55.0568 50.9429H50.4688V55.531H55.0568V50.9429Z" fill="#F2C900"/>
<path d="M55.0568 46.355H50.4688V50.9431H55.0568V46.355Z" fill="#F2C900"/>
<path d="M55.0568 41.7666H50.4688V46.3547H55.0568V41.7666Z" fill="#F2C900"/>
<path d="M55.0568 18.8262H50.4688V23.4143H55.0568V18.8262Z" fill="#F2C900"/>
<path d="M55.0568 14.2383H50.4688V18.8264H55.0568V14.2383Z" fill="#F2C900"/>
<path d="M55.0568 9.65039H50.4688V14.2385H55.0568V9.65039Z" fill="#F2C900"/>
<path d="M55.0568 5.06201H50.4688V9.6501H55.0568V5.06201Z" fill="#F2C900"/>
<path d="M55.0568 0.474121H50.4688V5.06221H55.0568V0.474121Z" fill="#F26403"/>
<path d="M50.4689 101.412H45.8809V106H50.4689V101.412Z" fill="#F26403"/>
<path d="M50.4689 96.8237H45.8809V101.412H50.4689V96.8237Z" fill="#F2C900"/>
<path d="M50.4689 92.2358H45.8809V96.8239H50.4689V92.2358Z" fill="#F2C900"/>
<path d="M50.4689 87.6479H45.8809V92.236H50.4689V87.6479Z" fill="#F2C900"/>
<path d="M50.4689 83.0596H45.8809V87.6477H50.4689V83.0596Z" fill="#F2C900"/>
<path d="M50.4689 18.8262H45.8809V23.4143H50.4689V18.8262Z" fill="#F2C900"/>
<path d="M50.4689 14.2383H45.8809V18.8264H50.4689V14.2383Z" fill="#F2C900"/>
<path d="M50.4689 9.65039H45.8809V14.2385H50.4689V9.65039Z" fill="#F2C900"/>
<path d="M50.4689 5.06201H45.8809V9.6501H50.4689V5.06201Z" fill="#F2C900"/>
<path d="M50.4689 0.474121H45.8809V5.06221H50.4689V0.474121Z" fill="#F26403"/>
<path d="M45.8808 101.412H41.2927V106H45.8808V101.412Z" fill="#F26403"/>
<path d="M45.8808 96.8237H41.2927V101.412H45.8808V96.8237Z" fill="#F2C900"/>
<path d="M45.8808 92.2358H41.2927V96.8239H45.8808V92.2358Z" fill="#F2C900"/>
<path d="M45.8808 87.6479H41.2927V92.236H45.8808V87.6479Z" fill="#F2C900"/>
<path d="M45.8808 83.0596H41.2927V87.6477H45.8808V83.0596Z" fill="#F2C900"/>
<path d="M45.8808 64.707H41.2927V69.2951H45.8808V64.707Z" fill="#F2C900"/>
<path d="M45.8808 60.1191H41.2927V64.7072H45.8808V60.1191Z" fill="#F2C900"/>
<path d="M45.8808 18.8262H41.2927V23.4143H45.8808V18.8262Z" fill="#F2C900"/>
<path d="M45.8808 9.65039H41.2927V14.2385H45.8808V9.65039Z" fill="#F2C900"/>
<path d="M45.8808 5.06201H41.2927V9.6501H45.8808V5.06201Z" fill="#F2C900"/>
<path d="M45.8808 0.474121H41.2927V5.06221H45.8808V0.474121Z" fill="#F26403"/>
<path d="M41.2927 96.8237H36.7046V101.412H41.2927V96.8237Z" fill="#F26403"/>
<path d="M41.2927 92.2358H36.7046V96.8239H41.2927V92.2358Z" fill="#F2C900"/>
<path d="M41.2927 87.6479H36.7046V92.236H41.2927V87.6479Z" fill="#F2C900"/>
<path d="M41.2927 83.0596H36.7046V87.6477H41.2927V83.0596Z" fill="#F2C900"/>
<path d="M41.2927 18.8262H36.7046V23.4143H41.2927V18.8262Z" fill="#F2C900"/>
<path d="M41.2927 14.2383H36.7046V18.8264H41.2927V14.2383Z" fill="#F2C900"/>
<path d="M45.8808 14.2383H41.2927V18.8264H45.8808V14.2383Z" fill="#F2C900"/>
<path d="M41.2927 9.65039H36.7046V14.2385H41.2927V9.65039Z" fill="#F2C900"/>
<path d="M41.2927 5.06201H36.7046V9.6501H41.2927V5.06201Z" fill="#F26403"/>
<path d="M36.7045 96.8237H32.1165V101.412H36.7045V96.8237Z" fill="#F26403"/>
<path d="M36.7045 92.2358H32.1165V96.8239H36.7045V92.2358Z" fill="#F2C900"/>
<path d="M36.7045 87.6479H32.1165V92.236H36.7045V87.6479Z" fill="#F2C900"/>
<path d="M36.7045 83.0596H32.1165V87.6477H36.7045V83.0596Z" fill="#F2C900"/>
<path d="M36.7045 60.1191H32.1165V64.7072H36.7045V60.1191Z" fill="#F2C900"/>
<path d="M36.7045 55.5312H32.1165V60.1193H36.7045V55.5312Z" fill="#F2C900"/>
<path d="M36.7045 50.9429H32.1165V55.531H36.7045V50.9429Z" fill="#F2C900"/>
<path d="M36.7045 46.355H32.1165V50.9431H36.7045V46.355Z" fill="#F2C900"/>
<path d="M36.7045 41.7666H32.1165V46.3547H36.7045V41.7666Z" fill="#F2C900"/>
<path d="M36.7045 18.8262H32.1165V23.4143H36.7045V18.8262Z" fill="#F2C900"/>
<path d="M36.7045 14.2383H32.1165V18.8264H36.7045V14.2383Z" fill="#F2C900"/>
<path d="M36.7045 9.65039H32.1165V14.2385H36.7045V9.65039Z" fill="#F2C900"/>
<path d="M36.7045 5.06201H32.1165V9.6501H36.7045V5.06201Z" fill="#F26403"/>
<path d="M32.1166 92.2358H27.5286V96.8239H32.1166V92.2358Z" fill="#F26403"/>
<path d="M32.1166 87.6479H27.5286V92.236H32.1166V87.6479Z" fill="#F2C900"/>
<path d="M32.1166 83.0596H27.5286V87.6477H32.1166V83.0596Z" fill="#F2C900"/>
<path d="M32.1166 60.1191H27.5286V64.7072H32.1166V60.1191Z" fill="#F2C900"/>
<path d="M32.1166 41.7666H27.5286V46.3547H32.1166V41.7666Z" fill="#F2C900"/>
<path d="M32.1166 18.8262H27.5286V23.4143H32.1166V18.8262Z" fill="#F2C900"/>
<path d="M32.1166 14.2383H27.5286V18.8264H32.1166V14.2383Z" fill="#F2C900"/>
<path d="M32.1166 9.65039H27.5286V14.2385H32.1166V9.65039Z" fill="#F26403"/>
<path d="M27.5283 92.2358H22.9402V96.8239H27.5283V92.2358Z" fill="#F26403"/>
<path d="M27.5283 87.6479H22.9402V92.236H27.5283V87.6479Z" fill="#F2C900"/>
<path d="M27.5283 83.0596H22.9402V87.6477H27.5283V83.0596Z" fill="#F2C900"/>
<path d="M27.5283 60.1191H22.9402V64.7072H27.5283V60.1191Z" fill="#F2C900"/>
<path d="M27.5283 55.5312H22.9402V60.1193H27.5283V55.5312Z" fill="#F2C900"/>
<path d="M27.5283 50.9429H22.9402V55.531H27.5283V50.9429Z" fill="#F2C900"/>
<path d="M32.1166 46.355H27.5286V60.1192H32.1166V46.355Z" fill="#F2C900"/>
<path d="M27.5283 46.355H22.9402V50.9431H27.5283V46.355Z" fill="#F2C900"/>
<path d="M27.5283 41.7666H22.9402V46.3547H27.5283V41.7666Z" fill="#F2C900"/>
<path d="M27.5283 18.8262H22.9402V23.4143H27.5283V18.8262Z" fill="#F2C900"/>
<path d="M27.5283 14.2383H22.9402V18.8264H27.5283V14.2383Z" fill="#F2C900"/>
<path d="M27.5283 9.65039H22.9402V14.2385H27.5283V9.65039Z" fill="#F26403"/>
<path d="M22.9404 87.6479H18.3523V92.236H22.9404V87.6479Z" fill="#F26403"/>
<path d="M22.9404 83.0596H18.3523V87.6477H22.9404V83.0596Z" fill="#F2C900"/>
<path d="M22.9404 78.4712H18.3523V83.0593H22.9404V78.4712Z" fill="#F2C900"/>
<path d="M22.9404 73.8833H18.3523V78.4714H22.9404V73.8833Z" fill="#F2C900"/>
<path d="M22.9404 69.2954H18.3523V73.8835H22.9404V69.2954Z" fill="#F2C900"/>
<path d="M22.9404 64.707H18.3523V69.2951H22.9404V64.707Z" fill="#F2C900"/>
<path d="M22.9404 60.1191H18.3523V64.7072H22.9404V60.1191Z" fill="#F2C900"/>
<path d="M22.9404 55.5312H18.3523V60.1193H22.9404V55.5312Z" fill="#F2C900"/>
<path d="M22.9404 50.9429H18.3523V55.531H22.9404V50.9429Z" fill="#F2C900"/>
<path d="M22.9404 46.355H18.3523V50.9431H22.9404V46.355Z" fill="#F2C900"/>
<path d="M22.9404 41.7666H18.3523V46.3547H22.9404V41.7666Z" fill="#F2C900"/>
<path d="M22.9404 37.1787H18.3523V41.7668H22.9404V37.1787Z" fill="#F2C900"/>
<path d="M22.9404 32.5908H18.3523V37.1789H22.9404V32.5908Z" fill="#F2C900"/>
<path d="M22.9404 28.0024H18.3523V32.5905H22.9404V28.0024Z" fill="#F2C900"/>
<path d="M87.1734 32.5905V28.0024H82.5853V23.4194H22.9402V41.7718H36.7147V64.7122H22.9505V83.0645H87.1734V78.4765H91.7615V32.5956L87.1734 32.5905ZM45.8806 69.2952H41.2926V60.119H45.8806V69.2952ZM64.233 64.707H50.4687V41.7666H64.233V64.707ZM82.5853 46.3547H73.4092V50.9428H82.5853V64.707H68.8211V41.7666H82.5853V46.3547Z" fill="#F2C900"/>
<path d="M77.9973 55.5312H73.4092V60.1193H77.9973V55.5312Z" fill="#F2C900"/>
<path d="M59.645 46.355H55.0569V60.1192H59.645V46.355Z" fill="#F2C900"/>
<path d="M22.9404 23.4146H18.3523V28.0026H22.9404V23.4146Z" fill="#F2C900"/>
<path d="M22.9404 18.8262H18.3523V23.4143H22.9404V18.8262Z" fill="#F2C900"/>
<path d="M22.9404 14.2383H18.3523V18.8264H22.9404V14.2383Z" fill="#F26403"/>
<path d="M18.3522 83.0596H13.7642V87.6477H18.3522V83.0596Z" fill="#F26403"/>
<path d="M18.3522 78.4712H13.7642V83.0593H18.3522V78.4712Z" fill="#F26403"/>
<path d="M18.3522 73.8833H13.7642V78.4714H18.3522V73.8833Z" fill="#F2C900"/>
<path d="M18.3522 69.2954H13.7642V73.8835H18.3522V69.2954Z" fill="#F2C900"/>
<path d="M18.3522 64.707H13.7642V69.2951H18.3522V64.707Z" fill="#F2C900"/>
<path d="M18.3522 60.1191H13.7642V64.7072H18.3522V60.1191Z" fill="#F2C900"/>
<path d="M18.3522 55.5312H13.7642V60.1193H18.3522V55.5312Z" fill="#F2C900"/>
<path d="M18.3522 50.9429H13.7642V55.531H18.3522V50.9429Z" fill="#F2C900"/>
<path d="M18.3522 46.355H13.7642V50.9431H18.3522V46.355Z" fill="#F2C900"/>
<path d="M18.3522 41.7666H13.7642V46.3547H18.3522V41.7666Z" fill="#F2C900"/>
<path d="M18.3522 37.1787H13.7642V41.7668H18.3522V37.1787Z" fill="#F2C900"/>
<path d="M18.3522 32.5908H13.7642V37.1789H18.3522V32.5908Z" fill="#F2C900"/>
<path d="M18.3522 28.0024H13.7642V32.5905H18.3522V28.0024Z" fill="#F2C900"/>
<path d="M18.3522 23.4146H13.7642V28.0026H18.3522V23.4146Z" fill="#F26403"/>
<path d="M18.3522 18.8262H13.7642V23.4143H18.3522V18.8262Z" fill="#F26403"/>
<path d="M13.7641 78.4712H9.17603V83.0593H13.7641V78.4712Z" fill="#F26403"/>
<path d="M13.7641 73.8833H9.17603V78.4714H13.7641V73.8833Z" fill="#F26403"/>
<path d="M13.7641 69.2954H9.17603V73.8835H13.7641V69.2954Z" fill="#F2C900"/>
<path d="M13.7641 64.707H9.17603V69.2951H13.7641V64.707Z" fill="#F2C900"/>
<path d="M13.7641 60.1191H9.17603V64.7072H13.7641V60.1191Z" fill="#F2C900"/>
<path d="M13.7641 55.5312H9.17603V60.1193H13.7641V55.5312Z" fill="#F2C900"/>
<path d="M13.7641 50.9429H9.17603V55.531H13.7641V50.9429Z" fill="#F2C900"/>
<path d="M13.7641 46.355H9.17603V50.9431H13.7641V46.355Z" fill="#F2C900"/>
<path d="M13.7641 41.7666H9.17603V46.3547H13.7641V41.7666Z" fill="#F2C900"/>
<path d="M13.7641 37.1787H9.17603V41.7668H13.7641V37.1787Z" fill="#F2C900"/>
<path d="M13.7641 32.5908H9.17603V37.1789H13.7641V32.5908Z" fill="#F2C900"/>
<path d="M13.7641 28.0024H9.17603V32.5905H13.7641V28.0024Z" fill="#F26403"/>
<path d="M13.7641 23.4146H9.17603V28.0026H13.7641V23.4146Z" fill="#F26403"/>
<path d="M9.17597 69.2954H4.58789V73.8835H9.17597V69.2954Z" fill="#F26403"/>
<path d="M9.17597 64.707H4.58789V69.2951H9.17597V64.707Z" fill="#F26403"/>
<path d="M9.17597 60.1191H4.58789V64.7072H9.17597V60.1191Z" fill="#F2C900"/>
<path d="M9.17597 55.5312H4.58789V60.1193H9.17597V55.5312Z" fill="#F2C900"/>
<path d="M9.17597 50.9429H4.58789V55.531H9.17597V50.9429Z" fill="#F2C900"/>
<path d="M9.17597 46.355H4.58789V50.9431H9.17597V46.355Z" fill="#F2C900"/>
<path d="M9.17597 41.7666H4.58789V46.3547H9.17597V41.7666Z" fill="#F2C900"/>
<path d="M9.17597 37.1787H4.58789V41.7668H9.17597V37.1787Z" fill="#F26403"/>
<path d="M9.17597 32.5908H4.58789V37.1789H9.17597V32.5908Z" fill="#F26403"/>
<path d="M4.58808 60.1191H0V64.7072H4.58808V60.1191Z" fill="#F26403"/>
<path d="M4.58808 55.5312H0V60.1193H4.58808V55.5312Z" fill="#F26403"/>
<path d="M4.58808 50.9429H0V55.531H4.58808V50.9429Z" fill="#F26403"/>
<path d="M4.58808 46.355H0V50.9431H4.58808V46.355Z" fill="#F26403"/>
<path d="M4.58808 41.7666H0V46.3547H4.58808V41.7666Z" fill="#F26403"/>
</svg>
