<svg width="477" height="83" viewBox="0 0 477 83" fill="none" xmlns="http://www.w3.org/2000/svg">
<path d="M29.35 39.9999C30.7448 37.3199 32.8567 35.08 35.45 33.5299C38.1508 31.9307 41.2416 31.1104 44.38 31.1599C47.2427 31.1477 50.0719 31.7764 52.66 32.9999C53.9738 33.6102 55.2039 34.3865 56.32 35.3099C55.6973 34.516 55.0008 33.7827 54.24 33.1199V33.2099C54.13 33.0599 54 32.9299 53.89 32.7899C52.7726 31.8656 51.5428 31.0861 50.23 30.4699C47.6563 29.2549 44.8461 28.6232 42 28.6199C38.8362 28.5534 35.7174 29.3782 33 30.9999C30.402 32.5442 28.2887 34.7856 26.9 37.4699C25.4534 40.2476 24.7117 43.3383 24.74 46.4699C24.7084 49.2274 25.2819 51.9582 26.42 54.4699C26.9849 54.7594 27.5659 55.0164 28.16 55.2399C27.4877 53.2114 27.15 51.087 27.16 48.9499C27.1495 45.8327 27.9013 42.7601 29.35 39.9999Z" fill="#FF4681"/>
<path d="M56.67 62.1001V77.3101C52.9367 78.4367 50.1067 79.2167 48.18 79.6501C46.1035 80.0975 43.9841 80.3155 41.86 80.3001C37.4352 80.3087 33.0496 79.4703 28.94 77.8301C24.7896 76.1941 20.9684 73.8228 17.66 70.8301L17.25 70.4301C18.1321 71.4642 19.0807 72.4396 20.09 73.3501C23.3988 76.3423 27.2199 78.7135 31.37 80.3501C35.4841 81.9868 39.8723 82.8251 44.3 82.8201C46.4243 82.8399 48.5442 82.6218 50.62 82.1701C52.54 81.7367 55.37 80.9601 59.11 79.8401V60.6101C59 60.4301 58.89 60.2501 58.79 60.0601C58.1385 60.7951 57.4296 61.4773 56.67 62.1001Z" fill="#FF4681"/>
<path d="M58.87 38C58.94 37.86 59.03 37.74 59.11 37.61V18.14C58.29 17.8 57.48 17.5 56.67 17.22V35.63C57.4801 36.3451 58.2171 37.139 58.87 38Z" fill="#FF4681"/>
<path d="M116 53.0001V48.1401C115.72 47.6401 115.43 47.1401 115.11 46.6801C114.035 45.0824 112.761 43.6275 111.32 42.3501C111.79 42.9301 112.25 43.5201 112.67 44.1501C114.438 46.8086 115.577 49.8353 116 53.0001Z" fill="#FF4681"/>
<path d="M112.7 69.1701C110.313 72.7233 106.971 75.5308 103.06 77.2701C98.9043 79.1033 94.4121 80.0502 89.87 80.0502C85.3279 80.0502 80.8357 79.1033 76.68 77.2701C74.5258 76.2932 72.5303 74.9988 70.76 73.4301C73.0159 76.1653 75.8737 78.342 79.11 79.7901C83.2657 81.6233 87.7579 82.5701 92.3 82.5701C96.8421 82.5701 101.334 81.6233 105.49 79.7901C109.403 78.0487 112.747 75.2418 115.14 71.6901C115.46 71.2101 115.75 70.6901 116.03 70.2301V60.3401C115.608 63.499 114.469 66.5194 112.7 69.1701Z" fill="#FF4681"/>
<path d="M84.55 48.0899C83.0692 48.9351 81.8588 50.1835 81.06 51.6899C80.2506 53.2309 79.8382 54.9494 79.86 56.6899C79.8574 57.3599 79.9109 58.0289 80.02 58.6899C80.7682 58.8667 81.5318 58.9705 82.3 58.9999C82.3195 57.3484 82.7271 55.7247 83.49 54.2599C84.2904 52.7377 85.5079 51.4751 87 50.6199C88.6188 49.6986 90.4579 49.2354 92.32 49.2799H92.58C92.58 49.2199 92.58 49.1699 92.58 49.1099C92.5755 48.4011 92.5018 47.6944 92.36 46.9999C91.5392 46.8168 90.701 46.7229 89.86 46.7199C87.9989 46.6893 86.1641 47.1627 84.55 48.0899Z" fill="#FF4681"/>
<path d="M138.88 78.5901H125.76V81.1101H141.32V10.0901H138.88V78.5901Z" fill="#FF4681"/>
<path d="M164.72 78.59H151.59V81.11H167.15V60.74C165.874 58.33 165.051 55.7067 164.72 53V78.59Z" fill="#FF4681"/>
<path d="M167.15 37.3501V10.0901H164.72V45.2001C165.059 42.4602 165.882 39.8023 167.15 37.3501Z" fill="#FF4681"/>
<path d="M207 78.4001C203.852 79.5062 200.537 80.0643 197.2 80.0501C192.682 80.129 188.204 79.1998 184.09 77.3301C182.28 76.4846 180.597 75.3907 179.09 74.0801C181.1 76.5454 183.644 78.5218 186.53 79.8601C190.644 81.7267 195.123 82.6524 199.64 82.5701C202.977 82.5853 206.292 82.0272 209.44 80.9201C212.459 79.897 215.198 78.1851 217.44 75.9201C219.679 73.5988 221.245 70.7126 221.97 67.5701H218.74C217.894 69.7281 216.622 71.6938 215 73.3501C212.761 75.6309 210.022 77.3598 207 78.4001Z" fill="#FF4681"/>
<path d="M218.86 59.24H211.65C211.57 59.48 211.48 59.72 211.39 59.95H214.62C214.47 60.58 214.28 61.18 214.08 61.77H220.27C220.17 61.61 220.06 61.46 219.96 61.29C219.554 60.6284 219.187 59.9439 218.86 59.24Z" fill="#FF4681"/>
<path d="M187.45 61.29C188.222 61.3967 189.001 61.4501 189.78 61.45C190.877 61.4983 191.972 61.3277 193.002 60.9483C194.032 60.5689 194.977 59.9882 195.78 59.24H187.3C187.308 59.9258 187.358 60.6104 187.45 61.29Z" fill="#FF4681"/>
<path d="M217.38 43.68C217 43.21 216.61 42.75 216.19 42.31C215.77 41.87 215.42 41.59 215.02 41.24C215.846 42.2879 216.57 43.4131 217.18 44.6C217.24 44.29 217.31 44 217.38 43.68Z" fill="#FF4681"/>
<path d="M260.07 40H258.84V49C256.577 47.1329 253.77 46.0488 250.84 45.91C248.943 45.8889 247.075 46.3757 245.43 47.32C243.818 48.2421 242.482 49.5782 241.56 51.19C240.612 52.8379 240.122 54.7091 240.14 56.61C240.141 57.5524 240.249 58.4916 240.46 59.41C241.161 59.5972 241.877 59.7211 242.6 59.78C242.6 59.57 242.6 59.36 242.6 59.14C242.57 57.2339 243.054 55.355 244 53.7C244.915 52.0865 246.249 50.7496 247.86 49.83C249.505 48.8857 251.373 48.3989 253.27 48.42C256.2 48.5588 259.007 49.6429 261.27 51.51V42.51H260.07V40Z" fill="#FF4681"/>
<path d="M247.89 80.0499C243.734 80.0704 239.64 79.0384 235.99 77.0499C234.386 76.2063 232.883 75.1831 231.51 73.9999C233.421 76.32 235.769 78.2429 238.42 79.6599C242.075 81.6451 246.171 82.6769 250.33 82.6599C254.121 82.7019 257.868 81.8524 261.27 80.1799V66.9299C260.536 67.6014 259.72 68.1761 258.84 68.6399V77.5699C255.435 79.2425 251.684 80.092 247.89 80.0499Z" fill="#FF4681"/>
<path d="M287.05 27.13V29.66H287.96V24.05H285.53V27.13H287.05Z" fill="#FF4681"/>
<path d="M285.53 47.53V78.59H272.4V81.11H287.96V50.05H292V47.53H285.53Z" fill="#FF4681"/>
<path d="M314.88 78.59H301.73V81.11H317.31V60.11C316.051 57.825 315.227 55.3259 314.88 52.74V78.59Z" fill="#FF4681"/>
<path d="M307.58 28.8699C308.213 29.0172 308.86 29.0943 309.51 29.0999C311.047 29.1048 312.557 28.6936 313.88 27.9099C315.208 27.1416 316.312 26.0382 317.08 24.7099C317.855 23.3956 318.259 21.8958 318.25 20.3699C318.256 18.8351 317.852 17.3265 317.08 15.9999C316.423 14.8793 315.525 13.9193 314.45 13.1899C314.52 13.2899 314.59 13.3799 314.65 13.4799C315.423 14.8061 315.827 16.315 315.82 17.8499C315.828 19.3756 315.424 20.8752 314.65 22.1899C313.879 23.5162 312.776 24.619 311.45 25.3899C310.127 26.1691 308.62 26.58 307.085 26.58C305.55 26.58 304.043 26.1691 302.72 25.3899C302.52 25.2699 302.34 25.1399 302.16 25.0099C302.654 25.8121 303.275 26.5282 304 27.1299H307.54L307.58 28.8699Z" fill="#FF4681"/>
<path d="M317.31 37.9999V37.1899H314.88V45.3799C315.227 42.7908 316.051 40.2885 317.31 37.9999Z" fill="#FF4681"/>
<path d="M374.5 53.0001V48.1401C374.228 47.6386 373.931 47.1513 373.61 46.6801C372.538 45.0801 371.264 43.6248 369.82 42.3501C370.304 42.9262 370.758 43.527 371.18 44.1501C372.945 46.8095 374.08 49.8361 374.5 53.0001Z" fill="#FF4681"/>
<path d="M343 48.0899C341.523 48.9366 340.316 50.1849 339.52 51.6899C338.703 53.2283 338.287 54.948 338.31 56.6899C338.311 57.3601 338.368 58.0291 338.48 58.6899C339.23 58.8431 339.994 58.9235 340.76 58.9299C340.793 57.2805 341.218 55.6626 342 54.2099C342.8 52.7072 344.011 51.4624 345.49 50.6199C347.105 49.6985 348.941 49.2352 350.8 49.2799H351C351 49.2199 351 49.1699 351 49.1099C350.998 48.4081 350.927 47.7082 350.79 47.0199C349.969 46.8379 349.131 46.744 348.29 46.7399C346.438 46.7098 344.611 47.1759 343 48.0899Z" fill="#FF4681"/>
<path d="M371.18 69.1701C368.789 72.724 365.444 75.5314 361.53 77.2701C357.374 79.1033 352.882 80.0502 348.34 80.0502C343.798 80.0502 339.306 79.1033 335.15 77.2701C332.998 76.2888 331.003 74.9948 329.23 73.4301C331.489 76.1666 334.35 78.3433 337.59 79.7901C341.746 81.6233 346.238 82.5701 350.78 82.5701C355.322 82.5701 359.814 81.6233 363.97 79.7901C367.881 78.0508 371.223 75.2433 373.61 71.6901C373.93 71.2101 374.23 70.6901 374.5 70.2301V60.3401C374.082 63.4982 372.946 66.5187 371.18 69.1701Z" fill="#FF4681"/>
<path d="M430.52 62.82V54C430.594 50.706 430.016 47.4299 428.82 44.36C427.969 42.2539 426.592 40.4014 424.82 38.98C425.461 39.8674 425.994 40.8274 426.41 41.84C427.613 44.9047 428.195 48.1783 428.12 51.47V78.59H415V81.11H430.56V68.76C429.75 68.35 428.95 67.91 428.16 67.42L430.52 62.82Z" fill="#FF4681"/>
<path d="M405.15 45.6599C399.963 45.8132 397.367 49.1999 397.36 55.8199V78.5899H384.23V81.1099H399.79V58.3399C399.79 52.7999 401.603 49.5232 405.23 48.5099V47.5799C405.23 46.9099 405.2 46.2699 405.15 45.6599Z" fill="#FF4681"/>
<path d="M471.82 56.6299C473.208 58.7167 473.907 61.1854 473.82 63.6899C473.92 67.0029 472.859 70.2466 470.82 72.8599C468.826 75.354 466.172 77.2387 463.16 78.2999C459.922 79.4837 456.498 80.0764 453.05 80.0499C447.915 80.0609 442.848 78.8763 438.25 76.5899L437.77 77.5199C443.085 80.82 449.224 82.5531 455.48 82.5199C458.927 82.5453 462.35 81.9561 465.59 80.7799C468.602 79.7128 471.257 77.8293 473.26 75.3399C475.272 72.7158 476.311 69.4748 476.2 66.1699C476.289 64.3449 475.938 62.5252 475.176 60.8647C474.413 59.2042 473.262 57.7516 471.82 56.6299Z" fill="#FF4681"/>
<path d="M448.51 60.37C446.399 59.8831 444.406 58.9787 442.65 57.71C442.979 58.2514 443.375 58.7487 443.83 59.19C444.569 59.8874 445.388 60.495 446.27 61C447.148 60.9842 448.014 60.7974 448.82 60.45L448.51 60.37Z" fill="#FF4681"/>
<path d="M459 43.8499C458.421 43.8517 457.844 43.9188 457.28 44.0499C458.946 44.5826 460.518 45.3721 461.94 46.3899C464.692 46.4705 467.387 47.1931 469.81 48.4999L475 38.5799C473.98 38.1239 472.935 37.7265 471.87 37.3899L467.34 45.9999C464.782 44.6012 461.916 43.8623 459 43.8499Z" fill="#FF4681"/>
<path d="M28.94 77.83C33.0496 79.4702 37.4352 80.3086 41.86 80.3C43.9841 80.3154 46.1035 80.0974 48.18 79.65C50.1133 79.2166 52.9433 78.4366 56.67 77.3099V57.2C55.9308 58.0625 55.1177 58.8588 54.24 59.58V74.79C50.5067 75.9166 47.6767 76.6966 45.75 77.1299C43.6735 77.5774 41.5541 77.7954 39.43 77.7799C35.0023 77.7848 30.6142 76.9465 26.5 75.3099C22.348 73.6771 18.5263 71.3055 15.22 68.3099L14.81 67.9199C15.5794 68.8014 16.3938 69.6425 17.25 70.44L17.66 70.8399C20.9692 73.8291 24.7904 76.197 28.94 77.83Z" fill="#FF74A1"/>
<path d="M54.24 33.1099C55.0008 33.7727 55.6973 34.506 56.32 35.2999C56.44 35.4499 56.56 35.5799 56.67 35.7299V15.6099C55.86 15.2799 55.05 14.9799 54.24 14.6899V33.1099Z" fill="#FF74A1"/>
<path d="M26.92 37.47C28.3033 34.7883 30.4094 32.5472 33 31C35.7174 29.3783 38.8362 28.5535 42 28.62C44.8622 28.6128 47.6903 29.2412 50.28 30.46C51.5928 31.0761 52.8226 31.8557 53.94 32.78C53.3122 31.9874 52.6162 31.2513 51.86 30.58V30.68C51.75 30.53 51.62 30.4 51.51 30.26C50.3926 29.3357 49.1628 28.5561 47.85 27.94C45.2619 26.7164 42.4328 26.0877 39.57 26.1C36.4316 26.0505 33.3408 26.8708 30.64 28.47C28.0163 30.0244 25.8845 32.2879 24.49 35C23.0411 37.7768 22.2992 40.8681 22.33 44C22.285 47.1372 23.0387 50.2343 24.52 53C24.63 53.21 24.77 53.39 24.89 53.59C25.21 53.8 25.5 54.02 25.83 54.2C26.16 54.38 26.24 54.42 26.44 54.52C25.3019 52.0082 24.7284 49.2774 24.76 46.52C24.7234 43.3715 25.4654 40.2627 26.92 37.47Z" fill="#FF74A1"/>
<path d="M82.12 45.57C80.6391 46.4151 79.4288 47.6636 78.63 49.17C77.8198 50.7107 77.4073 52.4294 77.43 54.17C77.4061 55.5357 77.6437 56.8935 78.13 58.17C78.738 58.4288 79.3714 58.6232 80.02 58.75C79.9109 58.0889 79.8574 57.4199 79.86 56.75C79.8381 55.0095 80.2506 53.291 81.06 51.75C81.8588 50.2436 83.0691 48.9951 84.55 48.15C86.167 47.2332 88.0016 46.7703 89.86 46.81C90.701 46.8129 91.5392 46.9068 92.36 47.09C92.2459 46.4332 92.0649 45.7899 91.82 45.17C90.4355 44.5689 88.9391 44.2689 87.43 44.29C85.5771 44.232 83.7429 44.6741 82.12 45.57Z" fill="#FF74A1"/>
<path d="M89.87 80.0501C94.4163 80.0921 98.9173 79.1434 103.06 77.2701C106.971 75.5308 110.313 72.7232 112.7 69.1701C114.459 66.5168 115.587 63.4965 116 60.3401V53.0001C115.577 49.8353 114.438 46.8086 112.67 44.1501C112.25 43.5201 111.79 42.9301 111.32 42.3501C110.577 41.4451 109.761 40.6023 108.88 39.8301C109.366 40.4043 109.821 41.0052 110.24 41.6301C112.674 45.3444 113.922 49.7105 113.82 54.1501C113.923 58.5804 112.674 62.9369 110.24 66.6401C107.85 70.1937 104.51 73.0039 100.6 74.7501C96.4425 76.5767 91.951 77.52 87.41 77.52C82.869 77.52 78.3774 76.5767 74.22 74.7501C72.0658 73.7732 70.0703 72.4788 68.3 70.9101C69.0425 71.8127 69.855 72.6553 70.73 73.4301C72.5003 74.9988 74.4958 76.2932 76.65 77.2701C80.8013 79.1495 85.3133 80.0984 89.87 80.0501Z" fill="#FF74A1"/>
<path d="M138.88 10.0901V7.57007H136.45V76.0601H123.32V78.5901H125.76H138.88V10.0901Z" fill="#FF74A1"/>
<path d="M164.72 53.0001C164.551 51.7002 164.464 50.3909 164.46 49.0801C164.464 47.7759 164.55 46.4732 164.72 45.1801V7.57007H162.29V76.0601H149.16V78.5901H164.72V53.0001Z" fill="#FF74A1"/>
<path d="M184.89 56.7201C184.868 58.1039 185.057 59.483 185.45 60.8101C186.101 61.0296 186.77 61.1902 187.45 61.2901C187.366 60.6267 187.323 59.9588 187.32 59.2901H195.8C196.355 58.7577 196.829 58.1481 197.21 57.4801H212.21C212.06 58.1101 211.87 58.7101 211.67 59.2901H218.88C218.388 58.2681 217.98 57.208 217.66 56.1201V56.7701L184.89 56.7201Z" fill="#FF74A1"/>
<path d="M216 45C216.3 45.85 216.55 46.73 216.77 47.63C216.834 46.623 216.961 45.6211 217.15 44.63C216.545 43.4331 215.825 42.2978 215 41.24C214.6 40.74 214.18 40.24 213.74 39.79C213.3 39.34 212.97 39.06 212.57 38.72C214.057 40.6063 215.217 42.7292 216 45Z" fill="#FF74A1"/>
<path d="M188.36 42.6001L188.25 42.6901H198.32C198.246 42.2939 198.146 41.903 198.02 41.5201C196.863 41.0401 195.622 40.7953 194.37 40.8001C192.225 40.7399 190.118 41.3709 188.36 42.6001Z" fill="#FF74A1"/>
<path d="M212.52 70.83C210.276 73.0928 207.537 74.8043 204.52 75.83C201.37 76.9282 198.056 77.4827 194.72 77.47C190.203 77.5524 185.724 76.6266 181.61 74.76C179.801 73.9132 178.118 72.8194 176.61 71.51C177.345 72.4194 178.158 73.2626 179.04 74.03C180.547 75.3406 182.23 76.4345 184.04 77.28C188.154 79.1497 192.632 80.0789 197.15 80C200.501 80.036 203.833 79.4948 207 78.4C210.022 77.3598 212.761 75.6309 215 73.35C216.624 71.6781 217.893 69.695 218.73 67.52C219.049 66.6975 219.316 65.8558 219.53 65H216.3C215.448 67.1796 214.162 69.1632 212.52 70.83Z" fill="#FF74A1"/>
<path d="M256.41 46.4699C254.134 44.5904 251.309 43.5023 248.36 43.3699C246.486 43.353 244.641 43.8327 243.013 44.7601C241.385 45.6875 240.031 47.0296 239.09 48.6499C238.139 50.3 237.648 52.1754 237.67 54.0799C237.65 55.6696 237.96 57.2462 238.58 58.7099C239.169 58.9991 239.786 59.2302 240.42 59.3999C240.209 58.4815 240.101 57.5423 240.1 56.5999C240.082 54.699 240.572 52.8278 241.52 51.1799C242.442 49.5681 243.778 48.232 245.39 47.3099C247.035 46.3656 248.903 45.8788 250.8 45.8999C253.73 46.0387 256.537 47.1228 258.8 48.9899V39.9999H257.6V35.1999C257.19 34.9999 256.78 34.8299 256.37 34.6599L256.41 46.4699Z" fill="#FF74A1"/>
<path d="M256.41 74.9999C252.991 76.6837 249.221 77.5336 245.41 77.4799C241.254 77.5004 237.16 76.4684 233.51 74.4799C231.9 73.6112 230.396 72.5574 229.03 71.3399C229.786 72.2899 230.615 73.1793 231.51 73.9999C232.884 75.1942 234.391 76.2276 236 77.0799C239.65 79.0684 243.744 80.1004 247.9 80.0799C251.694 80.1219 255.445 79.2725 258.85 77.5999V64.3999C258.119 65.0776 257.302 65.6559 256.42 66.1199L256.41 74.9999Z" fill="#FF74A1"/>
<path d="M283.1 27.13H285.53V24.05V21.52H283.1V27.13Z" fill="#FF74A1"/>
<path d="M285.53 47.5299H292V34.7H291.92V45H283.1V76.0599H269.97V78.5899H272.4H285.53V47.5299Z" fill="#FF74A1"/>
<path d="M314.88 52.79C314.533 50.3455 314.533 47.8644 314.88 45.4199V34.7H312.45V76.0599H299.3V78.5899H314.88V52.79Z" fill="#FF74A1"/>
<path d="M307.08 26.5799C308.617 26.5848 310.127 26.1736 311.45 25.3899C312.776 24.619 313.879 23.5162 314.65 22.1899C315.424 20.8752 315.828 19.3756 315.82 17.8499C315.827 16.3149 315.423 14.8061 314.65 13.4799C314.59 13.3799 314.52 13.2899 314.45 13.1899C313.816 12.19 312.982 11.3321 312 10.6699C312.06 10.7699 312.14 10.8599 312.19 10.9599C312.962 12.2813 313.369 13.7843 313.369 15.3149C313.369 16.8455 312.962 18.3485 312.19 19.6699C311.422 20.9927 310.323 22.0922 309 22.8599C307.675 23.639 306.167 24.0497 304.63 24.0497C303.093 24.0497 301.585 23.639 300.26 22.8599C300.07 22.7499 299.89 22.6099 299.71 22.4899C300.348 23.4841 301.182 24.338 302.16 24.9999C302.34 25.1299 302.52 25.2599 302.72 25.3799C304.038 26.1681 305.545 26.583 307.08 26.5799Z" fill="#FF74A1"/>
<path d="M348.35 80.0501C352.893 80.0919 357.391 79.1432 361.53 77.2701C365.444 75.5314 368.789 72.724 371.18 69.1701C372.946 66.5187 374.082 63.4982 374.5 60.3401V53.0001C374.08 49.8361 372.945 46.8095 371.18 44.1501C370.758 43.527 370.304 42.9262 369.82 42.3501C369.083 41.4429 368.27 40.5999 367.39 39.8301C367.873 40.4068 368.327 41.0075 368.75 41.6301C371.184 45.3444 372.432 49.7105 372.33 54.1501C372.433 58.5804 371.184 62.9369 368.75 66.6401C366.357 70.194 363.013 73.0041 359.1 74.7501C354.943 76.5767 350.451 77.52 345.91 77.52C341.369 77.52 336.877 76.5767 332.72 74.7501C330.568 73.7687 328.573 72.4748 326.8 70.9101C329.061 73.6401 331.917 75.8158 335.15 77.2701C339.296 79.1442 343.8 80.0929 348.35 80.0501Z" fill="#FF74A1"/>
<path d="M340.59 45.57C339.109 46.4152 337.899 47.6637 337.1 49.17C336.29 50.7107 335.877 52.4294 335.9 54.17C335.881 55.5354 336.119 56.8922 336.6 58.17C337.212 58.4275 337.849 58.6219 338.5 58.75C338.388 58.0893 338.331 57.4203 338.33 56.75C338.307 55.0081 338.723 53.2884 339.54 51.75C340.336 50.245 341.543 48.9967 343.02 48.15C344.641 47.2343 346.479 46.7715 348.34 46.81C349.181 46.8142 350.019 46.908 350.84 47.09C350.721 46.4344 350.54 45.7915 350.3 45.17C348.915 44.571 347.419 44.2711 345.91 44.29C344.054 44.2332 342.217 44.6752 340.59 45.57Z" fill="#FF74A1"/>
<path d="M428.09 51.47C428.165 48.1783 427.583 44.9047 426.38 41.84C425.963 40.8344 425.429 39.8812 424.79 39C424.099 38.0533 423.281 37.2055 422.36 36.48C423.019 37.3538 423.569 38.304 424 39.31C425.2 42.3789 425.778 45.6557 425.7 48.95V76.06H412.53V78.59H428.09V51.47Z" fill="#FF74A1"/>
<path d="M397.36 55.8201C397.36 49.1935 399.957 45.8068 405.15 45.6601C405.083 44.8478 404.953 44.042 404.76 43.2501C404.198 43.1632 403.629 43.1198 403.06 43.1201C397.64 43.1201 394.93 46.5135 394.93 53.3001V76.0601H381.8V78.5901H397.36V55.8201Z" fill="#FF74A1"/>
<path d="M463.24 78.3001C466.252 77.239 468.906 75.3542 470.9 72.8601C472.939 70.2469 474 67.0031 473.9 63.6901C473.987 61.1857 473.287 58.7169 471.9 56.6301C471.228 55.6672 470.408 54.8167 469.47 54.1101C470.853 56.1991 471.551 58.6663 471.47 61.1701C471.584 64.477 470.541 67.7201 468.52 70.3401C466.521 72.8292 463.869 74.7128 460.86 75.7801C457.62 76.9563 454.197 77.5455 450.75 77.5201C445.614 77.5363 440.546 76.3514 435.95 74.0601L435.47 74.9901C436.47 75.5801 437.4 76.1001 438.38 76.5901C442.978 78.8765 448.045 80.0611 453.18 80.0501C456.611 80.0706 460.018 79.478 463.24 78.3001Z" fill="#FF74A1"/>
<path d="M464.91 43.4599C462.338 42.0629 459.457 41.3308 456.53 41.3299C455.388 41.3245 454.26 41.5775 453.23 42.0699C452.846 42.2482 452.505 42.5075 452.23 42.8299L453.84 43.1299C455.002 43.361 456.148 43.6683 457.27 44.0499C457.834 43.9188 458.411 43.8517 458.99 43.8499C461.909 43.8606 464.779 44.5996 467.34 45.9999L471.86 37.4099L472.56 36.0799C471.537 35.6222 470.489 35.2249 469.42 34.8899L464.91 43.4599Z" fill="#FF74A1"/>
<path d="M448.82 60.4499C449.03 60.3499 449.24 60.2599 449.44 60.1399C449.97 59.8636 450.405 59.4353 450.69 58.9099C449.39 58.6099 447.86 58.2899 446.08 57.8499C443.97 57.3608 441.978 56.4565 440.22 55.1899C440.551 55.7296 440.948 56.2267 441.4 56.6699C441.8 57.0239 442.217 57.3577 442.65 57.6699C444.406 58.9386 446.399 59.8431 448.51 60.3299L448.82 60.4499Z" fill="#FF74A1"/>
<path d="M51.81 30.5799C52.5661 31.2512 53.2621 31.9873 53.89 32.7799C54 32.9199 54.13 33.0499 54.24 33.1999V13.0899C53.43 12.7499 52.62 12.4499 51.81 12.1699V30.5799Z" fill="#FFA3C0"/>
<path d="M26.5 75.3099C30.6142 76.9465 35.0023 77.7847 39.43 77.7799C41.5541 77.7954 43.6735 77.5774 45.75 77.1299C47.6767 76.7033 50.5067 75.9233 54.24 74.7899V54.6699C53.5035 55.5349 52.6901 56.3315 51.81 57.0499V72.2599C48.0833 73.4199 45.2533 74.1999 43.32 74.5999C41.2442 75.0517 39.1243 75.2697 37 75.2499C32.5729 75.2582 28.1848 74.4233 24.07 72.7899C19.9199 71.1534 16.0988 68.7821 12.79 65.7899L12.38 65.3999C13.14 66.2733 13.95 67.1133 14.81 67.9199L15.22 68.3099C18.5263 71.3055 22.348 73.6771 26.5 75.3099Z" fill="#FFA3C0"/>
<path d="M22.33 43.9999C22.2992 40.8679 23.0411 37.7767 24.49 34.9999C25.8785 32.3128 27.9916 30.0681 30.59 28.5199C33.2908 26.9207 36.3816 26.1004 39.52 26.1499C42.3827 26.1376 45.2119 26.7663 47.8 27.9899C49.1128 28.606 50.3426 29.3855 51.46 30.3099C50.8346 29.5152 50.1384 28.7789 49.38 28.1099V28.2099C49.27 28.0599 49.14 27.9299 49.02 27.7799C47.9058 26.8588 46.6794 26.0826 45.37 25.4699C42.778 24.2474 39.9458 23.6188 37.08 23.6299C33.945 23.5822 30.8579 24.4024 28.16 25.9999C25.5643 27.547 23.4518 29.7877 22.06 32.4699C20.6057 35.2451 19.8602 38.3369 19.89 41.4699C19.8498 44.6077 20.6068 47.7044 22.09 50.4699C22.473 51.1657 22.9041 51.834 23.38 52.4699C23.86 52.8599 24.38 53.2299 24.89 53.5799C24.77 53.3799 24.63 53.1999 24.52 52.9899C23.0403 50.2271 22.2867 47.1337 22.33 43.9999Z" fill="#FFA3C0"/>
<path d="M85 41.7099C83.138 41.6664 81.2992 42.1296 79.68 43.0499C78.2042 43.8939 76.9976 45.1386 76.2 46.6399C75.3839 48.1788 74.9678 49.8982 74.99 51.6399C74.9418 53.625 75.4811 55.5802 76.54 57.2599C77.0337 57.6119 77.5674 57.904 78.13 58.1299C77.6437 56.8534 77.4061 55.4957 77.43 54.1299C77.4073 52.3893 77.8198 50.6706 78.63 49.1299C79.4288 47.6236 80.6391 46.3751 82.12 45.5299C83.737 44.6132 85.5716 44.1502 87.43 44.1899C88.9392 44.1689 90.4356 44.4688 91.82 45.0699C91.6889 44.7284 91.5387 44.3945 91.37 44.0699C91.25 43.8499 91.11 43.6499 90.98 43.4499C90.767 43.2851 90.5432 43.1347 90.31 42.9999C88.6899 42.0959 86.8543 41.65 85 41.7099Z" fill="#FFA3C0"/>
<path d="M74.25 74.75C78.4075 76.5767 82.899 77.5199 87.44 77.5199C91.9811 77.5199 96.4726 76.5767 100.63 74.75C104.54 73.0039 107.88 70.1936 110.27 66.64C112.704 62.9368 113.953 58.5803 113.85 54.1501C113.952 49.7104 112.704 45.3444 110.27 41.6301C109.851 41.0052 109.397 40.4042 108.91 39.8301C108.17 38.922 107.358 38.0758 106.48 37.3C109.838 41.3038 111.597 46.4075 111.42 51.6301C111.521 56.0602 110.273 60.4163 107.84 64.1201C105.449 67.6739 102.104 70.4814 98.19 72.2201C94.0343 74.0533 89.5421 75.0001 85 75.0001C80.4579 75.0001 75.9657 74.0533 71.81 72.2201C69.6564 71.2421 67.661 69.9478 65.89 68.38C66.6359 69.2859 67.4518 70.1318 68.33 70.9101C70.1003 72.4788 72.0958 73.7732 74.25 74.75Z" fill="#FFA3C0"/>
<path d="M136.45 76.06V7.57005V5.05005H134.02V73.54H120.89V76.06H123.32H136.45Z" fill="#FFA3C0"/>
<path d="M162.29 76.06V7.57005V5.05005H159.86V73.54H146.73V76.06H149.16H162.29Z" fill="#FFA3C0"/>
<path d="M210.09 68.3C207.848 70.5659 205.109 72.2779 202.09 73.3C198.942 74.4061 195.627 74.9642 192.29 74.95C187.77 75.0312 183.288 74.1055 179.17 72.24C177.362 71.3916 175.679 70.2979 174.17 68.99C174.907 69.8972 175.72 70.7402 176.6 71.51C178.108 72.8194 179.791 73.9132 181.6 74.76C185.714 76.6266 190.193 77.5524 194.71 77.47C198.046 77.4827 201.36 76.9281 204.51 75.83C207.527 74.8043 210.266 73.0928 212.51 70.83C214.142 69.1604 215.417 67.177 216.26 65C216.579 64.1774 216.846 63.3358 217.06 62.48H213.82C212.99 64.6557 211.72 66.637 210.09 68.3Z" fill="#FFA3C0"/>
<path d="M213.6 42.4399C214.713 45.6995 215.257 49.126 215.21 52.5699V54.1999H182.46C182.382 56.2198 182.83 58.2254 183.76 60.0199C184.291 60.3483 184.858 60.6134 185.45 60.8099C185.057 59.4829 184.868 58.1038 184.89 56.7199H217.64V56.0699C217.024 53.9482 216.714 51.7493 216.72 49.5399C216.72 48.8799 216.72 48.2299 216.8 47.5899C216.58 46.6899 216.33 45.8099 216.03 44.9599C215.24 42.7025 214.077 40.5934 212.59 38.7199C212.194 38.2105 211.77 37.7231 211.32 37.2599C210.95 36.8799 210.55 36.5399 210.15 36.1899C211.64 38.0666 212.806 40.179 213.6 42.4399Z" fill="#FFA3C0"/>
<path d="M185.92 40.0799C184.978 40.7693 184.202 41.6612 183.65 42.6899H188.25L188.36 42.5999C190.116 41.3728 192.219 40.7418 194.36 40.7999C195.612 40.7952 196.853 41.0399 198.01 41.5199C197.833 40.9874 197.595 40.4773 197.3 39.9999C195.733 38.8941 193.858 38.3098 191.94 38.3299C189.798 38.2578 187.689 38.8709 185.92 40.0799Z" fill="#FFA3C0"/>
<path d="M254 43.9399C251.737 42.0728 248.93 40.9887 246 40.8499C244.103 40.8297 242.236 41.3165 240.59 42.2599C238.981 43.1823 237.648 44.5185 236.73 46.1299C235.779 47.78 235.288 49.6554 235.31 51.5599C235.236 53.7433 235.825 55.898 237 57.7399C237.497 58.1227 238.03 58.4575 238.59 58.7399C237.97 57.2761 237.66 55.6996 237.68 54.1099C237.658 52.2054 238.149 50.33 239.1 48.6799C240.041 47.0596 241.395 45.7175 243.023 44.7901C244.651 43.8626 246.496 43.383 248.37 43.3999C251.319 43.5323 254.144 44.6204 256.42 46.4999V33.2899C255.64 32.8532 254.831 32.469 254 32.1399V43.9399Z" fill="#FFA3C0"/>
<path d="M254 72.5199C250.58 74.2015 246.811 75.0513 243 74.9999C238.841 75.0156 234.745 73.9839 231.09 71.9999C229.483 71.1312 227.982 70.0773 226.62 68.8599C227.365 69.76 228.178 70.6024 229.05 71.3799C230.416 72.5974 231.92 73.6512 233.53 74.5199C237.18 76.5083 241.274 77.5404 245.43 77.5199C249.241 77.5736 253.011 76.7237 256.43 75.0399V61.8799C255.698 62.554 254.881 63.1289 254 63.5899V72.5199Z" fill="#FFA3C0"/>
<path d="M262.68 42.48H262.51V45H262.68V42.48Z" fill="#FFA3C0"/>
<path d="M280.67 27.13H283.1V21.52V19H280.67V27.13Z" fill="#FFA3C0"/>
<path d="M283.1 76.0599V44.9999H291.92V34.6999V32.1799H289.48V42.4799H280.67V73.5399H267.54V76.0599H269.97H283.1Z" fill="#FFA3C0"/>
<path d="M304.64 24.0499C306.174 24.0559 307.681 23.6446 309 22.8599C310.323 22.0922 311.422 20.9926 312.19 19.6699C312.962 18.3485 313.369 16.8455 313.369 15.3149C313.369 13.7843 312.962 12.2813 312.19 10.9599C312.19 10.8599 312.06 10.7699 312 10.6699C311.375 9.66677 310.547 8.80509 309.57 8.13989L309.76 8.42989C310.557 9.74949 310.985 11.2586 311 12.7999C311.009 14.3257 310.605 15.8256 309.83 17.1399C309.065 18.4705 307.961 19.5746 306.63 20.3399C305.307 21.1191 303.8 21.53 302.265 21.53C300.73 21.53 299.223 21.1191 297.9 20.3399L297.34 19.9599C297.972 20.9613 298.802 21.8224 299.78 22.4899C299.96 22.6099 300.14 22.7499 300.33 22.8599C301.633 23.6391 303.122 24.0504 304.64 24.0499Z" fill="#FFA3C0"/>
<path d="M312.44 76.0599V34.6999V32.1799H310.01V73.5399H296.87V76.0599H299.3H312.44Z" fill="#FFA3C0"/>
<path d="M332.72 74.75C336.877 76.5767 341.369 77.5199 345.91 77.5199C350.451 77.5199 354.943 76.5767 359.1 74.75C363.013 73.0041 366.357 70.194 368.75 66.64C371.184 62.9368 372.433 58.5803 372.33 54.1501C372.432 49.7104 371.184 45.3444 368.75 41.6301C368.327 41.0075 367.873 40.4067 367.39 39.8301C366.658 38.9282 365.859 38.0825 365 37.3C365.47 37.88 365.93 38.4801 366.36 39.1101C368.789 42.8265 370.037 47.1911 369.94 51.6301C370.036 56.0595 368.788 60.4142 366.36 64.1201C363.967 67.6717 360.623 70.4786 356.71 72.2201C352.554 74.0533 348.062 75.0001 343.52 75.0001C338.978 75.0001 334.486 74.0533 330.33 72.2201C328.175 71.2445 326.179 69.95 324.41 68.38C325.155 69.2833 325.967 70.1291 326.84 70.9101C328.601 72.4714 330.582 73.7653 332.72 74.75Z" fill="#FFA3C0"/>
<path d="M343.47 41.71C341.611 41.6668 339.776 42.13 338.16 43.05C336.681 43.8925 335.47 45.1374 334.67 46.64C333.861 48.1813 333.449 49.8996 333.47 51.64C333.416 53.6231 333.948 55.5781 335 57.26C335.491 57.6099 336.022 57.9019 336.58 58.13C336.099 56.8522 335.861 55.4954 335.88 54.13C335.857 52.3894 336.27 50.6707 337.08 49.13C337.879 47.6237 339.089 46.3752 340.57 45.53C342.191 44.6143 344.029 44.1515 345.89 44.19C347.399 44.1711 348.895 44.471 350.28 45.07C350.14 44.74 350 44.4 349.83 44.07C349.66 43.74 349.57 43.65 349.44 43.45C349.227 43.2852 349.003 43.1348 348.77 43C347.152 42.0997 345.321 41.6539 343.47 41.71Z" fill="#FFA3C0"/>
<path d="M394.93 76.06V53.3C394.93 46.5066 397.64 43.1133 403.06 43.12C403.629 43.1196 404.198 43.1631 404.76 43.25C404.598 42.5644 404.373 41.895 404.09 41.25C402.99 40.814 401.813 40.6065 400.63 40.64C395.21 40.64 392.5 44.03 392.5 50.81V73.54H379.37V76.06H394.93Z" fill="#FFA3C0"/>
<path d="M425.65 76.06V49C425.728 45.7057 425.15 42.4289 423.95 39.36C423.536 38.3495 423.003 37.3926 422.36 36.51C421.668 35.5634 420.851 34.7156 419.93 33.99C420.569 34.8748 421.103 35.8313 421.52 36.84C422.716 39.9099 423.294 43.186 423.22 46.48V73.54H410.09V76.06H425.65Z" fill="#FFA3C0"/>
<path d="M462.48 40.9301C459.908 39.5331 457.027 38.801 454.1 38.8001C452.954 38.7994 451.823 39.0557 450.79 39.5501C450.326 39.7134 449.924 40.0164 449.639 40.4175C449.355 40.8187 449.201 41.2982 449.2 41.7901C449.195 41.8733 449.195 41.9568 449.2 42.0401L449.35 42.1101C450.061 42.362 450.789 42.5593 451.53 42.7001L452.17 42.8301C452.445 42.5077 452.786 42.2484 453.17 42.0701C454.2 41.5777 455.328 41.3247 456.47 41.3301C459.397 41.331 462.278 42.0631 464.85 43.4601L469.36 34.8701L470.06 33.5401C469.041 33.0791 467.996 32.6784 466.93 32.3401L462.48 40.9301Z" fill="#FFA3C0"/>
<path d="M450.7 77.5201C454.147 77.5455 457.57 76.9563 460.81 75.7801C463.819 74.7127 466.471 72.8291 468.47 70.3401C470.491 67.7201 471.534 64.477 471.42 61.1701C471.501 58.6663 470.803 56.1991 469.42 54.1101C468.746 53.1493 467.93 52.2962 467 51.5801C468.382 53.673 469.081 56.1432 469 58.6501C469.094 61.9622 468.034 65.204 466 67.8201C463.996 70.3087 461.341 72.192 458.33 73.2601C455.106 74.4319 451.7 75.021 448.27 75.0001C443.135 75.0111 438.068 73.8265 433.47 71.5401L432.98 72.4701C433.98 73.0601 434.92 73.5801 435.9 74.0601C440.496 76.3514 445.564 77.5362 450.7 77.5201Z" fill="#FFA3C0"/>
<path d="M446.08 57.8499C447.86 58.2899 449.39 58.6099 450.69 58.9099C450.889 58.5269 450.992 58.1014 450.99 57.6699C450.984 57.509 450.968 57.3486 450.94 57.1899C450.247 56.9043 449.531 56.6768 448.8 56.5099C447.4 56.1799 445.68 55.8199 443.65 55.3299C441.539 54.8374 439.547 53.9298 437.79 52.6599C438.126 53.205 438.533 53.7027 439 54.1399C439.398 54.4965 439.815 54.8304 440.25 55.1399C441.995 56.4206 443.976 57.3418 446.08 57.8499Z" fill="#FFA3C0"/>
<path d="M49.38 28.0599C50.1384 28.7289 50.8346 29.4652 51.46 30.2599C51.57 30.3999 51.7 30.5299 51.81 30.6799V10.5599C50.99 10.2299 50.18 9.9299 49.38 9.6499V28.0599Z" fill="#FFD1E0"/>
<path d="M24.07 72.7899C28.1848 74.4233 32.5729 75.2581 37 75.2499C39.1243 75.2697 41.2442 75.0517 43.32 74.5999C45.2533 74.1732 48.0833 73.3932 51.81 72.2599V52.1499C51.0735 53.0149 50.2601 53.8115 49.38 54.5299V69.7399C45.65 70.8699 42.81 71.6499 40.89 72.0799C38.8134 72.5267 36.6941 72.7447 34.57 72.7299C30.1418 72.7396 25.7528 71.9012 21.64 70.2599C17.488 68.6271 13.6663 66.2554 10.36 63.2599L10 62.8399C10.7633 63.7237 11.5745 64.565 12.43 65.3599L12.84 65.7499C16.1307 68.7513 19.9346 71.136 24.07 72.7899Z" fill="#FFD1E0"/>
<path d="M19.89 41.46C19.8602 38.3269 20.6057 35.2352 22.06 32.46C23.4533 29.7815 25.5657 27.5444 28.16 26C30.8579 24.4025 33.945 23.5823 37.08 23.63C39.9458 23.6189 42.778 24.2475 45.37 25.47C46.6698 26.0685 47.8893 26.8278 49 27.73C47.379 25.66 45.2925 24.0017 42.91 22.89C40.3203 21.6712 37.4922 21.0427 34.63 21.05C31.4916 21.0004 28.4008 21.8207 25.7 23.42C23.106 24.9736 20.9942 27.2169 19.6 29.9C18.1534 32.6777 17.4117 35.7683 17.44 38.9C17.3872 42.0723 18.1481 45.2052 19.65 48C20.606 49.7224 21.8703 51.2545 23.38 52.52C22.9041 51.8841 22.473 51.2158 22.09 50.52C20.5969 47.7367 19.8396 44.6181 19.89 41.46Z" fill="#FFD1E0"/>
<path d="M71.81 72.22C75.9657 74.0533 80.4579 75.0001 85 75.0001C89.5421 75.0001 94.0343 74.0533 98.19 72.22C102.104 70.4814 105.449 67.6739 107.84 64.12C110.273 60.4163 111.521 56.0601 111.42 51.63C111.597 46.4075 109.838 41.3037 106.48 37.3C105.737 36.3976 104.925 35.555 104.05 34.78C104.52 35.36 104.98 35.95 105.41 36.58C107.843 40.2954 109.094 44.66 109 49.1C109.093 53.5322 107.846 57.8892 105.42 61.6C103.029 65.1539 99.6845 67.9614 95.77 69.7C91.6143 71.5333 87.1221 72.4801 82.58 72.4801C78.0379 72.4801 73.5457 71.5333 69.39 69.7C67.2382 68.7187 65.2434 67.4247 63.47 65.86C64.2127 66.7624 65.0252 67.605 65.9 68.38C67.668 69.947 69.6599 71.2412 71.81 72.22Z" fill="#FFD1E0"/>
<path d="M75 51.64C74.9778 49.8983 75.3939 48.1789 76.21 46.64C77.0077 45.1387 78.2142 43.894 79.69 43.05C81.3235 42.1704 83.1497 41.7099 85.005 41.7099C86.8603 41.7099 88.6865 42.1704 90.32 43.05C90.5532 43.1848 90.777 43.3351 90.99 43.5C90.2152 42.2635 89.1513 41.2339 87.89 40.5C86.2565 39.6204 84.4303 39.1599 82.575 39.1599C80.7197 39.1599 78.8935 39.6204 77.26 40.5C75.7791 41.3452 74.5688 42.5936 73.77 44.1C72.9606 45.641 72.5482 47.3595 72.57 49.1C72.5258 50.3975 72.7419 51.6907 73.2056 52.9032C73.6694 54.1158 74.3713 55.2232 75.27 56.16C75.6562 56.5654 76.0854 56.9276 76.55 57.24C75.4949 55.566 74.9558 53.6184 75 51.64Z" fill="#FFD1E0"/>
<path d="M134.02 73.54V5.05002V2.52002H131.59V71.02H118.46V73.54H120.89H134.02Z" fill="#FFD1E0"/>
<path d="M159.86 73.54V5.05002V2.52002H157.43V71.02H144.3V73.54H146.73H159.86Z" fill="#FFD1E0"/>
<path d="M211.39 60C210.556 62.1769 209.287 64.1607 207.66 65.83C205.419 68.0971 202.68 69.8093 199.66 70.83C196.512 71.9371 193.197 72.4952 189.86 72.48C185.342 72.5589 180.864 71.6297 176.75 69.76C174.942 68.915 173.26 67.8247 171.75 66.52C172.492 67.4138 173.308 68.2434 174.19 69C175.699 70.308 177.382 71.4016 179.19 72.25C183.305 74.1292 187.787 75.0686 192.31 75C195.647 75.0142 198.962 74.4561 202.11 73.35C205.129 72.3279 207.868 70.6159 210.11 68.35C211.74 66.687 213.01 64.7058 213.84 62.53C213.94 62.3 214.02 62.06 214.1 61.82C214.3 61.23 214.49 60.63 214.64 60H211.39Z" fill="#FFD1E0"/>
<path d="M211.17 39.9199C212.279 43.1633 212.823 46.5726 212.78 49.9999V51.6299H180C180 55.6699 181.247 58.4533 183.74 59.9799C182.81 58.1854 182.362 56.1798 182.44 54.1599H215.19V52.5699C215.237 49.126 214.693 45.6995 213.58 42.4399C212.786 40.179 211.62 38.0665 210.13 36.1899C209.73 35.6899 209.32 35.1899 208.87 34.7399C208.42 34.2899 208.1 34.0199 207.7 33.6699C209.199 35.5437 210.372 37.6566 211.17 39.9199Z" fill="#FFD1E0"/>
<path d="M185.92 40.08C187.678 38.8574 189.779 38.2269 191.92 38.28C193.85 38.2703 195.734 38.8724 197.3 40C196.768 39.1221 196.072 38.3549 195.25 37.74C193.61 36.466 191.587 35.7856 189.51 35.81C187.371 35.7567 185.27 36.3835 183.51 37.6C181.818 38.8364 180.669 40.6774 180.3 42.74H183.67C184.21 41.6952 184.979 40.786 185.92 40.08Z" fill="#FFD1E0"/>
<path d="M251.54 70.0001C248.138 71.6726 244.391 72.5221 240.6 72.4801C236.44 72.5014 232.343 71.4694 228.69 69.4801C227.085 68.6114 225.585 67.5612 224.22 66.3501C224.963 67.2526 225.775 68.0952 226.65 68.8701C228.013 70.0841 229.513 71.1345 231.12 72.0001C234.766 73.9792 238.851 75.0108 243 75.0001C246.811 75.0515 250.58 74.2018 254 72.5201V59.3601C253.268 60.0339 252.451 60.6088 251.57 61.0701L251.54 70.0001Z" fill="#FFD1E0"/>
<path d="M251.54 41.4201C249.277 39.553 246.47 38.4689 243.54 38.3301C241.643 38.309 239.775 38.7958 238.13 39.7401C236.519 40.6597 235.185 41.9966 234.27 43.6101C233.309 45.2434 232.805 47.1051 232.81 49.0001C232.757 50.4371 233.002 51.8696 233.53 53.2069C234.059 54.5443 234.859 55.7576 235.88 56.7701C236.226 57.1104 236.597 57.4245 236.99 57.7101C235.794 55.875 235.184 53.7198 235.24 51.5301C235.218 49.6256 235.709 47.7502 236.66 46.1001C237.578 44.4887 238.911 43.1525 240.52 42.2301C242.166 41.2867 244.033 40.8 245.93 40.8201C248.86 40.9589 251.667 42.043 253.93 43.9101V30.7601C253.149 30.3218 252.337 29.9408 251.5 29.6201L251.54 41.4201Z" fill="#FFD1E0"/>
<path d="M262.67 39.96H260.07V42.48H261.27H262.5H262.67V39.96Z" fill="#FFD1E0"/>
<path d="M278.24 27.13H280.67V19V16.48H278.24V27.13Z" fill="#FFD1E0"/>
<path d="M280.67 73.5399V42.4799H289.48V32.1799V29.6599H287.96H287.05V39.9599H278.24V71.0199H265.11V73.5399H267.54H280.67Z" fill="#FFD1E0"/>
<path d="M302.21 21.5301C303.747 21.535 305.257 21.1238 306.58 20.3401C307.911 19.5748 309.015 18.4707 309.78 17.1401C310.573 15.8308 310.994 14.3306 311 12.8001C311.006 11.2653 310.602 9.75664 309.83 8.43012L309.64 8.14012C309.012 7.14222 308.184 6.28441 307.21 5.62012L307.4 5.91012C308.173 7.23626 308.577 8.74514 308.57 10.2801C308.578 11.8058 308.174 13.3054 307.4 14.6201C306.629 15.9464 305.526 17.0492 304.2 17.8201C302.877 18.5993 301.37 19.0102 299.835 19.0102C298.3 19.0102 296.793 18.5993 295.47 17.8201C295.27 17.7001 295.1 17.5701 294.91 17.4401C295.525 18.4434 296.334 19.3137 297.29 20.0001L297.85 20.3801C299.173 21.1499 300.68 21.5473 302.21 21.5301Z" fill="#FFD1E0"/>
<path d="M310.01 73.5399V32.1799V29.6599H307.58V71.0199H294.43V73.5399H296.87H310.01Z" fill="#FFD1E0"/>
<path d="M330.29 72.22C334.446 74.0533 338.938 75.0001 343.48 75.0001C348.022 75.0001 352.514 74.0533 356.67 72.22C360.583 70.4786 363.927 67.6717 366.32 64.12C368.748 60.4142 369.996 56.0595 369.9 51.63C369.997 47.1911 368.749 42.8265 366.32 39.11C365.89 38.48 365.43 37.88 364.96 37.3C364.217 36.3951 363.401 35.5523 362.52 34.78C365.891 38.7725 367.652 43.8783 367.46 49.1C367.562 53.5333 366.313 57.8927 363.88 61.6C361.493 65.1532 358.151 67.9607 354.24 69.7C350.084 71.5333 345.592 72.4801 341.05 72.4801C336.508 72.4801 332.016 71.5333 327.86 69.7C325.707 68.7208 323.712 67.4266 321.94 65.86C322.683 66.7624 323.495 67.605 324.37 68.38C326.139 69.95 328.135 71.2445 330.29 72.22Z" fill="#FFD1E0"/>
<path d="M333.47 51.64C333.449 49.8996 333.861 48.1813 334.67 46.64C335.47 45.1373 336.681 43.8925 338.16 43.05C339.793 42.1704 341.62 41.7099 343.475 41.7099C345.33 41.7099 347.157 42.1704 348.79 43.05C349.023 43.1848 349.247 43.3351 349.46 43.5C348.678 42.2689 347.616 41.2408 346.36 40.5C344.726 39.6204 342.9 39.1599 341.045 39.1599C339.19 39.1599 337.363 39.6204 335.73 40.5C334.249 41.3452 333.039 42.5936 332.24 44.1C331.431 45.641 331.018 47.3595 331.04 49.1C330.996 50.3966 331.211 51.6889 331.673 52.9012C332.135 54.1134 332.834 55.2214 333.73 56.16C334.115 56.5691 334.54 56.9377 335 57.26C333.948 55.5781 333.416 53.6231 333.47 51.64Z" fill="#FFD1E0"/>
<path d="M390.06 32.7699H390.23C390.897 31.7767 391.657 30.8492 392.5 29.9999V29.6699H390.06V32.7699Z" fill="#FFD1E0"/>
<path d="M423.22 73.5399V46.4299C423.294 43.136 422.716 39.8598 421.52 36.7899C421.103 35.7812 420.569 34.8247 419.93 33.9399C419.235 32.99 418.414 32.1389 417.49 31.4099C418.13 32.2994 418.667 33.2589 419.09 34.2699C420.285 37.3367 420.863 40.6093 420.79 43.8999V70.9999H407.66V73.5199H423.22V73.5399Z" fill="#FFD1E0"/>
<path d="M392.5 73.5401V50.7701C392.5 43.9901 395.21 40.6001 400.63 40.6001C401.813 40.5666 402.99 40.7741 404.09 41.2101C404.02 41.0501 403.97 40.8701 403.89 40.7201C403.003 38.9601 401.107 38.0801 398.2 38.0801C392.78 38.0801 390.067 41.4701 390.06 48.2501V71.0001H376.94V73.5201H392.5V73.5401Z" fill="#FFD1E0"/>
<path d="M460 38.4101C457.428 37.0119 454.547 36.2797 451.62 36.2801C450.479 36.2818 449.352 36.5344 448.32 37.0201C447.855 37.1852 447.453 37.4901 447.168 37.8929C446.884 38.2957 446.73 38.7768 446.73 39.2701C446.725 39.5951 446.789 39.9176 446.919 40.2158C447.048 40.5141 447.239 40.7815 447.48 41.0001C447.976 41.4457 448.558 41.7859 449.19 42.0001C449.185 41.9168 449.185 41.8333 449.19 41.7501C449.191 41.2582 449.344 40.7787 449.629 40.3775C449.914 39.9764 450.316 39.6733 450.78 39.5101C451.813 39.0157 452.944 38.7594 454.09 38.7601C457.017 38.7609 459.898 39.4931 462.47 40.8901L467 32.3401L467.7 31.0101C466.681 30.5524 465.636 30.155 464.57 29.8201L460 38.4101Z" fill="#FFD1E0"/>
<path d="M448.27 75.0001C451.713 75.0258 455.134 74.4365 458.37 73.2601C461.367 72.1855 464.007 70.3027 466 67.8201C468.034 65.204 469.094 61.9622 469 58.6501C469.081 56.1432 468.382 53.673 467 51.5801C466.322 50.6192 465.498 49.7692 464.56 49.0601C465.947 51.1468 466.647 53.6156 466.56 56.1201C466.673 59.4252 465.634 62.6668 463.62 65.2901C461.62 67.7822 458.963 69.6663 455.95 70.7301C452.712 71.9138 449.288 72.5066 445.84 72.4801C440.69 72.494 435.607 71.3022 431 69.0001L430.51 69.9301C431.51 70.5201 432.45 71.0301 433.43 71.5201C438.038 73.8194 443.12 75.0111 448.27 75.0001Z" fill="#FFD1E0"/>
<path d="M443.65 55.3299C445.65 55.8199 447.4 56.1799 448.8 56.5099C449.531 56.6768 450.247 56.9042 450.94 57.1899C450.897 56.8005 450.765 56.4262 450.555 56.0953C450.346 55.7643 450.063 55.4855 449.73 55.2799C448.689 54.6658 447.553 54.2267 446.37 53.9799L441.22 52.7999C439.114 52.2839 437.123 51.3783 435.35 50.1299C435.679 50.677 436.079 51.178 436.54 51.6199C436.933 51.9814 437.351 52.3155 437.79 52.6199C439.544 53.904 441.536 54.8253 443.65 55.3299Z" fill="#FFD1E0"/>
<path d="M21.64 70.26C25.7528 71.9013 30.1418 72.7398 34.57 72.73C36.6941 72.7449 38.8134 72.5269 40.89 72.08C42.81 71.65 45.65 70.87 49.38 69.74V49.6301C47.587 51.7456 45.36 53.4508 42.85 54.6301C40.38 55.8356 37.6685 56.4647 34.92 56.4701C32.6218 56.4925 30.3385 56.0995 28.18 55.3101C27.5859 55.0866 27.0049 54.8295 26.44 54.5401C26.24 54.4401 26.03 54.34 25.83 54.2201C25.63 54.1001 25.21 53.82 24.89 53.6101C24.37 53.2601 23.89 52.89 23.38 52.5C21.8722 51.2405 20.608 49.7153 19.65 48C18.1616 45.2153 17.4079 42.0971 17.46 38.94C17.4317 35.8084 18.1734 32.7177 19.62 29.94C21.0142 27.257 23.126 25.0136 25.72 23.46C28.4208 21.8608 31.5116 21.0405 34.65 21.09C37.5122 21.0828 40.3403 21.7113 42.93 22.93C45.301 24.033 47.3801 25.6771 49 27.73C49.12 27.88 49.25 28.01 49.36 28.16V8.00005C44.5232 5.93887 39.3274 4.85147 34.07 4.80005C31.0502 4.80704 28.0456 5.22762 25.14 6.05005C22.1798 6.87136 19.3392 8.07482 16.69 9.63005C14.0538 11.1669 11.6355 13.0504 9.5 15.23C6.48499 18.3661 4.10765 22.0577 2.5 26.1C0.854815 30.1498 0.00598627 34.4789 0 38.85C0 48.6567 3.33333 56.6567 10 62.85L10.41 63.23C13.6989 66.2312 17.5035 68.6128 21.64 70.26Z" fill="white"/>
<path d="M69.38 69.7C73.5357 71.5332 78.0279 72.4801 82.57 72.4801C87.1121 72.4801 91.6043 71.5332 95.76 69.7C99.6745 67.9614 103.019 65.1539 105.41 61.6C107.839 57.8903 109.09 53.5332 109 49.1C109.097 44.661 107.849 40.2965 105.42 36.58C104.99 35.95 104.53 35.36 104.06 34.78C101.817 32.0666 98.9806 29.9044 95.77 28.46C91.6161 26.6201 87.1232 25.6697 82.58 25.6697C78.0369 25.6697 73.5439 26.6201 69.39 28.46C65.4741 30.2053 62.127 33.0154 59.73 36.57C59.51 36.9 59.32 37.24 59.12 37.57C59.04 37.7 58.95 37.82 58.88 37.96C57.0113 41.371 56.0667 45.2113 56.14 49.1C56.0607 52.9338 56.9736 56.7229 58.79 60.1C58.89 60.29 59 60.47 59.11 60.65C59.31 61 59.51 61.34 59.74 61.65C60.7978 63.2104 62.0476 64.6316 63.46 65.88C65.2347 67.4376 67.2295 68.7248 69.38 69.7ZM72.56 49.12C72.5382 47.3795 72.9506 45.661 73.76 44.12C74.5588 42.6136 75.7692 41.3652 77.25 40.52C78.8835 39.6404 80.7098 39.1799 82.565 39.1799C84.4203 39.1799 86.2465 39.6404 87.88 40.52C89.1413 41.2539 90.2052 42.2835 90.98 43.52C91.11 43.72 91.25 43.92 91.37 44.14C91.8497 45.0534 92.187 46.0347 92.37 47.05C92.5072 47.7383 92.5775 48.4382 92.58 49.14C92.58 49.2 92.58 49.25 92.58 49.31C92.625 50.6204 92.3945 51.9256 91.9034 53.1412C91.4123 54.3569 90.6716 55.456 89.729 56.3674C88.7865 57.2788 87.6632 57.9823 86.4318 58.4323C85.2003 58.8823 83.8881 59.0689 82.58 58.98H82.3C81.5264 58.9651 80.7561 58.8746 80 58.71C79.3515 58.5833 78.718 58.3889 78.11 58.13C77.0281 57.664 76.0518 56.9837 75.24 56.13C74.351 55.1975 73.6563 54.0975 73.1962 52.8941C72.7361 51.6907 72.5198 50.4078 72.56 49.12Z" fill="white"/>
<path d="M131.59 71.02V2.52V0H116.03V48.14V53V60.34V70.23V71.02H118.46H131.59Z" fill="white"/>
<path d="M157.43 71.02V2.52V0H141.86V71.02H144.3H157.43Z" fill="white"/>
<path d="M176.76 69.7599C180.874 71.6296 185.352 72.5588 189.87 72.4799C193.207 72.4951 196.522 71.937 199.67 70.8299C202.69 69.8092 205.429 68.097 207.67 65.8299C209.293 64.1597 210.559 62.1759 211.39 59.9999C211.48 59.7699 211.57 59.5299 211.65 59.2899C211.85 58.7099 212.04 58.1099 212.19 57.4799H197.19C196.809 58.1479 196.335 58.7575 195.78 59.2899C194.977 60.0381 194.032 60.6188 193.002 60.9982C191.972 61.3777 190.877 61.5482 189.78 61.4999C189.001 61.5 188.222 61.4466 187.45 61.3399C186.77 61.24 186.101 61.0794 185.45 60.8599C184.858 60.6634 184.291 60.3982 183.76 60.0699C181.253 58.5099 180 55.7099 180 51.6699H212.76V49.9999C212.808 46.5592 212.263 43.1359 211.15 39.8799C210.358 37.6179 209.192 35.5052 207.7 33.6299C207.3 33.1299 206.89 32.6299 206.44 32.1799C204.311 30.0124 201.725 28.3484 198.87 27.3099C195.619 26.1437 192.184 25.5745 188.73 25.6299C184.356 25.5515 180.026 26.5182 176.1 28.4499C172.487 30.2556 169.493 33.0963 167.5 36.6099C167.37 36.8299 167.26 37.0699 167.13 37.3099C165.862 39.7621 165.039 42.42 164.7 45.1599C164.53 46.4531 164.444 47.7557 164.44 49.0599C164.444 50.3708 164.531 51.6801 164.7 52.9799C165.033 55.6798 165.857 58.2961 167.13 60.6999C167.32 61.0499 167.51 61.3899 167.71 61.6999C168.795 63.4798 170.144 65.0848 171.71 66.4599C173.231 67.7897 174.931 68.9004 176.76 69.7599ZM180.28 42.6899C180.649 40.6273 181.798 38.7862 183.49 37.5499C185.25 36.3334 187.351 35.7066 189.49 35.7599C191.567 35.7355 193.59 36.4158 195.23 37.6899C196.064 38.3175 196.767 39.1022 197.3 39.9999C197.602 40.4925 197.844 41.0197 198.02 41.5699C198.146 41.9529 198.246 42.3437 198.32 42.7399H180.32L180.28 42.6899Z" fill="white"/>
<path d="M238.58 58.7099C237.587 58.2168 236.676 57.5724 235.88 56.7999C234.855 55.784 234.053 54.5658 233.524 53.2229C232.996 51.8801 232.753 50.4419 232.81 48.9999C232.787 47.0984 233.278 45.226 234.23 43.5799C235.145 41.9664 236.479 40.6296 238.09 39.7099C239.735 38.7656 241.603 38.2788 243.5 38.2999C246.43 38.4388 249.237 39.5228 251.5 41.3899V28.2399C248.363 26.5126 244.831 25.6272 241.25 25.6699C237.961 25.6443 234.695 26.231 231.62 27.3999C228.717 28.5139 226.057 30.1814 223.79 32.3099C221.545 34.4545 219.764 37.0381 218.56 39.8999C218.047 41.1232 217.639 42.3877 217.34 43.6799C217.27 43.9799 217.2 44.2899 217.14 44.5999C216.951 45.591 216.824 46.593 216.76 47.5999C216.71 48.2399 216.68 48.8899 216.68 49.5499C216.674 51.7593 216.984 53.9582 217.6 56.0799C217.92 57.1678 218.328 58.2279 218.82 59.2499C219.149 59.9368 219.516 60.6045 219.92 61.2499C220.02 61.4199 220.13 61.5699 220.23 61.7299C221.337 63.4344 222.665 64.9845 224.18 66.3399C225.545 67.551 227.045 68.6012 228.65 69.4699C232.303 71.4592 236.4 72.4913 240.56 72.4699C244.363 72.5213 248.125 71.6751 251.54 69.9999V56.8299C249.437 58.7997 246.651 59.8753 243.77 59.8299C243.36 59.8299 242.96 59.8299 242.56 59.8299C241.837 59.771 241.121 59.6472 240.42 59.4599C239.784 59.271 239.167 59.0197 238.58 58.7099Z" fill="white"/>
<path d="M278.24 71.0199V39.9599H287.05V29.66V27.13H285.53H283.1H280.67H278.24V16.48V13.95H262.67V27.13H257.64V35.2V39.9599H258.84H260.07H262.67V42.4799V45V71.0199H265.11H278.24Z" fill="white"/>
<path d="M299.78 18.9999C301.317 19.0048 302.827 18.5936 304.15 17.8099C305.476 17.039 306.579 15.9362 307.35 14.6099C308.124 13.2952 308.528 11.7956 308.52 10.2699C308.527 8.73493 308.123 7.22606 307.35 5.89991L307.16 5.60991C306.152 4.0083 304.65 2.77807 302.882 2.10494C301.113 1.43182 299.173 1.35233 297.356 1.87848C295.538 2.40462 293.94 3.50785 292.805 5.02161C291.669 6.53537 291.057 8.37749 291.06 10.2699C291.052 11.7956 291.456 13.2952 292.23 14.6099C292.889 15.7314 293.787 16.6941 294.86 17.4299C295.05 17.5599 295.22 17.6899 295.42 17.8099C296.739 18.5937 298.246 19.005 299.78 18.9999Z" fill="white"/>
<path d="M307.58 71.0199V29.6599V28.8699V27.1299H304.04H292V34.6999V47.5299V50.0499V71.0199H294.43H307.58Z" fill="white"/>
<path d="M327.86 69.7C332.016 71.5332 336.508 72.4801 341.05 72.4801C345.592 72.4801 350.084 71.5332 354.24 69.7C358.151 67.9607 361.493 65.1532 363.88 61.6C366.313 57.8926 367.562 53.5333 367.46 49.1C367.652 43.8783 365.891 38.7725 362.52 34.78C360.28 32.0679 357.447 29.9057 354.24 28.46C350.086 26.6201 345.593 25.6697 341.05 25.6697C336.507 25.6697 332.014 26.6201 327.86 28.46C323.944 30.2053 320.597 33.0154 318.2 36.57C317.88 37.05 317.59 37.57 317.31 38.04C316.051 40.3286 315.227 42.8309 314.88 45.42C314.533 47.8644 314.533 50.3456 314.88 52.79C315.227 55.3759 316.051 57.875 317.31 60.16C317.59 60.66 317.89 61.15 318.21 61.63C319.271 63.1907 320.524 64.6118 321.94 65.86C323.712 67.4266 325.707 68.7207 327.86 69.7ZM331 49.12C330.978 47.3795 331.391 45.661 332.2 44.12C332.999 42.6136 334.209 41.3652 335.69 40.52C337.323 39.6404 339.15 39.1799 341.005 39.1799C342.86 39.1799 344.687 39.6404 346.32 40.52C347.576 41.2608 348.638 42.2889 349.42 43.52C349.55 43.72 349.69 43.92 349.81 44.14C349.93 44.36 350.12 44.8 350.26 45.14C350.5 45.7615 350.681 46.4044 350.8 47.06C350.937 47.7483 351.008 48.4482 351.01 49.15C351.01 49.21 351.01 49.26 351.01 49.32C351.055 50.6317 350.824 51.9382 350.333 53.155C349.841 54.3719 349.1 55.4721 348.156 56.3844C347.213 57.2968 346.088 58.001 344.856 58.4515C343.623 58.9021 342.309 59.0889 341 59H340.74C339.974 58.9936 339.21 58.9133 338.46 58.76C337.809 58.6319 337.172 58.4375 336.56 58.18C336.002 57.9518 335.471 57.6599 334.98 57.31C334.514 56.9951 334.082 56.6332 333.69 56.23C332.788 55.2854 332.086 54.1693 331.624 52.948C331.161 51.7266 330.949 50.4249 331 49.12Z" fill="white"/>
<path d="M420.79 71.0001V43.9001C420.863 40.6095 420.285 37.3369 419.09 34.2701C418.667 33.2591 418.13 32.2995 417.49 31.4101C416.471 30.0091 415.183 28.826 413.7 27.9301C410.827 26.3171 407.562 25.5346 404.27 25.6701C401.486 25.5921 398.72 26.146 396.18 27.2901C394.808 27.9768 393.563 28.8934 392.5 30.0001C391.657 30.8525 390.897 31.7834 390.23 32.7801H390.06V27.1301H374.5V71.0001H390.06V48.2501C390.06 41.4701 392.773 38.0801 398.2 38.0801C401.1 38.0801 402.997 38.9601 403.89 40.7201C403.97 40.8701 404.02 41.0501 404.09 41.2101C404.373 41.855 404.598 42.5245 404.76 43.2101C404.953 44.0019 405.083 44.8078 405.15 45.6201C405.2 46.2301 405.23 46.8701 405.23 47.5401V71.0001H420.79Z" fill="white"/>
<path d="M445.83 72.48C449.278 72.5066 452.702 71.9138 455.94 70.73C458.953 69.6662 461.61 67.7822 463.61 65.29C465.624 62.6668 466.663 59.4251 466.55 56.12C466.637 53.6156 465.937 51.1468 464.55 49.06C463.829 48.0321 462.944 47.13 461.93 46.39C460.508 45.3723 458.936 44.5828 457.27 44.05C456.148 43.6684 455.002 43.3611 453.84 43.13L452.23 42.83L451.59 42.7C450.849 42.5592 450.121 42.362 449.41 42.11L449.26 42.04C448.628 41.8258 448.046 41.4856 447.55 41.04C447.309 40.8214 447.118 40.5541 446.989 40.2558C446.859 39.9575 446.795 39.6351 446.8 39.31C446.786 38.8102 446.929 38.3185 447.208 37.9041C447.488 37.4897 447.891 37.1735 448.36 37C449.392 36.5144 450.519 36.2617 451.66 36.26C454.575 36.2724 457.442 37.0114 460 38.41L464.52 29.82L465.22 28.49C460.656 26.5289 455.726 25.5673 450.76 25.67C447.524 25.6458 444.313 26.2257 441.29 27.38C438.476 28.426 436.005 30.2289 434.15 32.59C432.28 35.0813 431.317 38.1366 431.42 41.25C431.42 44.8 432.3 47.42 434.06 49.09C434.457 49.4468 434.875 49.7807 435.31 50.09C437.083 51.3384 439.074 52.244 441.18 52.76L446.37 54C447.554 54.2468 448.689 54.686 449.73 55.3C450.063 55.5056 450.346 55.7845 450.555 56.1154C450.765 56.4464 450.897 56.8207 450.94 57.21C450.968 57.3687 450.984 57.5291 450.99 57.69C450.992 58.1215 450.889 58.547 450.69 58.93C450.405 59.4554 449.97 59.8837 449.44 60.16C449.24 60.28 449.03 60.37 448.82 60.47C448.014 60.8174 447.148 61.0043 446.27 61.02H446.12C443.973 60.9546 441.855 60.5006 439.87 59.68C437.719 58.9007 435.673 57.856 433.78 56.57L430.52 62.83L428.12 67.43C428.91 67.92 429.71 68.36 430.52 68.77L431 69C435.604 71.3007 440.683 72.4925 445.83 72.48Z" fill="white"/>
</svg>
