<svg width="155" height="46" viewBox="0 0 155 46" fill="none" xmlns="http://www.w3.org/2000/svg">
<g filter="url(#filter0_d)">
<path d="M8.49908 37.9208V6.22205H31.1411V10.7504H35.6695V15.2788H40.1979V28.864H35.6695V33.3924H31.1411V37.9208H8.49908ZM17.5559 33.3924H26.6127V28.864H31.1411V15.2788H26.6127V10.7504H17.5559V33.3924ZM44.7263 37.9208V15.2788H49.2547V10.7504H53.7831V6.22205H67.3682V10.7504H71.8966V15.2788H76.425V37.9208H67.3682V28.864H53.7831V37.9208H44.7263ZM53.7831 24.3356H67.3682V15.2788H62.8398V10.7504H58.3114V15.2788H53.7831V24.3356ZM94.5386 37.9208V24.3356H90.0102V19.8072H85.4818V6.22205H94.5386V19.8072H103.595V6.22205H112.652V19.8072H108.124V24.3356H103.595V37.9208H94.5386ZM121.709 37.9208V33.3924H117.181V28.864H126.237V33.3924H139.823V24.3356H121.709V19.8072H117.181V10.7504H121.709V6.22205H144.351V10.7504H148.879V15.2788H139.823V10.7504H126.237V19.8072H144.351V24.3356H148.879V33.3924H144.351V37.9208H121.709Z" fill="#FFFF01"/>
<path d="M16.1095 31.8112H25.1687V27.2769H29.6935V13.6929H25.1687V9.15866H16.1095V31.8112ZM7.05038 36.3361V4.63379H29.6935V9.15866H34.2654V13.6929H38.7903V27.2769H34.2654V31.8112H29.6935V36.3361H7.05038Z" fill="#FCC855"/>
<path d="M52.3367 22.7521H65.9301V13.6929H61.3958V9.15866H56.8427V13.6929H52.3367V22.7521ZM43.287 36.3361V13.6929H47.8118V9.15866H52.3367V4.63379H65.9301V9.15866H70.455V13.6929H74.9799V36.3361H65.9301V27.2769H52.3367V36.3361H43.287Z" fill="#FCC855"/>
<path d="M93.0981 36.3361V22.7521H88.5733V18.2178H84.039V4.63379H93.0981V18.2178H102.157V4.63379H111.216V18.2178H106.682V22.7521H102.157V36.3361H93.0981Z" fill="#FCC855"/>
<path d="M120.266 36.3361V31.8018H115.741V27.2769H124.8V31.8018H138.384V22.7521H120.266V18.2178H115.741V9.16807H120.266V4.63379H142.909V9.16807H147.444V13.6929H138.384V9.16807H124.8V18.2178H142.909V22.7521H147.444V31.8018H142.909V36.3361H120.266Z" fill="#FCC855"/>
<path d="M14.6608 29.9859H23.72V25.461H28.2542V11.877H23.72V7.34274H14.6608V29.9859ZM5.61108 34.5202V2.81787H28.2542V7.34274H32.7791V11.877H37.3134V25.461H32.7791V29.9859H28.2542V34.5202H5.61108Z" fill="#FA91A9"/>
<path d="M50.8974 20.9362H64.4814V11.877H59.9471V7.34274H55.4222V11.877H50.8974V20.9362ZM41.8382 34.5202V11.877H46.3631V7.34274H50.8974V2.81787H64.4814V7.34274H69.0063V11.877H73.5405V34.5202H64.4814V25.461H50.8974V34.5202H41.8382Z" fill="#FA91A9"/>
<path d="M91.6494 34.5202V20.9362H87.1246V16.4019H82.5997V2.81787H91.6494V16.4019H100.709V2.81787H109.768V16.4019H105.233V20.9362H100.709V34.5202H91.6494Z" fill="#FA91A9"/>
<path d="M118.827 34.5202V29.9859H114.293V25.461H123.352V29.9859H136.936V20.9362H118.827V16.4019H114.293V7.34274H118.827V2.81787H141.47V7.34274H145.995V11.877H136.936V7.34274H123.352V16.4019H141.47V20.9362H145.995V29.9859H141.47V34.5202H118.827Z" fill="#FA91A9"/>
<path d="M4.16235 32.474V0.775269H26.8043V5.30366H31.3327V9.83206H35.8611V23.4173H31.3327V27.9456H26.8043V32.474H4.16235ZM13.2191 27.9456H22.2759V23.4173H26.8043V9.83206H22.2759V5.30366H13.2191V27.9456ZM40.3895 32.474V9.83206H44.9179V5.30366H49.4463V0.775269H63.0315V5.30366H67.5599V9.83206H72.0883V32.474H63.0315V23.4173H49.4463V32.474H40.3895ZM49.4463 18.8889H63.0315V9.83206H58.5031V5.30366H53.9747V9.83206H49.4463V18.8889ZM90.2019 32.474V18.8889H85.6735V14.3605H81.1451V0.775269H90.2019V14.3605H99.2587V0.775269H108.315V14.3605H103.787V18.8889H99.2587V32.474H90.2019ZM117.372 32.474V27.9456H112.844V23.4173H121.901V27.9456H135.486V18.8889H117.372V14.3605H112.844V5.30366H117.372V0.775269H140.014V5.30366H144.543V9.83206H135.486V5.30366H121.901V14.3605H140.014V18.8889H144.543V27.9456H140.014V32.474H117.372Z" fill="#F75AFD"/>
</g>
<defs>
<filter id="filter0_d" x="0.162354" y="0.775391" width="152.717" height="45.1456" filterUnits="userSpaceOnUse" color-interpolation-filters="sRGB">
<feFlood flood-opacity="0" result="BackgroundImageFix"/>
<feColorMatrix in="SourceAlpha" type="matrix" values="0 0 0 0 0 0 0 0 0 0 0 0 0 0 0 0 0 0 127 0" result="hardAlpha"/>
<feOffset dy="4"/>
<feGaussianBlur stdDeviation="2"/>
<feComposite in2="hardAlpha" operator="out"/>
<feColorMatrix type="matrix" values="0 0 0 0 0 0 0 0 0 0 0 0 0 0 0 0 0 0 0.25 0"/>
<feBlend mode="normal" in2="BackgroundImageFix" result="effect1_dropShadow"/>
<feBlend mode="normal" in="SourceGraphic" in2="effect1_dropShadow" result="shape"/>
</filter>
</defs>
</svg>
