<svg width="222" height="77" viewBox="0 0 222 77" fill="none" xmlns="http://www.w3.org/2000/svg">
<path d="M24.07 21.7698V24.9798H26.5V24.2998H46.78V10.0898H44.35V21.7698H24.07Z" fill="#FF4681"/>
<path d="M44 35.0703H42.5V46.7503H24.07V72.0703H9.72998V74.5903H26.5V49.2803H43.77C42.5018 44.6171 42.5815 39.69 44 35.0703Z" fill="#FF4681"/>
<path d="M101.33 72.0697H88.2V74.5897H103.76V53.5897C102.42 51.0709 101.594 48.3107 101.33 45.4697V72.0697Z" fill="#FF4681"/>
<path d="M85.77 69.5501H83.63C82.557 70.5323 81.3309 71.3328 80 71.9201C77.5784 72.9915 74.958 73.5401 72.31 73.5301C68.2783 73.5809 64.3173 72.47 60.9 70.3301C59.8744 69.6668 58.9045 68.921 58 68.1001C59.5182 69.9664 61.3323 71.571 63.37 72.8501C66.7852 74.9947 70.7477 76.106 74.78 76.0501C77.4286 76.0659 80.0502 75.517 82.47 74.4401C83.7978 73.8582 85.0182 73.057 86.08 72.0701H85.79L85.77 69.5501Z" fill="#FF4681"/>
<path d="M70.93 41.5802C69.4522 42.4249 68.2426 43.6691 67.44 45.1702C66.6314 46.7115 66.219 48.4298 66.24 50.1702C66.2411 50.8404 66.298 51.5094 66.41 52.1702C67.1618 52.3147 67.9246 52.395 68.69 52.4102C68.6987 50.7586 69.1034 49.1332 69.87 47.6702C70.6715 46.1625 71.8854 44.9139 73.37 44.0702C74.9907 43.1536 76.8285 42.6907 78.69 42.7302H78.99V42.6002C78.9848 41.899 78.9179 41.1997 78.79 40.5102C77.9585 40.3316 77.1105 40.2411 76.26 40.2402C74.3948 40.1959 72.5525 40.659 70.93 41.5802Z" fill="#FF4681"/>
<path d="M103.08 33.39C103.29 32.9 103.53 32.39 103.76 31.97V30.71H101.33V40.34C101.551 37.9469 102.141 35.6024 103.08 33.39Z" fill="#FF4681"/>
<path d="M144.55 33.4399H143.31V42.4399C141.047 40.5729 138.24 39.4888 135.31 39.3499C133.413 39.3288 131.545 39.8156 129.9 40.7599C128.27 41.682 126.922 43.0302 126 44.6599C125.049 46.31 124.558 48.1854 124.58 50.0899C124.578 51.0286 124.682 51.9645 124.89 52.8799C125.593 53.072 126.313 53.1959 127.04 53.2499C127.04 53.0399 127.04 52.8299 127.04 52.6099C127.018 50.7054 127.509 48.83 128.46 47.1799C129.384 45.5758 130.716 44.2442 132.32 43.3199C133.965 42.3735 135.832 41.8833 137.73 41.8999C140.678 42.0352 143.503 43.123 145.78 44.9999V35.9999H144.58L144.55 33.4399Z" fill="#FF4681"/>
<path d="M132.37 73.5302C128.211 73.5472 124.115 72.5154 120.46 70.5302C118.858 69.6733 117.361 68.633 116 67.4302C117.911 69.7502 120.259 71.6732 122.91 73.0902C126.56 75.0786 130.654 76.1107 134.81 76.0902C138.604 76.1359 142.356 75.2863 145.76 73.6102V60.4102C145.025 61.085 144.205 61.66 143.32 62.1202V71.0502C139.915 72.7241 136.164 73.5737 132.37 73.5302Z" fill="#FF4681"/>
<path d="M171.52 20.6103V23.1403H172.44V17.5303H170.01V20.6103H171.52Z" fill="#FF4681"/>
<path d="M178.33 41H170V72.07H156.88V74.59H172.44V43.53H180.7C180.299 43.2216 179.918 42.8876 179.56 42.53C179.078 42.0824 178.664 41.567 178.33 41Z" fill="#FF4681"/>
<path d="M204.41 37.3299C203.834 37.331 203.261 37.3981 202.7 37.5299C204.36 38.0687 205.928 38.8578 207.35 39.8699C210.104 39.9522 212.8 40.6819 215.22 41.9999L220.44 32.0799C219.42 31.6206 218.375 31.2199 217.31 30.8799L212.79 39.4699C210.219 38.0682 207.338 37.3325 204.41 37.3299Z" fill="#FF4681"/>
<path d="M194 53.8599C191.89 53.3655 189.898 52.458 188.14 51.1899C188.466 51.7332 188.863 52.2308 189.32 52.6699C190.061 53.3651 190.88 53.9725 191.76 54.4799C192.638 54.4692 193.505 54.2821 194.31 53.9299L194 53.8599Z" fill="#FF4681"/>
<path d="M217.27 50.1099C218.656 52.2011 219.355 54.6725 219.27 57.1799C219.368 60.4926 218.307 63.7358 216.27 66.3499C214.27 68.8382 211.618 70.7216 208.61 71.7899C205.37 72.9661 201.947 73.5553 198.5 73.5299C193.365 73.5409 188.298 72.3563 183.7 70.0699L183.22 70.9999C188.535 74.3 194.674 76.0331 200.93 75.9999C204.377 76.0253 207.8 75.4361 211.04 74.2599C214.052 73.1928 216.707 71.3093 218.71 68.8199C220.724 66.1966 221.763 62.955 221.65 59.6499C221.739 57.825 221.387 56.0056 220.625 54.3452C219.862 52.6848 218.712 51.2322 217.27 50.1099Z" fill="#FF4681"/>
<path d="M24.07 46.7498H42.47V35.0698V32.5498H40.04V44.2298H21.64V69.5498H7.29999V72.0698H9.72999H24.07V46.7498Z" fill="#FF74A1"/>
<path d="M41.92 19.2503H21.64V24.9803H24.07V21.7703H44.35V10.0903V7.57031H41.92V19.2503Z" fill="#FF74A1"/>
<path d="M101.33 45.4699C101.25 44.6699 101.2 43.8599 101.2 43.0299C101.197 42.1316 101.241 41.2338 101.33 40.3399V28.1899H98.9V69.5499H85.77V72.0699H101.33V45.4699Z" fill="#FF74A1"/>
<path d="M72.33 73.5301C74.9713 73.5373 77.5845 72.9887 80 71.9201C81.3238 71.3309 82.543 70.5305 83.61 69.5501H83.32V67.0001H81.19C80.1319 67.987 78.9148 68.7882 77.59 69.3701C75.1713 70.4527 72.5499 71.0083 69.9 71.0001C65.8676 71.0566 61.9049 69.9452 58.49 67.8001C57.432 67.1418 56.4288 66.3994 55.49 65.5801C57.0308 67.4283 58.8451 69.0302 60.87 70.3301C64.3016 72.4793 68.2814 73.5905 72.33 73.5301Z" fill="#FF74A1"/>
<path d="M68.5 39.05C67.0154 39.8937 65.8015 41.1423 65 42.65C64.1906 44.191 63.7781 45.9095 63.8 47.65C63.7756 49.0158 64.0132 50.3736 64.5 51.65C65.1106 51.9136 65.7475 52.1114 66.4 52.24C66.288 51.5792 66.2311 50.9102 66.23 50.24C66.209 48.4996 66.6214 46.7813 67.43 45.24C68.2326 43.739 69.4422 42.4947 70.92 41.65C72.5425 40.7288 74.3847 40.2657 76.25 40.31C77.1005 40.3109 77.9485 40.4014 78.78 40.58C78.6579 39.9284 78.4772 39.2891 78.24 38.67C76.8421 38.0657 75.3327 37.7625 73.81 37.78C71.9584 37.7219 70.1249 38.1604 68.5 39.05Z" fill="#FF74A1"/>
<path d="M140.88 68.5301C137.477 70.1991 133.73 71.0452 129.94 71.0001C125.77 71.0265 121.662 69.9943 118 68.0001C116.394 67.1338 114.893 66.0834 113.53 64.8701C114.286 65.7856 115.112 66.6415 116 67.4301C117.362 68.6476 118.863 69.7014 120.47 70.5701C124.125 72.5553 128.221 73.5871 132.38 73.5701C136.171 73.6121 139.918 72.7626 143.32 71.0901V57.8901C142.586 58.5616 141.77 59.1363 140.89 59.6001L140.88 68.5301Z" fill="#FF74A1"/>
<path d="M140.88 39.9999C138.617 38.1328 135.81 37.0487 132.88 36.9099C130.983 36.8888 129.115 37.3756 127.47 38.3199C125.859 39.2395 124.525 40.5764 123.61 42.1899C122.658 43.8359 122.167 45.7084 122.19 47.6099C122.168 49.1998 122.478 50.7767 123.1 52.2399C123.687 52.5274 124.299 52.7585 124.93 52.9299C124.722 52.0145 124.618 51.0786 124.62 50.1399C124.577 48.2222 125.054 46.3286 126 44.6599C126.915 43.0464 128.249 41.7095 129.86 40.7899C131.505 39.8456 133.373 39.3588 135.27 39.3799C138.2 39.5187 141.007 40.6028 143.27 42.4699V33.4699H142.07V28.6799C141.67 28.4899 141.26 28.3099 140.84 28.1499L140.88 39.9999Z" fill="#FF74A1"/>
<path d="M167.57 20.6098H170.01V17.5298V15.0098H167.57V20.6098Z" fill="#FF74A1"/>
<path d="M170 40.9997H178.32C177.295 39.0706 176.804 36.9022 176.9 34.7197C176.857 32.4588 177.343 30.2191 178.32 28.1797H176.38V38.4797H167.56V69.5497H154.45V72.0697H170V40.9997Z" fill="#FF74A1"/>
<path d="M194.27 53.9299C194.48 53.8399 194.69 53.7399 194.89 53.6299C195.421 53.3509 195.857 52.919 196.14 52.3899C194.84 52.0899 193.31 51.7699 191.53 51.3299C189.418 50.8451 187.425 49.9405 185.67 48.6699C185.999 49.2114 186.395 49.7087 186.85 50.1499C187.247 50.5067 187.665 50.8406 188.1 51.1499C189.867 52.4369 191.873 53.3583 194 53.8599L194.27 53.9299Z" fill="#FF74A1"/>
<path d="M210.36 36.9401C207.794 35.5464 204.92 34.8143 202 34.8101C200.859 34.8108 199.732 35.0635 198.7 35.5501C198.32 35.7351 197.98 35.9934 197.7 36.3101L199.31 36.6101C200.475 36.8426 201.624 37.1499 202.75 37.5301C203.311 37.3984 203.884 37.3313 204.46 37.3301C207.387 37.3297 210.268 38.0619 212.84 39.4601L217.36 30.8701L218.06 29.5401C217.04 29.0841 215.995 28.6868 214.93 28.3501L210.36 36.9401Z" fill="#FF74A1"/>
<path d="M208.69 71.7898C211.698 70.7216 214.35 68.8381 216.35 66.3498C218.387 63.7358 219.448 60.4926 219.35 57.1798C219.435 54.6725 218.736 52.2011 217.35 50.1098C216.678 49.1469 215.858 48.2964 214.92 47.5898C216.3 49.68 216.999 52.1464 216.92 54.6498C217.02 57.9628 215.959 61.2066 213.92 63.8198C211.924 66.312 209.271 68.1963 206.26 69.2598C203.021 70.4402 199.597 71.0296 196.15 70.9998C191.015 71.0108 185.948 69.8263 181.35 67.5398L180.87 68.4698C181.87 69.0598 182.8 69.5698 183.78 70.0598C188.378 72.3462 193.445 73.5308 198.58 73.5198C202.026 73.5485 205.45 72.9626 208.69 71.7898Z" fill="#FF74A1"/>
<path d="M39.49 16.7298H19.2V24.9798H21.64V19.2498H41.92V7.5698V5.0498H39.49V16.7298Z" fill="#FFA3C0"/>
<path d="M21.64 69.5503V44.2303H40.04V32.5503V30.0303H37.61V41.7103H19.2V67.0203H4.87V69.5503H7.3H21.64Z" fill="#FFA3C0"/>
<path d="M96.47 67.0202H83.34V69.5502H83.63H85.77H98.9V28.1902V25.6602H96.47V67.0202Z" fill="#FFA3C0"/>
<path d="M71.39 35.19C69.5286 35.1514 67.6911 35.6143 66.07 36.53C64.5905 37.3724 63.3804 38.6173 62.58 40.12C61.7726 41.6617 61.3603 43.3797 61.38 45.12C61.3283 47.1041 61.864 49.0593 62.92 50.74C63.4137 51.0919 63.9474 51.384 64.51 51.61C64.0233 50.3336 63.7856 48.9758 63.81 47.61C63.7882 45.8694 64.2006 44.151 65.01 42.61C65.8088 41.1036 67.0191 39.8551 68.5 39.01C70.1211 38.0943 71.9586 37.6314 73.82 37.67C75.3428 37.6524 76.8522 37.9557 78.25 38.56C78.11 38.22 77.96 37.89 77.79 37.56C77.62 37.23 77.54 37.15 77.41 36.94C77.28 36.73 76.97 36.63 76.73 36.49C75.0991 35.5847 73.2545 35.1356 71.39 35.19Z" fill="#FFA3C0"/>
<path d="M58.49 67.7998C61.9049 69.945 65.8676 71.0563 69.9 70.9998C72.5492 71.0112 75.1705 70.459 77.59 69.3798C78.9155 68.7949 80.1326 67.9903 81.19 66.9998H80.9V64.4998H78.76C77.6975 65.4811 76.4814 66.2817 75.16 66.8698C72.7395 67.9447 70.1184 68.4935 67.47 68.4798C63.4374 68.538 59.4742 67.4265 56.06 65.2798C55.0001 64.6206 53.9967 63.8747 53.06 63.0498C53.8025 63.9555 54.615 64.8014 55.49 65.5798C56.4288 66.3991 57.432 67.1415 58.49 67.7998Z" fill="#FFA3C0"/>
<path d="M138.45 37.4301C136.188 35.5607 133.381 34.4732 130.45 34.3301C128.575 34.3114 126.728 34.7903 125.097 35.7178C123.467 36.6453 122.112 37.9883 121.17 39.6101C120.185 41.3989 119.696 43.4187 119.754 45.4601C119.812 47.5015 120.415 49.4902 121.5 51.2201C122.002 51.6008 122.538 51.9355 123.1 52.2201C122.478 50.757 122.168 49.18 122.19 47.5901C122.167 45.6886 122.658 43.8162 123.61 42.1701C124.525 40.5566 125.859 39.2197 127.47 38.3001C129.115 37.3558 130.983 36.869 132.88 36.8901C135.81 37.0289 138.617 38.113 140.88 39.9801V26.7701C140.096 26.3345 139.284 25.9504 138.45 25.6201V37.4301Z" fill="#FFA3C0"/>
<path d="M138.45 65.9999C135.046 67.6771 131.294 68.5268 127.5 68.4799C123.344 68.5004 119.25 67.4683 115.6 65.4799C113.991 64.6136 112.491 63.5596 111.13 62.3399C111.87 63.2479 112.682 64.0941 113.56 64.8699C114.914 66.0813 116.404 67.1316 118 67.9999C121.653 69.9891 125.75 71.0212 129.91 70.9999C133.701 71.0418 137.448 70.1923 140.85 68.5199V55.3599C140.119 56.0376 139.302 56.6159 138.42 57.0799L138.45 65.9999Z" fill="#FFA3C0"/>
<path d="M147.15 35.96H146.98V38.48H147.15V35.96Z" fill="#FFA3C0"/>
<path d="M165.14 20.61H167.57V15.01V12.48H165.14V20.61Z" fill="#FFA3C0"/>
<path d="M167.57 69.5502V38.4902H176.39V28.1902V25.6602H173.96V35.9602H165.14V67.0202H152.01V69.5502H154.44H167.57Z" fill="#FFA3C0"/>
<path d="M207.93 34.4201C205.358 33.0231 202.477 32.2909 199.55 32.2901C198.405 32.286 197.274 32.5388 196.24 33.0301C195.777 33.1938 195.376 33.4972 195.093 33.8985C194.81 34.2997 194.659 34.779 194.66 35.2701C194.655 35.3533 194.655 35.4368 194.66 35.5201L194.81 35.5901C195.52 35.8451 196.249 36.0457 196.99 36.1901L197.63 36.3101C197.91 35.9934 198.25 35.7351 198.63 35.5501C199.662 35.0635 200.789 34.8108 201.93 34.8101C204.857 34.8109 207.738 35.5431 210.31 36.9401L214.83 28.3501L215.52 27.0201C214.501 26.5624 213.456 26.1651 212.39 25.8301L207.93 34.4201Z" fill="#FFA3C0"/>
<path d="M196.15 71.0001C199.598 71.0266 203.022 70.4338 206.26 69.2501C209.271 68.1865 211.924 66.3022 213.92 63.8101C215.959 61.1968 217.02 57.9531 216.92 54.6401C216.999 52.1366 216.3 49.6702 214.92 47.5801C214.245 46.6194 213.425 45.7693 212.49 45.0601C213.873 47.1491 214.572 49.6163 214.49 52.1201C214.598 55.4261 213.556 58.6673 211.54 61.2901C209.539 63.7814 206.883 65.6653 203.87 66.7301C200.634 67.9065 197.213 68.4958 193.77 68.4701C188.617 68.4909 183.53 67.3024 178.92 65.0001L178.44 65.9301C179.39 66.5201 180.37 67.0401 181.35 67.5301C185.947 69.8199 191.014 71.008 196.15 71.0001Z" fill="#FFA3C0"/>
<path d="M191.53 51.3299C193.31 51.7699 194.84 52.0899 196.14 52.3899C196.339 52.0069 196.442 51.5814 196.44 51.1499C196.434 50.989 196.417 50.8286 196.39 50.6699C195.697 50.3842 194.981 50.1568 194.25 49.9899C192.85 49.6599 191.13 49.3099 189.1 48.8099C186.99 48.3207 184.998 47.4165 183.24 46.1499C183.569 46.6883 183.966 47.1823 184.42 47.6199C184.816 47.9936 185.233 48.3442 185.67 48.6699C187.425 49.9405 189.418 50.8451 191.53 51.3299Z" fill="#FFA3C0"/>
<path d="M37.05 14.2H16.77V24.98H19.2V16.73H39.49V5.05002V2.52002H37.05V14.2Z" fill="#FFD1E0"/>
<path d="M19.2 67.02V41.71H37.61V30.03V27.5H35.17V39.18H16.77V64.5H2.42999V67.02H4.86999H19.2Z" fill="#FFD1E0"/>
<path d="M94.03 64.4996H80.91V67.0196H81.19H83.34H96.47V25.6596V23.1396H94.03V64.4996Z" fill="#FFD1E0"/>
<path d="M56.06 65.2801C59.4743 67.4269 63.4374 68.5384 67.47 68.4801C70.1184 68.4938 72.7395 67.945 75.16 66.8701C76.4814 66.2821 77.6975 65.4815 78.76 64.5001H78.47V59.6401H78.31C76.9696 61.7363 75.0235 63.3755 72.73 64.3401C70.3008 65.4372 67.6655 66.0031 65 66.0001C60.9668 66.0525 57.0044 64.9377 53.59 62.7901C52.5502 62.1328 51.5669 61.3903 50.65 60.5701C51.39 61.4749 52.2027 62.3177 53.08 63.0901C54.0118 63.9004 55.0085 64.6328 56.06 65.2801Z" fill="#FFD1E0"/>
<path d="M61.38 45.1197C61.3602 43.3794 61.7726 41.6614 62.58 40.1197C63.3804 38.617 64.5905 37.3722 66.07 36.5297C67.7089 35.65 69.54 35.1896 71.4 35.1896C73.26 35.1896 75.0911 35.65 76.73 36.5297C76.97 36.6697 77.19 36.8297 77.41 36.9797C76.6323 35.742 75.5649 34.7123 74.3 33.9797C72.6611 33.1 70.83 32.6396 68.97 32.6396C67.11 32.6396 65.2789 33.1 63.64 33.9797C62.1605 34.8222 60.9504 36.067 60.15 37.5697C59.3339 39.1086 58.9178 40.8279 58.94 42.5697C58.8955 43.8687 59.1115 45.1634 59.5752 46.3777C60.0389 47.5919 60.741 48.701 61.64 49.6397C62.029 50.0392 62.4579 50.3977 62.92 50.7097C61.8697 49.0376 61.3342 47.0937 61.38 45.1197Z" fill="#FFD1E0"/>
<path d="M136 34.9001C133.736 33.0343 130.93 31.9504 128 31.8101C126.103 31.7899 124.236 32.2767 122.59 33.2201C120.983 34.1452 119.651 35.4808 118.73 37.0901C117.779 38.7402 117.288 40.6156 117.31 42.5201C117.258 43.9554 117.504 45.386 118.033 46.7215C118.561 48.0571 119.36 49.2687 120.38 50.2801C120.729 50.618 121.099 50.932 121.49 51.2201C120.405 49.4902 119.802 47.5014 119.744 45.46C119.686 43.4186 120.175 41.3989 121.16 39.6101C122.102 37.9883 123.457 36.6453 125.087 35.7177C126.718 34.7902 128.565 34.3114 130.44 34.3301C133.371 34.4732 136.178 35.5607 138.44 37.4301V24.2501C137.653 23.8141 136.837 23.4299 136 23.1001V34.9001Z" fill="#FFD1E0"/>
<path d="M136 63.4798C132.579 65.159 128.811 66.0086 125 65.9598C120.844 65.9756 116.752 64.9438 113.1 62.9598C111.488 62.0937 109.984 61.0397 108.62 59.8198C109.366 60.7225 110.182 61.5651 111.06 62.3398C112.421 63.5595 113.921 64.6136 115.53 65.4798C119.18 67.4683 123.274 68.5004 127.43 68.4798C131.248 68.5378 135.025 67.6878 138.45 65.9998V52.8398C137.713 53.516 136.889 54.091 136 54.5498V63.4798Z" fill="#FFD1E0"/>
<path d="M162.71 20.61H165.14V12.48V9.95996H162.71V20.61Z" fill="#FFD1E0"/>
<path d="M147.15 33.4399H144.55V35.9599H145.75H146.98H147.15V33.4399Z" fill="#FFD1E0"/>
<path d="M165.14 67.0196V35.9596H173.96V25.6596V23.1396H172.44H171.52V33.4396H162.71V64.4996H149.58V67.0196H152.01H165.14Z" fill="#FFD1E0"/>
<path d="M205.5 31.8898C202.924 30.4928 200.04 29.7607 197.11 29.7598C195.969 29.7615 194.842 30.0141 193.81 30.4998C193.346 30.6662 192.944 30.9714 192.66 31.3739C192.376 31.7765 192.222 32.2569 192.22 32.7498C192.215 33.0749 192.279 33.3973 192.409 33.6956C192.538 33.9939 192.729 34.2612 192.97 34.4798C193.466 34.9254 194.048 35.2656 194.68 35.4798C194.675 35.3966 194.675 35.3131 194.68 35.2298C194.679 34.7429 194.829 34.2676 195.108 33.8686C195.387 33.4696 195.782 33.1662 196.24 32.9998C197.274 32.5086 198.405 32.2557 199.55 32.2598C202.477 32.2607 205.358 32.9928 207.93 34.3898L212.44 25.7998L213.14 24.4698C212.117 24.0186 211.069 23.628 210 23.2998L205.5 31.8898Z" fill="#FFD1E0"/>
<path d="M189.1 48.8104C191.1 49.3104 192.85 49.6604 194.25 49.9904C194.981 50.1572 195.697 50.3847 196.39 50.6703C196.347 50.281 196.215 49.9067 196.005 49.5757C195.796 49.2448 195.513 48.966 195.18 48.7603C194.14 48.1456 193.004 47.7096 191.82 47.4704L186.67 46.2904C184.565 45.7666 182.575 44.858 180.8 43.6104C181.13 44.1596 181.534 44.6609 182 45.1003C182.393 45.4617 182.811 45.7958 183.25 46.1003C185.001 47.3835 186.989 48.3048 189.1 48.8104Z" fill="#FFD1E0"/>
<path d="M193.72 68.48C197.163 68.5058 200.584 67.9165 203.82 66.74C206.833 65.6753 209.489 63.7914 211.49 61.3C213.506 58.6773 214.548 55.4361 214.44 52.13C214.522 49.6263 213.823 47.1591 212.44 45.07C211.759 44.1083 210.937 43.2552 210 42.54C211.386 44.6313 212.085 47.1027 212 49.61C212.11 52.9147 211.071 56.1552 209.06 58.78C207.054 61.2664 204.4 63.1492 201.39 64.22C198.153 65.4111 194.729 66.0139 191.28 66C186.148 66.0099 181.085 64.8253 176.49 62.54L176 63.47C177 64.06 177.94 64.58 178.92 65.06C183.52 67.3375 188.588 68.5086 193.72 68.48Z" fill="#FFD1E0"/>
<path d="M16.77 64.5V39.18H35.17V27.5V24.98H26.5H24.07H21.64H19.2H16.77V14.2H37.05V2.52V0H0V64.5H2.43H16.77Z" fill="white"/>
<path d="M53.62 62.7501C57.0214 64.9062 60.9729 66.0347 65 66.0001C67.6524 66.0114 70.277 65.4593 72.7 64.3801C74.9935 63.4155 76.9395 61.7763 78.28 59.6801H78.44V64.5001H94V20.6201H78.47V24.9001C76.8547 23.004 74.7927 21.5399 72.47 20.6401C70.0486 19.6492 67.4563 19.143 64.84 19.1501C61.8588 19.1256 58.9062 19.7322 56.1762 20.93C53.4462 22.1278 51.0005 23.8898 49 26.1001C47.0225 28.2898 45.4785 30.8348 44.45 33.6001C44.27 34.0801 44.12 34.6001 43.97 35.0701C42.5614 39.6927 42.492 44.6198 43.77 49.2801C44.237 50.9711 44.884 52.6072 45.7 54.1601C46.9677 56.5684 48.6618 58.7267 50.7 60.5301C51.6104 61.3494 52.5871 62.0919 53.62 62.7501ZM58.94 42.6001C58.9178 40.8584 59.3339 39.139 60.15 37.6001C60.9488 36.0938 62.1591 34.8453 63.64 34.0001C65.2788 33.1205 67.1099 32.6601 68.97 32.6601C70.83 32.6601 72.6611 33.1205 74.3 34.0001C75.5649 34.7327 76.6323 35.7624 77.41 37.0001C77.54 37.2101 77.68 37.4001 77.79 37.6201C77.9 37.8401 78.11 38.2801 78.25 38.6201C78.4872 39.2392 78.6679 39.8785 78.79 40.5301C78.9201 41.2127 78.9903 41.9053 79 42.6001V42.7801C79.0434 44.0901 78.8118 45.3946 78.3202 46.6095C77.8286 47.8244 77.0878 48.9229 76.1456 49.834C75.2034 50.7451 74.0807 51.4486 72.85 51.8992C71.6192 52.3498 70.3077 52.5375 69 52.4501H68.73C67.9645 52.4349 67.2018 52.3546 66.45 52.2101C65.7975 52.0815 65.1605 51.8837 64.55 51.6201C63.9874 51.3942 63.4536 51.1021 62.96 50.7501C62.4979 50.4381 62.069 50.0796 61.68 49.6801C60.7725 48.7435 60.0624 47.6343 59.5918 46.4181C59.1211 45.2019 58.8995 43.9036 58.94 42.6001Z" fill="white"/>
<path d="M123.06 52.1899C122.498 51.9053 121.962 51.5706 121.46 51.1899C121.069 50.9018 120.699 50.5878 120.35 50.2499C119.33 49.2385 118.531 48.0269 118.003 46.6913C117.474 45.3558 117.228 43.9253 117.28 42.4899C117.258 40.5854 117.749 38.71 118.7 37.0599C119.621 35.4506 120.953 34.115 122.56 33.1899C124.217 32.2518 126.096 31.7752 128 31.8099C130.93 31.9502 133.736 33.0341 136 34.8999V21.7199C132.859 19.9926 129.324 19.1073 125.74 19.1499C122.449 19.1226 119.183 19.7128 116.11 20.8899C113.207 21.9939 110.55 23.6589 108.29 25.7899C106.432 27.5825 104.9 29.6836 103.76 31.9999C103.53 32.4699 103.29 32.9299 103.08 33.4199C102.136 35.6481 101.546 38.0098 101.33 40.4199C101.245 41.2773 101.201 42.1383 101.2 42.9999C101.2 43.8299 101.2 44.6399 101.33 45.4399C101.594 48.2809 102.42 51.0411 103.76 53.5599C103.97 53.9599 104.2 54.3599 104.44 54.7499C105.603 56.6402 107.035 58.3514 108.69 59.8299C110.053 61.0603 111.556 62.1244 113.17 62.9999C116.822 64.9839 120.914 66.0157 125.07 65.9999C128.881 66.0487 132.649 65.1991 136.07 63.5199V50.3199C133.966 52.2878 131.181 53.3632 128.3 53.3199C127.897 53.3405 127.493 53.3405 127.09 53.3199C126.363 53.2658 125.643 53.1419 124.94 52.9499C124.29 52.759 123.66 52.5045 123.06 52.1899Z" fill="white"/>
<path d="M162.71 64.4999V33.4399H171.52V23.1399V20.6099H170.01H167.57H165.14H162.71V9.95994V7.43994H147.15V20.6099H142.12V28.6799V33.4399H143.31H144.55H147.15V35.9599V38.4899V64.4999H149.58H162.71Z" fill="white"/>
<path d="M191.28 65.9999C194.727 66.0266 198.151 65.4373 201.39 64.2599C204.4 63.189 207.054 61.3062 209.06 58.8199C211.08 56.1843 212.119 52.9281 212 49.6099C212.085 47.1025 211.386 44.6311 210 42.5399C209.279 41.5119 208.394 40.6098 207.38 39.8699C205.958 38.8578 204.39 38.0687 202.73 37.5299C201.604 37.1497 200.455 36.8424 199.29 36.6099L197.68 36.3099L197.04 36.1899C196.299 36.0455 195.57 35.8449 194.86 35.5899L194.71 35.5199C194.078 35.3057 193.496 34.9655 193 34.5199C192.759 34.3013 192.568 34.0339 192.439 33.7356C192.309 33.4374 192.245 33.1149 192.25 32.7899C192.252 32.2969 192.406 31.8165 192.69 31.414C192.974 31.0114 193.376 30.7062 193.84 30.5399C194.872 30.0542 195.999 29.8016 197.14 29.7999C200.07 29.8008 202.954 30.5329 205.53 31.9299L210 23.2999L210.7 21.9699C206.14 20.0098 201.213 19.0483 196.25 19.1499C193.01 19.1245 189.794 19.708 186.77 20.8699C183.957 21.9185 181.487 23.721 179.63 26.0799C179.118 26.7336 178.679 27.4411 178.32 28.1899C177.343 30.2293 176.857 32.469 176.9 34.7299C176.809 36.91 177.303 39.0747 178.33 40.9999C178.66 41.581 179.075 42.11 179.56 42.5699C179.918 42.9275 180.299 43.2615 180.7 43.5699L180.8 43.6499C182.575 44.8975 184.565 45.8062 186.67 46.3299L191.82 47.5099C193.004 47.7491 194.14 48.1851 195.18 48.7999C195.513 49.0055 195.796 49.2843 196.005 49.6153C196.215 49.9462 196.347 50.3205 196.39 50.7099C196.417 50.8686 196.434 51.0289 196.44 51.1899C196.442 51.6214 196.339 52.0468 196.14 52.4299C195.857 52.9589 195.421 53.3909 194.89 53.6699C194.69 53.7799 194.48 53.8799 194.27 53.9699C193.465 54.3221 192.598 54.5091 191.72 54.5199H191.57C189.424 54.4528 187.307 54.0024 185.32 53.1899C183.165 52.3853 181.119 51.3136 179.23 49.9999L173.57 60.8699C174.57 61.4499 175.5 61.9699 176.49 62.4599C181.078 64.7728 186.142 65.9849 191.28 65.9999Z" fill="white"/>
</svg>
