<svg width="194" height="81" viewBox="0 0 194 81" fill="none" xmlns="http://www.w3.org/2000/svg">
<path d="M44.9 37.2212H42.47V48.9012H24.07V74.2112H9.72998V76.7312H26.5V51.4212H44.9V37.2212Z" fill="#FF4681"/>
<path d="M24.07 23.921V27.121H26.5V26.441H46.78V12.231H44.35V23.921H24.07Z" fill="#FF4681"/>
<path d="M80.55 42.6012L80.95 41.4112L79.32 36.5112L77.27 42.6012H80.55Z" fill="#FF4681"/>
<path d="M70.09 63.001L65.64 74.211H51.24L50.27 76.731H68.07L72.52 65.521H89.66L88.72 63.001H70.09Z" fill="#FF4681"/>
<path d="M91.91 12.231L115.26 74.211H98.86L99.81 76.731H117.69L93.39 12.231H91.91Z" fill="#FF4681"/>
<path d="M170.89 73.2011L170.2 72.3911C165.65 75.0111 159.9 76.3411 152.92 76.3411C148.059 76.3886 143.234 75.5131 138.7 73.7611C134.765 72.2283 131.158 69.9614 128.07 67.0811C128.6 67.6911 129.15 68.3011 129.74 68.8811C132.982 72.1108 136.861 74.6309 141.13 76.2811C145.664 78.0331 150.489 78.9086 155.35 78.8611C162.33 78.8611 168.093 77.5277 172.64 74.8611L171.15 73.1011L170.89 73.2011Z" fill="#FF4681"/>
<path d="M150.21 51.501L150.48 51.771H150.57L150.31 51.521L150.21 51.501Z" fill="#FF4681"/>
<path d="M176.01 78.2011L178.18 80.7711L193.58 78.3611L191.1 75.8511L176.01 78.2011Z" fill="#FF4681"/>
<path d="M143.9 26.1911C141.165 27.7053 138.855 29.8818 137.18 32.5211C135.566 35.0003 134.701 37.8927 134.69 40.8511C134.668 43.4524 135.15 46.0333 136.11 48.4511C136.36 49.0711 136.63 49.6611 136.93 50.2411C137.466 50.5423 138.016 50.816 138.58 51.0611V50.9711C137.621 48.5565 137.139 45.979 137.16 43.3811C137.171 40.4195 138.035 37.5238 139.65 35.0411C141.325 32.4047 143.636 30.2315 146.37 28.7211C149.145 27.1394 152.286 26.3151 155.48 26.3311C157.914 26.32 160.321 26.8315 162.54 27.8311C162.3 27.2611 162.03 26.7011 161.74 26.1511C159.101 24.6075 156.097 23.7994 153.04 23.8111C149.837 23.7859 146.684 24.6069 143.9 26.1911Z" fill="#FF4681"/>
<path d="M188.6 42.1309C188.582 50.3919 185.662 58.3839 180.35 64.7109L182.8 67.2109C188.091 60.8831 190.993 52.8991 191 44.6509C191.059 39.8018 190.144 34.9902 188.31 30.5009C186.601 26.3355 184.02 22.5847 180.74 19.5009L180.64 19.4209C182.844 21.977 184.623 24.8705 185.91 27.9909C187.744 32.4766 188.659 37.285 188.6 42.1309Z" fill="#FF4681"/>
<path d="M41.92 21.3909H21.64V27.1209H24.07V23.9209H44.35V12.2309V9.71094H41.92V21.3909Z" fill="#FF74A1"/>
<path d="M24.07 48.9009H42.47V37.2209V34.6909H40.04V46.3709H21.64V71.6909H7.29999V74.2109H9.72999H24.07V48.9009Z" fill="#FF74A1"/>
<path d="M91.91 12.2309L90.96 9.71094H89.48L112.83 71.6909H96.43L97.38 74.2109H98.86H115.26L91.91 12.2309Z" fill="#FF74A1"/>
<path d="M77.27 42.6011L79.32 36.5111L77.69 31.6211L73.98 42.6011H77.27Z" fill="#FF74A1"/>
<path d="M70.09 63.0012H88.72L87.77 60.4712H67.66L63.21 71.6912H48.81L47.84 74.2112H51.24H65.64L70.09 63.0012Z" fill="#FF74A1"/>
<path d="M191.14 75.8413L188.67 73.3213L173.58 75.6813L175.75 78.2413L176.01 78.2013L191.1 75.8513L191.14 75.8413Z" fill="#FF74A1"/>
<path d="M147.88 48.9912H147.78L150.31 51.5012L150.57 51.7512H150.65L147.88 48.9912Z" fill="#FF74A1"/>
<path d="M183.48 25.4509C185.31 29.9409 186.222 34.7525 186.16 39.6009C186.152 47.8762 183.223 55.8831 177.89 62.2109L180.35 64.7109C185.662 58.3839 188.582 50.3919 188.6 42.1309C188.659 37.285 187.744 32.4766 185.91 27.9909C184.63 24.883 182.861 21.9999 180.67 19.4509C179.941 18.5873 179.163 17.766 178.34 16.9909L178.24 16.9009C180.424 19.4586 182.192 22.3438 183.48 25.4509Z" fill="#FF74A1"/>
<path d="M150.57 21.2909C147.38 21.2712 144.242 22.0921 141.47 23.6709C138.735 25.1795 136.423 27.3531 134.75 29.9909C133.133 32.4692 132.265 35.3615 132.25 38.3209C132.199 42.2184 133.298 46.0445 135.41 49.3209C135.9 49.6609 136.41 49.9809 136.93 50.3209C136.63 49.7409 136.36 49.1509 136.11 48.5309C135.15 46.113 134.668 43.5321 134.69 40.9309C134.701 37.9724 135.566 35.08 137.18 32.6009C138.855 29.9616 141.165 27.7851 143.9 26.2709C146.672 24.6934 149.81 23.8726 153 23.8909C156.057 23.8792 159.061 24.6872 161.7 26.2309C161.6 26.0509 161.52 25.8709 161.41 25.7009C161.21 25.3509 160.98 25.0309 160.76 24.7009C160.54 24.3709 160.05 24.1709 159.67 23.9409C156.949 22.2127 153.793 21.2937 150.57 21.2909Z" fill="#FF74A1"/>
<path d="M152.92 76.3413C159.92 76.3413 165.65 75.0113 170.2 72.3913L168.72 70.6313H168.45L167.77 69.8213C163.217 72.4479 157.457 73.7813 150.49 73.8213C145.626 73.8698 140.797 72.9943 136.26 71.2413C132.325 69.704 128.718 67.4338 125.63 64.5513C126.17 65.1713 126.72 65.7813 127.3 66.3613L128.07 67.0813C131.158 69.9616 134.765 72.2285 138.7 73.7613C143.234 75.5133 148.059 76.3888 152.92 76.3413Z" fill="#FF74A1"/>
<path d="M39.49 18.8709H19.2V27.1209H21.64V21.3909H41.92V9.71092V7.19092H39.49V18.8709Z" fill="#FFA3C0"/>
<path d="M21.64 71.6909V46.3709H40.04V34.6909V32.1709H37.61V43.8509H19.2V69.1609H4.87V71.6909H7.3H21.64Z" fill="#FFA3C0"/>
<path d="M63.21 71.6912L67.66 60.4712H87.77L86.83 57.9512H65.23L60.78 69.1612H46.38L45.41 71.6912H48.81H63.21Z" fill="#FFA3C0"/>
<path d="M112.83 71.6909L89.48 9.71092L88.53 7.19092H87.05L110.4 69.1609H94L94.94 71.6909H96.43H112.83Z" fill="#FFA3C0"/>
<path d="M73.98 42.6012L77.69 31.6212L76.06 26.7212L70.7 42.6012H73.98Z" fill="#FFA3C0"/>
<path d="M145.45 46.4409H145.35L147.88 48.9909L150.65 51.7409H150.74L145.45 46.4409Z" fill="#FFA3C0"/>
<path d="M181.05 22.9311C182.881 27.4208 183.793 32.2326 183.73 37.0811C183.718 45.3684 180.782 53.3856 175.44 59.7211L177.89 62.2111C183.223 55.8833 186.152 47.8764 186.16 39.6011C186.222 34.7527 185.31 29.9411 183.48 25.4511C182.191 22.3476 180.423 19.4658 178.24 16.9111C177.507 16.0601 176.73 15.2489 175.91 14.4811L175.81 14.3911C177.992 16.9467 179.76 19.8283 181.05 22.9311Z" fill="#FFA3C0"/>
<path d="M136.26 71.2412C140.797 72.9942 145.626 73.8698 150.49 73.8212C157.47 73.8212 163.23 72.4879 167.77 69.8212L165.54 67.1912C160.96 69.8579 155.133 71.2112 148.06 71.2512C143.196 71.2998 138.367 70.4242 133.83 68.6712C129.896 67.1374 126.289 64.8706 123.2 61.9912C123.74 62.6112 124.29 63.2112 124.87 63.7912C125.12 64.0412 125.38 64.2812 125.63 64.5112C128.715 67.4081 132.322 69.692 136.26 71.2412Z" fill="#FFA3C0"/>
<path d="M188.67 73.3213H188.71L186.24 70.8013L171.15 73.1513L172.63 74.9113L173.32 75.7213L173.58 75.6813L188.67 73.3213Z" fill="#FFA3C0"/>
<path d="M148.14 18.7609C144.936 18.7406 141.784 19.5649 139 21.1509C136.267 22.6587 133.959 24.8326 132.29 27.4709C130.668 29.9508 129.8 32.8477 129.79 35.8109C129.774 38.4084 130.256 40.9848 131.21 43.4009C131.901 45.1254 132.841 46.7392 134 48.1909C134.45 48.5825 134.921 48.9497 135.41 49.2909C133.298 46.0145 132.199 42.1884 132.25 38.2909C132.265 35.3315 133.133 32.4392 134.75 29.9609C136.422 27.3194 138.733 25.1423 141.47 23.6309C144.242 22.0521 147.38 21.2312 150.57 21.2509C153.785 21.2297 156.941 22.1209 159.67 23.8209C160.05 24.0509 160.4 24.3209 160.76 24.5809C160.44 24.0909 160.11 23.5809 159.76 23.1709C158.977 22.4757 158.137 21.8468 157.25 21.2909C154.511 19.6101 151.354 18.7334 148.14 18.7609Z" fill="#FFA3C0"/>
<path d="M37.05 16.3411H16.77V27.1211H19.2V18.8711H39.49V7.19113V4.66113H37.05V16.3411Z" fill="#FFD1E0"/>
<path d="M19.2 69.1609V43.8509H37.61V32.1709V29.6509H35.17V41.3309H16.77V66.6409H2.42999V69.1609H4.86999H19.2Z" fill="#FFD1E0"/>
<path d="M110.4 69.1611L87.05 7.19113L86.1 4.66113H84.62L107.97 66.6411H91.57L92.51 69.1611H94H110.4Z" fill="#FFD1E0"/>
<path d="M60.78 69.1612L65.23 57.9512H86.83L85.88 55.4312H62.79L58.34 66.6412H43.95L42.97 69.1612H46.38H60.78Z" fill="#FFD1E0"/>
<path d="M76.06 26.7213L74.52 22.0713H74.35L67.41 42.6013H70.7L76.06 26.7213Z" fill="#FFD1E0"/>
<path d="M158.74 41.9512L160.85 44.1512V44.1412L158.75 41.9512H158.74Z" fill="#FFD1E0"/>
<path d="M145.45 46.4409L150.74 51.6909H150.83L143 43.9209H142.9L145.45 46.4409Z" fill="#FFD1E0"/>
<path d="M178.62 20.4111C180.448 24.902 181.359 29.713 181.3 34.5611C181.29 42.8565 178.35 50.8818 173 57.2211L175.45 59.7211C180.792 53.3856 183.728 45.3684 183.74 37.0811C183.803 32.2326 182.891 27.4209 181.06 22.9311C179.77 19.8283 178.002 16.9468 175.82 14.3911C175.081 13.5526 174.3 12.7515 173.48 11.9911L173.38 11.9111C175.561 14.4528 177.329 17.3211 178.62 20.4111Z" fill="#FFD1E0"/>
<path d="M168.72 70.6312L170.2 72.3913L170.89 73.1912L171.15 73.1513L186.24 70.8012L186.28 70.7913L183.81 68.2812L168.72 70.6312Z" fill="#FFD1E0"/>
<path d="M133.83 68.7112C138.367 70.4643 143.196 71.3398 148.06 71.2912C155.14 71.2912 160.967 69.9379 165.54 67.2312L163.32 64.5912C158.713 67.3846 152.813 68.7779 145.62 68.7712C140.759 68.8187 135.934 67.9432 131.4 66.1912C127.468 64.6537 123.861 62.3873 120.77 59.5112C121.3 60.1212 121.85 60.7312 122.44 61.3112C122.69 61.5612 122.95 61.7912 123.2 62.0312C126.289 64.9106 129.896 67.1774 133.83 68.7112Z" fill="#FFD1E0"/>
<path d="M131.24 43.4011C130.286 40.985 129.804 38.4085 129.82 35.8111C129.83 32.8479 130.698 29.951 132.32 27.4711C133.98 24.8366 136.278 22.663 139 21.1511C141.775 19.5702 144.916 18.746 148.11 18.7611C151.324 18.7475 154.478 19.6381 157.21 21.3311C158.097 21.887 158.937 22.5158 159.72 23.2111C158.343 21.4636 156.667 19.9739 154.77 18.8111C152.042 17.1169 148.891 16.2261 145.68 16.2411C142.487 16.2216 139.345 17.0424 136.57 18.6211C133.845 20.1508 131.547 22.3413 129.89 24.9911C128.268 27.4672 127.399 30.3609 127.39 33.3211C127.368 35.9223 127.85 38.5032 128.81 40.9211C129.72 43.1816 131.062 45.2433 132.76 46.9911C133.16 47.4011 133.57 47.7811 134 48.1511C132.855 46.7098 131.925 45.1097 131.24 43.4011Z" fill="#FFD1E0"/>
<path d="M16.77 66.6411V41.3311H35.17V29.6511V27.1211H26.5H24.07H21.64H19.2H16.77V16.3411H37.05V4.66111V2.14111H0V66.6411H2.43H16.77Z" fill="white"/>
<path d="M108 66.6411L84.66 4.64109L83.66 2.12109H65.34L40.54 66.6211H58.34L62.79 55.4011H85.88L86.88 57.9311L87.82 60.4511L88.82 62.9711L89.76 65.5011L90.18 66.6211H108V66.6411ZM74.35 22.0711H74.51L76.06 26.7211L77.69 31.6111L79.32 36.5111L81 41.4111L81.4 42.6011H67.41L74.35 22.0711Z" fill="white"/>
<path d="M131.4 66.1911C135.934 67.9431 140.759 68.8186 145.62 68.7711C152.807 68.7711 158.707 67.3778 163.32 64.5911L165.54 67.2311L167.77 69.8611L168.45 70.6711H168.72L183.81 68.3211L182.81 67.2611L180.36 64.7611L177.9 62.2611L175.45 59.7711L173 57.2211C178.354 50.8831 181.297 42.8577 181.31 34.5611C181.369 29.7129 180.458 24.902 178.63 20.4111C177.343 17.3069 175.574 14.425 173.39 11.8711C172.641 11.0129 171.843 10.1982 171 9.4311C167.703 6.36285 163.828 3.98308 159.6 2.4311C155.117 0.788714 150.375 -0.0343744 145.6 0.00109963C141.03 -0.00530441 136.496 0.818045 132.22 2.4311C127.99 4.00416 124.091 6.35079 120.72 9.3511C117.388 12.3066 114.693 15.9099 112.8 19.9411C110.856 24.0853 109.868 28.6136 109.91 33.1911C109.864 38.0543 110.75 42.8812 112.52 47.4111C114.197 51.6823 116.744 55.5578 120 58.7911C120.24 59.0311 120.5 59.2711 120.76 59.5111C123.854 62.3883 127.464 64.6547 131.4 66.1911ZM128.81 40.8811C127.85 38.4632 127.368 35.8824 127.39 33.2811C127.399 30.321 128.268 27.4272 129.89 24.9511C131.561 22.3122 133.868 20.1356 136.6 18.6211C139.375 17.0424 142.517 16.2216 145.71 16.2411C148.921 16.2262 152.072 17.1169 154.8 18.8111C156.697 19.974 158.373 21.4636 159.75 23.2111C160.11 23.6611 160.44 24.1311 160.75 24.6211C160.97 24.9511 161.2 25.2711 161.4 25.6211C161.51 25.7911 161.59 25.9711 161.69 26.1511C161.98 26.7011 162.25 27.2611 162.49 27.8311C163.38 29.991 163.835 32.3051 163.83 34.6411C163.875 38.0476 162.823 41.3782 160.83 44.1411L158.74 41.9911L156.32 39.4611L140.49 41.4611L143 43.9211L150.81 51.6611H150.72H150.63H150.55H150.46C148.92 52.161 147.31 52.4141 145.69 52.4111C143.256 52.4244 140.845 51.9342 138.61 50.9711C138.046 50.726 137.496 50.4523 136.96 50.1511C136.44 49.8611 135.96 49.5411 135.44 49.1511C134.944 48.8563 134.463 48.5358 134 48.1911C133.57 47.8211 133.16 47.4411 132.76 47.0311C131.053 45.2597 129.711 43.1701 128.81 40.8811Z" fill="white"/>
</svg>
