<svg width="250" height="122" viewBox="0 0 250 122" fill="none" xmlns="http://www.w3.org/2000/svg">
<path d="M20.8967 33.9763V50.6622H11.7032V52.2601H22.4546V35.5679H31.7379V33.9763H20.8967Z" fill="#FF4681"/>
<path d="M47.1692 50.6623H37.9757V52.2602H48.7271V11.5243H47.1692V50.6623Z" fill="#FF4681"/>
<path d="M22.4546 11.5243H20.8967V20.8714H22.4546V11.5243Z" fill="#FF4681"/>
<path d="M59.2669 19.2671C59.6727 19.36 60.0876 19.4087 60.5043 19.4123C61.4899 19.4154 62.4579 19.1557 63.3059 18.6608C64.1562 18.1739 64.8632 17.4774 65.3574 16.6398C65.8538 15.8094 66.113 14.8623 66.1075 13.8988C66.112 12.9293 65.853 11.9764 65.3574 11.1388C64.9424 10.4287 64.3678 9.82166 63.6777 9.36414L63.7995 9.54729C64.2909 10.3831 64.5497 11.3319 64.5497 12.2977C64.5497 13.2636 64.2909 14.2124 63.7995 15.0482C63.3049 15.8839 62.5978 16.5782 61.748 17.0629C60.9 17.555 59.9338 17.8145 58.9496 17.8145C57.9654 17.8145 56.9991 17.555 56.1511 17.0629C56.0266 16.9902 55.9067 16.9101 55.7921 16.8229C56.1164 17.3371 56.526 17.7939 57.0038 18.1745H59.2669V19.2671Z" fill="#FF4681"/>
<path d="M55.5164 50.6624V52.2602H65.5048V24.5409H63.9469V50.6624H55.5164Z" fill="#FF4681"/>
<path d="M101.413 13.8045C100.131 13.8045 99.2529 14.1771 98.7336 14.916C98.1728 15.9078 97.9062 17.0348 97.9642 18.1686H99.6696C99.7645 17.5772 99.9828 17.0116 100.311 16.5076C100.83 15.7686 101.721 15.4023 102.991 15.4023C104.208 15.4779 105.4 15.7868 106.497 16.3118V7.8425C106 7.58354 105.478 7.37205 104.939 7.21094V14.7202C103.837 14.1885 102.639 13.8772 101.413 13.8045Z" fill="#FF4681"/>
<path d="M97.9579 31.0457V50.662H89.5402V52.2599H99.5158V32.6435H103.593V31.0457H97.9579Z" fill="#FF4681"/>
<path d="M126.384 31.1596C125.991 31.1217 125.581 31.1028 125.153 31.1028C122.589 31.1028 120.794 31.8375 119.768 33.3069C118.742 34.7764 118.234 36.8332 118.242 39.4773V50.6623H109.824V52.2791H119.807V41.0689C119.807 38.4247 120.315 36.3679 121.332 34.8985C122.3 33.4964 123.987 32.7701 126.378 32.707C126.378 32.4859 126.378 32.2712 126.378 32.0754C126.378 31.8796 126.365 31.4375 126.384 31.1596Z" fill="#FF4681"/>
<path d="M144.585 31.4374C143.636 31.9712 142.86 32.7596 142.348 33.711C141.829 34.6841 141.564 35.7695 141.579 36.8688C141.577 37.2919 141.612 37.7144 141.681 38.1319C142.163 38.2256 142.652 38.2763 143.143 38.2835C143.155 37.2404 143.416 36.2147 143.906 35.2899C144.418 34.3385 145.194 33.5501 146.143 33.0163C147.18 32.4379 148.356 32.1455 149.548 32.17H149.721C149.721 32.1321 149.721 32.0942 149.721 32.0563C149.719 31.6131 149.673 31.1711 149.586 30.7363C149.06 30.6232 148.522 30.566 147.983 30.5658C146.792 30.5496 145.618 30.8507 144.585 31.4374Z" fill="#FF4681"/>
<path d="M164.748 34.507V31.4376C164.569 31.1219 164.383 30.8061 164.178 30.5092C163.49 29.4993 162.671 28.5821 161.741 27.7809C162.053 28.1435 162.344 28.5231 162.613 28.9177C163.749 30.5959 164.479 32.5078 164.748 34.507Z" fill="#FF4681"/>
<path d="M162.613 44.7001C161.081 46.9444 158.94 48.7193 156.433 49.8221C153.768 50.9757 150.888 51.5714 147.977 51.5714C145.066 51.5714 142.186 50.9757 139.521 49.8221C138.14 49.2051 136.86 48.3876 135.725 47.3969C137.174 49.1221 139.005 50.4963 141.079 51.4136C143.743 52.5714 146.623 53.1694 149.535 53.1694C152.447 53.1694 155.327 52.5714 157.991 51.4136C160.499 50.3138 162.643 48.5411 164.178 46.298C164.383 45.9948 164.569 45.6664 164.748 45.3759V39.1423C164.476 41.131 163.746 43.0321 162.613 44.7001Z" fill="#FF4681"/>
<path d="M180.161 31.7908C179.597 33.6131 179.339 35.5139 179.398 37.4181V50.6809H170.986V52.2788H180.962V39.0159C180.899 37.1116 181.157 35.2101 181.725 33.3887C181.863 32.9507 182.104 32.5508 182.428 32.2216C182.752 31.8924 183.15 31.6432 183.591 31.494C183.591 30.8624 183.514 30.2309 183.443 29.6372C181.731 29.7635 180.635 30.4646 180.161 31.7908Z" fill="#FF4681"/>
<path d="M215.184 25.3491C216.467 27.1596 217.108 29.709 217.108 32.9974V50.6812H208.696V52.279H218.698V34.5952C218.698 30.1743 217.518 27.0986 215.184 25.3491Z" fill="#FF4681"/>
<path d="M199.137 31.9173C198.492 33.6791 198.196 35.5465 198.266 37.4183V50.6811H189.848V52.279H199.83V39.0161C199.758 37.1448 200.052 35.2773 200.695 33.5152C200.855 33.1257 201.095 32.7734 201.401 32.4808C201.707 32.1882 202.071 31.9619 202.471 31.8163C202.471 31.1279 202.401 30.49 202.33 29.89C200.715 30.0416 199.644 30.7174 199.137 31.9173Z" fill="#FF4681"/>
<path d="M25.67 86.1301L25.9264 85.3785L24.8814 82.2902L23.5671 86.1301H25.67Z" fill="#FF4681"/>
<path d="M46.3778 99.5699L33.9018 66.9559H32.953L47.9229 106.094H37.4151L38.0177 107.692H49.4807L47.0445 101.313H46.3778V99.5699Z" fill="#FF4681"/>
<path d="M18.964 99.0142L16.111 106.094H6.87908L6.2572 107.692H17.6689L20.5218 100.606H31.5104L30.9014 99.0142H18.964Z" fill="#FF4681"/>
<path d="M67.9445 86.5343C65.38 86.5343 63.585 87.2691 62.5592 88.7385C61.5334 90.2079 61.0248 92.2647 61.0333 94.9089V106.094H52.6156V107.711H62.5912V96.5004C62.5912 93.8563 63.0998 91.7995 64.1171 90.33C65.1343 88.8606 66.9294 88.1259 69.5024 88.1259C70.3976 88.1187 71.2899 88.227 72.1566 88.448V87.4501C70.8542 86.7975 69.4047 86.4823 67.9445 86.5343Z" fill="#FF4681"/>
<path d="M86.8124 86.4773V106.094H78.3947V107.71H88.3446V88.0752H90.159C89.9859 87.551 89.832 87.0204 89.6974 86.4773H86.8124Z" fill="#FF4681"/>
<path d="M87.7868 73.6V75.1915H88.3702V71.6484H86.8123V73.6H87.7868Z" fill="#FF4681"/>
<path d="M126.811 80.3763C126.875 80.25 126.952 80.1237 127.022 80.0037V67.9219C126.497 67.7134 125.977 67.524 125.465 67.3408V78.9679C125.957 79.3952 126.407 79.8667 126.811 80.3763Z" fill="#FF4681"/>
<path d="M126.766 94.4098C126.355 94.8637 125.909 95.286 125.433 95.6729V105.292C123.035 106.003 121.218 106.496 119.983 106.769C118.654 107.052 117.298 107.19 115.938 107.18C113.099 107.183 110.286 106.654 107.648 105.62C104.986 104.589 102.536 103.091 100.417 101.199L100.154 100.953C100.719 101.604 101.328 102.218 101.975 102.791C104.094 104.683 106.544 106.18 109.206 107.212C111.843 108.248 114.657 108.778 117.496 108.772C118.858 108.781 120.216 108.643 121.548 108.361C122.778 108.087 124.593 107.595 126.991 106.883V94.8456L126.952 94.7824C126.888 94.6624 126.811 94.5361 126.766 94.4098Z" fill="#FF4681"/>
<path d="M107.911 81.7218C108.803 80.0278 110.158 78.6127 111.822 77.6356C113.551 76.6202 115.534 76.0997 117.547 76.1324C119.382 76.1279 121.195 76.5248 122.855 77.2945C123.698 77.6823 124.486 78.1747 125.202 78.7597C124.801 78.2577 124.355 77.7926 123.868 77.3703V77.4335C123.798 77.3387 123.714 77.2566 123.644 77.1619C122.927 76.5801 122.139 76.0899 121.297 75.703C119.638 74.9302 117.824 74.5331 115.989 74.5409C113.977 74.5096 111.995 75.0277 110.264 76.0377C108.6 77.0173 107.245 78.4345 106.353 80.1302C105.496 81.7943 105.024 83.6246 104.971 85.4898C104.918 87.3549 105.285 89.2085 106.045 90.9173C106.411 91.1005 106.783 91.2584 107.161 91.4036C106.729 90.1205 106.513 88.7766 106.52 87.4248C106.501 85.44 106.978 83.4812 107.911 81.7218Z" fill="#FF4681"/>
<path d="M162.617 106.094H154.199V107.692H164.175V79.9725H162.617V106.094Z" fill="#FF4681"/>
<path d="M152.641 104.502H151.269C150.586 105.122 149.804 105.628 148.955 105.999C147.403 106.679 145.723 107.025 144.025 107.016C141.44 107.052 138.899 106.35 136.71 104.995C136.031 104.577 135.388 104.106 134.786 103.587C135.764 104.764 136.929 105.777 138.236 106.586C140.425 107.943 142.965 108.647 145.551 108.614C147.266 108.628 148.965 108.279 150.532 107.591C151.383 107.223 152.166 106.717 152.846 106.094H152.661L152.641 104.502Z" fill="#FF4681"/>
<path d="M143.127 86.8687C142.178 87.4025 141.402 88.191 140.89 89.1423C140.37 90.1154 140.106 91.2009 140.12 92.3002C140.119 92.7233 140.153 93.1458 140.223 93.5633C140.705 93.6538 141.194 93.7045 141.685 93.7149C141.696 92.6717 141.958 91.646 142.448 90.7213C142.96 89.7699 143.736 88.9814 144.685 88.4476C145.726 87.8685 146.907 87.5762 148.102 87.6013H148.294V87.5003C148.291 87.0595 148.249 86.6199 148.166 86.1866C147.632 86.0682 147.086 86.0089 146.538 86.0098C145.343 85.9893 144.165 86.286 143.127 86.8687Z" fill="#FF4681"/>
<path d="M201.962 100.05C201.365 99.7591 200.775 99.4181 200.192 99.1023C199.57 100.399 198.756 101.598 197.775 102.658C196.522 104.02 194.993 105.109 193.287 105.854C191.503 106.621 189.574 107.009 187.626 106.991C185.972 106.994 184.332 106.69 182.792 106.094C181.308 105.525 179.988 104.608 178.946 103.422V119.906H170.483V121.504H180.459V105.045C181.511 106.235 182.846 107.151 184.344 107.711C185.883 108.309 187.523 108.616 189.178 108.614C191.124 108.632 193.051 108.243 194.832 107.471C196.538 106.728 198.067 105.642 199.32 104.281C200.304 103.211 201.121 102.002 201.744 100.694C201.707 100.679 201.673 100.66 201.641 100.637L201.962 100.05Z" fill="#FF4681"/>
<path d="M201.718 92.3256C201.725 94.2 201.393 96.0606 200.737 97.8202L203.238 93.0961C203.169 91.4377 202.834 89.8005 202.244 88.2457C201.581 86.4891 200.584 84.8729 199.308 83.4837C198.95 83.0974 198.569 82.7325 198.166 82.3911C199.24 83.6626 200.092 85.1011 200.686 86.6479C201.376 88.4632 201.726 90.3871 201.718 92.3256Z" fill="#FF4681"/>
<path d="M181.568 86.869C180.621 87.4037 179.847 88.1921 179.337 89.1426C178.817 90.1156 178.553 91.2011 178.568 92.3004C178.566 92.7235 178.601 93.146 178.67 93.5635C179.152 93.6572 179.641 93.7079 180.132 93.7151C180.143 92.672 180.405 91.6463 180.895 90.7215C181.407 89.7701 182.183 88.9816 183.132 88.4479C184.169 87.8689 185.345 87.5765 186.537 87.6016H186.722C186.722 87.5637 186.722 87.5258 186.722 87.4879C186.721 87.0468 186.675 86.6068 186.588 86.1742C186.058 86.0562 185.516 85.9969 184.972 85.9974C183.779 85.9819 182.603 86.2829 181.568 86.869Z" fill="#FF4681"/>
<path d="M219.861 84.16C219.492 84.1586 219.125 84.1989 218.765 84.28C219.831 84.6197 220.836 85.1204 221.746 85.7642C223.522 85.8057 225.262 86.2624 226.824 87.0968L230.164 80.8316C229.494 80.5407 228.807 80.2897 228.106 80.0801L225.208 85.5052C223.567 84.6263 221.729 84.1639 219.861 84.16Z" fill="#FF4681"/>
<path d="M228.106 92.231C228.996 93.5489 229.444 95.1081 229.388 96.6898C229.46 98.777 228.793 100.824 227.503 102.481C226.219 104.053 224.517 105.243 222.586 105.917C220.509 106.661 218.314 107.033 216.104 107.016C212.814 107.025 209.567 106.277 206.622 104.831L206.308 105.418C209.714 107.516 213.652 108.624 217.669 108.614C219.877 108.631 222.07 108.257 224.144 107.508C226.077 106.838 227.78 105.648 229.061 104.073C230.366 102.421 231.046 100.373 230.985 98.2813C231.038 97.1185 230.805 95.9602 230.303 94.9062C229.802 93.8522 229.048 92.9341 228.106 92.231Z" fill="#FF4681"/>
<path d="M213.168 94.5927C211.815 94.2837 210.538 93.7127 209.411 92.9127C209.618 93.2445 209.868 93.5481 210.155 93.8159C210.628 94.2564 211.151 94.6421 211.713 94.9653C212.279 94.9643 212.839 94.8527 213.361 94.6369L213.168 94.5927Z" fill="#FF4681"/>
<path d="M242.479 92.269C242.544 92.3574 242.601 92.4522 242.665 92.5469C243.19 92.914 243.652 93.3593 244.037 93.8669H248.794V66.9559H247.23V92.269H242.479Z" fill="#FF4681"/>
<path d="M249.141 99.2668C248.688 98.5029 248.076 97.8421 247.346 97.3279C247.423 97.4416 247.512 97.5552 247.583 97.6752C248.306 98.8812 248.602 100.29 248.424 101.68C248.245 103.069 247.603 104.361 246.598 105.352C245.593 106.343 244.282 106.976 242.872 107.153C241.461 107.33 240.031 107.039 238.806 106.328C238.617 106.219 238.435 106.098 238.261 105.968C239.026 107.093 240.138 107.947 241.432 108.402C242.727 108.858 244.136 108.891 245.452 108.498C246.767 108.104 247.919 107.304 248.738 106.217C249.557 105.129 250 103.811 250 102.456C250.008 101.336 249.712 100.235 249.141 99.2668Z" fill="#FF4681"/>
<path d="M19.3387 20.8715H20.8966V11.5244V9.92651H19.3387V20.8715Z" fill="#FF74A1"/>
<path d="M47.1692 11.5244V9.92651H45.6113V49.0708H36.4178V50.6624H37.9757H47.1692V11.5244Z" fill="#FF74A1"/>
<path d="M20.8966 33.9761H31.7378V32.3845H19.3387V49.0704H10.1453V50.662H11.7032H20.8966V33.9761Z" fill="#FF74A1"/>
<path d="M58.9463 17.8148C59.9324 17.821 60.9013 17.5611 61.748 17.0632C62.6001 16.5794 63.3095 15.885 63.8059 15.0485C64.2973 14.2127 64.556 13.2639 64.556 12.2981C64.556 11.3322 64.2973 10.3834 63.8059 9.54761L63.6841 9.36446C63.2827 8.72924 62.7497 8.18473 62.1198 7.7666C62.1647 7.82976 62.2096 7.8866 62.248 7.94976C62.743 8.78754 63.002 9.74033 62.9981 10.7097C63.0042 11.6733 62.745 12.6206 62.248 13.4507C61.7554 14.2896 61.048 14.9864 60.1965 15.4717C59.3485 15.9638 58.3822 16.2233 57.3981 16.2233C56.4139 16.2233 55.4476 15.9638 54.5996 15.4717C54.4714 15.3959 54.356 15.3138 54.2406 15.2317C54.6435 15.8619 55.1738 16.4037 55.7985 16.8232C55.9131 16.9104 56.0329 16.9906 56.1575 17.0632C56.9997 17.5607 57.9644 17.8207 58.9463 17.8148Z" fill="#FF74A1"/>
<path d="M62.3892 49.0712H53.9586V50.6627H55.5165H63.9471V24.5412V22.9497H62.3892V49.0712Z" fill="#FF74A1"/>
<path d="M97.9577 31.0464H103.593V22.9497H103.362V29.4548H96.3998V49.0712H87.9821V50.6627H89.5399H97.9577V31.0464Z" fill="#FF74A1"/>
<path d="M103.362 13.122C102.265 12.597 101.073 12.2881 99.8556 12.2126C98.5734 12.2126 97.6951 12.5852 97.1758 13.3241C96.6565 14.0631 96.4 15.2188 96.4 16.8609V18.1745H97.9643C97.9063 17.0408 98.1729 15.9137 98.7337 14.922C99.253 14.1831 100.144 13.8104 101.413 13.8104C102.632 13.8857 103.824 14.1969 104.92 14.7262V6.2443C104.423 5.99552 103.901 5.79663 103.362 5.65063V13.122Z" fill="#FF74A1"/>
<path d="M118.242 39.4772C118.242 36.8331 118.751 34.7763 119.768 33.3069C120.786 31.8374 122.581 31.1027 125.154 31.1027C125.581 31.1027 125.991 31.1217 126.385 31.1595C126.385 30.7301 126.436 30.3133 126.494 29.8964C125.553 29.6243 124.576 29.4902 123.596 29.4985C121.031 29.4985 119.23 30.2375 118.21 31.7027C117.191 33.1679 116.685 35.2331 116.685 37.8794V49.0707H108.267V50.6622H118.242V39.4772Z" fill="#FF74A1"/>
<path d="M127.827 25.5388C128.069 25.0523 128.343 24.5818 128.648 24.1304C128.878 23.7894 129.128 23.4988 129.385 23.1515V22.5957H127.827V25.5388Z" fill="#FF74A1"/>
<path d="M143.002 29.8143C142.058 30.3439 141.284 31.1254 140.771 32.069C140.248 33.0409 139.981 34.1268 139.995 35.2268C139.982 36.0897 140.137 36.9471 140.45 37.753C140.841 37.9137 141.247 38.0364 141.662 38.1193C141.592 37.7018 141.558 37.2793 141.559 36.8562C141.545 35.7569 141.809 34.6715 142.329 33.6984C142.848 32.7491 143.631 31.9649 144.585 31.4374C145.622 30.8584 146.798 30.566 147.99 30.5911C148.529 30.5913 149.066 30.6485 149.592 30.7616C149.517 30.3494 149.401 29.9454 149.246 29.5553C148.358 29.1764 147.399 28.987 146.432 28.9996C145.235 28.959 144.049 29.2407 143.002 29.8143Z" fill="#FF74A1"/>
<path d="M147.977 51.5843C150.891 51.6122 153.777 51.0153 156.433 49.8349C158.942 48.7286 161.083 46.9493 162.613 44.7003C163.748 43.0285 164.478 41.123 164.748 39.1299V34.5068C164.48 32.5054 163.75 30.5912 162.613 28.9112C162.344 28.5165 162.053 28.137 161.742 27.7744C161.267 27.2009 160.746 26.6665 160.184 26.1765C162.336 28.7051 163.464 31.9285 163.351 35.2268C163.416 38.0247 162.615 40.7759 161.056 43.1151C159.523 45.3577 157.382 47.1305 154.875 48.2307C152.21 49.3887 149.329 49.9867 146.416 49.9867C143.503 49.9867 140.622 49.3887 137.956 48.2307C136.578 47.6144 135.301 46.7991 134.167 45.8118C134.644 46.3819 135.164 46.914 135.725 47.4034C136.86 48.3941 138.14 49.2116 139.521 49.8286C142.176 51.0131 145.062 51.6123 147.977 51.5843Z" fill="#FF74A1"/>
<path d="M217.133 32.9975C217.133 29.7091 216.492 27.1597 215.21 25.3492C214.776 24.7413 214.248 24.2043 213.645 23.7577C214.928 25.564 215.579 28.1134 215.601 31.4059V49.0897H207.157V50.6813H217.133V32.9975Z" fill="#FF74A1"/>
<path d="M179.397 37.4184C179.339 35.5142 179.597 33.6134 180.16 31.7911C180.635 30.4649 181.731 29.7638 183.443 29.6691C183.38 29.1487 183.288 28.6321 183.167 28.1217C182.876 28.0805 182.583 28.0594 182.289 28.0586C180.366 28.0586 179.115 28.7723 178.603 30.1996C178.034 32.0318 177.777 33.9437 177.84 35.8584V49.1213H169.422V50.7128H179.397V37.4184Z" fill="#FF74A1"/>
<path d="M198.265 37.4181C198.196 35.5464 198.492 33.6789 199.137 31.9172C199.644 30.7172 200.714 30.0225 202.343 29.8898C202.286 29.3548 202.199 28.8234 202.08 28.2983C201.888 28.278 201.696 28.2674 201.503 28.2667C199.477 28.2667 198.169 28.9551 197.592 30.3256C196.935 32.0955 196.634 33.9748 196.708 35.8581V49.121H188.29V50.7125H198.265V37.4181Z" fill="#FF74A1"/>
<path d="M23.5672 86.1298L24.8815 82.2899L23.8365 79.1952L21.458 86.1298H23.5672Z" fill="#FF74A1"/>
<path d="M18.9639 99.0139H30.9013L30.2986 97.416H17.406L14.553 104.502H5.32109L4.69922 106.094H6.87898H16.1109L18.9639 99.0139Z" fill="#FF74A1"/>
<path d="M32.953 66.956L32.344 65.3582H31.3951L46.365 104.502H35.8508L36.4599 106.094H37.4151H47.9229L32.953 66.956Z" fill="#FF74A1"/>
<path d="M61.0335 94.9089C61.0335 92.2647 61.5421 90.208 62.5593 88.7385C63.5766 87.2691 65.3716 86.5344 67.9446 86.5344C69.4048 86.4823 70.8544 86.7975 72.1567 87.4501V84.886H72.0477V83.2944H70.618V85.8649C69.3111 85.205 67.8545 84.8854 66.3867 84.9365C63.8223 84.9365 62.0208 85.6754 61.0014 87.1407C59.9821 88.6059 59.4948 90.6585 59.4948 93.3174V104.502H51.0579V106.094H61.0335V94.9089Z" fill="#FF74A1"/>
<path d="M85.2544 73.5997H86.8123V71.6482V70.0566H85.2544V73.5997Z" fill="#FF74A1"/>
<path d="M86.8122 86.4773H89.7228C89.5946 85.9594 89.492 85.4289 89.4023 84.8857H85.2543V104.502H76.8365V106.094H86.8122V86.4773Z" fill="#FF74A1"/>
<path d="M107.648 105.62C110.278 106.651 113.082 107.18 115.912 107.18C117.272 107.19 118.628 107.052 119.958 106.77C121.193 106.496 123.009 106.003 125.407 105.292V92.5847C124.933 93.1331 124.409 93.6383 123.843 94.0942V103.7C121.449 104.408 119.635 104.898 118.4 105.172C117.069 105.457 115.71 105.595 114.348 105.582C111.512 105.587 108.701 105.06 106.065 104.029C103.404 102.995 100.954 101.497 98.833 99.6077C98.7369 99.5256 98.6535 99.4435 98.5702 99.3614C99.0596 99.9196 99.5796 100.451 100.128 100.953L100.391 101.199C102.518 103.094 104.977 104.592 107.648 105.62Z" fill="#FF74A1"/>
<path d="M123.868 77.3955C124.355 77.8178 124.801 78.2829 125.202 78.785C125.272 78.8734 125.356 78.9555 125.432 79.0502V66.3242C124.907 66.1095 124.387 65.92 123.868 65.7432V77.3955Z" fill="#FF74A1"/>
<path d="M106.353 80.1303C107.246 78.4346 108.6 77.0174 110.264 76.0378C111.996 75.0278 113.977 74.5097 115.989 74.541C117.825 74.5333 119.638 74.9303 121.298 75.7031C122.139 76.09 122.927 76.5802 123.644 77.162C123.247 76.6626 122.805 76.1996 122.323 75.7789V75.842C122.253 75.7473 122.17 75.6652 122.099 75.5705C121.384 74.9891 120.598 74.4989 119.759 74.1115C118.092 73.3447 116.271 72.9562 114.431 72.9747C112.419 72.9434 110.438 73.4615 108.706 74.4715C107.042 75.4487 105.688 76.8638 104.795 78.5578C103.868 80.3121 103.393 82.264 103.411 84.2418C103.383 86.2231 103.866 88.1789 104.815 89.9259C104.885 90.0585 104.975 90.1722 105.052 90.2985C105.257 90.4248 105.443 90.5638 105.655 90.6838L106.046 90.8859C105.285 89.1771 104.918 87.3235 104.971 85.4583C105.024 83.5932 105.497 81.7628 106.353 80.0988V80.1303Z" fill="#FF74A1"/>
<path d="M141.557 85.246C140.615 85.7765 139.843 86.558 139.332 87.5006C138.813 88.4741 138.549 89.5593 138.563 90.6585C138.548 91.5209 138.701 92.3782 139.011 93.1847C139.402 93.3454 139.808 93.468 140.223 93.551C140.153 93.1335 140.119 92.711 140.12 92.2879C140.106 91.1886 140.37 90.1031 140.89 89.1301C141.402 88.1787 142.178 87.3902 143.127 86.8564C144.167 86.2781 145.345 85.9858 146.538 86.0101C147.086 86.0093 147.632 86.0686 148.166 86.187C148.088 85.7727 147.97 85.3667 147.814 84.9744C146.919 84.5949 145.954 84.4055 144.98 84.4186C143.784 84.3831 142.6 84.6691 141.557 85.246Z" fill="#FF74A1"/>
<path d="M162.617 79.9726V78.3811H161.059V104.503H152.641V106.094H152.827H154.199H162.617V79.9726Z" fill="#FF74A1"/>
<path d="M144.025 107.016C145.723 107.025 147.403 106.678 148.955 105.999C149.804 105.627 150.586 105.122 151.269 104.502H151.083V102.91H149.705C149.022 103.528 148.243 104.034 147.397 104.407C145.844 105.083 144.164 105.43 142.467 105.424C139.879 105.459 137.336 104.755 135.145 103.397C134.465 102.985 133.821 102.516 133.222 101.995C133.696 102.566 134.217 103.098 134.78 103.586C135.382 104.106 136.025 104.577 136.703 104.995C138.894 106.351 141.437 107.053 144.025 107.016Z" fill="#FF74A1"/>
<path d="M178.901 103.448C179.943 104.634 181.264 105.551 182.748 106.119C184.288 106.715 185.928 107.02 187.582 107.016C189.529 107.035 191.458 106.647 193.243 105.879C194.949 105.135 196.478 104.046 197.73 102.684C198.713 101.616 199.528 100.409 200.147 99.1027L200.045 99.0459L200.686 97.8207C201.341 96.061 201.674 94.2004 201.667 92.3261C201.676 90.3854 201.326 88.4594 200.635 86.642C200.04 85.0952 199.189 83.6567 198.115 82.3852C197.974 82.221 197.846 82.0442 197.698 81.88C197.339 81.4973 196.958 81.1346 196.557 80.7937C197.632 82.0643 198.484 83.503 199.077 85.0504C200.449 88.6997 200.449 92.7125 199.077 96.3618C198.417 98.1055 197.424 99.7089 196.153 101.086C194.899 102.437 193.37 103.513 191.666 104.244C189.882 105.016 187.953 105.406 186.005 105.387C184.372 105.404 182.75 105.121 181.222 104.553C179.726 103.99 178.392 103.075 177.337 101.888V118.372H168.926V119.963H178.901V103.448Z" fill="#FF74A1"/>
<path d="M180.023 85.2459C179.073 85.774 178.293 86.5555 177.773 87.5006C177.254 88.474 176.99 89.5592 177.003 90.6584C176.992 91.5206 177.145 92.3773 177.452 93.1846C177.845 93.3444 178.253 93.4671 178.67 93.5509C178.601 93.1334 178.566 92.7109 178.568 92.2878C178.553 91.1885 178.818 90.1031 179.337 89.13C179.847 88.1795 180.621 87.3911 181.568 86.8564C182.607 86.278 183.785 85.9857 184.979 86.0101C185.522 86.0095 186.064 86.0689 186.594 86.1869C186.516 85.7726 186.398 85.3666 186.242 84.9743C185.352 84.5953 184.39 84.4059 183.421 84.4185C182.233 84.3876 181.059 84.6734 180.023 85.2459Z" fill="#FF74A1"/>
<path d="M223.676 83.9071C222.027 83.024 220.18 82.5616 218.303 82.5618C217.571 82.5622 216.848 82.724 216.188 83.0355C215.942 83.1458 215.723 83.3074 215.547 83.5092L216.566 83.7113C217.314 83.8531 218.05 84.0451 218.771 84.286C219.131 84.2049 219.499 84.1646 219.868 84.166C221.744 84.1658 223.591 84.6282 225.24 85.5112L228.106 80.0798L228.555 79.2398C227.901 78.9497 227.231 78.6967 226.548 78.4819L223.676 83.9071Z" fill="#FF74A1"/>
<path d="M222.605 105.917C224.536 105.243 226.239 104.054 227.523 102.482C228.806 100.822 229.465 98.7751 229.388 96.6901C229.444 95.1084 228.996 93.5492 228.106 92.2313C227.672 91.6315 227.146 91.1011 226.548 90.6587C227.437 91.9795 227.885 93.5403 227.83 95.1238C227.901 97.2109 227.235 99.2575 225.945 100.915C224.663 102.473 222.971 103.652 221.054 104.326C218.977 105.069 216.782 105.441 214.572 105.425C211.282 105.432 208.035 104.684 205.09 103.239L204.776 103.827C208.2 105.879 212.123 106.981 216.13 107.016C218.338 107.032 220.53 106.66 222.605 105.917Z" fill="#FF74A1"/>
<path d="M213.36 94.6373C213.499 94.5819 213.634 94.5187 213.764 94.4479C214.103 94.2706 214.379 93.9979 214.559 93.6647C213.726 93.4816 212.745 93.2731 211.61 93.0332C210.25 92.7049 208.971 92.1122 207.847 91.29C208.056 91.6348 208.313 91.9493 208.61 92.2248C208.862 92.453 209.13 92.664 209.411 92.8563C210.538 93.6563 211.815 94.2273 213.168 94.5363L213.36 94.6373Z" fill="#FF74A1"/>
<path d="M242.018 107.18C243.141 107.173 244.242 106.877 245.213 106.321C246.183 105.766 246.99 104.97 247.552 104.012C248.114 103.055 248.413 101.97 248.418 100.864C248.424 99.7576 248.136 98.6695 247.583 97.7069C247.512 97.5869 247.422 97.4732 247.346 97.3596C246.934 96.7201 246.406 96.1612 245.788 95.7112C245.865 95.8249 245.948 95.9322 246.025 96.0585C246.748 97.2645 247.044 98.6732 246.866 100.063C246.687 101.453 246.045 102.744 245.04 103.735C244.035 104.726 242.724 105.36 241.314 105.536C239.903 105.713 238.473 105.423 237.248 104.711C237.056 104.597 236.876 104.477 236.703 104.351C237.122 104.969 237.65 105.508 238.261 105.943C238.435 106.073 238.617 106.194 238.806 106.303C239.776 106.876 240.886 107.179 242.018 107.18Z" fill="#FF74A1"/>
<path d="M245.672 90.6586H240.691C241.385 91.0717 241.992 91.612 242.48 92.2502H247.23V65.3582H245.672V90.6586Z" fill="#FF74A1"/>
<path d="M17.7745 20.8716H19.3388V9.92662V8.33508H17.7745V20.8716Z" fill="#FFA3C0"/>
<path d="M45.6113 49.071V9.92662V8.33508H44.0534V47.4794H34.8535V49.071H36.4178H45.6113Z" fill="#FFA3C0"/>
<path d="M19.3388 49.0709V32.385H31.7378V30.7871H17.7745V47.4793H8.5874V49.0709H10.1453H19.3388Z" fill="#FFA3C0"/>
<path d="M60.8312 47.4793H52.4006V49.0708H53.9585H62.3891V22.9493V21.3578H60.8312V47.4793Z" fill="#FFA3C0"/>
<path d="M57.3948 16.223C58.3804 16.2261 59.3485 15.9664 60.1964 15.4714C61.048 14.9862 61.7553 14.2893 62.2479 13.4504C62.7449 12.6204 63.0041 11.6731 62.998 10.7094C63.0019 9.74008 62.7429 8.78728 62.2479 7.9495C62.2095 7.88634 62.1646 7.8295 62.1197 7.76635C61.715 7.13548 61.1824 6.59368 60.5554 6.1748C60.5939 6.23796 60.6452 6.2948 60.6836 6.35796C61.1792 7.19551 61.4382 8.14846 61.4337 9.11789C61.4392 10.0815 61.18 11.0286 60.6836 11.8589C60.1875 12.6951 59.4809 13.3911 58.6321 13.8799C57.7829 14.3719 56.8156 14.6313 55.8305 14.6313C54.8453 14.6313 53.878 14.3719 53.0288 13.8799L52.6698 13.6399C53.0785 14.2677 53.6103 14.8088 54.2341 15.2314C54.3495 15.3135 54.4649 15.3956 54.5931 15.4714C55.4403 15.9681 56.4089 16.228 57.3948 16.223Z" fill="#FFA3C0"/>
<path d="M83.3021 27.8628H82.911V29.4543H83.3021V27.8628Z" fill="#FFA3C0"/>
<path d="M101.804 11.5305C100.706 10.9967 99.5127 10.6792 98.291 10.5958C97.0088 10.5958 96.1305 10.9621 95.6176 11.701C95.1047 12.4399 94.8354 13.5957 94.8354 15.2441V18.1745H96.3998V16.8609C96.3998 15.2441 96.6583 14.0652 97.1755 13.3241C97.6948 12.5852 98.5859 12.2126 99.8553 12.2126C101.073 12.2881 102.264 12.597 103.362 13.122V4.65275C102.864 4.40397 102.342 4.20508 101.804 4.05908V11.5305Z" fill="#FFA3C0"/>
<path d="M96.3998 49.0708V29.4544H103.362V22.9493V21.3578H101.804V27.8629H94.8419V47.4793H86.4242V49.0708H87.9821H96.3998Z" fill="#FFA3C0"/>
<path d="M116.684 49.0707V37.8857C116.684 35.2415 117.193 33.1826 118.21 31.709C119.23 30.2438 121.025 29.5048 123.596 29.5048C124.576 29.4965 125.553 29.6306 126.493 29.9027C126.683 28.3839 127.134 26.908 127.827 25.5386V20.9724H126.269V28.8354C124.96 28.1806 123.505 27.8633 122.038 27.9133C119.473 27.9133 117.678 28.648 116.652 30.1175C115.627 31.5869 115.118 33.6437 115.127 36.2878V47.4792H106.709V49.0707H116.684Z" fill="#FFA3C0"/>
<path d="M144.855 27.3702C143.661 27.3459 142.483 27.6382 141.444 28.2165C140.495 28.7503 139.719 29.5388 139.207 30.4901C138.688 31.4634 138.423 32.5487 138.437 33.648C138.415 34.9042 138.769 36.1389 139.457 37.1973C139.776 37.415 140.118 37.5991 140.476 37.7468C140.163 36.9409 140.008 36.0835 140.021 35.2205C140.007 34.1205 140.273 33.0346 140.797 32.0627C141.308 31.1145 142.081 30.3284 143.028 29.7954C144.066 29.2142 145.245 28.9216 146.438 28.9491C147.406 28.9366 148.365 29.126 149.253 29.5049C149.17 29.2887 149.074 29.0778 148.964 28.8733C148.887 28.7344 148.798 28.6081 148.714 28.4754C148.631 28.3428 148.439 28.2797 148.285 28.1912C147.238 27.6166 146.052 27.3329 144.855 27.3702Z" fill="#FFA3C0"/>
<path d="M137.956 48.237C140.622 49.395 143.503 49.993 146.416 49.993C149.329 49.993 152.21 49.395 154.875 48.237C157.382 47.1368 159.523 45.364 161.055 43.1214C162.616 40.7804 163.417 38.0269 163.351 35.2268C163.464 31.9285 162.336 28.7051 160.184 26.1765C159.708 25.6065 159.187 25.0744 158.626 24.585C160.787 27.1065 161.916 30.3311 161.793 33.629C161.862 36.4353 161.061 39.1957 159.498 41.5425C157.965 43.787 155.821 45.5601 153.311 46.6581C150.647 47.8159 147.767 48.4139 144.855 48.4139C141.943 48.4139 139.063 47.8159 136.399 46.6581C135.019 46.0383 133.74 45.2211 132.603 44.2329C133.081 44.805 133.604 45.3393 134.167 45.8308C135.302 46.8136 136.579 47.6246 137.956 48.237Z" fill="#FFA3C0"/>
<path d="M215.575 49.0708V31.4375C215.575 28.1407 214.924 25.5913 213.62 23.7893C213.187 23.181 212.662 22.6421 212.062 22.1914C213.344 24.004 214.018 26.5492 214.018 29.846V47.5298H205.6V49.1213H215.575V49.0708Z" fill="#FFA3C0"/>
<path d="M177.84 49.0707V35.8584C177.774 33.9352 178.032 32.0146 178.603 30.1743C179.116 28.747 180.34 28.0333 182.289 28.0333C182.583 28.0341 182.877 28.0552 183.167 28.0965C183.08 27.7201 182.971 27.349 182.841 26.9849C182.841 26.9281 182.789 26.8713 182.764 26.8144C182.119 26.5474 181.424 26.4183 180.725 26.4355C178.802 26.4355 177.551 27.1491 177.045 28.5828C176.481 30.4028 176.223 32.3016 176.282 34.2037V47.4666H167.864V49.0581H177.84V49.0707Z" fill="#FFA3C0"/>
<path d="M196.708 49.0707V35.8584C196.634 33.9865 196.931 32.1184 197.579 30.3575C198.156 28.987 199.464 28.2986 201.49 28.2986C201.683 28.2993 201.876 28.3099 202.067 28.3302C201.988 27.9585 201.888 27.5916 201.766 27.2313C201.739 27.1555 201.707 27.0817 201.67 27.0102C201.117 26.7969 200.526 26.6939 199.932 26.7071C197.9 26.7071 196.599 27.3891 196.022 28.766C195.373 30.5248 195.077 32.3907 195.15 34.2606V47.5234H186.732V49.1149H196.708V49.0707Z" fill="#FFA3C0"/>
<path d="M14.5532 104.502L17.4061 97.4162H30.2988L29.6961 95.8247H15.8482L12.9953 102.911H3.76335L3.14148 104.502H5.32124H14.5532Z" fill="#FFA3C0"/>
<path d="M46.3648 104.502L31.3949 65.3581L30.7859 63.7666H29.837L44.8069 102.911H34.2927L34.8954 104.502H35.8506H46.3648Z" fill="#FFA3C0"/>
<path d="M21.4578 86.1302L23.8363 79.1956L22.7913 76.101L19.355 86.1302H21.4578Z" fill="#FFA3C0"/>
<path d="M59.4949 104.503V93.3176C59.4949 90.6734 60.0035 88.6145 61.0207 87.1409C62.0401 85.6756 63.8352 84.9367 66.406 84.9367C67.8737 84.8856 69.3303 85.2052 70.6373 85.8651V83.2946H70.5091V81.6968H69.073V84.2672C67.7649 83.6111 66.3087 83.2938 64.8417 83.3452C62.2773 83.3452 60.4843 84.0799 59.4628 85.5493C58.4413 87.0188 57.9327 89.0755 57.937 91.7197V102.911H49.5V104.503H59.4949Z" fill="#FFA3C0"/>
<path d="M89.5114 76.7639H89.3447V77.7239C89.3896 77.4271 89.4473 77.105 89.5114 76.7639Z" fill="#FFA3C0"/>
<path d="M72.1566 83.2944H72.0476V84.886H72.1566V83.2944Z" fill="#FFA3C0"/>
<path d="M83.6901 73.6002H85.2544V70.0571V68.4656H83.6901V73.6002Z" fill="#FFA3C0"/>
<path d="M85.2545 104.502V84.886H89.4025C89.3191 84.3618 89.2486 83.8313 89.1973 83.2944H83.6902V102.911H75.2725V104.502H85.2545Z" fill="#FFA3C0"/>
<path d="M106.09 104.029C108.726 105.06 111.537 105.587 114.374 105.582C115.735 105.595 117.095 105.457 118.425 105.172C119.665 104.898 121.479 104.407 123.868 103.7V90.993C123.402 91.5403 122.885 92.0435 122.323 92.4962V102.102C119.93 102.814 118.115 103.306 116.88 103.58C115.549 103.863 114.19 104 112.828 103.991C109.99 103.997 107.176 103.467 104.539 102.431C101.877 101.399 99.427 99.9016 97.3073 98.0097C97.2175 97.9339 97.1342 97.8455 97.0444 97.7634C97.5346 98.3148 98.0547 98.8398 98.6023 99.336C98.6857 99.4181 98.769 99.5002 98.8652 99.5823C100.983 101.48 103.43 102.987 106.09 104.029Z" fill="#FFA3C0"/>
<path d="M122.323 75.7787C122.809 76.1989 123.256 76.6619 123.657 77.1618C123.727 77.2566 123.811 77.3387 123.881 77.4334V64.7263C123.362 64.5179 122.843 64.3284 122.323 64.1516V75.7787Z" fill="#FFA3C0"/>
<path d="M103.411 84.2415C103.393 82.2637 103.868 80.3118 104.795 78.5574C105.688 76.8635 107.042 75.4483 108.706 74.4712C110.438 73.4612 112.419 72.9431 114.431 72.9744C116.271 72.9559 118.092 73.3444 119.759 74.1112C120.6 74.4981 121.389 74.9883 122.105 75.5701C121.703 75.0716 121.256 74.6088 120.772 74.187V74.2375C120.701 74.1428 120.618 74.0607 120.541 73.9723C119.828 73.3872 119.042 72.8947 118.201 72.507C116.541 71.7373 114.728 71.3404 112.893 71.345C110.881 71.3137 108.899 71.8318 107.168 72.8418C105.503 73.8211 104.149 75.2384 103.257 76.9343C102.329 78.6886 101.854 80.6405 101.872 82.6184C101.839 84.6123 102.322 86.5816 103.276 88.3404C103.52 88.7808 103.796 89.203 104.103 89.6035C104.413 89.8553 104.736 90.0914 105.071 90.3108C104.994 90.1845 104.904 90.0708 104.834 89.9382C103.876 88.1891 103.386 86.2286 103.411 84.2415Z" fill="#FFA3C0"/>
<path d="M159.501 102.911H151.083V104.502H151.269H152.641H161.059V78.381V76.7894H159.501V102.911Z" fill="#FFA3C0"/>
<path d="M143.422 82.802C142.229 82.777 141.051 83.0694 140.011 83.6483C139.062 84.1821 138.286 84.9705 137.774 85.9219C137.253 86.8946 136.986 87.9799 136.998 89.0797C136.968 90.3334 137.314 91.5679 137.992 92.6291C138.305 92.8478 138.64 93.034 138.992 93.1849C138.681 92.3784 138.529 91.5211 138.543 90.6586C138.53 89.5595 138.794 88.4742 139.313 87.5008C139.829 86.5556 140.607 85.7738 141.557 85.2461C142.595 84.6649 143.774 84.3724 144.967 84.3998C145.941 84.3867 146.907 84.5761 147.801 84.9556C147.718 84.7394 147.622 84.5285 147.512 84.324C147.437 84.189 147.353 84.0583 147.262 83.9325C147.124 83.8285 146.981 83.7315 146.833 83.642C145.793 83.0664 144.615 82.7763 143.422 82.802Z" fill="#FFA3C0"/>
<path d="M135.145 103.397C137.334 104.754 139.875 105.458 142.46 105.424C144.158 105.43 145.838 105.084 147.391 104.408C148.236 104.034 149.016 103.529 149.699 102.911H149.513V101.313H148.141C147.461 101.935 146.681 102.441 145.833 102.81C144.279 103.491 142.597 103.84 140.896 103.833C138.31 103.866 135.77 103.162 133.581 101.806C132.916 101.388 132.286 100.92 131.696 100.404C132.171 100.986 132.695 101.529 133.261 102.027C133.849 102.535 134.479 102.993 135.145 103.397Z" fill="#FFA3C0"/>
<path d="M181.863 82.8017C180.669 82.7767 179.491 83.0691 178.452 83.648C177.503 84.1817 176.727 84.9702 176.215 85.9216C175.696 86.8948 175.431 87.9802 175.445 89.0794C175.415 90.333 175.761 91.5676 176.439 92.6288C176.759 92.8475 177.101 93.0337 177.459 93.1846C177.151 92.3772 176.999 91.5205 177.01 90.6583C176.996 89.5591 177.261 88.4739 177.779 87.5005C178.297 86.5563 179.075 85.7749 180.023 85.2458C181.061 84.6646 182.24 84.372 183.434 84.3995C184.403 84.3869 185.364 84.5763 186.254 84.9553C186.174 84.739 186.08 84.528 185.972 84.3237C185.895 84.1785 185.799 84.0458 185.716 83.9132C185.633 83.7806 185.44 83.7174 185.286 83.629C184.241 83.056 183.059 82.7702 181.863 82.8017Z" fill="#FFA3C0"/>
<path d="M177.337 118.34V101.856C178.388 103.055 179.722 103.981 181.222 104.553C182.761 105.151 184.401 105.457 186.056 105.456C188.004 105.475 189.933 105.085 191.717 104.313C193.421 103.582 194.95 102.506 196.204 101.155C197.487 99.7522 198.482 98.1179 199.134 96.3423C200.506 92.6931 200.506 88.6803 199.134 85.031C198.541 83.4836 197.69 82.0448 196.615 80.7743C196.474 80.6038 196.345 80.4332 196.192 80.269C195.834 79.8864 195.455 79.5237 195.057 79.1827C196.133 80.4523 196.985 81.8914 197.576 83.4395C198.94 87.0903 198.94 91.0999 197.576 94.7508C196.916 96.5022 195.924 98.114 194.653 99.5002C193.396 100.848 191.868 101.924 190.165 102.658C188.386 103.44 186.459 103.84 184.511 103.833C182.856 103.834 181.216 103.528 179.677 102.93C178.18 102.367 176.847 101.452 175.792 100.264V116.748H167.361V118.34H177.337Z" fill="#FFA3C0"/>
<path d="M222.118 82.315C220.469 81.4328 218.622 80.9703 216.746 80.9698C216.014 80.9703 215.292 81.1298 214.63 81.4372C214.332 81.5414 214.074 81.734 213.891 81.9884C213.709 82.2428 213.611 82.5466 213.611 82.8582C213.607 82.9086 213.607 82.9593 213.611 83.0097L213.707 83.054C214.161 83.2172 214.629 83.3439 215.104 83.4329L215.521 83.5087C215.697 83.3069 215.916 83.1453 216.162 83.035C216.823 82.7235 217.546 82.5617 218.278 82.5613C220.154 82.5611 222.001 83.0235 223.65 83.9066L226.548 78.4814L226.997 77.6415C226.343 77.3534 225.673 77.1025 224.99 76.8899L222.118 82.315Z" fill="#FFA3C0"/>
<path d="M211.61 93.0018C212.745 93.2734 213.726 93.4818 214.559 93.6334C214.687 93.3937 214.753 93.1271 214.752 92.8566C214.762 92.7536 214.762 92.65 214.752 92.5471C214.307 92.3667 213.848 92.223 213.38 92.1176C212.489 91.9155 211.38 91.6882 210.078 91.3724C208.722 91.0761 207.441 90.5156 206.308 89.724C206.513 90.0649 206.761 90.3789 207.046 90.6587C207.3 90.8841 207.568 91.0949 207.847 91.2903C208.974 92.1013 210.253 92.6831 211.61 93.0018Z" fill="#FFA3C0"/>
<path d="M214.566 105.424C216.778 105.441 218.975 105.069 221.054 104.325C222.983 103.649 224.685 102.46 225.971 100.89C227.262 99.2259 227.926 97.1719 227.85 95.0792C227.904 93.4956 227.456 91.9348 226.567 90.614C226.137 90.0059 225.611 89.4687 225.01 89.0225C225.894 90.3425 226.342 91.9002 226.292 93.4813C226.365 95.5698 225.696 97.6181 224.401 99.2727C223.121 100.847 221.42 102.037 219.49 102.708C217.414 103.456 215.218 103.83 213.008 103.814C209.716 103.821 206.467 103.072 203.52 101.628L203.212 102.216C203.853 102.582 204.449 102.911 205.084 103.22C208.028 104.671 211.274 105.426 214.566 105.424Z" fill="#FFA3C0"/>
<path d="M237.338 89.7618C238.474 89.7497 239.593 90.0399 240.575 90.6018L240.691 90.6775H245.672V63.7666H244.134V89.086H235.306V90.0839C235.961 89.8707 236.647 89.7619 237.338 89.7618Z" fill="#FFA3C0"/>
<path d="M240.46 105.582C241.587 105.584 242.694 105.294 243.67 104.741C244.646 104.187 245.458 103.39 246.022 102.43C246.586 101.469 246.883 100.379 246.884 99.2696C246.884 98.1599 246.588 97.0697 246.025 96.1087C245.948 95.9824 245.865 95.875 245.788 95.7613C245.366 95.1419 244.837 94.6009 244.223 94.1635C244.307 94.2834 244.39 94.3908 244.461 94.5108C245.024 95.4718 245.32 96.5621 245.32 97.6718C245.319 98.7814 245.022 99.8714 244.457 100.832C243.893 101.792 243.082 102.589 242.106 103.143C241.129 103.696 240.022 103.986 238.896 103.984C237.769 103.99 236.661 103.695 235.69 103.132C235.5 103.021 235.316 102.901 235.139 102.772C235.56 103.391 236.09 103.932 236.703 104.37C236.876 104.496 237.056 104.616 237.248 104.73C238.222 105.291 239.331 105.586 240.46 105.582Z" fill="#FFA3C0"/>
<path d="M16.2166 20.8714H17.7744V8.33483V6.74329H16.2166V20.8714Z" fill="#FFD1E0"/>
<path d="M17.7746 47.4791V30.7869H31.7379V29.1953H16.2167V45.8812H7.02319V47.4791H8.58749H17.7746Z" fill="#FFD1E0"/>
<path d="M44.0534 47.4792V8.33483V6.74329H42.4891V45.8813H33.2957V47.4792H34.8535H44.0534Z" fill="#FFD1E0"/>
<path d="M59.267 45.881H50.8429V47.4789H52.4008H60.8313V21.3574V19.7595H59.267V45.881Z" fill="#FFD1E0"/>
<path d="M55.8242 14.6314C56.8119 14.6347 57.7821 14.375 58.6323 13.8799C59.4811 13.3911 60.1877 12.6951 60.6838 11.8589C61.1801 11.0286 61.4393 10.0815 61.4339 9.11788C61.4384 8.14844 61.1794 7.19549 60.6838 6.35795C60.6453 6.29479 60.594 6.23795 60.5556 6.17479C60.1527 5.54456 59.6224 5.00279 58.9977 4.58325L59.1195 4.76641C59.6109 5.60223 59.8696 6.551 59.8696 7.51687C59.8696 8.48274 59.6109 9.4315 59.1195 10.2673C58.6267 11.1044 57.9192 11.7992 57.0679 12.282C56.22 12.7741 55.2537 13.0336 54.2695 13.0336C53.2853 13.0336 52.3191 12.7741 51.4711 12.282C51.3493 12.2125 51.2339 12.1241 51.1121 12.042C51.5165 12.6728 52.0465 13.2163 52.67 13.6399L53.029 13.8799C53.8745 14.3749 54.8406 14.6346 55.8242 14.6314Z" fill="#FFD1E0"/>
<path d="M83.3019 26.2651H81.3529V27.863H82.9108H83.3019V26.2651Z" fill="#FFD1E0"/>
<path d="M100.24 9.96425C99.1439 9.43428 97.9521 9.12306 96.7333 9.04848C95.4511 9.04848 94.5727 9.4211 94.0534 10.16C93.5341 10.899 93.2777 12.0547 93.2777 13.7031V18.1746H94.8356V15.2694C94.8356 13.6463 95.0985 12.4716 95.6177 11.7263C96.137 10.9811 97.0282 10.6211 98.2912 10.6211C99.5111 10.6966 100.704 11.0055 101.804 11.5305V3.06125C101.305 2.8012 100.781 2.58968 100.24 2.42969V9.96425Z" fill="#FFD1E0"/>
<path d="M94.8418 47.4789V27.8625H101.804V21.3574V19.7595H100.24V26.2646H93.2775V45.881H84.8597V47.4789H86.424H94.8418Z" fill="#FFD1E0"/>
<path d="M113.569 22.7026H113.671C114.072 21.9793 114.56 21.307 115.127 20.7006V19.7595H113.569V22.7026Z" fill="#FFD1E0"/>
<path d="M115.127 47.479V36.2877C115.127 33.6436 115.635 31.5868 116.652 30.1174C117.67 28.6479 119.465 27.9132 122.038 27.9132C123.505 27.8632 124.96 28.1805 126.269 28.8353V19.3618H124.711V27.2437C123.404 26.5847 121.947 26.2672 120.48 26.3217C117.915 26.3217 116.122 27.0543 115.101 28.5195C114.079 29.9847 113.571 32.0436 113.575 34.6962V45.8812H105.151V47.479H115.127Z" fill="#FFD1E0"/>
<path d="M136.399 46.6453C139.063 47.8031 141.943 48.4011 144.855 48.4011C147.767 48.4011 150.647 47.8031 153.311 46.6453C155.821 45.5472 157.965 43.7741 159.498 41.5296C161.058 39.1882 161.858 36.4349 161.793 33.635C161.916 30.3372 160.787 27.1126 158.626 24.5911C158.15 24.0211 157.629 23.489 157.068 22.9995C157.369 23.3595 157.664 23.7384 157.94 24.1363C159.502 26.4907 160.303 29.2567 160.235 32.0688C160.298 34.8664 159.497 37.6168 157.94 39.957C156.404 42.2002 154.261 43.9745 151.753 45.079C149.088 46.2326 146.208 46.8283 143.297 46.8283C140.386 46.8283 137.506 46.2326 134.841 45.079C133.461 44.4605 132.181 43.6432 131.045 42.6538C131.522 43.2237 132.042 43.7559 132.603 44.2453C133.742 45.2246 135.021 46.0333 136.399 46.6453Z" fill="#FFD1E0"/>
<path d="M138.437 33.6478C138.423 32.5486 138.688 31.4632 139.207 30.49C139.719 29.5386 140.495 28.7502 141.444 28.2164C142.491 27.6608 143.662 27.37 144.852 27.37C146.041 27.37 147.212 27.6608 148.259 28.2164C148.413 28.3048 148.548 28.4058 148.689 28.5006C148.192 27.7196 147.51 27.0694 146.701 26.6059C145.654 26.0503 144.483 25.7595 143.294 25.7595C142.104 25.7595 140.934 26.0503 139.886 26.6059C138.937 27.1397 138.161 27.9281 137.649 28.8795C137.129 29.8526 136.865 30.938 136.88 32.0373C136.853 32.8551 136.991 33.67 137.287 34.4344C137.583 35.1989 138.031 35.8976 138.604 36.4899C138.864 36.7528 139.15 36.9898 139.457 37.1972C138.77 36.1388 138.415 34.904 138.437 33.6478Z" fill="#FFD1E0"/>
<path d="M174.717 21.623H174.82C175.263 21.066 175.752 20.5464 176.282 20.0693V19.7788H174.717V21.623Z" fill="#FFD1E0"/>
<path d="M193.31 22.5451C193.374 22.4314 193.444 22.3177 193.515 22.204C193.155 21.787 192.755 21.4042 192.322 21.0609C192.69 21.5295 193.02 22.0258 193.31 22.5451Z" fill="#FFD1E0"/>
<path d="M195.15 47.4792V34.2163C195.077 32.3465 195.373 30.4805 196.022 28.7217C196.599 27.3449 197.9 26.6628 199.932 26.6628C200.526 26.6496 201.117 26.7527 201.67 26.966C201.15 25.7029 200.054 25.0713 198.368 25.0713C196.342 25.0713 195.039 25.7576 194.457 27.1302C193.814 28.8925 193.521 30.7598 193.592 32.6311V45.894H185.174V47.4792H195.15Z" fill="#FFD1E0"/>
<path d="M176.282 47.4788V34.216C176.223 32.3139 176.48 30.415 177.045 28.5951C177.551 27.1614 178.782 26.4477 180.725 26.4477C181.424 26.4306 182.119 26.5597 182.763 26.8267C182.219 25.5193 181.02 24.8562 179.167 24.8562C177.314 24.8562 176 25.5825 175.487 27.0161C174.919 28.8354 174.659 30.7345 174.718 32.6371V45.8999H166.306V47.4788H176.282Z" fill="#FFD1E0"/>
<path d="M214.017 47.4792V29.7954C214.017 26.4987 213.376 23.9534 212.062 22.1409C211.631 21.5332 211.105 20.9961 210.504 20.5493C211.786 22.3619 212.46 24.9071 212.46 28.1976V45.8813H204.042V47.4792H214.017Z" fill="#FFD1E0"/>
<path d="M44.807 102.911L29.8372 63.7663L29.2281 62.1748H28.2793L43.2427 101.313H32.735L33.3376 102.911H34.2929H44.807Z" fill="#FFD1E0"/>
<path d="M12.9951 102.911L15.8481 95.8247H29.696L29.0869 94.2332H14.2838L11.4308 101.313H2.1989L1.57703 102.911H3.7632H12.9951Z" fill="#FFD1E0"/>
<path d="M22.7913 76.1006L21.7976 73.1638H21.695L17.2457 86.1298H19.355L22.7913 76.1006Z" fill="#FFD1E0"/>
<path d="M56.3533 78.1342H56.4622C56.8627 77.4109 57.3514 76.7386 57.9176 76.1322V75.1912H56.3533V78.1342Z" fill="#FFD1E0"/>
<path d="M57.9176 102.911V91.7192C57.9176 89.0751 58.4263 87.0183 59.4435 85.5488C60.4607 84.0794 62.2537 83.3447 64.8224 83.3447C66.2894 83.2933 67.7455 83.6106 69.0537 84.2668V81.6963H68.9319V74.8123H67.4958V82.6752C66.1887 82.0162 64.7318 81.6987 63.2645 81.7531C60.7 81.7531 58.905 82.4858 57.8792 83.951C56.8534 85.4162 56.3448 87.4751 56.3533 90.1277V101.313H47.9548V102.911H57.9369H57.9176Z" fill="#FFD1E0"/>
<path d="M70.618 83.2946H72.0476H72.1566V81.6968H70.4897V83.2946H70.618Z" fill="#FFD1E0"/>
<path d="M82.1323 73.5999H83.6902V68.4653V66.8674H82.1323V73.5999Z" fill="#FFD1E0"/>
<path d="M83.6901 102.911V83.2941H89.1972C89.1331 82.5489 89.0947 81.7847 89.0947 81.0015C89.0936 79.9127 89.1771 78.8253 89.3447 77.749V75.1912H87.7868V81.6963H82.1322V101.313H73.7145V102.911H83.6901Z" fill="#FFD1E0"/>
<path d="M120.752 74.1872C121.237 74.6091 121.683 75.0719 122.086 75.5704C122.156 75.6651 122.24 75.7472 122.31 75.8419V63.1349C121.791 62.9265 121.272 62.737 120.752 62.5538V74.1872Z" fill="#FFD1E0"/>
<path d="M104.526 102.431C107.163 103.468 109.977 103.997 112.816 103.991C114.177 104.001 115.536 103.863 116.867 103.58C118.103 103.311 119.917 102.818 122.31 102.103V89.3955C121.835 89.9387 121.314 90.4416 120.752 90.8986V100.511C118.363 101.227 116.549 101.719 115.309 101.989C113.978 102.269 112.619 102.404 111.258 102.393C108.419 102.398 105.606 101.871 102.968 100.839C100.306 99.8082 97.8562 98.3104 95.7365 96.4185L95.4736 96.1722C95.9609 96.7238 96.4802 97.2543 97.0315 97.7637C97.1213 97.8458 97.2046 97.9343 97.2944 98.01C99.4141 99.9019 101.864 101.4 104.526 102.431Z" fill="#FFD1E0"/>
<path d="M101.853 82.6436C101.835 80.6658 102.31 78.7139 103.237 76.9596C104.129 75.2637 105.484 73.8464 107.148 72.867C108.88 71.857 110.861 71.3389 112.873 71.3702C114.708 71.3656 116.521 71.7626 118.182 72.5323C119.022 72.92 119.809 73.4124 120.522 73.9975C119.485 72.69 118.15 71.6425 116.624 70.9408C114.962 70.1687 113.146 69.7717 111.309 69.7787C109.297 69.7474 107.315 70.2655 105.584 71.2755C103.921 72.2552 102.569 73.6726 101.68 75.368C100.746 77.1202 100.268 79.0732 100.288 81.0521C100.253 83.0449 100.739 85.0132 101.699 86.7678C102.304 87.859 103.113 88.8275 104.084 89.6224C103.777 89.222 103.501 88.7998 103.257 88.3593C102.304 86.6025 101.82 84.6354 101.853 82.6436Z" fill="#FFD1E0"/>
<path d="M157.937 101.313H149.519V102.911H149.705H151.083H159.501V76.789V75.1912H157.937V101.313Z" fill="#FFD1E0"/>
<path d="M133.588 101.805C135.78 103.164 138.325 103.868 140.915 103.833C142.616 103.84 144.299 103.491 145.852 102.81C146.7 102.441 147.481 101.935 148.16 101.313H147.968V98.2371H147.859C146.999 99.5604 145.751 100.595 144.281 101.205C142.73 101.886 141.049 102.232 139.351 102.222C136.766 102.258 134.226 101.556 132.036 100.201C131.371 99.7819 130.741 99.3109 130.151 98.7928C130.626 99.3663 131.147 99.9007 131.709 100.391C132.296 100.911 132.924 101.384 133.588 101.805Z" fill="#FFD1E0"/>
<path d="M136.998 89.0795C136.986 87.9797 137.253 86.8943 137.774 85.9216C138.286 84.9703 139.062 84.1818 140.011 83.648C141.062 83.0924 142.236 82.8017 143.429 82.8017C144.621 82.8017 145.795 83.0924 146.846 83.648C146.994 83.7375 147.137 83.8345 147.275 83.9385C146.781 83.1553 146.099 82.5044 145.288 82.0438C144.237 81.4883 143.063 81.1975 141.871 81.1975C140.678 81.1975 139.504 81.4883 138.454 82.0438C137.502 82.5767 136.724 83.3652 136.21 84.3175C135.69 85.2905 135.426 86.376 135.44 87.4753C135.412 88.2957 135.55 89.1135 135.847 89.8804C136.144 90.6474 136.595 91.3478 137.171 91.9404C137.421 92.1947 137.696 92.4232 137.992 92.6225C137.315 91.5631 136.969 90.331 136.998 89.0795Z" fill="#FFD1E0"/>
<path d="M174.33 76.7259C174.705 76.1615 175.151 75.6458 175.657 75.1912H174.253V76.7259H174.33Z" fill="#FFD1E0"/>
<path d="M175.779 116.748V100.264C176.834 101.451 178.168 102.366 179.664 102.929C181.207 103.529 182.852 103.836 184.511 103.833C186.459 103.851 188.388 103.461 190.172 102.689C191.874 101.955 193.403 100.88 194.66 99.5316C195.928 98.1529 196.92 96.55 197.583 94.8075C198.946 91.1566 198.946 87.147 197.583 83.4962C196.992 81.948 196.14 80.509 195.063 79.2394C194.922 79.0689 194.788 78.8921 194.64 78.7342C194.279 78.3365 193.894 77.9611 193.486 77.61C194.558 78.8818 195.407 80.3203 195.999 81.8667C197.372 85.5182 197.372 89.5329 195.999 93.1844C195.341 94.9258 194.351 96.5272 193.082 97.9021C191.83 99.2646 190.301 100.353 188.595 101.098C186.812 101.865 184.885 102.252 182.94 102.235C181.284 102.24 179.641 101.935 178.1 101.338C176.616 100.769 175.296 99.8517 174.253 98.6663V115.15H165.803V116.748H175.779Z" fill="#FFD1E0"/>
<path d="M175.445 89.0794C175.431 87.9802 175.696 86.8949 176.215 85.9216C176.727 84.9703 177.503 84.1818 178.452 83.648C179.501 83.0924 180.672 82.8016 181.863 82.8016C183.053 82.8016 184.225 83.0924 185.274 83.648C185.427 83.7364 185.562 83.8375 185.703 83.9322C185.206 83.1513 184.524 82.501 183.716 82.0375C182.667 81.482 181.495 81.1912 180.305 81.1912C179.115 81.1912 177.943 81.482 176.894 82.0375C175.945 82.5713 175.169 83.3598 174.657 84.3111C174.137 85.2842 173.873 86.3697 173.888 87.469C173.861 88.2867 173.999 89.1016 174.295 89.866C174.591 90.6305 175.039 91.3292 175.612 91.9215C175.865 92.1744 176.142 92.4028 176.439 92.6036C175.766 91.5496 175.42 90.3245 175.445 89.0794Z" fill="#FFD1E0"/>
<path d="M220.56 80.724C218.911 79.8417 217.064 79.3793 215.187 79.3787C214.454 79.3761 213.728 79.5358 213.065 79.8461C212.774 79.9552 212.524 80.149 212.348 80.4017C212.171 80.6544 212.077 80.9541 212.078 81.2608C212.074 81.4666 212.114 81.671 212.195 81.8605C212.277 82.05 212.399 82.2201 212.553 82.3597C212.872 82.6402 213.244 82.8549 213.649 82.9913C213.646 82.9408 213.646 82.8902 213.649 82.8397C213.651 82.5344 213.747 82.237 213.925 81.9867C214.102 81.7364 214.352 81.5449 214.643 81.4376C215.304 81.1303 216.027 80.9707 216.758 80.9703C218.635 80.9708 220.482 81.4332 222.131 82.3155L225.028 76.8904L225.471 76.0504C224.817 75.7613 224.147 75.5104 223.464 75.2988L220.56 80.724Z" fill="#FFD1E0"/>
<path d="M210.046 91.4036C211.328 91.7194 212.456 91.9467 213.348 92.1488C213.816 92.2542 214.275 92.3979 214.72 92.5783C214.692 92.3323 214.608 92.0957 214.474 91.8866C214.339 91.6775 214.158 91.5015 213.944 91.372C213.274 90.9892 212.547 90.7142 211.79 90.5573L208.488 89.812C207.139 89.4867 205.863 88.917 204.725 88.1321C204.934 88.4786 205.191 88.7952 205.488 89.0731C205.748 89.3054 206.022 89.5226 206.308 89.7236C207.429 90.5226 208.699 91.0937 210.046 91.4036Z" fill="#FFD1E0"/>
<path d="M213.008 103.833C215.218 103.85 217.414 103.475 219.49 102.728C221.42 102.056 223.121 100.866 224.4 99.2921C225.696 97.6375 226.365 95.5892 226.292 93.5007C226.342 91.9196 225.894 90.3619 225.009 89.0419C224.579 88.4337 224.053 87.8966 223.452 87.4503C224.338 88.7697 224.786 90.3279 224.734 91.9092C224.794 94.001 224.114 96.0484 222.81 97.7006C221.528 99.274 219.825 100.464 217.893 101.136C215.824 101.877 213.638 102.249 211.437 102.235C208.145 102.245 204.896 101.497 201.949 100.05L201.641 100.637C201.673 100.66 201.707 100.679 201.744 100.694C202.321 101.042 202.911 101.326 203.507 101.648C206.458 103.094 209.712 103.842 213.008 103.833Z" fill="#FFD1E0"/>
<path d="M238.896 103.991C240.022 103.993 241.129 103.703 242.106 103.149C243.082 102.596 243.893 101.799 244.457 100.838C245.022 99.878 245.319 98.788 245.32 97.6783C245.32 96.5686 245.024 95.4784 244.461 94.5174C244.39 94.3974 244.307 94.29 244.223 94.17C244.168 94.0756 244.105 93.9849 244.038 93.8985C243.655 93.3819 243.192 92.9279 242.666 92.5532C242.743 92.6669 242.832 92.7806 242.903 92.9006C243.626 94.1066 243.922 95.5152 243.744 96.9049C243.565 98.2946 242.923 99.5865 241.918 100.577C240.913 101.568 239.602 102.202 238.191 102.378C236.781 102.555 235.351 102.265 234.126 101.553C233.938 101.443 233.756 101.322 233.581 101.193C234.005 101.812 234.539 102.349 235.158 102.778C235.335 102.908 235.519 103.028 235.71 103.138C236.675 103.699 237.775 103.993 238.896 103.991Z" fill="#FFD1E0"/>
<path d="M244.114 89.0857V63.7663V62.1748H242.556V87.4879H233.748V89.0857H235.312H244.114Z" fill="#FFD1E0"/>
<path d="M42.4892 45.8813V6.74324V5.14539H31.7378V20.8713H22.4546H20.8967H19.3388H17.7745H16.2166V6.74324V5.14539H5.46521V45.8813H7.0231H16.2166V29.1953H31.7378V30.7869V32.3847V33.9763V35.5678V45.8813H33.2957H42.4892Z" fill="white"/>
<path d="M59.2669 18.1685H57.0038H49.2784V45.8815H50.8427H59.2669V19.76V19.2674V18.1685Z" fill="white"/>
<path d="M54.2665 13.0333C55.2525 13.0396 56.2215 12.7797 57.0681 12.2818C57.9194 11.799 58.6269 11.1042 59.1197 10.2671C59.611 9.43125 59.8698 8.48248 59.8698 7.51661C59.8698 6.55074 59.611 5.60198 59.1197 4.76615L58.9979 4.583C58.2292 3.37605 57.0151 2.51001 55.6112 2.16721C54.2073 1.82441 52.7232 2.03159 51.4713 2.74515C50.6202 3.2289 49.9145 3.92625 49.4261 4.76615C48.9348 5.60198 48.676 6.55074 48.676 7.51661C48.676 8.48248 48.9348 9.43125 49.4261 10.2671C49.8472 10.9748 50.4232 11.5811 51.1122 12.0418C51.2341 12.1239 51.3495 12.2123 51.4713 12.2818C52.3157 12.7794 53.2825 13.0394 54.2665 13.0333Z" fill="white"/>
<path d="M93.2969 45.8813V26.2649H100.259V18.1746H93.2969V13.6779C93.2969 12.0547 93.5597 10.8737 94.0726 10.1348C94.5855 9.39585 95.4831 9.02323 96.7525 9.02323C97.9665 9.10818 99.1516 9.42794 100.24 9.96426V1.46341C98.9209 0.801086 97.4571 0.467153 95.9767 0.490798C94.1132 0.482845 92.2699 0.870584 90.5722 1.62761C88.8672 2.38013 87.3571 3.50286 86.1549 4.91175C85.0434 6.09815 84.2366 7.52966 83.8021 9.08638C83.4257 10.9148 83.258 12.779 83.302 14.6441V18.1746H79.7952V26.2649H83.302V45.8813H93.2969Z" fill="white"/>
<path d="M113.569 45.8814V34.6964C113.569 32.0523 114.077 29.9934 115.094 28.5197C116.112 27.0461 117.905 26.3135 120.473 26.3219C121.941 26.2674 123.398 26.5849 124.705 27.244V17.7705H122.781C119.525 17.7705 116.973 18.7515 115.127 20.7136C114.562 21.3122 114.073 21.9759 113.671 22.6904H113.569V18.1747H103.593V45.8814H113.569Z" fill="white"/>
<path d="M134.841 45.0538C137.506 46.2074 140.385 46.8031 143.297 46.8031C146.208 46.8031 149.088 46.2074 151.753 45.0538C154.26 43.9493 156.404 42.175 157.94 39.9318C159.492 37.5988 160.292 34.8579 160.235 32.0688C160.297 29.2653 159.497 26.5088 157.94 24.1616C157.664 23.7638 157.369 23.3848 157.068 23.0248C155.63 21.3089 153.812 19.9411 151.753 19.027C149.089 17.8692 146.209 17.2712 143.297 17.2712C140.385 17.2712 137.505 17.8692 134.841 19.027C132.716 19.9682 130.847 21.3898 129.385 23.1764C129.128 23.4922 128.878 23.808 128.647 24.1553C128.343 24.6067 128.069 25.0772 127.827 25.5637C127.133 26.9331 126.683 28.409 126.493 29.9278C126.436 30.3383 126.404 30.7552 126.384 31.191C126.384 31.4815 126.352 31.7783 126.352 32.0751C126.352 32.372 126.352 32.5172 126.352 32.7067C126.396 35.2855 127.185 37.7986 128.628 39.9507C129.311 40.9367 130.114 41.8361 131.02 42.6286C132.163 43.6201 133.451 44.4375 134.841 45.0538ZM136.892 32.0688C136.878 30.9695 137.142 29.8841 137.661 28.911C138.174 27.9596 138.95 27.1712 139.899 26.6374C140.946 26.0818 142.117 25.791 143.306 25.791C144.496 25.791 145.667 26.0818 146.714 26.6374C147.522 27.1009 148.205 27.7511 148.701 28.5321C148.785 28.6647 148.874 28.791 148.951 28.9299C149.061 29.1344 149.157 29.3453 149.24 29.5615C149.395 29.9516 149.511 30.3556 149.586 30.7678C149.67 31.1966 149.713 31.6322 149.714 32.0688C149.714 32.1067 149.714 32.1446 149.714 32.1825C149.743 33.0101 149.595 33.8344 149.28 34.6022C148.966 35.3699 148.491 36.0641 147.886 36.6397C147.282 37.2153 146.562 37.6596 145.773 37.9438C144.983 38.2281 144.142 38.3459 143.303 38.2897H143.13C142.639 38.2825 142.15 38.2318 141.668 38.1382C141.253 38.0552 140.847 37.9325 140.457 37.7718C140.098 37.6242 139.757 37.44 139.437 37.2224C139.136 37.006 138.856 36.7606 138.604 36.4898C138.037 35.9003 137.594 35.2062 137.3 34.4475C137.006 33.6889 136.868 32.8805 136.892 32.0688Z" fill="white"/>
<path d="M212.459 45.8814V28.1976C212.459 24.9072 211.818 22.362 210.504 20.5494C208.923 18.3389 206.373 17.2316 202.856 17.2274C200.92 17.2207 199.015 17.6965 197.317 18.6105C195.747 19.4397 194.436 20.6758 193.528 22.1851C193.457 22.2988 193.387 22.4125 193.322 22.5262C193.033 22.0069 192.703 21.5106 192.335 21.042C190.361 18.5158 187.488 17.2526 183.719 17.2526C180.96 17.1927 178.289 18.2045 176.282 20.0694C175.753 20.5527 175.266 21.0788 174.827 21.642H174.718V18.1747H164.748V45.8814H174.718V32.6186C174.661 30.7223 174.921 28.8298 175.487 27.0166C175.993 25.5893 177.224 24.8756 179.167 24.8756C181.109 24.8756 182.218 25.5072 182.763 26.8461C182.763 26.9029 182.821 26.9598 182.84 27.0166C182.971 27.3806 183.08 27.7518 183.167 28.1282C183.288 28.6385 183.38 29.1551 183.443 29.6755C183.513 30.2502 183.565 30.8691 183.59 31.5323C183.59 31.8923 183.59 32.2586 183.59 32.6438V45.9067H193.566V32.6438C193.495 30.7726 193.789 28.9052 194.432 27.1429C195.013 25.7745 196.316 25.0882 198.342 25.084C200.028 25.084 201.125 25.7156 201.644 26.9787C201.681 27.0502 201.713 27.124 201.74 27.1998C201.862 27.5601 201.963 27.927 202.042 28.2987C202.16 28.8238 202.248 29.3552 202.304 29.8902C202.375 30.5218 202.426 31.1534 202.445 31.8165C202.445 32.0817 202.445 32.3596 202.445 32.6375V45.9004H212.421L212.459 45.8814Z" fill="white"/>
<path d="M43.2427 101.313L28.2792 62.1557L27.6702 60.5579H15.8995L0 101.294H11.4117L14.2646 94.2139H29.0678L29.6768 95.8055L30.2795 97.397L30.9206 98.9948L31.5232 100.586L31.7925 101.294H43.2555L43.2427 101.313ZM21.6694 73.1639H21.772L22.7914 76.1322L23.8364 79.2269L24.8814 82.3216L25.9264 85.4099L26.1828 86.1615H17.2458L21.6694 73.1639Z" fill="white"/>
<path d="M56.3536 101.313V90.1279C56.3536 87.4838 56.8622 85.4249 57.8794 83.9512C58.8966 82.4776 60.6917 81.745 63.2647 81.7534C64.732 81.6989 66.1889 82.0164 67.496 82.6755V73.202H65.5727C62.3201 73.202 59.7706 74.1831 57.9243 76.1451C57.3598 76.7437 56.8712 77.4074 56.469 78.1219H56.36V73.6062H46.3779V101.313H56.3536Z" fill="white"/>
<path d="M82.1323 101.313V81.6967H87.7869V75.1916V73.6H86.8124H85.2545H83.6902H82.1323V66.8675V65.276H72.1567V73.6H68.9319V74.8126V81.6967H69.0537H70.4898H72.1567V83.2945V84.8861V87.4502V88.4481V101.313H73.7145H82.1323Z" fill="white"/>
<path d="M102.968 100.839C105.606 101.871 108.419 102.398 111.258 102.393C112.619 102.404 113.978 102.269 115.309 101.989C116.549 101.719 118.363 101.227 120.752 100.511V87.8038C119.604 89.1409 118.176 90.218 116.566 90.9616C114.981 91.7181 113.243 92.1131 111.482 92.1174C110.009 92.1305 108.546 91.8846 107.161 91.3911C106.783 91.2458 106.411 91.0879 106.045 90.9047L105.654 90.7026C105.443 90.5827 105.257 90.4437 105.052 90.3174C104.717 90.098 104.394 89.8619 104.084 89.61C103.113 88.8152 102.304 87.8466 101.699 86.7554C100.739 85.0008 100.253 83.0326 100.288 81.0397C100.268 79.0608 100.746 77.1078 101.68 75.3556C102.569 73.6602 103.921 72.2429 105.584 71.2631C107.315 70.2531 109.297 69.735 111.309 69.7663C113.146 69.7593 114.962 70.1563 116.624 70.9284C118.15 71.6301 119.485 72.6776 120.522 73.9851C120.599 74.0736 120.682 74.1557 120.752 74.2504V61.5433C117.649 60.2313 114.314 59.5359 110.937 59.4971C109.001 59.4993 107.075 59.7628 105.212 60.2802C103.314 60.8023 101.493 61.5644 99.7947 62.5475C98.1066 63.5158 96.5584 64.7033 95.1915 66.078C93.2407 68.0629 91.705 70.4062 90.6717 72.9746C90.1673 74.1999 89.7789 75.4684 89.5113 76.764C89.4472 77.0798 89.3895 77.3956 89.3446 77.724C89.1771 78.8003 89.0935 79.8877 89.0946 80.9766C89.0946 81.7597 89.1331 82.5239 89.1972 83.2691C89.2485 83.806 89.319 84.3365 89.4023 84.8607C89.4857 85.3849 89.5947 85.9343 89.7229 86.4522C89.8511 86.9701 90.0114 87.5259 90.1845 88.0501C91.2201 91.1408 93.0408 93.9193 95.4736 96.1215L95.7365 96.3678C97.8521 98.2777 100.302 99.7928 102.968 100.839Z" fill="white"/>
<path d="M132.03 100.214C134.219 101.568 136.759 102.27 139.345 102.235C141.043 102.245 142.723 101.898 144.275 101.218C145.745 100.608 146.992 99.5728 147.852 98.2495H147.968V101.313H157.943V73.6059H147.968V76.309C146.931 75.1093 145.61 74.1808 144.121 73.6059C142.57 72.9819 140.911 72.6643 139.236 72.6711C137.321 72.6497 135.424 73.0295 133.67 73.7851C131.916 74.5408 130.345 75.6551 129.061 77.0542C128.245 77.9448 127.547 78.9337 126.984 79.9973C126.914 80.1173 126.837 80.2436 126.773 80.3699C126.546 80.8414 126.345 81.3242 126.17 81.8162C125.487 83.6156 125.142 85.5223 125.151 87.4434C125.136 89.8654 125.696 92.2571 126.785 94.4285C126.849 94.5548 126.907 94.6812 126.971 94.8011L127.01 94.8643C127.81 96.3611 128.878 97.7028 130.164 98.8242C130.748 99.3349 131.372 99.7995 132.03 100.214ZM135.44 87.5003C135.426 86.401 135.69 85.3155 136.21 84.3424C136.723 83.3902 137.502 82.6017 138.454 82.0688C139.504 81.5132 140.678 81.2225 141.871 81.2225C143.063 81.2225 144.237 81.5132 145.288 82.0688C146.099 82.5294 146.781 83.1803 147.275 83.9635C147.366 84.0893 147.449 84.22 147.525 84.3551C147.635 84.5595 147.731 84.7704 147.814 84.9866C147.97 85.3789 148.088 85.785 148.166 86.1992C148.249 86.6325 148.292 87.0721 148.295 87.5129V87.6266C148.322 88.4539 148.174 89.2778 147.859 90.0451C147.544 90.8124 147.069 91.5061 146.465 92.0815C145.861 92.6569 145.141 93.1013 144.352 93.3859C143.563 93.6704 142.722 93.789 141.883 93.7338H141.704C141.213 93.7235 140.724 93.6728 140.242 93.5822C139.813 93.4915 139.394 93.3582 138.992 93.1843C138.634 93.0367 138.292 92.8525 137.973 92.6349C137.681 92.4246 137.413 92.1855 137.171 91.9212C136.6 91.3338 136.153 90.6406 135.856 89.8817C135.559 89.1228 135.417 88.3134 135.44 87.5003Z" fill="white"/>
<path d="M174.253 115.151V98.6667C175.296 99.8521 176.616 100.769 178.1 101.338C179.639 101.935 181.279 102.239 182.934 102.235C184.879 102.253 186.806 101.865 188.588 101.098C190.294 100.354 191.823 99.2649 193.076 97.9025C194.352 96.5291 195.348 94.9277 196.012 93.1847C197.384 89.5333 197.384 85.5186 196.012 81.8671C195.416 80.3198 194.562 78.8812 193.486 77.6104C193.345 77.4462 193.211 77.2693 193.063 77.1051C191.791 75.7259 190.244 74.6207 188.518 73.8589C186.729 73.0644 184.787 72.6615 182.825 72.6778C181.13 72.6638 179.454 73.0174 177.914 73.7136C177.085 74.0848 176.321 74.5837 175.651 75.1915C175.145 75.6462 174.699 76.1618 174.324 76.7262H174.253V73.6062H164.245V115.151H174.253ZM173.888 87.5007C173.873 86.4014 174.138 85.3159 174.657 84.3428C175.169 83.3915 175.945 82.603 176.894 82.0692C177.943 81.5136 179.115 81.2229 180.305 81.2229C181.496 81.2229 182.667 81.5136 183.716 82.0692C184.524 82.5327 185.206 83.183 185.703 83.9639C185.787 84.0965 185.883 84.2292 185.96 84.3744C186.067 84.5787 186.162 84.7897 186.242 85.006C186.398 85.3983 186.516 85.8043 186.594 86.2186C186.682 86.6512 186.727 87.0911 186.729 87.5322C186.729 87.5701 186.729 87.608 186.729 87.6459C186.757 88.4732 186.608 89.2971 186.293 90.0644C185.978 90.8317 185.503 91.5255 184.899 92.1009C184.295 92.6763 183.575 93.1206 182.786 93.4052C181.997 93.6898 181.156 93.8083 180.318 93.7531H180.151C179.66 93.746 179.171 93.6952 178.689 93.6016C178.266 93.5022 177.854 93.3626 177.459 93.1847C177.103 93.0355 176.764 92.8514 176.446 92.6353C176.145 92.4248 175.866 92.1858 175.612 91.9216C175.043 91.3331 174.598 90.6395 174.302 89.8808C174.006 89.1221 173.865 88.3132 173.888 87.5007Z" fill="white"/>
<path d="M200.09 99.0454L200.192 99.1022C200.776 99.4496 201.365 99.7338 201.962 100.05C204.904 101.495 208.149 102.243 211.437 102.235C213.645 102.251 215.838 101.879 217.912 101.136C219.844 100.463 221.547 99.2736 222.83 97.7002C224.133 96.048 224.813 94.0006 224.753 91.9087C224.805 90.3274 224.357 88.7692 223.471 87.4499C223.01 86.7977 222.44 86.2275 221.785 85.7636C220.875 85.1199 219.869 84.6192 218.804 84.2794C218.072 84.0393 217.324 83.8494 216.566 83.711L215.54 83.5152L215.124 83.4395C214.648 83.3505 214.181 83.2237 213.726 83.0605L213.63 83.0163C213.225 82.8799 212.853 82.6652 212.534 82.3847C212.38 82.2451 212.258 82.075 212.176 81.8855C212.095 81.6961 212.055 81.4916 212.059 81.2858C212.06 80.9761 212.158 80.6743 212.339 80.4212C212.52 80.1681 212.776 79.9761 213.072 79.8711C213.735 79.5609 214.46 79.4012 215.194 79.4038C217.071 79.4043 218.917 79.8667 220.567 80.749L223.458 75.3239L223.907 74.4839C220.985 73.2373 217.826 72.6214 214.643 72.6776C212.568 72.6623 210.509 73.0286 208.571 73.7576C206.765 74.418 205.179 75.5566 203.988 77.048C202.789 78.6216 202.174 80.5516 202.244 82.5174C202.244 84.7573 202.808 86.4078 203.936 87.4688C204.186 87.6975 204.451 87.9086 204.731 88.1004C205.868 88.8898 207.144 89.4637 208.495 89.793L211.796 90.5382C212.554 90.6951 213.281 90.9701 213.95 91.3529C214.162 91.4825 214.342 91.6578 214.475 91.8657C214.608 92.0736 214.692 92.3086 214.72 92.5529C214.73 92.6558 214.73 92.7595 214.72 92.8624C214.721 93.1329 214.655 93.3996 214.527 93.6392C214.36 93.9773 214.095 94.2587 213.764 94.4476C213.634 94.5184 213.499 94.5817 213.361 94.6371C212.845 94.8599 212.289 94.9801 211.726 94.9908H211.63C210.253 94.9457 208.897 94.6591 207.623 94.1445C206.254 93.6484 204.952 92.991 203.744 92.1866L203.263 93.0961L200.763 97.8202L200.09 99.0454Z" fill="white"/>
<path d="M237.338 102.393C238.464 102.399 239.571 102.106 240.543 101.547C241.518 100.998 242.328 100.205 242.89 99.2478C243.453 98.2809 243.749 97.1857 243.749 96.0711C243.749 94.9564 243.453 93.8612 242.89 92.8943C242.819 92.7743 242.73 92.6606 242.653 92.5469C242.576 92.4333 242.531 92.3575 242.467 92.269C241.985 91.6253 241.382 91.0785 240.691 90.6586L240.575 90.5828C239.593 90.0209 238.474 89.7307 237.338 89.7428C236.647 89.7429 235.961 89.8517 235.305 90.0649C234.888 90.1953 234.487 90.3689 234.107 90.5828C233.127 91.1352 232.315 91.9337 231.752 92.8969C231.188 93.8601 230.895 94.9532 230.901 96.0648C230.892 97.1737 231.187 98.2645 231.754 99.2226C232.206 99.9865 232.818 100.647 233.549 101.161C233.724 101.291 233.906 101.411 234.094 101.521C235.075 102.097 236.196 102.398 237.338 102.393Z" fill="white"/>
<path d="M242.557 87.488V62.1749V60.577H232.19V87.488H233.748H242.557Z" fill="white"/>
</svg>
