<svg width="744" height="104" viewBox="0 0 744 104" fill="none" xmlns="http://www.w3.org/2000/svg">
<path d="M24.07 53.022V79.442H9.72998V81.972H26.5V55.542H40.98V53.022H24.07Z" fill="#FF4681"/>
<path d="M65.05 79.4419H50.71V81.9719H67.48V17.4719H65.05V79.4419Z" fill="#FF4681"/>
<path d="M26.5 17.4719H24.07V32.2719H26.5V17.4719Z" fill="#FF4681"/>
<path d="M83.92 29.7318C84.5529 29.879 85.2002 29.9561 85.85 29.9618C87.3874 29.9666 88.8974 29.5554 90.22 28.7718C91.5463 28.0008 92.6491 26.898 93.42 25.5718C94.1942 24.2571 94.5985 22.7575 94.59 21.2318C94.597 19.6968 94.193 18.1879 93.42 16.8618C92.7726 15.7374 91.8763 14.7762 90.8 14.0518L90.99 14.3418C91.7564 15.6652 92.16 17.1674 92.16 18.6968C92.16 20.2261 91.7564 21.7283 90.99 23.0518C90.2184 24.3749 89.1156 25.4743 87.79 26.2418C86.4673 27.0209 84.9601 27.4318 83.425 27.4318C81.8899 27.4318 80.3827 27.0209 79.06 26.2418C78.8657 26.1267 78.6787 25.9998 78.5 25.8618C79.0058 26.6759 79.6446 27.3993 80.39 28.0018H83.92V29.7318Z" fill="#FF4681"/>
<path d="M78.07 79.4418V81.9718H93.65V38.0818H91.22V79.4418H78.07Z" fill="#FF4681"/>
<path d="M149.66 21.0818C147.66 21.0818 146.29 21.6718 145.48 22.8418C144.605 24.4121 144.189 26.1966 144.28 27.9918H146.94C147.088 27.0555 147.429 26.16 147.94 25.3618C148.75 24.1918 150.14 23.6118 152.12 23.6118C154.02 23.7314 155.878 24.2206 157.59 25.0518V11.6418C156.814 11.2318 156 10.897 155.16 10.6418V22.5318C153.44 21.6899 151.571 21.1971 149.66 21.0818Z" fill="#FF4681"/>
<path d="M144.27 48.3818V79.4418H131.14V81.9718H146.7V50.9118H153.06V48.3818H144.27Z" fill="#FF4681"/>
<path d="M188.61 48.5619C187.997 48.5019 187.357 48.4719 186.69 48.4719C182.69 48.4719 179.89 49.6353 178.29 51.9619C176.69 54.2886 175.897 57.5453 175.91 61.7319V79.4419H162.78V82.0019H178.35V64.2519C178.35 60.0653 179.143 56.8086 180.73 54.4819C182.24 52.2619 184.87 51.1119 188.6 51.0119C188.6 50.6619 188.6 50.3219 188.6 50.0119C188.6 49.7019 188.58 49.0019 188.61 48.5619Z" fill="#FF4681"/>
<path d="M217 49.0018C215.519 49.847 214.309 51.0955 213.51 52.6018C212.7 54.1425 212.287 55.8612 212.31 57.6018C212.308 58.2718 212.361 58.9408 212.47 59.6018C213.221 59.7501 213.984 59.8305 214.75 59.8418C214.768 58.1902 215.176 56.5661 215.94 55.1018C216.739 53.5955 217.949 52.347 219.43 51.5018C221.047 50.586 222.882 50.1231 224.74 50.1618H225.01C225.01 50.1018 225.01 50.0418 225.01 49.9818C225.007 49.2801 224.936 48.5803 224.8 47.8918C223.979 47.7127 223.141 47.6222 222.3 47.6218C220.441 47.5961 218.61 48.0729 217 49.0018Z" fill="#FF4681"/>
<path d="M248.45 53.8619V49.0019C248.17 48.5019 247.88 48.0019 247.56 47.5319C246.487 45.9328 245.209 44.4805 243.76 43.2119C244.247 43.7861 244.701 44.387 245.12 45.0119C246.891 47.6691 248.03 50.6964 248.45 53.8619Z" fill="#FF4681"/>
<path d="M245.12 70.0019C242.73 73.5555 239.39 76.3657 235.48 78.1119C231.323 79.9386 226.831 80.8818 222.29 80.8818C217.749 80.8818 213.257 79.9386 209.1 78.1119C206.946 77.135 204.95 75.8406 203.18 74.2719C205.439 77.0035 208.296 79.1795 211.53 80.6319C215.686 82.4651 220.178 83.412 224.72 83.412C229.262 83.412 233.754 82.4651 237.91 80.6319C241.823 78.8905 245.167 76.0836 247.56 72.5319C247.88 72.0519 248.17 71.5319 248.45 71.0719V61.2019C248.025 64.3507 246.886 67.3608 245.12 70.0019Z" fill="#FF4681"/>
<path d="M272.49 49.5619C271.61 52.4472 271.209 55.4569 271.3 58.4719V79.4719H258.18V82.0019H273.74V61.0019C273.642 57.9865 274.044 54.9758 274.93 52.0919C275.145 51.3983 275.521 50.7652 276.026 50.244C276.532 49.7227 277.153 49.328 277.84 49.0919C277.84 48.0919 277.72 47.0919 277.61 46.1519C274.94 46.3519 273.23 47.4619 272.49 49.5619Z" fill="#FF4681"/>
<path d="M327.12 39.3618C329.12 42.2285 330.12 46.2652 330.12 51.4718V79.4718H317V82.0018H332.6V54.0018C332.6 47.0018 330.76 42.1318 327.12 39.3618Z" fill="#FF4681"/>
<path d="M302.09 49.7618C301.083 52.5513 300.622 55.5081 300.73 58.4718V79.4718H287.6V82.0018H303.17V61.0018C303.058 58.0388 303.517 55.0819 304.52 52.2918C304.769 51.6751 305.144 51.1172 305.621 50.6539C306.098 50.1907 306.666 49.8323 307.29 49.6018C307.29 48.5118 307.18 47.5018 307.07 46.5518C304.55 46.7918 302.88 47.8618 302.09 49.7618Z" fill="#FF4681"/>
<path d="M393.24 47.832L393.64 46.642L392.01 41.752L389.96 47.832H393.24Z" fill="#FF4681"/>
<path d="M425.54 69.1119L406.08 17.4719H404.6L427.95 79.4419H411.56L412.5 81.9719H430.38L426.58 71.8719H425.54V69.1119Z" fill="#FF4681"/>
<path d="M382.78 68.2319L378.33 79.4419H363.93L362.96 81.9719H380.76L385.21 70.7519H402.35L401.4 68.2319H382.78Z" fill="#FF4681"/>
<path d="M459.18 48.4719C455.18 48.4719 452.38 49.6352 450.78 51.9619C449.18 54.2886 448.387 57.5452 448.4 61.7319V79.4419H435.27V82.0019H450.83V64.2519C450.83 60.0652 451.623 56.8086 453.21 54.4819C454.797 52.1552 457.597 50.9919 461.61 50.9919C463.006 50.9805 464.398 51.152 465.75 51.5019V49.9219C463.719 48.8885 461.458 48.3895 459.18 48.4719Z" fill="#FF4681"/>
<path d="M488.61 48.3818V79.4418H475.48V82.0018H491V50.9118H493.83C493.56 50.0818 493.32 49.2418 493.11 48.3818H488.61Z" fill="#FF4681"/>
<path d="M490.13 27.9919V30.5119H491.04V24.9019H488.61V27.9919H490.13Z" fill="#FF4681"/>
<path d="M551 38.7218C551.1 38.5218 551.22 38.3218 551.33 38.1318V19.0018C550.51 18.6718 549.7 18.3718 548.9 18.0818V36.4918C549.668 37.1683 550.371 37.9149 551 38.7218Z" fill="#FF4681"/>
<path d="M550.93 60.9419C550.289 61.6606 549.593 62.3292 548.85 62.9419V78.1719C545.11 79.2986 542.277 80.0786 540.35 80.5119C538.277 80.9593 536.161 81.1773 534.04 81.1619C529.612 81.1667 525.224 80.3284 521.11 78.6919C516.958 77.0591 513.136 74.6874 509.83 71.6919L509.42 71.3019C510.302 72.3328 511.251 73.3049 512.26 74.2119C515.566 77.2074 519.388 79.5791 523.54 81.2119C527.653 82.8532 532.042 83.6916 536.47 83.6819C538.594 83.6967 540.713 83.4787 542.79 83.0319C544.71 82.5986 547.54 81.8186 551.28 80.6919V61.6319L551.22 61.5319C551.12 61.3419 551 61.1419 550.93 60.9419Z" fill="#FF4681"/>
<path d="M521.52 40.8519C522.912 38.1697 525.024 35.929 527.62 34.3819C530.318 32.7742 533.41 31.9501 536.55 32.0019C539.412 31.9946 542.24 32.6231 544.83 33.8419C546.144 34.4559 547.374 35.2356 548.49 36.1619C547.865 35.3669 547.169 34.6305 546.41 33.9619V34.0619C546.3 33.9119 546.17 33.7819 546.06 33.6319C544.942 32.7106 543.713 31.9345 542.4 31.3219C539.812 30.0983 536.983 29.4696 534.12 29.4819C530.982 29.4323 527.891 30.2526 525.19 31.8519C522.594 33.403 520.482 35.6469 519.09 38.3319C517.753 40.9666 517.017 43.8648 516.934 46.818C516.851 49.7712 517.424 52.7062 518.61 55.4119C519.18 55.7019 519.76 55.9519 520.35 56.1819C519.677 54.1501 519.339 52.0222 519.35 49.8819C519.32 46.7392 520.065 43.6376 521.52 40.8519Z" fill="#FF4681"/>
<path d="M606.85 79.4418H593.72V81.9718H609.28V38.0818H606.85V79.4418Z" fill="#FF4681"/>
<path d="M591.29 76.9219H589.15C588.084 77.9035 586.864 78.704 585.54 79.2919C583.12 80.368 580.498 80.9168 577.85 80.9019C573.817 80.959 569.855 79.8476 566.44 77.7019C565.382 77.0402 564.379 76.2945 563.44 75.4719C564.965 77.3358 566.782 78.94 568.82 80.2219C572.234 82.3695 576.197 83.4843 580.23 83.4319C582.906 83.4548 585.556 82.9023 588 81.8119C589.328 81.23 590.548 80.4289 591.61 79.4419H591.32L591.29 76.9219Z" fill="#FF4681"/>
<path d="M576.45 49.0017C574.969 49.8469 573.759 51.0953 572.96 52.6017C572.15 54.1424 571.737 55.8611 571.76 57.6017C571.758 58.2717 571.811 58.9406 571.92 59.6017C572.672 59.7451 573.435 59.8254 574.2 59.8417C574.218 58.1901 574.626 56.566 575.39 55.1017C576.189 53.5953 577.399 52.3469 578.88 51.5017C580.504 50.5847 582.345 50.1219 584.21 50.1617H584.51V50.0017C584.505 49.3038 584.438 48.6077 584.31 47.9217C583.476 47.7342 582.624 47.6403 581.77 47.6417C579.907 47.6093 578.069 48.079 576.45 49.0017Z" fill="#FF4681"/>
<path d="M668.22 69.8718C667.29 69.4118 666.37 68.8718 665.46 68.3718C664.49 70.4253 663.219 72.3228 661.69 74.0018C659.736 76.159 657.351 77.8828 654.69 79.0618C651.906 80.2774 648.897 80.8908 645.86 80.8618C643.28 80.867 640.722 80.3852 638.32 79.4418C636.005 78.5418 633.945 77.0897 632.32 75.2118V101.312H619.12V103.842H634.68V77.7818C636.322 79.6659 638.403 81.1154 640.74 82.0018C643.141 82.95 645.699 83.4353 648.28 83.4318C651.315 83.4614 654.322 82.8444 657.1 81.6218C659.761 80.4465 662.145 78.7261 664.1 76.5718C665.635 74.8769 666.909 72.9626 667.88 70.8918C667.824 70.8678 667.77 70.8377 667.72 70.8018L668.22 69.8718Z" fill="#FF4681"/>
<path d="M667.84 57.6419C667.85 60.6097 667.332 63.5557 666.31 66.3419L670.21 58.8619C670.103 56.2359 669.58 53.6437 668.66 51.1819C667.626 48.4005 666.072 45.8415 664.08 43.6419C663.522 43.0301 662.927 42.4524 662.3 41.9119C663.975 43.925 665.303 46.2028 666.23 48.6519C667.307 51.5263 667.852 54.5724 667.84 57.6419Z" fill="#FF4681"/>
<path d="M636.41 49.002C634.933 49.8487 633.726 51.097 632.93 52.602C632.12 54.1427 631.707 55.8614 631.73 57.602C631.728 58.2719 631.781 58.9409 631.89 59.602C632.641 59.7503 633.404 59.8306 634.17 59.842C634.188 58.1903 634.596 56.5663 635.36 55.102C636.159 53.5956 637.369 52.3472 638.85 51.502C640.467 50.5853 642.302 50.1223 644.16 50.162H644.45C644.45 50.102 644.45 50.042 644.45 49.982C644.447 49.2835 644.377 48.587 644.24 47.902C643.413 47.7151 642.568 47.6212 641.72 47.622C639.858 47.5974 638.024 48.0741 636.41 49.002Z" fill="#FF4681"/>
<path d="M696.14 44.712C695.565 44.7097 694.991 44.7735 694.43 44.902C696.092 45.4399 697.661 46.2327 699.08 47.252C701.85 47.3177 704.565 48.0409 707 49.362L712.21 39.442C711.165 38.9813 710.093 38.5839 709 38.252L704.48 46.842C701.92 45.4502 699.054 44.7182 696.14 44.712Z" fill="#FF4681"/>
<path d="M709 57.4919C710.387 59.5787 711.087 62.0475 711 64.5519C711.111 67.8568 710.072 71.0979 708.06 73.7219C706.057 76.2113 703.402 78.0948 700.39 79.1619C697.151 80.3394 693.727 80.9286 690.28 80.9019C685.148 80.9169 680.083 79.7321 675.49 77.4419L675 78.3719C680.312 81.694 686.455 83.448 692.72 83.4319C696.164 83.4594 699.586 82.8666 702.82 81.6819C705.835 80.621 708.492 78.7364 710.49 76.2419C712.525 73.6267 713.586 70.3843 713.49 67.0719C713.574 65.2308 713.209 63.3968 712.427 61.7279C711.645 60.059 710.469 58.6053 709 57.4919Z" fill="#FF4681"/>
<path d="M685.7 61.2318C683.59 60.7426 681.598 59.8384 679.84 58.5718C680.163 59.0971 680.552 59.5779 681 60.0018C681.738 60.6993 682.553 61.31 683.43 61.8218C684.313 61.8202 685.186 61.6434 686 61.3018L685.7 61.2318Z" fill="#FF4681"/>
<path d="M731.42 57.5519C731.52 57.6919 731.61 57.8419 731.71 57.9919C732.528 58.5731 733.25 59.2783 733.85 60.0819H741.27V17.4719H738.83V57.5519H731.42Z" fill="#FF4681"/>
<path d="M741.81 68.632C741.104 67.4225 740.15 66.3762 739.01 65.562C739.13 65.742 739.27 65.922 739.38 66.112C740.508 68.0215 740.97 70.2519 740.691 72.4523C740.413 74.6527 739.412 76.6983 737.844 78.2671C736.276 79.836 734.232 80.8392 732.031 81.1188C729.831 81.3985 727.6 80.9388 725.69 79.812C725.395 79.6395 725.112 79.4491 724.84 79.242C726.033 81.024 727.767 82.3754 729.786 83.0966C731.806 83.8179 734.004 83.8709 736.056 83.2479C738.107 82.6248 739.905 81.3586 741.182 79.6362C742.46 77.9138 743.149 75.8264 743.15 73.682C743.163 71.9091 742.7 70.1652 741.81 68.632Z" fill="#FF4681"/>
<path d="M21.64 32.2719H24.07V17.4719V14.9419H21.64V32.2719Z" fill="#FF74A1"/>
<path d="M65.05 17.4719V14.9419H62.62V76.9219H48.28V79.4419H50.71H65.05V17.4719Z" fill="#FF74A1"/>
<path d="M24.07 53.022H40.98V50.502H21.64V76.922H7.29999V79.442H9.72999H24.07V53.022Z" fill="#FF74A1"/>
<path d="M83.42 27.432C84.958 27.4419 86.4694 27.0303 87.79 26.242C89.1192 25.4759 90.2257 24.3764 91 23.052C91.7664 21.7285 92.17 20.2263 92.17 18.697C92.17 17.1676 91.7664 15.6654 91 14.342L90.81 14.052C90.184 13.0462 89.3525 12.184 88.37 11.522C88.44 11.622 88.51 11.712 88.57 11.812C89.3421 13.1385 89.746 14.6471 89.74 16.182C89.7495 17.7078 89.3452 19.2077 88.57 20.522C87.8017 21.8502 86.6983 22.9536 85.37 23.722C84.0473 24.5011 82.5402 24.9121 81.005 24.9121C79.4699 24.9121 77.9627 24.5011 76.64 23.722C76.44 23.602 76.26 23.472 76.08 23.342C76.7084 24.3399 77.5356 25.1977 78.51 25.862C78.6887 26 78.8757 26.1269 79.07 26.242C80.3836 27.0296 81.8884 27.4413 83.42 27.432Z" fill="#FF74A1"/>
<path d="M88.79 76.922H75.64V79.442H78.07H91.22V38.082V35.562H88.79V76.922Z" fill="#FF74A1"/>
<path d="M144.27 48.382H153.06V35.562H152.7V45.862H141.84V76.922H128.71V79.442H131.14H144.27V48.382Z" fill="#FF74A1"/>
<path d="M152.7 20.0019C150.988 19.1706 149.13 18.6815 147.23 18.5619C145.23 18.5619 143.86 19.1519 143.05 20.3219C142.24 21.4919 141.84 23.3219 141.84 25.9219V28.0019H144.28C144.189 26.2067 144.605 24.4222 145.48 22.8519C146.29 21.6819 147.68 21.0919 149.66 21.0919C151.561 21.211 153.42 21.7037 155.13 22.5419V9.11187C154.354 8.71796 153.539 8.40304 152.7 8.17188V20.0019Z" fill="#FF74A1"/>
<path d="M175.91 61.7317C175.91 57.5451 176.703 54.2884 178.29 51.9617C179.877 49.6351 182.677 48.4717 186.69 48.4717C187.357 48.4717 187.997 48.5017 188.61 48.5617C188.61 47.8817 188.69 47.2217 188.78 46.5617C187.312 46.1309 185.789 45.9186 184.26 45.9317C180.26 45.9317 177.45 47.1017 175.86 49.4217C174.27 51.7417 173.48 55.0117 173.48 59.2017V76.9217H160.35V79.4417H175.91V61.7317Z" fill="#FF74A1"/>
<path d="M190.86 39.662C191.238 38.8916 191.665 38.1467 192.14 37.432C192.5 36.892 192.89 36.432 193.29 35.882V35.002H190.86V39.662Z" fill="#FF74A1"/>
<path d="M214.53 46.4318C213.057 47.2704 211.851 48.5079 211.05 50.0018C210.234 51.5407 209.818 53.2601 209.84 55.0018C209.82 56.3682 210.061 57.7257 210.55 59.0018C211.16 59.2562 211.793 59.4504 212.44 59.5818C212.331 58.9207 212.278 58.2518 212.28 57.5818C212.257 55.8412 212.67 54.1225 213.48 52.5818C214.29 51.0787 215.511 49.8371 217 49.0018C218.617 48.0851 220.452 47.6221 222.31 47.6618C223.151 47.6621 223.989 47.7527 224.81 47.9318C224.693 47.2791 224.512 46.6394 224.27 46.0218C222.885 45.4219 221.389 45.122 219.88 45.1418C218.013 45.0776 216.163 45.5236 214.53 46.4318Z" fill="#FF74A1"/>
<path d="M222.29 80.9019C226.836 80.946 231.336 80.0009 235.48 78.1319C239.393 76.3802 242.733 73.5628 245.12 70.0019C246.889 67.3548 248.028 64.3376 248.45 61.1819V53.8619C248.031 50.6929 246.892 47.662 245.12 45.0019C244.701 44.377 244.247 43.7761 243.76 43.2019C243.02 42.2938 242.208 41.4476 241.33 40.6719C244.688 44.6756 246.447 49.7794 246.27 55.0019C246.371 59.432 245.123 63.7881 242.69 67.4919C240.3 71.0429 236.96 73.8498 233.05 75.5919C228.893 77.4253 224.399 78.3723 219.855 78.3723C215.311 78.3723 210.817 77.4253 206.66 75.5919C204.511 74.616 202.519 73.3252 200.75 71.7619C201.492 72.6645 202.305 73.5071 203.18 74.2819C204.95 75.8506 206.946 77.145 209.1 78.1219C213.242 79.9974 217.743 80.9461 222.29 80.9019Z" fill="#FF74A1"/>
<path d="M330.16 51.4718C330.16 46.2651 329.16 42.2285 327.16 39.3618C326.484 38.3993 325.66 37.5489 324.72 36.8418C326.72 39.7018 327.737 43.7385 327.77 48.9518V76.9518H314.6V79.4718H330.16V51.4718Z" fill="#FF74A1"/>
<path d="M271.3 58.4719C271.209 55.4569 271.61 52.4472 272.49 49.5619C273.23 47.4619 274.94 46.3519 277.61 46.2019C277.512 45.3779 277.368 44.56 277.18 43.7519C276.726 43.6865 276.268 43.6531 275.81 43.6519C272.81 43.6519 270.86 44.7819 270.06 47.0419C269.174 49.9428 268.772 52.9701 268.87 56.0019V77.0019H255.74V79.5219H271.3V58.4719Z" fill="#FF74A1"/>
<path d="M300.73 58.4719C300.622 55.5083 301.083 52.5515 302.09 49.7619C302.88 47.8619 304.55 46.7619 307.09 46.5519C307.002 45.7047 306.865 44.8633 306.68 44.0319C306.381 43.9998 306.081 43.9831 305.78 43.9819C302.62 43.9819 300.58 45.0719 299.68 47.2419C298.655 50.0444 298.186 53.02 298.3 56.0019V77.0019H285.17V79.5219H300.73V58.4719Z" fill="#FF74A1"/>
<path d="M389.96 47.8318L392.01 41.7518L390.38 36.8518L386.67 47.8318H389.96Z" fill="#FF74A1"/>
<path d="M382.78 68.2319H401.4L400.46 65.7019H380.35L375.9 76.9219H361.5L360.53 79.4419H363.93H378.33L382.78 68.2319Z" fill="#FF74A1"/>
<path d="M404.6 17.4719L403.65 14.9419H402.17L425.52 76.9219H409.12L410.07 79.4419H411.56H427.95L404.6 17.4719Z" fill="#FF74A1"/>
<path d="M448.4 61.7318C448.4 57.5451 449.193 54.2885 450.78 51.9618C452.367 49.6351 455.167 48.4718 459.18 48.4718C461.458 48.3894 463.719 48.8884 465.75 49.9218V45.8618H465.58V43.3418H463.35V47.4118C461.311 46.3669 459.039 45.8609 456.75 45.9418C452.75 45.9418 449.94 47.1118 448.35 49.4318C446.76 51.7518 446 55.0018 446 59.2118V76.9218H432.84V79.4418H448.4V61.7318Z" fill="#FF74A1"/>
<path d="M486.18 27.9918H488.61V24.9018V22.3818H486.18V27.9918Z" fill="#FF74A1"/>
<path d="M488.61 48.3818H493.15C492.95 47.5618 492.79 46.7218 492.65 45.8618H486.18V76.9218H473.05V79.4418H488.61V48.3818Z" fill="#FF74A1"/>
<path d="M521.11 78.6918C525.212 80.3233 529.586 81.1615 534 81.1618C536.121 81.1771 538.237 80.9591 540.31 80.5118C542.237 80.0784 545.07 79.2984 548.81 78.1718V58.0518C548.07 58.9201 547.253 59.72 546.37 60.4418V75.6518C542.637 76.7718 539.807 77.5484 537.88 77.9818C535.804 78.434 533.684 78.6521 531.56 78.6318C527.136 78.6399 522.751 77.805 518.64 76.1718C514.49 74.5352 510.669 72.164 507.36 69.1718C507.21 69.0418 507.08 68.9118 506.95 68.7818C507.713 69.6656 508.525 70.5068 509.38 71.3018L509.79 71.6918C513.108 74.6914 516.944 77.0632 521.11 78.6918Z" fill="#FF74A1"/>
<path d="M546.41 34.0018C547.169 34.6704 547.865 35.4068 548.49 36.2018C548.6 36.3418 548.73 36.4718 548.85 36.6218V16.4718C548.03 16.1318 547.22 15.8318 546.41 15.5518V34.0018Z" fill="#FF74A1"/>
<path d="M519.09 38.3319C520.482 35.6469 522.594 33.403 525.19 31.8519C527.891 30.2526 530.982 29.4323 534.12 29.4819C536.983 29.4696 539.812 30.0983 542.4 31.3219C543.713 31.9345 544.942 32.7107 546.06 33.6319C545.441 32.8411 544.751 32.1081 544 31.4419V31.5419C543.89 31.3919 543.76 31.2619 543.65 31.1119C542.535 30.1914 541.309 29.4152 540 28.8019C537.4 27.5877 534.56 26.9726 531.69 27.0019C528.552 26.9523 525.461 27.7726 522.76 29.3719C520.164 30.919 518.052 33.1597 516.66 35.8419C515.214 38.6197 514.472 41.7102 514.5 44.8419C514.456 47.9789 515.21 51.0756 516.69 53.8419C516.8 54.0519 516.94 54.2319 517.06 54.4319C517.38 54.6319 517.67 54.8519 518 55.0419L518.61 55.3619C517.424 52.6562 516.851 49.7213 516.934 46.768C517.017 43.8148 517.753 40.9166 519.09 38.2819V38.3319Z" fill="#FF74A1"/>
<path d="M574 46.4319C572.531 47.2719 571.328 48.5093 570.53 50.0019C569.721 51.5432 569.309 53.2615 569.33 55.0019C569.308 56.3675 569.545 57.7249 570.03 59.0019C570.64 59.2562 571.273 59.4505 571.92 59.5819C571.811 58.9208 571.758 58.2518 571.76 57.5819C571.737 55.8413 572.15 54.1226 572.96 52.5819C573.759 51.0755 574.969 49.827 576.45 48.9819C578.071 48.0662 579.909 47.6033 581.77 47.6419C582.624 47.6405 583.476 47.7344 584.31 47.9219C584.188 47.2659 584.004 46.623 583.76 46.0019C582.365 45.401 580.859 45.1011 579.34 45.1219C577.474 45.0656 575.628 45.5184 574 46.4319Z" fill="#FF74A1"/>
<path d="M606.85 38.082V35.562H604.42V76.922H591.29V79.442H591.58H593.72H606.85V38.082Z" fill="#FF74A1"/>
<path d="M577.85 80.9019C580.498 80.9168 583.12 80.368 585.54 79.2919C586.864 78.704 588.084 77.9034 589.15 76.9219H588.86V74.4019H586.71C585.645 75.38 584.429 76.1803 583.11 76.7719C580.688 77.8422 578.068 78.3907 575.42 78.3819C571.383 78.4373 567.417 77.3224 564 75.1719C562.938 74.5196 561.934 73.7768 561 72.9519C561.74 73.8567 562.553 74.6995 563.43 75.4719C564.369 76.2945 565.372 77.0402 566.43 77.7019C569.848 79.8494 573.814 80.9609 577.85 80.9019Z" fill="#FF74A1"/>
<path d="M632.25 75.2518C633.875 77.1297 635.935 78.5818 638.25 79.4818C640.652 80.4252 643.21 80.907 645.79 80.9018C648.827 80.9308 651.836 80.3174 654.62 79.1018C657.281 77.9228 659.666 76.1991 661.62 74.0418C663.153 72.3505 664.423 70.4394 665.39 68.3718L665.23 68.2818L666.23 66.3418C667.252 63.5556 667.77 60.6097 667.76 57.6418C667.773 54.569 667.228 51.5194 666.15 48.6418C665.223 46.1928 663.895 43.915 662.22 41.9018C662 41.6418 661.8 41.3618 661.57 41.1018C661.009 40.4959 660.415 39.9216 659.79 39.3818C661.467 41.3936 662.795 43.6717 663.72 46.1218C665.86 51.9 665.86 58.2537 663.72 64.0318C662.69 66.7928 661.142 69.3316 659.16 71.5118C657.204 73.6519 654.819 75.3556 652.16 76.5118C649.379 77.7352 646.368 78.3522 643.33 78.3218C640.783 78.3494 638.253 77.9017 635.87 77.0018C633.536 76.1103 631.456 74.6616 629.81 72.7818V98.8818H616.69V101.402H632.25V75.2518Z" fill="#FF74A1"/>
<path d="M634 46.4318C632.518 47.268 631.301 48.5054 630.49 50.0018C629.681 51.5431 629.269 53.2614 629.29 55.0018C629.273 56.367 629.51 57.7234 629.99 59.0018C630.604 59.2548 631.24 59.449 631.89 59.5818C631.781 58.9207 631.728 58.2517 631.73 57.5818C631.707 55.8412 632.12 54.1225 632.93 52.5818C633.726 51.0767 634.933 49.8284 636.41 48.9818C638.031 48.0661 639.869 47.6032 641.73 47.6418C642.578 47.6409 643.423 47.7348 644.25 47.9218C644.128 47.2658 643.944 46.6229 643.7 46.0018C642.312 45.4016 640.812 45.1017 639.3 45.1218C637.448 45.0728 635.616 45.5254 634 46.4318Z" fill="#FF74A1"/>
<path d="M702.09 44.3119C699.518 42.9138 696.637 42.1815 693.71 42.1819C692.568 42.1824 691.44 42.4387 690.41 42.9319C690.026 43.1065 689.685 43.3624 689.41 43.6819L691 44.0019C692.166 44.2265 693.315 44.5305 694.44 44.9119C695.001 44.7835 695.575 44.7197 696.15 44.7219C699.077 44.7215 701.958 45.4538 704.53 46.8519L709 38.2519L709.7 36.9219C708.68 36.4626 707.635 36.0619 706.57 35.7219L702.09 44.3119Z" fill="#FF74A1"/>
<path d="M700.42 79.162C703.432 78.0948 706.087 76.2114 708.09 73.722C710.091 71.0939 711.12 67.8532 711 64.552C711.087 62.0475 710.387 59.5787 709 57.492C708.322 56.5423 707.503 55.7025 706.57 55.002C707.956 57.0932 708.655 59.5646 708.57 62.072C708.68 65.3766 707.641 68.6171 705.63 71.242C703.63 73.7076 700.99 75.5757 698 76.642C694.76 77.8181 691.337 78.4074 687.89 78.382C682.758 78.3943 677.694 77.2096 673.1 74.922L672.61 75.852C677.95 79.101 684.069 80.8459 690.32 80.902C693.763 80.9275 697.184 80.3382 700.42 79.162Z" fill="#FF74A1"/>
<path d="M686 61.302C686.216 61.2143 686.426 61.1141 686.63 61.002C687.158 60.7213 687.589 60.2896 687.87 59.762C686.57 59.472 685.04 59.142 683.27 58.762C681.149 58.2422 679.153 57.3038 677.4 56.002C677.727 56.5478 678.127 57.0458 678.59 57.482C678.983 57.8433 679.401 58.1774 679.84 58.482C681.598 59.7485 683.59 60.6528 685.7 61.142L686 61.302Z" fill="#FF74A1"/>
<path d="M730.7 81.162C732.451 81.1504 734.169 80.6815 735.683 79.8016C737.197 78.9217 738.455 77.6615 739.332 76.1458C740.209 74.63 740.675 72.9114 740.684 71.1602C740.692 69.409 740.243 67.686 739.38 66.162C739.27 65.972 739.13 65.792 739.01 65.612C738.368 64.5994 737.544 63.7145 736.58 63.002C736.7 63.182 736.83 63.352 736.95 63.552C738.078 65.4615 738.54 67.6919 738.261 69.8923C737.983 72.0927 736.982 74.1382 735.414 75.7071C733.846 77.2759 731.802 78.2791 729.601 78.5588C727.401 78.8384 725.17 78.3787 723.26 77.252C722.96 77.072 722.68 76.882 722.41 76.682C723.063 77.66 723.886 78.5135 724.84 79.202C725.112 79.409 725.395 79.5994 725.69 79.7719C727.204 80.6798 728.935 81.1601 730.7 81.162Z" fill="#FF74A1"/>
<path d="M736.4 55.0019H728.63C729.712 55.656 730.659 56.5114 731.42 57.5219H738.83V14.9419H736.4V55.0019Z" fill="#FF74A1"/>
<path d="M19.2 32.2719H21.64V14.9419V12.4219H19.2V32.2719Z" fill="#FFA3C0"/>
<path d="M62.62 76.9219V14.9419V12.4219H60.19V74.4019H45.84V76.9219H48.28H62.62Z" fill="#FFA3C0"/>
<path d="M21.64 76.9219V50.5019H40.98V47.9719H19.2V74.4019H4.87V76.9219H7.3H21.64Z" fill="#FFA3C0"/>
<path d="M86.36 74.402H73.21V76.922H75.64H88.79V35.562V33.042H86.36V74.402Z" fill="#FFA3C0"/>
<path d="M81 24.912C82.5374 24.9168 84.0474 24.5056 85.37 23.722C86.6983 22.9536 87.8017 21.8502 88.57 20.522C89.3451 19.2076 89.7495 17.7078 89.74 16.182C89.746 14.6471 89.3421 13.1385 88.57 11.812C88.51 11.712 88.44 11.622 88.37 11.522C87.7387 10.5231 86.908 9.66518 85.93 9.00195C85.99 9.10195 86.07 9.19195 86.13 9.29195C86.903 10.6181 87.307 12.127 87.3 13.662C87.3085 15.1877 86.9042 16.6873 86.13 18.002C85.3562 19.326 84.254 20.4281 82.93 21.202C81.6054 21.981 80.0967 22.3918 78.56 22.3918C77.0233 22.3918 75.5146 21.981 74.19 21.202L73.63 20.822C74.2675 21.816 75.097 22.6728 76.07 23.342C76.25 23.472 76.43 23.602 76.63 23.722C77.9514 24.5084 79.4623 24.9198 81 24.912Z" fill="#FFA3C0"/>
<path d="M121.41 43.3418H120.8V45.8618H121.41V43.3418Z" fill="#FFA3C0"/>
<path d="M150.27 17.4819C148.557 16.6367 146.696 16.134 144.79 16.0019C142.79 16.0019 141.42 16.5819 140.62 17.7519C139.82 18.9219 139.4 20.7519 139.4 23.3619V28.0019H141.84V25.9219C141.84 23.3619 142.243 21.4952 143.05 20.3219C143.86 19.1519 145.25 18.5619 147.23 18.5619C149.13 18.6815 150.988 19.1706 152.7 20.0019V6.59186C151.924 6.19794 151.109 5.88302 150.27 5.65186V17.4819Z" fill="#FFA3C0"/>
<path d="M141.84 76.922V45.862H152.7V35.562V33.042H150.27V43.342H139.41V74.402H126.28V76.922H128.71H141.84Z" fill="#FFA3C0"/>
<path d="M173.48 76.9219V59.2119C173.48 55.0252 174.273 51.7652 175.86 49.4319C177.45 47.1119 180.25 45.9419 184.26 45.9419C185.789 45.9287 187.312 46.141 188.78 46.5719C189.075 44.167 189.779 41.8301 190.86 39.6619V32.4319H188.43V44.8819C186.389 43.8451 184.118 43.3427 181.83 43.4219C177.83 43.4219 175.03 44.5852 173.43 46.9119C171.83 49.2386 171.037 52.4952 171.05 56.6819V74.4019H157.92V76.9219H173.48Z" fill="#FFA3C0"/>
<path d="M217.42 42.5618C215.559 42.5233 213.721 42.9861 212.1 43.9018C210.619 44.747 209.409 45.9954 208.61 47.5018C207.801 49.0428 207.388 50.7613 207.41 52.5018C207.375 54.4908 207.928 56.4459 209 58.1218C209.498 58.4664 210.031 58.758 210.59 58.9918C210.101 57.7157 209.86 56.3582 209.88 54.9918C209.858 53.2501 210.274 51.5307 211.09 49.9918C211.888 48.4905 213.094 47.2458 214.57 46.4018C216.189 45.4815 218.028 45.0183 219.89 45.0618C221.399 45.042 222.895 45.3419 224.28 45.9418C224.151 45.5995 224.001 45.2655 223.83 44.9418C223.71 44.7218 223.57 44.5218 223.44 44.3118C223.31 44.1018 223.01 44.0018 222.77 43.8618C221.137 42.952 219.288 42.5027 217.42 42.5618Z" fill="#FFA3C0"/>
<path d="M206.66 75.6019C210.817 77.4353 215.311 78.3823 219.855 78.3823C224.399 78.3823 228.893 77.4353 233.05 75.6019C236.96 73.8598 240.3 71.0528 242.69 67.5019C245.125 63.7953 246.373 59.4354 246.27 55.0019C246.447 49.7793 244.688 44.6756 241.33 40.6719C240.587 39.7694 239.775 38.9268 238.9 38.1519C242.271 42.1444 244.032 47.2502 243.84 52.4719C243.948 56.9153 242.699 61.286 240.26 65.0019C237.869 68.5557 234.524 71.3632 230.61 73.1019C226.454 74.9351 221.962 75.8819 217.42 75.8819C212.878 75.8819 208.386 74.9351 204.23 73.1019C202.078 72.1205 200.083 70.8265 198.31 69.2619C199.056 70.1677 199.872 71.0136 200.75 71.7919C202.52 73.3481 204.512 74.6321 206.66 75.6019Z" fill="#FFA3C0"/>
<path d="M327.73 76.9218V49.0018C327.73 43.7818 326.713 39.7451 324.68 36.8918C324.005 35.9288 323.185 35.0754 322.25 34.3618C324.25 37.2318 325.3 41.2618 325.3 46.4818V74.4818H312.17V77.0018H327.73V76.9218Z" fill="#FFA3C0"/>
<path d="M268.87 76.922V56.002C268.767 52.9569 269.169 49.9157 270.06 47.002C270.86 44.742 272.77 43.612 275.81 43.612C276.268 43.6132 276.726 43.6467 277.18 43.712C277.044 43.116 276.874 42.5284 276.67 41.952C276.67 41.862 276.59 41.772 276.55 41.682C275.544 41.2593 274.461 41.0548 273.37 41.082C270.37 41.082 268.42 42.212 267.63 44.482C266.75 47.3637 266.348 50.3702 266.44 53.382V74.382H253.31V76.902H268.87V76.922Z" fill="#FFA3C0"/>
<path d="M298.3 76.9218V56.0018C298.186 53.0378 298.648 50.0799 299.66 47.2918C300.56 45.1218 302.6 44.0318 305.76 44.0318C306.061 44.0329 306.361 44.0496 306.66 44.0818C306.537 43.4933 306.38 42.9123 306.19 42.3418C306.148 42.2219 306.098 42.105 306.04 41.9918C305.177 41.654 304.256 41.4909 303.33 41.5118C300.16 41.5118 298.13 42.5918 297.23 44.7718C296.219 47.5566 295.757 50.5112 295.87 53.4718V74.4718H282.74V76.9918H298.3V76.9218Z" fill="#FFA3C0"/>
<path d="M375.9 76.9219L380.35 65.7019H400.46L399.52 63.1819H377.92L373.47 74.4019H359.07L358.1 76.9219H361.5H375.9Z" fill="#FFA3C0"/>
<path d="M425.52 76.9219L402.17 14.9419L401.22 12.4219H399.74L423.09 74.4019H406.69L407.63 76.9219H409.12H425.52Z" fill="#FFA3C0"/>
<path d="M386.67 47.8319L390.38 36.8519L388.75 31.9519L383.39 47.8319H386.67Z" fill="#FFA3C0"/>
<path d="M446 76.922V59.212C446 55.0253 446.793 51.7653 448.38 49.432C449.97 47.112 452.77 45.942 456.78 45.942C459.069 45.8611 461.341 46.3671 463.38 47.412V43.342H463.18V40.812H460.94V44.882C458.9 43.8431 456.628 43.3407 454.34 43.422C450.34 43.422 447.543 44.5853 445.95 46.912C444.357 49.2387 443.563 52.4953 443.57 56.682V74.402H430.41V76.922H446Z" fill="#FFA3C0"/>
<path d="M492.82 33.002H492.56V34.522C492.63 34.052 492.72 33.542 492.82 33.002Z" fill="#FFA3C0"/>
<path d="M465.75 43.3418H465.58V45.8618H465.75V43.3418Z" fill="#FFA3C0"/>
<path d="M483.74 27.9918H486.18V22.3818V19.8618H483.74V27.9918Z" fill="#FFA3C0"/>
<path d="M486.18 76.9218V45.8618H492.65C492.52 45.0318 492.41 44.1918 492.33 43.3418H483.74V74.4018H470.61V76.9218H486.18Z" fill="#FFA3C0"/>
<path d="M518.68 76.1717C522.791 77.805 527.176 78.6399 531.6 78.6317C533.724 78.6521 535.844 78.434 537.92 77.9817C539.853 77.5484 542.683 76.7717 546.41 75.6517V55.5317C545.682 56.3982 544.876 57.195 544 57.9117V73.1217C540.267 74.2484 537.437 75.0284 535.51 75.4617C533.434 75.9092 531.314 76.1272 529.19 76.1117C524.762 76.1215 520.373 75.283 516.26 73.6417C512.108 72.0089 508.286 69.6373 504.98 66.6417C504.84 66.5217 504.71 66.3817 504.57 66.2517C505.335 67.1249 506.146 67.9561 507 68.7417C507.13 68.8717 507.26 69.0017 507.41 69.1317C510.713 72.1372 514.53 74.522 518.68 76.1717Z" fill="#FFA3C0"/>
<path d="M544 31.4417C544.758 32.1071 545.455 32.8401 546.08 33.6317C546.19 33.7817 546.32 33.9117 546.43 34.0617V13.9417C545.62 13.6117 544.81 13.3117 544 13.0317V31.4417Z" fill="#FFA3C0"/>
<path d="M514.5 44.8418C514.472 41.7102 515.214 38.6196 516.66 35.8418C518.052 33.1596 520.164 30.9189 522.76 29.3718C525.461 27.7726 528.552 26.9523 531.69 27.0018C534.56 26.9725 537.4 27.5876 540 28.8018C541.313 29.4144 542.542 30.1906 543.66 31.1118C543.032 30.3225 542.336 29.5897 541.58 28.9218V29.0018C541.47 28.8518 541.34 28.7218 541.22 28.5818C540.108 27.6553 538.881 26.8756 537.57 26.2618C534.98 25.043 532.152 24.4146 529.29 24.4218C526.152 24.3723 523.061 25.1926 520.36 26.7918C517.764 28.3425 515.651 30.5866 514.26 33.2718C512.813 36.0495 512.072 39.1401 512.1 42.2718C512.048 45.4289 512.802 48.5471 514.29 51.3318C514.67 52.0292 515.102 52.6977 515.58 53.3318C516.064 53.7306 516.568 54.1044 517.09 54.4518C516.97 54.2518 516.83 54.0718 516.72 53.8618C515.226 51.0924 514.462 47.9882 514.5 44.8418Z" fill="#FFA3C0"/>
<path d="M601.99 74.402H588.86V76.922H589.15H591.29H604.42V35.562V33.042H601.99V74.402Z" fill="#FFA3C0"/>
<path d="M576.91 42.5618C575.048 42.5223 573.211 42.9852 571.59 43.9018C570.109 44.747 568.899 45.9954 568.1 47.5018C567.287 49.0419 566.871 50.7604 566.89 52.5018C566.843 54.4868 567.382 56.4415 568.44 58.1218C568.928 58.468 569.451 58.7629 570 59.0018C569.515 57.7249 569.278 56.3674 569.3 55.0018C569.279 53.2614 569.691 51.5431 570.5 50.0018C571.306 48.5051 572.52 47.2674 574 46.4318C575.619 45.5115 577.458 45.0483 579.32 45.0918C580.839 45.071 582.345 45.3709 583.74 45.9718C583.611 45.6295 583.461 45.2955 583.29 44.9718C583.172 44.758 583.042 44.551 582.9 44.3518C582.685 44.1871 582.461 44.0336 582.23 43.8918C580.608 42.9805 578.77 42.5212 576.91 42.5618Z" fill="#FFA3C0"/>
<path d="M564 75.1719C567.414 77.3205 571.377 78.4354 575.41 78.3819C578.058 78.3907 580.678 77.8422 583.1 76.7719C584.419 76.1802 585.635 75.38 586.7 74.4019H586.41V71.8719H584.27C583.21 72.8567 581.993 73.6577 580.67 74.2419C578.247 75.321 575.622 75.8732 572.97 75.8619C568.937 75.9142 564.974 74.7995 561.56 72.6519C560.522 71.9913 559.539 71.2489 558.62 70.4319C559.361 71.3545 560.177 72.2141 561.06 73.0019C561.977 73.8067 562.961 74.5326 564 75.1719Z" fill="#FFA3C0"/>
<path d="M636.87 42.5618C635.008 42.5223 633.171 42.9852 631.55 43.9018C630.069 44.747 628.859 45.9954 628.06 47.5018C627.251 49.0428 626.838 50.7613 626.86 52.5018C626.813 54.4868 627.352 56.4416 628.41 58.1218C628.909 58.468 629.442 58.7629 630 59.0018C629.52 57.7235 629.283 56.367 629.3 55.0018C629.279 53.2614 629.691 51.5431 630.5 50.0018C631.308 48.5068 632.521 47.2696 634 46.4318C635.619 45.5115 637.458 45.0483 639.32 45.0918C640.832 45.0718 642.332 45.3717 643.72 45.9718C643.595 45.6294 643.448 45.2953 643.28 44.9718C643.16 44.7418 643.01 44.5318 642.88 44.3218C642.75 44.1118 642.45 44.0118 642.21 43.8718C640.58 42.9645 638.735 42.512 636.87 42.5618Z" fill="#FFA3C0"/>
<path d="M629.81 98.8318V72.7318C631.45 74.6298 633.531 76.096 635.87 77.0018C638.271 77.9491 640.829 78.4342 643.41 78.4318C646.448 78.4622 649.459 77.8452 652.24 76.6218C654.899 75.4655 657.284 73.7618 659.24 71.6218C661.241 69.4008 662.793 66.8131 663.81 64.0018C665.95 58.2236 665.95 51.8699 663.81 46.0918C662.885 43.6417 661.557 41.3636 659.88 39.3518C659.66 39.0818 659.46 38.8118 659.22 38.5518C658.662 37.9459 658.072 37.3717 657.45 36.8318C659.129 38.842 660.457 41.1205 661.38 43.5718C663.506 49.3525 663.506 55.7011 661.38 61.4818C660.351 64.255 658.803 66.807 656.82 69.0018C654.859 71.1367 652.475 72.8396 649.82 74.0018C647.045 75.2401 644.039 75.8741 641 75.8618C638.419 75.8643 635.861 75.3791 633.46 74.4318C631.126 73.5403 629.046 72.0915 627.4 70.2118V96.3118H614.25V98.8318H629.81Z" fill="#FFA3C0"/>
<path d="M699.66 41.7919C697.088 40.3949 694.207 39.6628 691.28 39.6619C690.139 39.6626 689.012 39.9153 687.98 40.4019C687.515 40.567 687.113 40.8719 686.828 41.2747C686.544 41.6776 686.39 42.1586 686.39 42.6519C686.385 42.7318 686.385 42.812 686.39 42.8919L686.54 42.9619C687.249 43.2204 687.978 43.421 688.72 43.5619L689.37 43.6819C689.645 43.3624 689.986 43.1065 690.37 42.9319C691.4 42.4387 692.528 42.1824 693.67 42.1819C696.597 42.1815 699.478 42.9137 702.05 44.3119L706.57 35.7219L707.27 34.3919C706.25 33.9359 705.205 33.5386 704.14 33.2019L699.66 41.7919Z" fill="#FFA3C0"/>
<path d="M683.27 58.712C685.04 59.142 686.57 59.472 687.87 59.712C688.069 59.3325 688.172 58.9103 688.17 58.482C688.186 58.319 688.186 58.1549 688.17 57.992C687.477 57.7063 686.761 57.4789 686.03 57.312C684.64 56.992 682.91 56.632 680.88 56.132C678.766 55.6628 676.766 54.7754 675 53.522C675.32 54.0617 675.706 54.5589 676.15 55.002C676.547 55.3588 676.965 55.6926 677.4 56.002C679.157 57.2861 681.153 58.2073 683.27 58.712Z" fill="#FFA3C0"/>
<path d="M687.88 78.3819C691.33 78.4085 694.757 77.8192 698 76.6419C701.01 75.571 703.664 73.6882 705.67 71.2019C707.684 68.5676 708.719 65.3155 708.6 62.0019C708.685 59.4945 707.986 57.0231 706.6 54.9319C705.928 53.9689 705.108 53.1184 704.17 52.4119C705.55 54.502 706.249 56.9684 706.17 59.4719C706.284 62.7788 705.241 66.0219 703.22 68.6419C701.224 71.134 698.571 73.0183 695.56 74.0819C692.322 75.2656 688.898 75.8584 685.45 75.8319C680.315 75.8429 675.248 74.6583 670.65 72.3719L670.17 73.3019C671.17 73.8819 672.1 74.4019 673.09 74.8919C677.681 77.1899 682.746 78.3849 687.88 78.3819Z" fill="#FFA3C0"/>
<path d="M723.4 53.5819C725.172 53.5628 726.917 54.0223 728.45 54.9119L728.63 55.0319H736.4V12.4219H734V52.5119H720.23V54.0919C721.253 53.7543 722.323 53.5821 723.4 53.5819Z" fill="#FFA3C0"/>
<path d="M728.27 78.6318C730.027 78.6352 731.754 78.1757 733.277 77.2994C734.8 76.4232 736.065 75.1611 736.945 73.6403C737.825 72.1195 738.289 70.3937 738.29 68.6367C738.291 66.8797 737.829 65.1534 736.95 63.6318C736.83 63.4318 736.7 63.2618 736.58 63.0818C735.922 62.101 735.096 61.2444 734.14 60.5518C734.27 60.7418 734.4 60.9118 734.51 61.1018C735.389 62.6234 735.851 64.3497 735.85 66.1067C735.849 67.8637 735.385 69.5895 734.505 71.1103C733.625 72.6311 732.36 73.8932 730.837 74.7694C729.314 75.6457 727.587 76.1052 725.83 76.1018C724.072 76.1107 722.345 75.6443 720.83 74.7518C720.534 74.5769 720.246 74.3867 719.97 74.1818C720.628 75.1625 721.454 76.0191 722.41 76.7118C722.68 76.9118 722.96 77.1018 723.26 77.2818C724.779 78.1714 726.509 78.6376 728.27 78.6318Z" fill="#FFA3C0"/>
<path d="M16.77 32.2719H19.2V12.4219V9.90186H16.77V32.2719Z" fill="#FFD1E0"/>
<path d="M19.2 74.4019V47.9719H40.98V45.4519H16.77V71.8719H2.42999V74.4019H4.86999H19.2Z" fill="#FFD1E0"/>
<path d="M60.19 74.4019V12.4219V9.90186H57.75V71.8719H43.41V74.4019H45.84H60.19Z" fill="#FFD1E0"/>
<path d="M83.92 71.8717H70.78V74.4017H73.21H86.36V33.0417V30.5117H83.92V71.8717Z" fill="#FFD1E0"/>
<path d="M78.55 22.3919C80.0906 22.3971 81.6039 21.986 82.93 21.2019C84.254 20.4281 85.3562 19.3259 86.13 18.0019C86.9042 16.6872 87.3085 15.1876 87.3 13.6619C87.307 12.127 86.903 10.6181 86.13 9.29193C86.07 9.19193 85.99 9.10193 85.93 9.00193C85.3016 8.00404 84.4744 7.14623 83.5 6.48193L83.69 6.77193C84.4564 8.09536 84.86 9.5976 84.86 11.1269C84.86 12.6563 84.4564 14.1585 83.69 15.4819C82.9214 16.8074 81.8179 17.9075 80.49 18.6719C79.1673 19.4511 77.6602 19.862 76.125 19.862C74.5899 19.862 73.0827 19.4511 71.76 18.6719C71.57 18.5619 71.39 18.4219 71.2 18.2919C71.8309 19.2907 72.6575 20.1513 73.63 20.8219L74.19 21.2019C75.5089 21.9857 77.0158 22.397 78.55 22.3919Z" fill="#FFD1E0"/>
<path d="M121.41 40.812H118.37V43.342H120.8H121.41V40.812Z" fill="#FFD1E0"/>
<path d="M147.83 15.0018C146.12 14.1627 144.261 13.6699 142.36 13.5518C140.36 13.5518 138.99 14.1418 138.18 15.3118C137.37 16.4818 136.97 18.3118 136.97 20.9218V28.0018H139.4V23.4018C139.4 20.8318 139.81 18.9718 140.62 17.7918C141.43 16.6118 142.82 16.0418 144.79 16.0418C146.693 16.1614 148.554 16.6505 150.27 17.4818V4.07178C149.491 3.66002 148.674 3.32511 147.83 3.07178V15.0018Z" fill="#FFD1E0"/>
<path d="M139.41 74.4017V43.3417H150.27V33.0417V30.5117H147.83V40.8117H136.97V71.8717H123.84V74.4017H126.28H139.41Z" fill="#FFD1E0"/>
<path d="M168.62 35.1717H168.78C169.405 34.0265 170.167 32.9619 171.05 32.0017V30.5117H168.62V35.1717Z" fill="#FFD1E0"/>
<path d="M171.05 74.4018V56.6818C171.05 52.4952 171.843 49.2385 173.43 46.9118C175.017 44.5852 177.817 43.4218 181.83 43.4218C184.118 43.3427 186.389 43.845 188.43 44.8818V29.8818H186V42.3618C183.961 41.3183 181.689 40.8156 179.4 40.9018C175.4 40.9018 172.603 42.0618 171.01 44.3818C169.417 46.7018 168.623 49.9618 168.63 54.1618V71.8718H155.49V74.4018H171.05Z" fill="#FFD1E0"/>
<path d="M204.23 73.0818C208.386 74.9151 212.878 75.8619 217.42 75.8619C221.962 75.8619 226.454 74.9151 230.61 73.0818C234.524 71.3432 237.869 68.5357 240.26 64.9818C242.693 61.2745 243.942 56.9151 243.84 52.4818C244.032 47.2602 242.271 42.1544 238.9 38.1618C238.157 37.2594 237.345 36.4168 236.47 35.6418C236.94 36.2118 237.4 36.8118 237.83 37.4418C240.267 41.1696 241.516 45.5493 241.41 50.0018C241.508 54.4315 240.259 58.7865 237.83 62.4918C235.434 66.0436 232.091 68.8531 228.18 70.6018C224.023 72.4285 219.531 73.3717 214.99 73.3717C210.449 73.3717 205.957 72.4285 201.8 70.6018C199.647 69.6226 197.652 68.3284 195.88 66.7618C196.623 67.6643 197.435 68.5069 198.31 69.2818C200.086 70.8324 202.081 72.1128 204.23 73.0818Z" fill="#FFD1E0"/>
<path d="M207.41 52.5018C207.388 50.7613 207.801 49.0428 208.61 47.5018C209.409 45.9955 210.619 44.747 212.1 43.9018C213.733 43.0222 215.56 42.5617 217.415 42.5617C219.27 42.5617 221.096 43.0222 222.73 43.9018C222.97 44.0418 223.18 44.2018 223.4 44.3518C222.625 43.1153 221.561 42.0857 220.3 41.3518C218.667 40.4722 216.84 40.0117 214.985 40.0117C213.13 40.0117 211.303 40.4722 209.67 41.3518C208.189 42.197 206.979 43.4455 206.18 44.9518C205.37 46.4925 204.957 48.2112 204.98 49.9518C204.938 51.2467 205.154 52.5369 205.616 53.7473C206.078 54.9577 206.776 56.064 207.67 57.0018C208.075 57.4182 208.521 57.7934 209 58.1218C207.928 56.446 207.375 54.4909 207.41 52.5018Z" fill="#FFD1E0"/>
<path d="M264 33.462H264.16C264.85 32.5801 265.613 31.7573 266.44 31.002V30.542H264V33.462Z" fill="#FFD1E0"/>
<path d="M293 34.9218C293.1 34.7418 293.21 34.5618 293.32 34.3818C292.758 33.7214 292.135 33.1154 291.46 32.5718C292.034 33.3138 292.549 34.0995 293 34.9218Z" fill="#FFD1E0"/>
<path d="M295.87 74.4019V53.4019C295.757 50.4412 296.219 47.4867 297.23 44.7019C298.13 42.5219 300.16 41.4419 303.33 41.4419C304.256 41.421 305.177 41.5841 306.04 41.9219C305.23 39.9219 303.52 38.9219 300.89 38.9219C297.73 38.9219 295.697 40.0085 294.79 42.1819C293.787 44.9722 293.329 47.9289 293.44 50.8919V71.8919H280.31V74.4019H295.87Z" fill="#FFD1E0"/>
<path d="M266.44 74.4018V53.4018C266.348 50.39 266.75 47.3835 267.63 44.5018C268.42 42.2318 270.34 41.1018 273.37 41.1018C274.461 41.0746 275.544 41.2791 276.55 41.7018C275.7 39.6318 273.83 38.5818 270.94 38.5818C268.05 38.5818 266 39.7318 265.2 42.0018C264.313 44.8823 263.908 47.8893 264 50.9018V71.9018H250.88V74.4018H266.44Z" fill="#FFD1E0"/>
<path d="M325.3 74.4017V46.4017C325.3 41.1817 324.3 37.1517 322.25 34.2817C321.577 33.3195 320.757 32.4692 319.82 31.7617C321.82 34.6317 322.87 38.6617 322.87 43.8717V71.8717H309.74V74.4017H325.3Z" fill="#FFD1E0"/>
<path d="M423.09 74.4019L399.74 12.4219L398.79 9.90186H397.31L420.65 71.8719H404.26L405.2 74.4019H406.69H423.09Z" fill="#FFD1E0"/>
<path d="M373.47 74.4019L377.92 63.1819H399.52L398.57 60.6619H375.48L371.03 71.8719H356.63L355.66 74.4019H359.07H373.47Z" fill="#FFD1E0"/>
<path d="M388.75 31.9518L387.2 27.3018H387.04L380.1 47.8318H383.39L388.75 31.9518Z" fill="#FFD1E0"/>
<path d="M441.1 35.1717H441.27C441.895 34.0265 442.657 32.9619 443.54 32.0017V30.5117H441.1V35.1717Z" fill="#FFD1E0"/>
<path d="M443.54 74.4019V56.6819C443.54 52.4952 444.333 49.2385 445.92 46.9119C447.507 44.5852 450.303 43.4219 454.31 43.4219C456.598 43.3405 458.87 43.843 460.91 44.8819V40.8119H460.72V29.9119H458.48V42.3619C456.441 41.3183 454.169 40.8156 451.88 40.9019C447.88 40.9019 445.08 42.0619 443.48 44.3819C441.88 46.7019 441.087 49.9619 441.1 54.1619V71.8719H428V74.4019H443.57H443.54Z" fill="#FFD1E0"/>
<path d="M463.35 43.342H465.58H465.75V40.812H463.15V43.342H463.35Z" fill="#FFD1E0"/>
<path d="M481.31 27.9918H483.74V19.8618V17.3318H481.31V27.9918Z" fill="#FFD1E0"/>
<path d="M483.74 74.4017V43.3417H492.33C492.23 42.1617 492.17 40.9517 492.17 39.7117C492.168 37.9876 492.299 36.2659 492.56 34.5617V30.5117H490.13V40.8117H481.31V71.8717H468.18V74.4017H483.74Z" fill="#FFD1E0"/>
<path d="M541.55 28.922C542.306 29.5899 543.002 30.3227 543.63 31.112C543.74 31.262 543.87 31.392 543.98 31.542V11.422C543.17 11.092 542.36 10.792 541.55 10.502V28.922Z" fill="#FFD1E0"/>
<path d="M516.24 73.642C520.353 75.2832 524.742 76.1217 529.17 76.112C531.294 76.1274 533.413 75.9094 535.49 75.462C537.417 75.0353 540.247 74.2553 543.98 73.122V53.002C543.238 53.8621 542.425 54.6582 541.55 55.382V70.602C537.823 71.7353 534.993 72.5153 533.06 72.942C530.983 73.3853 528.864 73.5999 526.74 73.582C522.313 73.5902 517.925 72.7553 513.81 71.122C509.658 69.4891 505.836 67.1175 502.53 64.122L502.12 63.732C502.88 64.6053 503.69 65.4453 504.55 66.252C504.69 66.382 504.82 66.522 504.96 66.642C508.266 69.6375 512.088 72.0091 516.24 73.642Z" fill="#FFD1E0"/>
<path d="M512.07 42.3118C512.042 39.1801 512.783 36.0895 514.23 33.3118C515.621 30.6266 517.734 28.3825 520.33 26.8318C523.031 25.2326 526.122 24.4123 529.26 24.4618C532.122 24.4546 534.95 25.083 537.54 26.3018C538.851 26.9156 540.078 27.6954 541.19 28.6218C539.573 26.5515 537.49 24.893 535.11 23.7818C532.518 22.5594 529.686 21.9307 526.82 21.9418C523.682 21.8923 520.591 22.7126 517.89 24.3118C515.297 25.8631 513.188 28.1073 511.8 30.7918C510.343 33.5661 509.598 36.6585 509.63 39.7918C509.575 42.9472 510.333 46.0637 511.83 48.8418C512.774 50.5696 514.036 52.1032 515.55 53.3618C515.071 52.7277 514.64 52.0593 514.26 51.3618C512.773 48.5801 512.02 45.4655 512.07 42.3118Z" fill="#FFD1E0"/>
<path d="M599.55 71.8717H586.42V74.4017H586.71H588.86H601.99V33.0417V30.5117H599.55V71.8717Z" fill="#FFD1E0"/>
<path d="M561.57 72.652C564.99 74.8033 568.96 75.9182 573 75.862C575.652 75.8733 578.277 75.3211 580.7 74.242C582.024 73.6578 583.24 72.8568 584.3 71.872H584V67.002H583.83C582.489 69.0973 580.543 70.7362 578.25 71.702C575.83 72.7789 573.209 73.3277 570.56 73.312C566.528 73.3679 562.565 72.2566 559.15 70.112C558.112 69.4479 557.129 68.7022 556.21 67.882C556.95 68.79 557.762 69.6362 558.64 70.412C559.555 71.2355 560.535 71.9845 561.57 72.652Z" fill="#FFD1E0"/>
<path d="M566.89 52.5018C566.871 50.7604 567.287 49.0419 568.1 47.5018C568.899 45.9954 570.109 44.747 571.59 43.9018C573.229 43.0221 575.06 42.5617 576.92 42.5617C578.78 42.5617 580.611 43.0221 582.25 43.9018C582.481 44.0435 582.705 44.1971 582.92 44.3618C582.15 43.1216 581.085 42.0911 579.82 41.3618C578.181 40.4821 576.35 40.0217 574.49 40.0217C572.63 40.0217 570.799 40.4821 569.16 41.3618C567.675 42.2055 566.461 43.454 565.66 44.9618C564.85 46.5025 564.437 48.2212 564.46 49.9618C564.415 51.2608 564.631 52.5557 565.094 53.77C565.558 54.9843 566.26 56.0934 567.16 57.0318C567.549 57.4344 567.978 57.7962 568.44 58.1118C567.384 56.4344 566.845 54.4834 566.89 52.5018Z" fill="#FFD1E0"/>
<path d="M625.12 32.9417C625.705 32.0481 626.401 31.2317 627.19 30.5117H625V32.9417H625.12Z" fill="#FFD1E0"/>
<path d="M627.38 96.3118V70.2118C629.026 72.0915 631.106 73.5403 633.44 74.4318C635.847 75.3816 638.412 75.8668 641 75.8618C644.038 75.8913 647.048 75.2743 649.83 74.0518C652.485 72.8896 654.869 71.1867 656.83 69.0518C658.809 66.8689 660.356 64.3308 661.39 61.5718C663.516 55.7911 663.516 49.4425 661.39 43.6618C660.467 41.2105 659.139 38.932 657.46 36.9218C657.24 36.6518 657.03 36.3718 656.8 36.1218C656.237 35.4921 655.636 34.8977 655 34.3418C656.671 36.3555 657.996 38.6332 658.92 41.0818C661.06 46.8634 661.06 53.2202 658.92 59.0018C657.894 61.7592 656.349 64.2947 654.37 66.4718C652.416 68.629 650.031 70.3527 647.37 71.5318C644.59 72.7463 641.584 73.3597 638.55 73.3318C635.966 73.3399 633.404 72.8581 631 71.9118C628.686 71.0107 626.626 69.5587 625 67.6818V93.7818H611.82V96.3118H627.38Z" fill="#FFD1E0"/>
<path d="M626.86 52.5018C626.838 50.7613 627.251 49.0428 628.06 47.5018C628.859 45.9954 630.069 44.747 631.55 43.9018C633.185 43.0222 635.013 42.5617 636.87 42.5617C638.727 42.5617 640.555 43.0222 642.19 43.9018C642.43 44.0418 642.64 44.2018 642.86 44.3518C642.085 43.1153 641.021 42.0857 639.76 41.3518C638.125 40.4722 636.297 40.0117 634.44 40.0117C632.583 40.0117 630.755 40.4722 629.12 41.3518C627.639 42.197 626.429 43.4454 625.63 44.9518C624.82 46.4925 624.407 48.2112 624.43 49.9518C624.388 51.2466 624.604 52.5369 625.066 53.7473C625.528 54.9577 626.226 56.064 627.12 57.0018C627.514 57.4022 627.946 57.7639 628.41 58.0818C627.36 56.413 626.821 54.4732 626.86 52.5018Z" fill="#FFD1E0"/>
<path d="M697.23 39.2719C694.658 37.8749 691.777 37.1427 688.85 37.1419C687.705 37.1378 686.574 37.3907 685.54 37.8819C685.086 38.0546 684.696 38.3615 684.421 38.7616C684.145 39.1618 683.999 39.6363 684 40.1219C683.993 40.4478 684.055 40.7715 684.183 41.0714C684.31 41.3714 684.5 41.6409 684.74 41.8619C685.238 42.3059 685.819 42.6459 686.45 42.8619C686.445 42.782 686.445 42.7018 686.45 42.6219C686.454 42.1385 686.604 41.6676 686.88 41.2712C687.157 40.8749 687.547 40.5718 688 40.4019C689.032 39.9153 690.159 39.6626 691.3 39.6619C694.227 39.6627 697.108 40.3949 699.68 41.7919L704.2 33.2019L704.89 31.8719C703.871 31.4142 702.826 31.0169 701.76 30.6819L697.23 39.2719Z" fill="#FFD1E0"/>
<path d="M680.83 56.182C682.83 56.682 684.59 57.042 685.98 57.362C686.711 57.5288 687.427 57.7563 688.12 58.042C688.077 57.6524 687.946 57.2778 687.736 56.9467C687.527 56.6157 687.244 56.337 686.91 56.132C685.866 55.5258 684.732 55.0903 683.55 54.842L678.4 53.662C676.295 53.1468 674.305 52.2448 672.53 51.002C672.857 51.5506 673.257 52.0519 673.72 52.492C674.126 52.8598 674.554 53.2037 675 53.522C676.747 54.787 678.729 55.6913 680.83 56.182Z" fill="#FFD1E0"/>
<path d="M685.45 75.8619C688.898 75.8884 692.322 75.2956 695.56 74.1119C698.571 73.0483 701.224 71.164 703.22 68.6719C705.241 66.0519 706.284 62.8088 706.17 59.5019C706.249 56.9984 705.55 54.532 704.17 52.4419C703.498 51.479 702.678 50.6284 701.74 49.9219C703.123 52.0109 703.821 54.4781 703.74 56.9819C703.834 60.294 702.774 63.5358 700.74 66.1519C698.739 68.6432 696.083 70.5271 693.07 71.5919C689.843 72.7648 686.433 73.354 683 73.3319C677.864 73.348 672.796 72.1632 668.2 69.8719L667.72 70.8019C667.77 70.8377 667.824 70.8679 667.88 70.8919C668.78 71.4419 669.7 71.8919 670.63 72.4019C675.234 74.6913 680.308 75.876 685.45 75.8619Z" fill="#FFD1E0"/>
<path d="M725.83 76.112C727.587 76.1154 729.314 75.6559 730.837 74.7796C732.36 73.9034 733.625 72.6413 734.505 71.1205C735.385 69.5997 735.849 67.8739 735.85 66.1169C735.851 64.3599 735.389 62.6336 734.51 61.112C734.4 60.922 734.27 60.752 734.14 60.562C734.053 60.4125 733.956 60.2689 733.85 60.132C733.253 59.3141 732.531 58.5953 731.71 58.002C731.83 58.182 731.97 58.362 732.08 58.552C733.208 60.4615 733.669 62.6919 733.391 64.8923C733.113 67.0927 732.112 69.1382 730.544 70.7071C728.976 72.2759 726.931 73.2791 724.731 73.5588C722.531 73.8384 720.3 73.3787 718.39 72.252C718.097 72.0771 717.813 71.8868 717.54 71.682C718.2 72.6613 719.034 73.5119 720 74.192C720.277 74.3968 720.564 74.5871 720.86 74.762C722.366 75.6493 724.082 76.1155 725.83 76.112Z" fill="#FFD1E0"/>
<path d="M733.97 52.5119V12.4219V9.90186H731.54V49.9819H717.8V52.5119H720.24H733.97Z" fill="#FFD1E0"/>
<path d="M57.75 71.8718V9.90183V7.37183H40.98V32.2718H26.5H24.07H21.64H19.2H16.77V9.90183V7.37183H0V71.8718H2.43H16.77V45.4518H40.98V47.9718V50.5018V53.0218V55.5418V71.8718H43.41H57.75Z" fill="white"/>
<path d="M83.92 27.9919H80.39H68.34V71.8719H70.78H83.92V30.5119V29.7319V27.9919Z" fill="white"/>
<path d="M76.12 19.8618C77.658 19.8717 79.1693 19.4602 80.49 18.6718C81.8178 17.9074 82.9214 16.8073 83.69 15.4818C84.4564 14.1584 84.86 12.6562 84.86 11.1268C84.86 9.5975 84.4564 8.09525 83.69 6.77183L83.5 6.48183C82.301 4.57078 80.4072 3.19952 78.2175 2.65674C76.0277 2.11396 73.7127 2.44201 71.76 3.57183C70.4325 4.3378 69.3318 5.44196 68.57 6.77183C67.8036 8.09525 67.4 9.5975 67.4 11.1268C67.4 12.6562 67.8036 14.1584 68.57 15.4818C69.2267 16.6025 70.1252 17.5625 71.2 18.2918C71.39 18.4218 71.57 18.5618 71.76 18.6718C73.0771 19.4598 74.5852 19.8714 76.12 19.8618Z" fill="white"/>
<path d="M137 71.8719V40.8119H147.86V28.0019H137V20.8819C137 18.3119 137.41 16.4419 138.21 15.2719C139.01 14.1019 140.41 13.5119 142.39 13.5119C144.284 13.6464 146.132 14.1527 147.83 15.0019V1.54186C145.772 0.493159 143.489 -0.0355799 141.18 0.00185836C138.273 -0.0107338 135.398 0.603201 132.75 1.80186C130.091 2.99338 127.735 4.77107 125.86 7.00186C124.126 8.88037 122.868 11.147 122.19 13.6119C121.603 16.507 121.341 19.4586 121.41 22.4119V28.0019H115.94V40.8119H121.41V71.8719H137Z" fill="white"/>
<path d="M168.62 71.8718V54.1618C168.62 49.9751 169.413 46.7152 171 44.3818C172.587 42.0485 175.383 40.8885 179.39 40.9018C181.679 40.8156 183.951 41.3183 185.99 42.3618V27.3618H182.99C177.91 27.3618 173.93 28.9151 171.05 32.0218C170.17 32.9696 169.407 34.0206 168.78 35.1518H168.62V28.0018H153.06V71.8718H168.62Z" fill="white"/>
<path d="M201.8 70.5618C205.957 72.3885 210.449 73.3317 214.99 73.3317C219.531 73.3317 224.023 72.3885 228.18 70.5618C232.091 68.8131 235.434 66.0036 237.83 62.4518C240.252 58.7578 241.499 54.4179 241.41 50.0018C241.507 45.5629 240.259 41.1983 237.83 37.4818C237.4 36.8518 236.94 36.2518 236.47 35.6818C234.228 32.9648 231.392 30.7992 228.18 29.3518C224.024 27.5186 219.532 26.5718 214.99 26.5718C210.448 26.5718 205.956 27.5186 201.8 29.3518C198.486 30.8421 195.57 33.093 193.29 35.9218C192.89 36.4218 192.5 36.9218 192.14 37.4718C191.665 38.1866 191.238 38.9315 190.86 39.7018C189.779 41.87 189.075 44.2069 188.78 46.6118C188.69 47.2618 188.64 47.9218 188.61 48.6118C188.61 49.0718 188.56 49.5418 188.56 50.0118C188.56 50.4818 188.56 50.7118 188.56 51.0118C188.628 55.0951 189.859 59.0742 192.11 62.4818C193.174 64.043 194.427 65.4671 195.84 66.7218C197.624 68.2918 199.633 69.5861 201.8 70.5618ZM205 50.0018C204.977 48.2612 205.39 46.5425 206.2 45.0018C206.999 43.4955 208.209 42.247 209.69 41.4018C211.323 40.5222 213.15 40.0617 215.005 40.0617C216.86 40.0617 218.687 40.5222 220.32 41.4018C221.581 42.1357 222.645 43.1653 223.42 44.4018C223.55 44.6118 223.69 44.8118 223.81 45.0318C223.981 45.3555 224.131 45.6895 224.26 46.0318C224.502 46.6494 224.683 47.2891 224.8 47.9418C224.931 48.6207 224.998 49.3104 225 50.0018C225 50.0618 225 50.1218 225 50.1818C225.045 51.4922 224.815 52.7974 224.323 54.0131C223.832 55.2287 223.092 56.3278 222.149 57.2392C221.207 58.1506 220.083 58.8541 218.852 59.3041C217.62 59.7542 216.308 59.9408 215 59.8518H214.73C213.964 59.8405 213.201 59.7601 212.45 59.6118C211.803 59.4805 211.17 59.2862 210.56 59.0318C210.001 58.798 209.468 58.5064 208.97 58.1618C208.499 57.8192 208.064 57.4306 207.67 57.0018C206.786 56.0684 206.095 54.9695 205.637 53.7682C205.178 52.5669 204.962 51.287 205 50.0018Z" fill="white"/>
<path d="M322.87 71.8718V43.8718C322.87 38.6618 321.87 34.6318 319.82 31.7618C317.353 28.2618 313.377 26.5085 307.89 26.5018C304.871 26.4912 301.899 27.2446 299.25 28.6918C296.801 30.0048 294.758 31.962 293.34 34.3518C293.23 34.5318 293.12 34.7118 293.02 34.8918C292.569 34.0696 292.054 33.2838 291.48 32.5418C288.4 28.5418 283.92 26.5418 278.04 26.5418C273.738 26.447 269.571 28.0491 266.44 31.0018C265.615 31.7671 264.856 32.6 264.17 33.4918H264V28.0018H248.45V71.8718H264V50.8718C263.911 47.8694 264.317 44.8728 265.2 42.0018C265.99 39.7418 267.91 38.6118 270.94 38.6118C273.97 38.6118 275.7 39.6118 276.55 41.7318C276.55 41.8218 276.64 41.9118 276.67 42.0018C276.874 42.5782 277.044 43.1659 277.18 43.7618C277.368 44.57 277.512 45.3879 277.61 46.2118C277.72 47.1218 277.8 48.1018 277.84 49.1518C277.84 49.7218 277.84 50.3018 277.84 50.9118V71.9118H293.4V50.9118C293.289 47.9489 293.747 44.9922 294.75 42.2018C295.657 40.0352 297.69 38.9485 300.85 38.9418C303.48 38.9418 305.19 39.9418 306 41.9418C306.058 42.055 306.108 42.1719 306.15 42.2918C306.34 42.8623 306.497 43.4433 306.62 44.0318C306.805 44.8632 306.942 45.7046 307.03 46.5518C307.14 47.5518 307.22 48.5518 307.25 49.6018C307.25 50.0218 307.25 50.4618 307.25 50.9018V71.9018H322.81L322.87 71.8718Z" fill="white"/>
<path d="M420.65 71.8718L397.31 9.8718L396.36 7.3418H378L353.2 71.8418H371L375.45 60.6318H398.54L399.49 63.1518L400.43 65.6718L401.43 68.2018L402.37 70.7218L402.79 71.8418H420.67L420.65 71.8718ZM387 27.3018H387.16L388.75 32.0018L390.38 36.9018L392.01 41.8018L393.64 46.6918L394.04 47.8818H380.1L387 27.3018Z" fill="white"/>
<path d="M441.1 71.8718V54.1618C441.1 49.9751 441.893 46.7152 443.48 44.3818C445.067 42.0485 447.867 40.8885 451.88 40.9018C454.169 40.8156 456.441 41.3183 458.48 42.3618V27.3618H455.48C450.407 27.3618 446.43 28.9151 443.55 32.0218C442.67 32.9696 441.907 34.0206 441.28 35.1518H441.11V28.0018H425.54V71.8718H441.1Z" fill="white"/>
<path d="M481.31 71.872V40.812H490.13V30.512V27.992H488.61H486.18H483.74H481.31V17.332V14.812H465.75V27.992H460.72V29.912V40.812H460.91H463.15H465.75V43.342V45.862V49.922V51.502V71.872H468.18H481.31Z" fill="white"/>
<path d="M513.81 71.1219C517.925 72.7552 522.313 73.5901 526.74 73.5819C528.864 73.5998 530.983 73.3852 533.06 72.9419C534.993 72.5152 537.823 71.7352 541.55 70.6019V50.4819C539.758 52.599 537.531 54.3045 535.02 55.4819C532.548 56.6797 529.837 57.3052 527.09 57.3119C524.793 57.3327 522.51 56.9433 520.35 56.1619C519.76 55.9319 519.18 55.6819 518.61 55.3919L518 55.0719C517.67 54.8819 517.38 54.6619 517.06 54.4619C516.538 54.1145 516.034 53.7407 515.55 53.3419C514.036 52.0833 512.774 50.5496 511.83 48.8219C510.333 46.0438 509.575 42.9273 509.63 39.7719C509.598 36.6385 510.343 33.5462 511.8 30.7719C513.188 28.0873 515.297 25.8432 517.89 24.2919C520.591 22.6926 523.682 21.8723 526.82 21.9219C529.686 21.9108 532.518 22.5394 535.11 23.7619C537.49 24.873 539.573 26.5315 541.19 28.6019C541.31 28.7419 541.44 28.8719 541.55 29.0219V8.90187C536.71 6.82438 531.507 5.72331 526.24 5.66187C523.221 5.66535 520.216 6.08257 517.31 6.90187C514.35 7.72858 511.51 8.93529 508.86 10.4919C506.227 12.0251 503.812 13.9052 501.68 16.0819C498.637 19.2247 496.242 22.9351 494.63 27.0019C493.843 28.9419 493.237 30.9504 492.82 33.0019C492.72 33.5019 492.63 34.0019 492.56 34.5219C492.299 36.2261 492.168 37.9478 492.17 39.6719C492.17 40.9119 492.23 42.1219 492.33 43.3019C492.41 44.1519 492.52 44.9919 492.65 45.8219C492.78 46.6519 492.95 47.5219 493.15 48.3419C493.35 49.1619 493.6 50.0419 493.87 50.8719C495.485 55.7656 498.325 60.165 502.12 63.6519L502.53 64.0419C505.83 67.0659 509.652 69.4649 513.81 71.1219Z" fill="white"/>
<path d="M559.14 70.1319C562.555 72.2765 566.518 73.3878 570.55 73.3319C573.199 73.3477 575.82 72.7988 578.24 71.7219C580.533 70.7561 582.479 69.1172 583.82 67.0219H584V71.8719H599.56V28.0019H584V32.2819C582.383 30.3824 580.322 28.9122 578 28.0019C575.582 27.0139 572.992 26.511 570.38 26.5219C567.394 26.488 564.435 27.0892 561.699 28.2857C558.963 29.4821 556.512 31.2465 554.51 33.4619C553.237 34.8719 552.149 36.4378 551.27 38.1219C551.16 38.3119 551.04 38.5119 550.94 38.7119C550.587 39.4584 550.273 40.2228 550 41.0019C548.935 43.851 548.396 46.8701 548.41 49.9119C548.388 53.7467 549.261 57.5337 550.96 60.9719C551.06 61.1719 551.15 61.3719 551.25 61.5619L551.31 61.6619C552.558 64.0319 554.225 66.1562 556.23 67.9319C557.141 68.7405 558.114 69.4761 559.14 70.1319ZM564.46 50.0019C564.437 48.2613 564.85 46.5426 565.66 45.0019C566.461 43.4941 567.675 42.2455 569.16 41.4019C570.799 40.5222 572.63 40.0618 574.49 40.0618C576.35 40.0618 578.181 40.5222 579.82 41.4019C581.085 42.1312 582.15 43.1617 582.92 44.4019C583.062 44.601 583.192 44.808 583.31 45.0219C583.481 45.3456 583.631 45.6795 583.76 46.0219C584.004 46.643 584.188 47.2859 584.31 47.9419C584.438 48.6279 584.505 49.324 584.51 50.0219V50.2019C584.553 51.5118 584.322 52.8163 583.83 54.0312C583.339 55.2462 582.598 56.3446 581.656 57.2557C580.713 58.1668 579.591 58.8703 578.36 59.3209C577.129 59.7715 575.818 59.9592 574.51 59.8719H574.23C573.465 59.8555 572.702 59.7752 571.95 59.6319C571.28 59.4882 570.627 59.2771 570 59.0019C569.441 58.768 568.908 58.4764 568.41 58.1319C567.956 57.799 567.537 57.4203 567.16 57.0019C566.269 56.0718 565.572 54.9742 565.108 53.7726C564.645 52.571 564.424 51.2893 564.46 50.0019Z" fill="white"/>
<path d="M625 93.782V67.682C626.626 69.5589 628.686 71.0109 631 71.912C633.401 72.857 635.96 73.3389 638.54 73.332C641.574 73.3599 644.58 72.7465 647.36 71.532C650.021 70.3529 652.406 68.6292 654.36 66.472C656.35 64.2975 657.905 61.7617 658.94 59.002C661.08 53.2204 661.08 46.8636 658.94 41.082C658.01 38.6321 656.679 36.3542 655 34.342C654.78 34.082 654.57 33.802 654.34 33.542C652.356 31.3583 649.942 29.6083 647.25 28.402C644.46 27.1441 641.43 26.5061 638.37 26.532C635.727 26.5097 633.112 27.0696 630.71 28.172C629.417 28.7598 628.225 29.5497 627.18 30.512C626.391 31.2319 625.695 32.0484 625.11 32.942H625V28.002H609.39V93.782H625ZM624.43 50.002C624.407 48.2614 624.82 46.5427 625.63 45.002C626.429 43.4956 627.639 42.2472 629.12 41.402C630.755 40.5224 632.583 40.0619 634.44 40.0619C636.297 40.0619 638.125 40.5224 639.76 41.402C641.021 42.1359 642.085 43.1655 642.86 44.402C642.99 44.612 643.14 44.822 643.26 45.052C643.428 45.3755 643.575 45.7096 643.7 46.052C643.944 46.6732 644.128 47.316 644.25 47.972C644.387 48.657 644.457 49.3535 644.46 50.052C644.46 50.112 644.46 50.172 644.46 50.232C644.503 51.5419 644.272 52.8464 643.78 54.0614C643.289 55.2763 642.548 56.3748 641.606 57.2859C640.663 58.1969 639.541 58.9005 638.31 59.3511C637.079 59.8017 635.768 59.9894 634.46 59.902H634.2C633.434 59.8906 632.671 59.8103 631.92 59.662C631.26 59.5046 630.617 59.2836 630 59.002C629.446 58.7656 628.916 58.4742 628.42 58.132C627.951 57.7988 627.515 57.4203 627.12 57.002C626.232 56.0702 625.538 54.972 625.076 53.7707C624.614 52.5693 624.395 51.2885 624.43 50.002Z" fill="white"/>
<path d="M665.3 68.282L665.46 68.372C666.37 68.922 667.29 69.372 668.22 69.872C672.81 72.1602 677.871 73.345 683 73.332C686.443 73.3577 689.864 72.7684 693.1 71.5919C696.113 70.5272 698.769 68.6433 700.77 66.152C702.804 63.5359 703.864 60.2941 703.77 56.982C703.852 54.4782 703.153 52.011 701.77 49.922C701.051 48.8893 700.162 47.9865 699.14 47.252C697.721 46.2327 696.152 45.4399 694.49 44.902C693.349 44.5217 692.183 44.221 691 44.002L689.4 43.692L688.75 43.572C688.008 43.4311 687.279 43.2304 686.57 42.972L686.42 42.902C685.789 42.686 685.208 42.346 684.71 41.902C684.47 41.6809 684.281 41.4115 684.153 41.1115C684.025 40.8115 683.963 40.4879 683.97 40.162C683.972 39.6716 684.124 39.1936 684.407 38.7929C684.69 38.3922 685.089 38.0881 685.55 37.922C686.584 37.4307 687.715 37.1778 688.86 37.182C691.787 37.1828 694.668 37.915 697.24 39.312L701.75 30.722L702.45 29.392C697.893 27.4182 692.966 26.443 688 26.532C684.764 26.5077 681.553 27.0877 678.53 28.242C675.713 29.2876 673.239 31.0905 671.38 33.452C669.511 35.9434 668.551 38.9994 668.66 42.112C668.66 45.6586 669.54 48.272 671.3 49.952C671.689 50.3141 672.104 50.6482 672.54 50.952C674.313 52.2018 676.304 53.1106 678.41 53.632L683.56 54.812C684.742 55.0603 685.876 55.4958 686.92 56.102C687.251 56.3071 687.531 56.5847 687.739 56.9138C687.947 57.243 688.077 57.615 688.12 58.002C688.136 58.1649 688.136 58.329 688.12 58.492C688.122 58.9203 688.019 59.3425 687.82 59.722C687.559 60.2573 687.145 60.7028 686.63 61.002C686.426 61.1141 686.216 61.2143 686 61.302C685.195 61.6548 684.329 61.8451 683.45 61.862H683.3C681.154 61.7907 679.037 61.3369 677.05 60.522C674.916 59.7365 672.884 58.6956 671 57.422L670.25 58.862L666.35 66.3419L665.3 68.282Z" fill="white"/>
<path d="M723.4 73.5818C725.157 73.5909 726.883 73.1281 728.4 72.2418C729.92 71.3731 731.183 70.1172 732.06 68.6018C732.938 67.0709 733.4 65.3367 733.4 63.5718C733.4 61.8069 732.938 60.0728 732.06 58.5418C731.95 58.3518 731.81 58.1718 731.69 57.9918C731.57 57.8118 731.5 57.6918 731.4 57.5518C730.648 56.5325 729.708 55.6668 728.63 55.0018L728.45 54.8818C726.917 53.9922 725.172 53.5327 723.4 53.5518C722.323 53.5521 721.253 53.7242 720.23 54.0618C719.579 54.2683 718.953 54.5432 718.36 54.8818C716.833 55.7565 715.565 57.0209 714.687 58.546C713.808 60.071 713.35 61.8019 713.36 63.5618C713.346 65.3177 713.806 67.0448 714.69 68.5618C715.396 69.7714 716.35 70.8176 717.49 71.6318C717.763 71.8367 718.047 72.0269 718.34 72.2018C719.87 73.113 721.619 73.5901 723.4 73.5818Z" fill="white"/>
<path d="M731.54 49.9818V9.90183V7.37183H715.37V49.9818H717.8H731.54Z" fill="white"/>
</svg>
