<svg width="576" height="99" viewBox="0 0 576 99" fill="none" xmlns="http://www.w3.org/2000/svg">
<path d="M26.5 11.7671H24.07V26.5671H26.5V11.7671Z" fill="#FF4681"/>
<path d="M50.71 73.7371V76.2671H67.48V54.6671C65.8757 51.4348 65.0699 47.8651 65.13 44.2571C65.0721 40.6462 65.8778 37.0737 67.48 33.8371V11.7671H65.05V73.7671L50.71 73.7371Z" fill="#FF4681"/>
<path d="M24.07 47.3169V73.7369H9.72998V76.2669H26.5V49.8369H40.98V47.3169H24.07Z" fill="#FF4681"/>
<path d="M93.53 43.2469C92.0357 44.0834 90.8112 45.3288 90 46.8369C89.1926 48.3787 88.7802 50.0967 88.8 51.8369C88.8011 52.5072 88.858 53.1761 88.97 53.8369C89.7211 53.9863 90.4843 54.0667 91.25 54.0769C91.2599 52.4255 91.6645 50.8003 92.43 49.3369C93.255 47.8307 94.4937 46.592 96 45.7669C97.6211 44.8512 99.4586 44.3884 101.32 44.4269H101.59V44.2469C101.585 43.5458 101.518 42.8464 101.39 42.1569C100.55 41.9985 99.6947 41.9314 98.84 41.9569C96.9863 41.903 95.1523 42.3486 93.53 43.2469Z" fill="#FF4681"/>
<path d="M125.27 51.8271C125.368 56.2567 124.119 60.6118 121.69 64.3171C119.283 67.8746 115.926 70.6847 112 72.4271C107.843 74.2537 103.351 75.197 98.81 75.197C94.269 75.197 89.7775 74.2537 85.62 72.4271C83.4691 71.4442 81.4744 70.1504 79.7 68.5871C81.9725 71.3244 84.8428 73.5036 88.09 74.9571C92.2457 76.7903 96.7379 77.7371 101.28 77.7371C105.822 77.7371 110.314 76.7903 114.47 74.9571C118.384 73.2185 121.729 70.411 124.12 66.8571C126.546 63.1463 127.793 58.7893 127.7 54.3571C127.797 49.9181 126.549 45.5535 124.12 41.8371C123.047 40.2405 121.773 38.7885 120.33 37.5171C120.8 38.0871 121.26 38.6871 121.69 39.3171C124.117 43.0307 125.365 47.3915 125.27 51.8271Z" fill="#FF4681"/>
<path d="M181.93 73.737L183.07 76.267H193.16L216.09 32.377H212.34L190.73 73.737H181.93Z" fill="#FF4681"/>
<path d="M149.37 40.567L145.6 32.377H144.33L148.73 41.937L149.37 40.567Z" fill="#FF4681"/>
<path d="M180.65 40.617L176.82 32.377H175.56L180.02 41.977L180.65 40.617Z" fill="#FF4681"/>
<path d="M158.91 73.7368H149.92L151.24 76.2668H161.35L169.63 57.9368L167.84 53.9868L158.91 73.7368Z" fill="#FF4681"/>
<path d="M278.84 22.2868V24.8068H279.76V19.1968H277.32V22.2868H278.84Z" fill="#FF4681"/>
<path d="M280.62 42.6772H277.32V73.7372H264.19V76.2672H279.76V45.2072H280.6C280.6 44.8872 280.6 44.5772 280.6 44.2072C280.57 43.7272 280.59 43.1972 280.62 42.6772Z" fill="#FF4681"/>
<path d="M309 43.2472C307.521 44.0897 306.31 45.3345 305.51 46.8372C304.703 48.379 304.29 50.0969 304.31 51.8372C304.308 52.5072 304.361 53.1761 304.47 53.8372C305.221 53.9855 305.984 54.0658 306.75 54.0772C306.768 52.4256 307.176 50.8015 307.94 49.3372C308.739 47.8308 309.949 46.5824 311.43 45.7372C313.051 44.8206 314.888 44.3577 316.75 44.3972H317.01C317.015 44.3373 317.015 44.2771 317.01 44.2172C317.007 43.5155 316.936 42.8156 316.8 42.1272C315.979 41.9475 315.141 41.857 314.3 41.8572C312.44 41.8345 310.609 42.3148 309 43.2472Z" fill="#FF4681"/>
<path d="M335.78 37.5068C336.26 38.0837 336.711 38.6844 337.13 39.3068C339.568 43.02 340.819 47.3862 340.72 51.8268C340.819 56.2581 339.567 60.6145 337.13 64.3168C334.74 67.8704 331.4 70.6807 327.49 72.4268C323.333 74.2535 318.841 75.1967 314.3 75.1967C309.759 75.1967 305.267 74.2535 301.11 72.4268C298.959 71.444 296.964 70.1501 295.19 68.5868C297.451 71.3192 300.307 73.4982 303.54 74.9568C307.696 76.7901 312.188 77.7369 316.73 77.7369C321.272 77.7369 325.764 76.7901 329.92 74.9568C333.833 73.2154 337.177 70.4085 339.57 66.8568C341.996 63.146 343.243 58.789 343.15 54.3568C343.247 49.9179 341.999 45.5533 339.57 41.8368C338.498 40.2367 337.224 38.7814 335.78 37.5068Z" fill="#FF4681"/>
<path d="M438.7 69.457C438.7 78.537 436.543 85.1737 432.23 89.367C427.917 93.5604 421.583 95.6537 413.23 95.647C409.52 95.6231 405.838 94.9949 402.33 93.787C399.207 92.7502 396.319 91.109 393.83 88.957C394.292 89.5441 394.789 90.1018 395.32 90.627C398.021 93.2058 401.268 95.1437 404.82 96.297C408.325 97.5057 412.003 98.134 415.71 98.157C424.043 98.157 430.377 96.0604 434.71 91.867C439.043 87.6737 441.183 81.037 441.13 71.957V56.817C440.025 54.9996 439.205 53.0232 438.7 50.957V69.457Z" fill="#FF4681"/>
<path d="M408.31 42.9569C406.823 43.806 405.608 45.0618 404.81 46.5769C404 48.1178 403.588 49.8364 403.61 51.5769C403.607 52.2469 403.66 52.916 403.77 53.5769C404.521 53.7252 405.284 53.8056 406.05 53.8169C406.073 52.1787 406.481 50.5688 407.24 49.1169C408.037 47.6032 409.252 46.3502 410.74 45.5069C412.363 44.5881 414.205 44.1251 416.07 44.1669H416.35C416.35 44.0969 416.35 44.0369 416.35 43.9769C416.347 43.2785 416.277 42.5819 416.14 41.8969C415.315 41.7178 414.474 41.6273 413.63 41.6269C411.77 41.5868 409.933 42.0461 408.31 42.9569Z" fill="#FF4681"/>
<path d="M440.67 32.377H438.67V37.527C439.121 35.7341 439.793 34.0042 440.67 32.377Z" fill="#FF4681"/>
<path d="M398.78 72.1069C399.093 72.7755 399.555 73.3638 400.13 73.8269H400.9C400.969 74.0678 401.059 74.3021 401.17 74.5269L401.37 74.6469C402.758 75.3149 404.28 75.6569 405.82 75.6469C407.791 75.7334 409.751 75.3206 411.52 74.4469C407.134 74.9199 402.706 74.0996 398.78 72.0869V72.1069Z" fill="#FF4681"/>
<path d="M394.93 69.457C395.457 70.109 396.025 70.7269 396.63 71.307H397.41C396.538 70.7529 395.709 70.1345 394.93 69.457Z" fill="#FF4681"/>
<path d="M492.14 62.6772C491.302 64.8492 490.034 66.829 488.41 68.4972C486.173 70.7832 483.434 72.5158 480.41 73.5572C477.26 74.6562 473.946 75.2107 470.61 75.1972C466.093 75.2796 461.614 74.3538 457.5 72.4872C455.691 71.6412 454.008 70.5474 452.5 69.2372C454.504 71.702 457.046 73.6757 459.93 75.0072C464.044 76.877 468.522 77.8061 473.04 77.7272C476.38 77.7424 479.698 77.1843 482.85 76.0772C485.874 75.0407 488.614 73.3113 490.85 71.0272C492.648 69.1872 494.014 66.9704 494.85 64.5372V62.6772H492.14Z" fill="#FF4681"/>
<path d="M493.52 52.767V54.397H485.1C485.02 54.637 484.93 54.877 484.84 55.107H488.08C487.92 55.737 487.74 56.337 487.53 56.917H494.81V46.697C494.66 46.177 494.53 45.697 494.35 45.167C493.361 42.2872 491.753 39.6589 489.64 37.467C489.27 37.087 488.87 36.737 488.47 36.397C489.962 38.2687 491.128 40.3781 491.92 42.637C493.028 45.8973 493.57 49.3237 493.52 52.767Z" fill="#FF4681"/>
<path d="M460.9 56.437C461.671 56.5519 462.45 56.6088 463.23 56.607C464.327 56.6564 465.423 56.4864 466.453 56.1069C467.483 55.7274 468.427 55.1461 469.23 54.397H460.75C460.758 55.0794 460.808 55.7608 460.9 56.437Z" fill="#FF4681"/>
<path d="M526.48 42.677H517.67V73.737H504.54V76.267H520.1V45.207H528.92V32.377H526.48V42.677Z" fill="#FF4681"/>
<path d="M519.19 22.2868V24.8068H520.1V19.1968H517.67V22.2868H519.19Z" fill="#FF4681"/>
<path d="M545.31 24.2971C544.935 25.1514 544.715 26.0656 544.66 26.9971C545.162 26.7501 545.646 26.4695 546.11 26.1571C546.989 25.6241 547.742 24.9077 548.318 24.0569C548.895 23.206 549.281 22.2408 549.45 21.2271C548.707 21.3288 547.993 21.5806 547.35 21.9671C546.454 22.5238 545.743 23.3349 545.31 24.2971Z" fill="#FF4681"/>
<path d="M573.78 22.087C572.549 19.6663 570.869 17.5013 568.83 15.707C569.799 16.9049 570.643 18.1982 571.35 19.567C572.652 22.0513 573.338 24.8122 573.35 27.617C573.397 30.518 572.709 33.3836 571.35 35.947C570.007 38.422 568.116 40.5565 565.82 42.187C563.382 43.916 560.68 45.2397 557.82 46.107V52.187H551.23L551.3 52.277C552.22 52.9456 553.019 53.7676 553.66 54.707H560.25V48.627C563.11 47.7631 565.811 46.4428 568.25 44.717C570.546 43.0831 572.438 40.9452 573.78 38.467C575.138 35.9068 575.826 33.0447 575.78 30.147C575.768 27.339 575.082 24.5749 573.78 22.087Z" fill="#FF4681"/>
<path d="M538.53 28.4472C540.137 28.453 541.732 28.172 543.24 27.6172H530.24C530.133 28.4566 530.073 29.3012 530.06 30.1472H534.98V28.0072C536.146 28.2714 537.335 28.4188 538.53 28.4472Z" fill="#FF4681"/>
<path d="M560.36 65.4569C560.374 67.2128 559.914 68.9399 559.03 70.4569C558.15 71.9696 556.888 73.2248 555.37 74.0969C553.85 74.9746 552.125 75.4367 550.37 75.4367C548.615 75.4367 546.89 74.9746 545.37 74.0969C545.06 73.9169 544.79 73.7269 544.51 73.5269C545.207 74.6431 546.116 75.6112 547.187 76.3759C548.258 77.1406 549.469 77.6868 550.751 77.9835C552.033 78.2802 553.361 78.3215 554.658 78.105C555.956 77.8886 557.199 77.4186 558.315 76.7219C559.431 76.0252 560.399 75.1155 561.164 74.0448C561.929 72.974 562.475 71.763 562.772 70.4811C563.068 69.1992 563.11 67.8714 562.893 66.5735C562.677 65.2757 562.207 64.0331 561.51 62.9169C560.8 61.7042 559.843 60.6548 558.7 59.8369C558.83 60.0269 558.96 60.1969 559.08 60.3969C559.954 61.9378 560.396 63.6858 560.36 65.4569Z" fill="#FF4681"/>
<path d="M21.64 26.5668H24.07V11.7668V9.23682H21.64V26.5668Z" fill="#FF74A1"/>
<path d="M24.07 47.3169H40.98V44.7969H21.64V71.2169H7.29999V73.7369H9.72999H24.07V47.3169Z" fill="#FF74A1"/>
<path d="M62.62 71.2168H48.28V73.7368H50.71H65.05V11.7668V9.23682H62.62V71.2168Z" fill="#FF74A1"/>
<path d="M119.25 36.787C121.686 40.5006 122.934 44.8672 122.83 49.307C122.931 53.7371 121.683 58.0933 119.25 61.797C116.863 65.3502 113.521 68.1577 109.61 69.897C105.454 71.7303 100.962 72.6771 96.42 72.6771C91.8779 72.6771 87.3857 71.7303 83.23 69.897C81.0738 68.9239 79.0777 67.6292 77.31 66.057C78.0525 66.9627 78.865 67.8087 79.74 68.587C81.5144 70.1503 83.5091 71.4442 85.66 72.427C89.8174 74.2537 94.309 75.1969 98.85 75.1969C103.391 75.1969 107.883 74.2537 112.04 72.427C115.951 70.6783 119.294 67.8688 121.69 64.317C124.119 60.6117 125.368 56.2567 125.27 51.827C125.367 47.3881 124.119 43.0235 121.69 39.307C121.26 38.677 120.8 38.077 120.33 37.507C119.585 36.5943 118.769 35.7417 117.89 34.957C118.377 35.5411 118.831 36.1521 119.25 36.787Z" fill="#FF74A1"/>
<path d="M91.1 40.727C89.6205 41.5695 88.4104 42.8143 87.61 44.317C86.8014 45.8583 86.389 47.5766 86.41 49.317C86.3871 50.6827 86.6247 52.0402 87.11 53.317C87.7225 53.5729 88.359 53.7672 89.01 53.897C88.898 53.2362 88.8411 52.5672 88.84 51.897C88.8203 50.1567 89.2326 48.4387 90.04 46.897C90.8404 45.3943 92.0505 44.1495 93.53 43.307C95.1464 42.3877 96.9808 41.9213 98.84 41.957C99.6839 41.9573 100.525 42.0479 101.35 42.227C101.229 41.574 101.045 40.9343 100.8 40.317C99.4156 39.7159 97.9192 39.4159 96.41 39.437C94.5557 39.377 92.7201 39.823 91.1 40.727Z" fill="#FF74A1"/>
<path d="M188.29 71.2169H179.5L180.64 73.7369H181.93H190.73L212.34 32.3769L213.66 29.8569H209.91L188.29 71.2169Z" fill="#FF74A1"/>
<path d="M167.84 53.9871L166.05 50.0371L156.48 71.2171H147.49L148.81 73.7371H149.92H158.91L167.84 53.9871Z" fill="#FF74A1"/>
<path d="M179.39 43.3369L180.02 41.9769L175.56 32.3769L174.39 29.8569H173.13L179.39 43.3369Z" fill="#FF74A1"/>
<path d="M148.09 43.3069L148.73 41.9369L144.33 32.3769L143.17 29.8569H141.9L148.09 43.3069Z" fill="#FF74A1"/>
<path d="M277.32 42.6772H280.62C280.67 41.8172 280.77 40.9772 280.9 40.1572H274.9V71.2172H261.76V73.7372H277.32V42.6772Z" fill="#FF74A1"/>
<path d="M283.71 32.4569C283.85 32.2069 284 31.9669 284.15 31.7269C284.6 31.0669 285.07 30.4569 285.57 29.8569H283.71V32.4569Z" fill="#FF74A1"/>
<path d="M274.89 22.2872H277.32V19.1972V16.6772H274.89V22.2872Z" fill="#FF74A1"/>
<path d="M314.3 75.197C318.846 75.2422 323.347 74.2969 327.49 72.427C331.4 70.6809 334.74 67.8706 337.13 64.317C339.567 60.6147 340.819 56.2583 340.72 51.827C340.819 47.3864 339.568 43.0202 337.13 39.307C336.052 37.7056 334.779 36.2444 333.34 34.957C333.827 35.5347 334.281 36.1389 334.7 36.767C337.136 40.4806 338.384 44.8472 338.28 49.287C338.381 53.7171 337.133 58.0733 334.7 61.777C332.313 65.3302 328.971 68.1377 325.06 69.877C320.904 71.7103 316.412 72.6571 311.87 72.6571C307.328 72.6571 302.836 71.7103 298.68 69.877C296.524 68.9039 294.528 67.6092 292.76 66.037C293.5 66.9451 294.312 67.7913 295.19 68.567C296.964 70.1303 298.959 71.4242 301.11 72.407C305.251 74.286 309.753 75.2381 314.3 75.197Z" fill="#FF74A1"/>
<path d="M306.55 40.727C305.07 41.5695 303.86 42.8143 303.06 44.317C302.251 45.8583 301.839 47.5766 301.86 49.317C301.837 50.6827 302.075 52.0402 302.56 53.317C303.17 53.5714 303.803 53.7656 304.45 53.897C304.341 53.2359 304.288 52.5669 304.29 51.897C304.27 50.1567 304.683 48.4387 305.49 46.897C306.287 45.3695 307.505 44.1026 309 43.247C310.616 42.3512 312.443 41.9057 314.29 41.957C315.131 41.9568 315.969 42.0473 316.79 42.227C316.677 41.5732 316.496 40.933 316.25 40.317C314.866 39.7159 313.369 39.4159 311.86 39.437C310.006 39.377 308.17 39.823 306.55 40.727Z" fill="#FF74A1"/>
<path d="M405.88 40.3869C404.392 41.2302 403.177 42.4832 402.38 43.9969C401.565 45.5361 401.149 47.2552 401.17 48.9969C401.15 50.3615 401.384 51.7179 401.86 52.9969C402.475 53.2591 403.115 53.4568 403.77 53.5869C403.66 52.9259 403.607 52.2569 403.61 51.5869C403.588 49.8463 404 48.1277 404.81 46.5869C405.608 45.0718 406.823 43.816 408.31 42.9669C409.936 42.0543 411.776 41.595 413.64 41.6369C414.484 41.6373 415.325 41.7278 416.15 41.9069C416.037 41.2531 415.856 40.6129 415.61 39.9969C414.222 39.3936 412.723 39.0903 411.21 39.1069C409.351 39.0502 407.511 39.4922 405.88 40.3869Z" fill="#FF74A1"/>
<path d="M398.46 71.3071C398.546 71.5816 398.653 71.8491 398.78 72.1071C402.706 74.1197 407.134 74.9401 411.52 74.4671C412.416 73.9934 413.182 73.3065 413.75 72.4671C414.149 71.8356 414.484 71.1655 414.75 70.4671C414.6 70.5271 414.46 70.6171 414.32 70.6771C411.933 71.6855 409.361 72.1828 406.77 72.1371C402.828 72.2022 398.944 71.1853 395.54 69.1971C394.477 68.5539 393.473 67.8177 392.54 66.9971C393.935 68.7083 395.596 70.1839 397.46 71.3671L398.46 71.3071Z" fill="#FF74A1"/>
<path d="M413.28 95.6469C421.6 95.6469 427.933 93.5536 432.28 89.3669C436.627 85.1803 438.767 78.5436 438.7 69.4569V50.9569C438.165 48.7676 437.903 46.5206 437.92 44.2669C437.905 42.0002 438.167 39.7402 438.7 37.5369V29.8569H436.26V66.9569C436.26 76.0369 434.107 82.6703 429.8 86.8569C425.493 91.0436 419.16 93.1403 410.8 93.1469C407.122 93.1059 403.475 92.4711 400 91.2669C396.863 90.238 393.958 88.6038 391.45 86.4569C391.908 87.0434 392.406 87.598 392.94 88.1169C393.25 88.4169 393.56 88.6969 393.88 88.9769C396.386 91.1275 399.291 92.7621 402.43 93.7869C405.922 94.9894 409.587 95.6176 413.28 95.6469Z" fill="#FF74A1"/>
<path d="M489.48 40.1172C490.598 43.3755 491.142 46.8029 491.09 50.2472V51.8772H458.34C458.319 53.2577 458.508 54.6333 458.9 55.9572C459.55 56.178 460.22 56.3354 460.9 56.4272C460.816 55.7638 460.773 55.0959 460.77 54.4272H469.25C469.8 53.888 470.277 53.2796 470.67 52.6172H485.67C485.52 53.2372 485.33 53.8372 485.13 54.4272H493.55V52.7672C493.6 49.3239 493.059 45.8976 491.95 42.6372C491.158 40.3784 489.992 38.2689 488.5 36.3972C488.097 35.8939 487.666 35.4132 487.21 34.9572C486.84 34.5772 486.44 34.2372 486.04 33.8872C487.525 35.7583 488.688 37.8638 489.48 40.1172Z" fill="#FF74A1"/>
<path d="M461.81 37.7571L461.7 37.8471H471.77C471.703 37.4493 471.603 37.0579 471.47 36.6771C470.315 36.1913 469.073 35.9463 467.82 35.9571C465.675 35.8968 463.568 36.5279 461.81 37.7571Z" fill="#FF74A1"/>
<path d="M470.62 75.1972C473.956 75.2107 477.27 74.6561 480.42 73.5572C483.444 72.5157 486.183 70.7832 488.42 68.4972C490.043 66.8289 491.312 64.8492 492.15 62.6772C492.473 61.8563 492.741 61.0143 492.95 60.1572H489.72C488.881 62.3201 487.616 64.2924 486 65.9572C483.756 68.22 481.017 69.9315 478 70.9572C474.852 72.0633 471.537 72.6214 468.2 72.6072C463.684 72.7147 459.201 71.8092 455.08 69.9572C453.271 69.1152 451.588 68.0247 450.08 66.7172C450.818 67.6271 451.634 68.4703 452.52 69.2372C454.028 70.5474 455.711 71.6412 457.52 72.4872C461.631 74.3524 466.106 75.2781 470.62 75.1972Z" fill="#FF74A1"/>
<path d="M515.24 22.2872H517.67V19.1972V16.6772H515.24V22.2872Z" fill="#FF74A1"/>
<path d="M517.67 42.6769H526.48V32.3769V29.8569H524.05V40.1569H515.24V71.2169H502.11V73.7369H504.54H517.67V42.6769Z" fill="#FF74A1"/>
<path d="M557.93 62.9571C557.942 64.714 557.479 66.4415 556.59 67.9571C555.933 69.0962 555.057 70.0944 554.013 70.8945C552.969 71.6946 551.778 72.281 550.507 72.62C549.236 72.9591 547.911 73.0441 546.608 72.8703C545.304 72.6965 544.047 72.2673 542.91 71.6072C542.61 71.4272 542.33 71.2271 542.06 71.0271C542.71 72.0106 543.534 72.8678 544.49 73.5571C544.77 73.7571 545.04 73.9471 545.35 74.1271C546.87 75.0048 548.595 75.4669 550.35 75.4669C552.105 75.4669 553.83 75.0048 555.35 74.1271C556.866 73.2481 558.125 71.9859 559 70.4672C559.871 68.9339 560.329 67.2007 560.329 65.4372C560.329 63.6736 559.871 61.9404 559 60.4072C558.88 60.2072 558.75 60.0371 558.62 59.8471C557.969 58.8669 557.146 58.013 556.19 57.3271C556.32 57.5171 556.45 57.6871 556.56 57.8871C557.467 59.4222 557.94 61.1744 557.93 62.9571Z" fill="#FF74A1"/>
<path d="M544.66 26.9568C544.715 26.0254 544.935 25.1112 545.31 24.2568C545.733 23.3002 546.428 22.4896 547.31 21.9268C547.953 21.5403 548.667 21.2886 549.41 21.1868C549.478 20.7701 549.514 20.349 549.52 19.9268C549.519 19.5078 549.483 19.0896 549.41 18.6768C548.992 18.5959 548.566 18.5557 548.14 18.5568C546.995 18.5263 545.864 18.8211 544.88 19.4068C543.994 19.9645 543.297 20.7766 542.88 21.7368C542.419 22.7822 542.187 23.9143 542.2 25.0568H527.77C527.664 25.8929 527.604 26.7342 527.59 27.5768H543.24C543.724 27.395 544.198 27.188 544.66 26.9568Z" fill="#FF74A1"/>
<path d="M568.92 17.0468C570.223 19.531 570.908 22.2919 570.92 25.0968C570.962 27.9941 570.274 30.8553 568.92 33.4168C567.58 35.8993 565.684 38.0384 563.38 39.6668C560.961 41.3945 558.275 42.7152 555.43 43.5768V49.6568H548.76C549.745 50.3386 550.596 51.1963 551.27 52.1868H557.86V46.1068C560.72 45.2395 563.422 43.9158 565.86 42.1868C568.147 40.5569 570.032 38.426 571.37 35.9568C572.729 33.3934 573.417 30.5278 573.37 27.6268C573.35 24.8389 572.664 22.0961 571.37 19.6268C570.663 18.258 569.819 16.9646 568.85 15.7668C568.107 14.8586 567.291 14.0125 566.41 13.2368C567.375 14.4174 568.216 15.6941 568.92 17.0468Z" fill="#FF74A1"/>
<path d="M60.19 68.6868H45.84V71.2168H48.28H62.62V9.2368V6.7168H60.19V68.6868Z" fill="#FFA3C0"/>
<path d="M19.2 26.5668H21.64V9.2368V6.7168H19.2V26.5668Z" fill="#FFA3C0"/>
<path d="M21.64 71.2171V44.7971H40.98V42.2671H19.2V68.6871H4.87V71.2171H7.3H21.64Z" fill="#FFA3C0"/>
<path d="M116.82 34.257C119.253 37.9719 120.501 42.3376 120.4 46.777C120.502 51.2103 119.253 55.5696 116.82 59.277C114.43 62.828 111.09 65.6349 107.18 67.377C103.024 69.2102 98.5321 70.1571 93.99 70.1571C89.4479 70.1571 84.9557 69.2102 80.8 67.377C78.6458 66.4001 76.6503 65.1057 74.88 63.537C75.6173 64.4442 76.4302 65.2872 77.31 66.057C79.0777 67.6291 81.0738 68.9239 83.23 69.897C87.3857 71.7303 91.8779 72.6771 96.42 72.6771C100.962 72.6771 105.454 71.7303 109.61 69.897C113.521 68.1577 116.863 65.3502 119.25 61.797C121.683 58.0933 122.931 53.7371 122.83 49.307C122.934 44.8671 121.686 40.5006 119.25 36.787C118.831 36.1521 118.377 35.5411 117.89 34.957C117.153 34.0498 116.34 33.2068 115.46 32.437C115.945 33.0196 116.399 33.6271 116.82 34.257Z" fill="#FFA3C0"/>
<path d="M94 36.857C92.1386 36.8185 90.3011 37.2813 88.68 38.197C87.2028 39.0437 85.9961 40.292 85.2 41.797C84.3898 43.3377 83.9773 45.0564 84 46.797C83.9487 48.7842 84.4843 50.7425 85.54 52.427C86.0383 52.7716 86.5712 53.0631 87.13 53.297C86.6447 52.0202 86.4071 50.6627 86.43 49.297C86.409 47.5566 86.8214 45.8383 87.63 44.297C88.4304 42.7943 89.6405 41.5495 91.12 40.707C92.7352 39.7856 94.5711 39.3223 96.43 39.367C97.9392 39.3459 99.4356 39.6459 100.82 40.247C100.689 39.9056 100.538 39.5717 100.37 39.247C100.251 39.0337 100.121 38.8267 99.98 38.627C99.76 38.477 99.55 38.317 99.32 38.177C97.697 37.2683 95.8596 36.8124 94 36.857Z" fill="#FFA3C0"/>
<path d="M178.76 44.6969L179.39 43.3369L173.13 29.8569L171.96 27.3369H170.7L178.76 44.6969Z" fill="#FFA3C0"/>
<path d="M185.86 68.6869H177.07L178.21 71.2169H179.5H188.29L209.91 29.8569L211.23 27.3369H207.48L185.86 68.6869Z" fill="#FFA3C0"/>
<path d="M147.45 44.6869L148.09 43.3069L141.9 29.8569L140.74 27.3369H139.46L147.45 44.6869Z" fill="#FFA3C0"/>
<path d="M156.48 71.2169L166.05 50.0369L164.27 46.0869L154.05 68.6869H145.06L146.37 71.2169H147.49H156.48Z" fill="#FFA3C0"/>
<path d="M254.47 37.6372H254.3V40.1572H254.47V37.6372Z" fill="#FFA3C0"/>
<path d="M272.46 22.2872H274.89V16.6772V14.1572H272.46V22.2872Z" fill="#FFA3C0"/>
<path d="M274.89 71.2169V40.1569H280.89C281.307 37.4294 282.262 34.812 283.7 32.4569V27.3369H281.26V37.6369H272.45V68.6969H259.33V71.2169H274.89Z" fill="#FFA3C0"/>
<path d="M298.68 69.897C302.836 71.7303 307.328 72.6771 311.87 72.6771C316.412 72.6771 320.904 71.7303 325.06 69.897C328.971 68.1577 332.313 65.3502 334.7 61.797C337.133 58.0933 338.381 53.7371 338.28 49.307C338.384 44.8671 337.136 40.5006 334.7 36.787C334.281 36.1521 333.827 35.5411 333.34 34.957C332.603 34.0498 331.79 33.2068 330.91 32.437C334.281 36.4295 336.042 41.5353 335.85 46.757C335.952 51.1903 334.703 55.5496 332.27 59.257C329.879 62.8109 326.534 65.6184 322.62 67.357C318.464 69.1903 313.972 70.1371 309.43 70.1371C304.888 70.1371 300.396 69.1903 296.24 67.357C294.088 66.3757 292.093 65.0817 290.32 63.517C291.063 64.422 291.879 65.2648 292.76 66.037C294.526 67.6162 296.522 68.9178 298.68 69.897Z" fill="#FFA3C0"/>
<path d="M309.43 36.8569C307.569 36.8184 305.731 37.2812 304.11 38.1969C302.633 39.0436 301.426 40.2919 300.63 41.7969C299.812 43.3352 299.396 45.055 299.42 46.7969C299.383 48.7848 299.932 50.7397 301 52.4169C301.498 52.7615 302.031 53.0531 302.59 53.2869C302.105 52.0101 301.867 50.6526 301.89 49.2869C301.869 47.5465 302.281 45.8282 303.09 44.2869C303.89 42.7842 305.101 41.5394 306.58 40.6969C308.195 39.7755 310.031 39.3122 311.89 39.3569C313.399 39.3359 314.896 39.6358 316.28 40.2369C316.149 39.8955 315.998 39.5616 315.83 39.2369C315.71 39.0269 315.57 38.8269 315.44 38.6169C315.31 38.4069 315.01 38.3069 314.77 38.1669C313.141 37.2554 311.296 36.8026 309.43 36.8569Z" fill="#FFA3C0"/>
<path d="M400 91.2669C403.505 92.4739 407.183 93.1021 410.89 93.1269C419.223 93.1269 425.557 91.0302 429.89 86.8369C434.223 82.6436 436.347 76.0169 436.26 66.9569V27.3369H433.83V64.4069C433.83 73.4869 431.677 80.1236 427.37 84.3169C423.063 88.5103 416.73 90.6069 408.37 90.6069C404.663 90.5821 400.985 89.9539 397.48 88.7469C394.366 87.7235 391.484 86.0958 389 83.9569C389.456 84.5488 389.954 85.1069 390.49 85.6269C390.8 85.9269 391.11 86.2069 391.43 86.4869C393.947 88.6254 396.858 90.2493 400 91.2669Z" fill="#FFA3C0"/>
<path d="M408.78 36.5271C406.915 36.4838 405.073 36.9468 403.45 37.8671C401.957 38.7075 400.738 39.961 399.94 41.4771C399.131 43.0184 398.719 44.7367 398.74 46.4771C398.687 48.4506 399.219 50.3956 400.27 52.0671C400.767 52.4165 401.3 52.7115 401.86 52.9471C401.384 51.6681 401.15 50.3117 401.17 48.9471C401.149 47.2054 401.565 45.4863 402.38 43.9471C403.177 42.4334 404.392 41.1803 405.88 40.3371C407.505 39.4215 409.345 38.9587 411.21 38.9971C412.723 38.9805 414.222 39.2838 415.61 39.8871C415.478 39.5458 415.328 39.2119 415.16 38.8871C415.04 38.6771 414.9 38.4771 414.77 38.2771C414.64 38.0771 414.34 37.9671 414.1 37.8271C412.477 36.9207 410.638 36.4714 408.78 36.5271Z" fill="#FFA3C0"/>
<path d="M395.53 69.1372C398.934 71.1255 402.818 72.1424 406.76 72.0772C409.351 72.123 411.923 71.6256 414.31 70.6172C414.45 70.5572 414.59 70.4672 414.74 70.4072C415.277 68.9115 415.613 67.3513 415.74 65.7672C414.554 66.6891 413.265 67.471 411.9 68.0972C409.512 69.1014 406.94 69.5952 404.35 69.5472C400.41 69.6123 396.526 68.5992 393.12 66.6172C392.055 65.9738 391.05 65.234 390.12 64.4072C390.835 65.3243 391.628 66.1775 392.49 66.9572C393.436 67.7729 394.454 68.5024 395.53 69.1372Z" fill="#FFA3C0"/>
<path d="M487.05 37.5872C488.162 40.8469 488.707 44.2733 488.66 47.7172V49.3472H455.91C455.831 51.3703 456.279 53.3794 457.21 55.1772C457.743 55.5019 458.309 55.7668 458.9 55.9672C458.507 54.6401 458.318 53.261 458.34 51.8772H491.09V50.2472C491.142 46.8029 490.598 43.3755 489.48 40.1172C488.677 37.854 487.501 35.7414 486 33.8672C485.6 33.3672 485.18 32.8672 484.74 32.4172C484.3 31.9672 483.96 31.6972 483.57 31.3472C485.071 33.2178 486.247 35.3271 487.05 37.5872Z" fill="#FFA3C0"/>
<path d="M459.38 35.227C458.432 35.9168 457.652 36.8126 457.1 37.847H461.7L461.81 37.757C463.566 36.5299 465.669 35.8989 467.81 35.957C469.063 35.9462 470.305 36.1912 471.46 36.677C471.283 36.1255 471.045 35.5956 470.75 35.097C469.175 34 467.299 33.4199 465.38 33.437C463.241 33.3816 461.139 34.0085 459.38 35.227Z" fill="#FFA3C0"/>
<path d="M455.08 69.9572C459.192 71.8318 463.672 72.7612 468.19 72.6772C471.527 72.6915 474.842 72.1334 477.99 71.0272C481.007 70.0015 483.746 68.29 485.99 66.0272C487.612 64.3574 488.88 62.378 489.72 60.2072C490.037 59.3808 490.304 58.5359 490.52 57.6772H487.29C486.45 59.8535 485.178 61.8368 483.55 63.5072C481.308 65.7732 478.569 67.4852 475.55 68.5072C472.402 69.6134 469.087 70.1715 465.75 70.1572C461.232 70.2361 456.754 69.307 452.64 67.4372C450.829 66.5941 449.146 65.5 447.64 64.1872C448.375 65.0999 449.188 65.9465 450.07 66.7172C451.581 68.0255 453.267 69.116 455.08 69.9572Z" fill="#FFA3C0"/>
<path d="M494.81 37.6372H494.64V40.1572H494.81V37.6372Z" fill="#FFA3C0"/>
<path d="M512.8 22.2872H515.24V16.6772V14.1572H512.8V22.2872Z" fill="#FFA3C0"/>
<path d="M515.24 71.2169V40.1569H524.05V29.8569V27.3369H521.62V37.6369H512.8V68.6869H499.68V71.2169H502.11H515.24Z" fill="#FFA3C0"/>
<path d="M555.5 60.407C555.498 62.2507 554.987 64.0581 554.023 65.6294C553.058 67.2007 551.678 68.4749 550.035 69.311C548.392 70.1471 546.549 70.5126 544.711 70.3672C542.873 70.2218 541.111 69.5711 539.62 68.487C540.274 69.4676 541.101 70.3214 542.06 71.007C542.33 71.207 542.61 71.407 542.91 71.587C544.046 72.2479 545.302 72.6783 546.605 72.8536C547.907 73.0289 549.232 72.9455 550.503 72.6084C551.773 72.2712 552.965 71.6869 554.009 70.8887C555.054 70.0906 555.931 69.0943 556.59 67.957C557.479 66.4413 557.942 64.7139 557.93 62.957C557.937 61.2007 557.474 59.4745 556.59 57.957C556.48 57.757 556.35 57.587 556.22 57.397C555.569 56.4167 554.746 55.5628 553.79 54.877C553.91 55.057 554.05 55.237 554.16 55.427C555.04 56.9391 555.502 58.6576 555.5 60.407Z" fill="#FFA3C0"/>
<path d="M543.06 47.8772C544.832 47.8581 546.577 48.3176 548.11 49.2072C548.34 49.3472 548.56 49.5072 548.78 49.6572H555.45V43.5772C558.295 42.7156 560.981 41.3949 563.4 39.6672C565.704 38.0388 567.6 35.8997 568.94 33.4172C570.294 30.8557 570.982 27.9945 570.94 25.0972C570.92 22.3093 570.235 19.5664 568.94 17.0972C568.233 15.7228 567.385 14.4258 566.41 13.2272C565.681 12.3035 564.875 11.4437 564 10.6572C564.976 11.8501 565.82 13.1442 566.52 14.5172C567.844 17.0443 568.535 19.8545 568.535 22.7072C568.535 25.56 567.844 28.3702 566.52 30.8972C565.177 33.3717 563.29 35.5088 561 37.1472C558.563 38.875 555.861 40.1955 553 41.0572V47.1372H539.8V48.4172C540.849 48.0577 541.951 47.8752 543.06 47.8772Z" fill="#FFA3C0"/>
<path d="M542.2 25.097C542.187 23.9545 542.419 22.8225 542.88 21.777C543.297 20.8168 543.994 20.0047 544.88 19.447C545.864 18.8613 546.995 18.5666 548.14 18.597C548.566 18.5959 548.992 18.6361 549.41 18.717C549.288 18.0542 549.058 17.4158 548.73 16.827C547.811 16.3227 546.778 16.0643 545.73 16.077C544.588 16.0451 543.46 16.34 542.48 16.927C541.594 17.4847 540.897 18.2968 540.48 19.257C540.015 20.3013 539.783 21.4342 539.8 22.577H525.33C525.227 23.4132 525.17 24.2545 525.16 25.097H542.16H542.2Z" fill="#FFA3C0"/>
<path d="M16.77 26.5668H19.2V6.71678V4.19678H16.77V26.5668Z" fill="#FFD1E0"/>
<path d="M57.75 66.1668H43.41V68.6868H45.84H60.19V6.71678V4.19678H57.75V66.1668Z" fill="#FFD1E0"/>
<path d="M19.2 68.6871V42.2671H40.98V39.7471H16.77V66.1671H2.42999V68.6871H4.86999H19.2Z" fill="#FFD1E0"/>
<path d="M114.39 31.737C116.835 35.448 118.094 39.8143 118 44.257C118.103 48.6873 116.854 53.0438 114.42 56.747C112.027 60.301 108.683 63.111 104.77 64.857C100.613 66.6837 96.121 67.6269 91.58 67.6269C87.039 67.6269 82.5474 66.6837 78.39 64.857C76.2404 63.8718 74.2461 62.5781 72.47 61.017C73.2186 61.9174 74.0343 62.7598 74.91 63.537C76.6803 65.1058 78.6758 66.4001 80.83 67.377C84.9857 69.2103 89.4779 70.1571 94.02 70.1571C98.5621 70.1571 103.054 69.2103 107.21 67.377C111.12 65.635 114.46 62.828 116.85 59.277C119.283 55.5697 120.532 51.2103 120.43 46.777C120.622 41.5553 118.861 36.4495 115.49 32.457C114.73 31.5569 113.897 30.7208 113 29.957C113.494 30.5261 113.958 31.1202 114.39 31.737Z" fill="#FFD1E0"/>
<path d="M84 46.787C83.9773 45.0464 84.3898 43.3277 85.2 41.787C85.9961 40.282 87.2028 39.0336 88.68 38.187C90.3153 37.3073 92.1432 36.8469 94 36.8469C95.8569 36.8469 97.6847 37.3073 99.32 38.187C99.55 38.327 99.76 38.487 99.98 38.637C99.2077 37.3984 98.1432 36.3683 96.88 35.637C95.2465 34.7573 93.4203 34.2969 91.565 34.2969C89.7097 34.2969 87.8835 34.7573 86.25 35.637C84.7722 36.4816 83.5626 37.7259 82.76 39.227C81.9526 40.7687 81.5403 42.4867 81.56 44.227C81.515 45.526 81.7307 46.8209 82.1945 48.0352C82.6582 49.2495 83.3605 50.3586 84.26 51.297C84.6488 51.6996 85.0777 52.0614 85.54 52.377C84.4919 50.704 83.9565 48.7607 84 46.787Z" fill="#FFD1E0"/>
<path d="M178.13 46.0571L178.76 44.6971L170.7 27.3371L169.53 24.8071H168.27L178.13 46.0571Z" fill="#FFD1E0"/>
<path d="M183.43 66.1671H174.63L175.77 68.6871H177.07H185.86L207.48 27.3371L208.8 24.8071H205.04L183.43 66.1671Z" fill="#FFD1E0"/>
<path d="M146.81 46.0571L147.45 44.6871L139.46 27.3371L138.3 24.8071H137.03L146.81 46.0571Z" fill="#FFD1E0"/>
<path d="M154.05 68.687L164.27 46.087L162.48 42.127L151.62 66.167H142.62L143.94 68.687H145.06H154.05Z" fill="#FFD1E0"/>
<path d="M270.03 22.287H272.46V14.157V11.627H270.03V22.287Z" fill="#FFD1E0"/>
<path d="M254.47 35.1069H251.86V37.6369H254.3H254.47V35.1069Z" fill="#FFD1E0"/>
<path d="M272.46 68.6871V37.6371H281.27V27.3371V24.8071H279.76H278.84V35.1071H270.03V66.1671H256.9V68.6871H259.33H272.46Z" fill="#FFD1E0"/>
<path d="M296.24 67.377C300.396 69.2103 304.888 70.1571 309.43 70.1571C313.972 70.1571 318.464 69.2103 322.62 67.377C326.534 65.6384 329.879 62.8309 332.27 59.277C334.703 55.5697 335.952 51.2103 335.85 46.777C336.042 41.5553 334.281 36.4495 330.91 32.457C330.164 31.5641 329.351 30.7284 328.48 29.957C328.95 30.537 329.41 31.137 329.84 31.767C332.269 35.4835 333.517 39.8481 333.42 44.287C333.518 48.7167 332.269 53.0717 329.84 56.777C327.447 60.331 324.103 63.141 320.19 64.887C316.033 66.7137 311.541 67.6569 307 67.6569C302.459 67.6569 297.967 66.7137 293.81 64.887C291.66 63.9018 289.666 62.6081 287.89 61.047C290.151 63.7771 293.007 65.9528 296.24 67.407V67.377Z" fill="#FFD1E0"/>
<path d="M299.42 46.787C299.396 45.045 299.812 43.3253 300.63 41.787C301.426 40.282 302.633 39.0336 304.11 38.187C305.743 37.3073 307.57 36.8469 309.425 36.8469C311.28 36.8469 313.107 37.3073 314.74 38.187C314.98 38.327 315.19 38.487 315.41 38.637C314.638 37.3984 313.573 36.3683 312.31 35.637C310.677 34.7573 308.85 34.2969 306.995 34.2969C305.14 34.2969 303.313 34.7573 301.68 35.637C300.202 36.4816 298.993 37.7259 298.19 39.227C297.383 40.7687 296.97 42.4867 296.99 44.227C296.945 45.526 297.161 46.8209 297.624 48.0352C298.088 49.2495 298.791 50.3586 299.69 51.297C300.086 51.7151 300.525 52.0905 301 52.417C299.93 50.7369 299.381 48.7783 299.42 46.787Z" fill="#FFD1E0"/>
<path d="M415.83 26.8971L415.38 26.5371C415.47 26.6571 415.58 26.7671 415.67 26.8971H415.83Z" fill="#FFD1E0"/>
<path d="M400.13 73.8271C400.439 74.0934 400.774 74.3279 401.13 74.5271C401.019 74.3023 400.929 74.068 400.86 73.8271H400.13Z" fill="#FFD1E0"/>
<path d="M393.1 66.6169C396.506 68.5988 400.39 69.612 404.33 69.5469C406.92 69.5949 409.492 69.101 411.88 68.0969C413.245 67.4706 414.534 66.6888 415.72 65.7669C415.8 64.9269 415.84 64.0369 415.84 63.0969V61.0269C414.007 62.9265 411.837 64.4693 409.44 65.5769C407.054 66.5771 404.487 67.0708 401.9 67.0269C397.958 67.0935 394.074 66.0766 390.67 64.0869C389.605 63.4459 388.601 62.7096 387.67 61.8869C388.407 62.7941 389.22 63.6371 390.1 64.4069C391.03 65.2336 392.035 65.9734 393.1 66.6169Z" fill="#FFD1E0"/>
<path d="M397.52 88.7471C401.025 89.9541 404.703 90.5823 408.41 90.6071C416.737 90.6071 423.07 88.5105 427.41 84.3171C431.75 80.1238 433.903 73.4871 433.87 64.4071V24.8071H431.4V61.8871C431.4 70.9671 429.243 77.6005 424.93 81.7871C420.617 85.9738 414.307 88.0705 406 88.0771C402.293 88.0532 398.615 87.4249 395.11 86.2171C391.969 85.1966 389.063 83.5616 386.56 81.4071C387 81.9973 387.481 82.5554 388 83.0771C388.3 83.3671 388.62 83.6571 388.94 83.9271C391.451 86.0882 394.368 87.7268 397.52 88.7471Z" fill="#FFD1E0"/>
<path d="M398.74 46.4469C398.719 44.7065 399.131 42.9882 399.94 41.4469C400.738 39.9308 401.957 38.6773 403.45 37.8369C405.087 36.9572 406.917 36.4968 408.775 36.4968C410.633 36.4968 412.463 36.9572 414.1 37.8369C414.34 37.9769 414.55 38.1369 414.77 38.2869C413.991 37.0536 412.928 36.0249 411.67 35.2869C410.029 34.414 408.199 33.9575 406.34 33.9575C404.481 33.9575 402.651 34.414 401.01 35.2869C399.523 36.1359 398.308 37.3918 397.51 38.9069C396.7 40.4477 396.288 42.1663 396.31 43.9069C396.264 45.2022 396.478 46.4937 396.94 47.7048C397.402 48.9158 398.102 50.0217 399 50.9569C399.384 51.3296 399.802 51.6645 400.25 51.9569C399.222 50.3061 398.697 48.3913 398.74 46.4469Z" fill="#FFD1E0"/>
<path d="M484.62 35.0669C485.732 38.3266 486.277 41.753 486.23 45.1969V46.8269H453.48C453.48 50.8269 454.723 53.6102 457.21 55.1769C456.279 53.3791 455.831 51.3701 455.91 49.3469H488.66V47.7169C488.707 44.273 488.162 40.8466 487.05 37.5869C486.26 35.3295 485.097 33.2204 483.61 31.3469C483.2 30.8469 482.79 30.3469 482.34 29.8969C481.89 29.4469 481.57 29.1669 481.17 28.8169C482.66 30.6935 483.826 32.8059 484.62 35.0669Z" fill="#FFD1E0"/>
<path d="M452.65 67.4372C456.764 69.3069 461.242 70.2361 465.76 70.1572C469.097 70.1714 472.412 69.6134 475.56 68.5072C478.579 67.4852 481.318 65.7732 483.56 63.5072C485.188 61.8367 486.46 59.8534 487.3 57.6772C487.39 57.4472 487.47 57.2072 487.55 56.9672C487.76 56.3872 487.94 55.7872 488.1 55.1572H484.86C484.022 57.3276 482.745 59.3019 481.11 60.9572C478.874 63.2443 476.135 64.9771 473.11 66.0172C469.957 67.1161 466.639 67.6707 463.3 67.6572C458.79 67.7384 454.319 66.8162 450.21 64.9572C448.402 64.1088 446.719 63.0152 445.21 61.7072C445.945 62.6166 446.758 63.4599 447.64 64.2272C449.151 65.5267 450.838 66.6073 452.65 67.4372Z" fill="#FFD1E0"/>
<path d="M459.38 35.2272C461.139 34.0088 463.241 33.3818 465.38 33.4372C467.299 33.4201 469.176 34.0003 470.75 35.0972C470.212 34.2236 469.513 33.4601 468.69 32.8472C467.058 31.5988 465.055 30.9334 463 30.9572C460.86 30.9041 458.758 31.5346 457 32.7572C455.307 33.9921 454.157 35.8338 453.79 37.8972H457.16C457.689 36.8509 458.448 35.9381 459.38 35.2272Z" fill="#FFD1E0"/>
<path d="M510.37 22.287H512.8V14.157V11.627H510.37V22.287Z" fill="#FFD1E0"/>
<path d="M494.81 35.1069H492.21V37.6369H494.64H494.81V35.1069Z" fill="#FFD1E0"/>
<path d="M512.8 68.6871V37.6371H521.62V27.3371V24.8071H520.1H519.19V35.1071H510.37V66.1671H497.24V68.6871H499.68H512.8Z" fill="#FFD1E0"/>
<path d="M551.36 52.2769C551.48 52.4669 551.62 52.6369 551.73 52.8369C552.393 53.9758 552.824 55.2345 552.999 56.5407C553.174 57.8468 553.088 59.1746 552.748 60.4478C552.408 61.7209 551.82 62.9143 551.017 63.9593C550.214 65.0042 549.213 65.8802 548.07 66.5369C546.55 67.4145 544.825 67.8766 543.07 67.8766C541.315 67.8766 539.59 67.4145 538.07 66.5369C537.77 66.3569 537.49 66.1669 537.21 65.9669C538.617 68.2212 540.862 69.8243 543.451 70.4235C546.04 71.0226 548.761 70.5688 551.015 69.1619C553.269 67.7549 554.872 65.51 555.472 62.9211C556.071 60.3321 555.617 57.6112 554.21 55.3569C554.1 55.1669 553.96 54.9869 553.84 54.8069C553.823 54.7698 553.799 54.736 553.77 54.7069C553.114 53.7632 552.298 52.941 551.36 52.2769Z" fill="#FFD1E0"/>
<path d="M539.77 22.5771C539.753 21.4342 539.985 20.3014 540.45 19.2571C540.867 18.2968 541.564 17.4848 542.45 16.9271C543.43 16.3401 544.558 16.0452 545.7 16.0771C546.748 16.0644 547.781 16.3228 548.7 16.8271C548.431 16.3176 548.095 15.8467 547.7 15.4271C547.131 14.818 546.439 14.3365 545.67 14.0142C544.902 13.6918 544.073 13.5361 543.24 13.5571C542.096 13.5247 540.966 13.8159 539.98 14.3971C539.098 14.959 538.402 15.7698 537.98 16.7271C537.512 17.7705 537.28 18.904 537.3 20.0471H522.9C522.797 20.8867 522.74 21.7313 522.73 22.5771H539.73H539.77Z" fill="#FFD1E0"/>
<path d="M553 47.1372V41.0572C555.861 40.1955 558.563 38.8749 561 37.1472C563.297 35.511 565.191 33.3738 566.54 30.8972C567.864 28.3702 568.555 25.5599 568.555 22.7072C568.555 19.8545 567.864 17.0442 566.54 14.5172C565.834 13.1432 564.983 11.8491 564 10.6572C563.263 9.75 562.45 8.90698 561.57 8.13721C562.526 9.32178 563.357 10.6019 564.05 11.9572C565.352 14.4415 566.038 17.2024 566.05 20.0072C566.097 22.9082 565.409 25.7738 564.05 28.3372C562.71 30.8144 560.818 32.9496 558.52 34.5772C556.083 36.308 553.381 37.6319 550.52 38.4972V44.5772H537.37V47.0972H553V47.1372Z" fill="#FFD1E0"/>
<path d="M16.77 66.167V39.747H40.98V42.267V44.797V47.317V49.837V66.167H43.41H57.75V4.19699V1.66699H40.98V26.567H26.5H24.07H21.64H19.2H16.77V4.19699V1.66699H0V66.167H2.43H16.77Z" fill="white"/>
<path d="M67.48 54.667C67.8508 55.3945 68.2648 56.0991 68.72 56.777C69.7776 58.3405 71.0273 59.765 72.44 61.017C74.2161 62.5781 76.2104 63.8717 78.36 64.857C82.5174 66.6837 87.009 67.6269 91.55 67.6269C96.091 67.6269 100.583 66.6837 104.74 64.857C108.653 63.111 111.997 60.3009 114.39 56.747C116.835 53.0472 118.094 48.6904 118 44.257C118.153 39.0369 116.373 33.9442 113 29.957C110.756 27.2449 107.92 25.083 104.71 23.637C100.554 21.8038 96.0621 20.8569 91.52 20.8569C86.9779 20.8569 82.4857 21.8038 78.33 23.637C74.4147 25.3839 71.0704 28.1979 68.68 31.757C68.2281 32.435 67.8173 33.1396 67.45 33.867C65.8629 37.0971 65.0676 40.6586 65.13 44.257C65.0699 47.865 65.8758 51.4347 67.48 54.667ZM81.54 44.267C81.5202 42.5267 81.9326 40.8087 82.74 39.267C83.5426 37.7659 84.7522 36.5216 86.23 35.677C87.8635 34.7974 89.6897 34.3369 91.545 34.3369C93.4003 34.3369 95.2265 34.7974 96.86 35.677C98.1232 36.4083 99.1877 37.4384 99.96 38.677C100.101 38.8767 100.231 39.0837 100.35 39.297C100.518 39.6217 100.669 39.9556 100.8 40.297C101.045 40.9143 101.229 41.554 101.35 42.207C101.478 42.8964 101.545 43.5958 101.55 44.297V44.477C101.593 45.7869 101.362 47.0914 100.87 48.3064C100.379 49.5213 99.6378 50.6197 98.6956 51.5308C97.7534 52.4419 96.6308 53.1455 95.4 53.5961C94.1693 54.0467 92.8577 54.2343 91.55 54.147H91.29C90.5197 54.1242 89.7531 54.0304 89 53.867C88.349 53.7372 87.7125 53.5429 87.1 53.287C86.5411 53.0531 86.0083 52.7616 85.51 52.417C85.0477 52.1015 84.6188 51.7396 84.23 51.337C83.3323 50.3978 82.6318 49.2884 82.1698 48.0741C81.7078 46.8598 81.4937 45.5654 81.54 44.267Z" fill="white"/>
<path d="M142.62 66.1671H151.62L162.48 42.1271L164.27 46.0871L166.05 50.0371L167.84 53.9871L169.63 57.9371L173.34 66.1671H174.63H183.43L205.04 24.8071L206.36 22.2871H189.17L180.65 40.6171L180.02 41.9771L179.39 43.3371L178.76 44.6971L178.13 46.0571L168.27 24.8071L167.1 22.2871H157.86L149.37 40.5671L148.73 41.9371L148.09 43.3071L147.45 44.6871L146.81 46.0571L137.03 24.8071L135.87 22.2871H118.6L141.51 66.1671H142.62Z" fill="white"/>
<path d="M270.03 66.1669V35.1069H278.84V24.8069V22.2869H277.32H274.89H272.46H270.03V11.6269V9.10693H254.47V22.2869H249.43V35.1069H251.86H254.47V37.6369V40.1569V66.1669H256.9H270.03Z" fill="white"/>
<path d="M293.81 64.8572C297.967 66.6839 302.459 67.6271 307 67.6271C311.541 67.6271 316.033 66.6839 320.19 64.8572C324.103 63.1112 327.447 60.3011 329.84 56.7472C332.269 53.0419 333.518 48.6868 333.42 44.2572C333.517 39.8182 332.269 35.4537 329.84 31.7372C329.41 31.1072 328.95 30.5072 328.48 29.9272C326.233 27.2174 323.398 25.0559 320.19 23.6072C316.034 21.774 311.542 20.8271 307 20.8271C302.458 20.8271 297.966 21.774 293.81 23.6072C290.628 25.0434 287.811 27.1799 285.57 29.8572C285.07 30.4572 284.57 31.0672 284.15 31.7272C284 31.9672 283.85 32.2072 283.71 32.4572C282.272 34.8123 281.317 37.4297 280.9 40.1572C280.77 40.9772 280.67 41.8172 280.62 42.6772C280.62 43.1972 280.57 43.7272 280.57 44.2572C280.57 44.5772 280.57 44.8872 280.57 45.2572C280.623 49.377 281.862 53.3941 284.14 56.8272C285.198 58.3907 286.447 59.8152 287.86 61.0672C289.648 62.6131 291.653 63.8899 293.81 64.8572ZM297 44.2672C296.98 42.5269 297.393 40.809 298.2 39.2672C299.003 37.7662 300.212 36.5219 301.69 35.6772C303.323 34.7976 305.15 34.3371 307.005 34.3371C308.86 34.3371 310.687 34.7976 312.32 35.6772C313.583 36.4085 314.648 37.4386 315.42 38.6772C315.55 38.8872 315.69 39.0872 315.81 39.2972C315.978 39.622 316.129 39.9558 316.26 40.2972C316.506 40.9133 316.687 41.5534 316.8 42.2072C316.936 42.8956 317.007 43.5955 317.01 44.2972C317.015 44.3571 317.015 44.4173 317.01 44.4772C317.055 45.7876 316.824 47.0928 316.333 48.3084C315.842 49.5241 315.102 50.6232 314.159 51.5346C313.217 52.446 312.093 53.1495 310.862 53.5995C309.63 54.0495 308.318 54.2361 307.01 54.1472H306.74C305.974 54.1358 305.211 54.0555 304.46 53.9072C303.813 53.7758 303.18 53.5816 302.57 53.3272C302.011 53.0934 301.478 52.8018 300.98 52.4572C300.518 52.1417 300.089 51.7798 299.7 51.3772C298.796 50.4341 298.09 49.3185 297.627 48.0969C297.163 46.8754 296.95 45.5729 297 44.2672Z" fill="white"/>
<path d="M395.09 86.2169C398.601 87.4268 402.286 88.0551 406 88.0769C414.333 88.0769 420.65 85.9802 424.95 81.7869C429.25 77.5935 431.407 70.9602 431.42 61.8869V22.2869H415.84V26.8969H415.67C415.58 26.7669 415.47 26.6569 415.38 26.5369C412.52 22.7369 408.33 20.8269 402.76 20.8269C399.647 20.7948 396.563 21.4219 393.71 22.6669C390.971 23.8753 388.518 25.6471 386.51 27.8669C384.48 30.0906 382.898 32.6845 381.85 35.5069C380.762 38.42 380.213 41.507 380.23 44.6169C380.199 48.568 381.151 52.4648 383 55.9569C384.771 59.3123 387.436 62.1123 390.7 64.0468C394.104 66.0366 397.988 67.0535 401.93 66.9869C404.517 67.0308 407.084 66.5371 409.47 65.5369C411.866 64.4293 414.037 62.8865 415.87 60.9869V63.0569C415.87 63.9968 415.83 64.8868 415.75 65.7268C415.623 67.3109 415.287 68.8711 414.75 70.3669C414.484 71.0653 414.149 71.7353 413.75 72.3669C413.182 73.2063 412.416 73.8932 411.52 74.3669C409.751 75.2406 407.791 75.6533 405.82 75.5669C404.28 75.5768 402.758 75.2348 401.37 74.5669L401.17 74.4468C400.814 74.2476 400.479 74.0131 400.17 73.7469C399.595 73.2838 399.133 72.6955 398.82 72.0269C398.693 71.7689 398.586 71.5014 398.5 71.2268H381C381.384 74.7542 383.011 78.0296 385.59 80.4669C385.9 80.7669 386.22 81.0469 386.59 81.3269C389.071 83.5042 391.96 85.1664 395.09 86.2169ZM396.31 43.9569C396.288 42.2163 396.7 40.4977 397.51 38.9569C398.308 37.4418 399.523 36.1859 401.01 35.3369C402.651 34.464 404.481 34.0075 406.34 34.0075C408.199 34.0075 410.029 34.464 411.67 35.3369C412.928 36.0749 413.991 37.1036 414.77 38.3369C414.9 38.5369 415.04 38.7369 415.16 38.9469C415.328 39.2717 415.478 39.6055 415.61 39.9469C415.856 40.5629 416.037 41.2031 416.15 41.8569C416.287 42.5418 416.357 43.2384 416.36 43.9369C416.36 43.9969 416.36 44.0569 416.36 44.1269C416.354 45.8087 415.946 47.4649 415.17 48.9569C414.371 50.4393 413.163 51.6611 411.69 52.4769C410.052 53.3634 408.212 53.808 406.35 53.7669H406.05C405.284 53.7555 404.521 53.6752 403.77 53.5269C403.115 53.3968 402.474 53.199 401.86 52.9369C401.3 52.7013 400.767 52.4063 400.27 52.0569C399.811 51.734 399.385 51.3655 399 50.9569C398.109 50.0276 397.411 48.9299 396.95 47.7279C396.488 46.526 396.27 45.2439 396.31 43.9569Z" fill="white"/>
<path d="M450.21 64.9568C454.325 66.8221 458.803 67.7478 463.32 67.6668C466.663 67.6578 469.981 67.0795 473.13 65.9568C476.155 64.9167 478.894 63.1839 481.13 60.8968C482.76 59.2338 484.03 57.2526 484.86 55.0768C484.95 54.8468 485.04 54.6068 485.12 54.3668C485.32 53.7768 485.51 53.1768 485.66 52.5568H470.66C470.267 53.2192 469.79 53.8276 469.24 54.3668C468.437 55.1159 467.493 55.6972 466.463 56.0767C465.433 56.4562 464.337 56.6262 463.24 56.5768C462.46 56.5786 461.681 56.5218 460.91 56.4068C460.23 56.315 459.56 56.1576 458.91 55.9368C458.319 55.7364 457.753 55.4715 457.22 55.1468C454.733 53.6068 453.49 50.8235 453.49 46.7968H486.24V45.1968C486.287 41.7529 485.742 38.3265 484.63 35.0668C483.836 32.8058 482.67 30.6934 481.18 28.8168C480.78 28.3168 480.37 27.8168 479.92 27.3668C477.79 25.2037 475.204 23.5433 472.35 22.5068C469.099 21.3399 465.664 20.7708 462.21 20.8268C457.839 20.7472 453.512 21.7141 449.59 23.6468C445.973 25.4428 442.978 28.2816 440.99 31.7968C440.88 31.9868 440.78 32.1868 440.68 32.3768C439.803 34.004 439.131 35.7339 438.68 37.5268C438.147 39.73 437.885 41.9901 437.9 44.2568C437.889 46.5146 438.158 48.7651 438.7 50.9568C439.204 53.0265 440.024 55.0063 441.13 56.8268L441.18 56.9268C442.268 58.7017 443.616 60.303 445.18 61.6768C446.697 62.9977 448.39 64.1015 450.21 64.9568ZM453.73 37.8868C454.097 35.8234 455.247 33.9817 456.94 32.7468C458.698 31.5242 460.8 30.8937 462.94 30.9468C465.018 30.926 467.041 31.6099 468.68 32.8868C469.503 33.4997 470.202 34.2632 470.74 35.1368C471.035 35.6354 471.273 36.1653 471.45 36.7168C471.583 37.0977 471.683 37.4891 471.75 37.8868H453.75H453.73Z" fill="white"/>
<path d="M510.37 66.1669V35.1069H519.19V24.8069V22.2869H517.67H515.24H512.8H510.37V11.6269V9.10693H494.81V22.2869H489.78V35.1069H492.21H494.81V37.6369V40.1569V46.6869V56.9169V62.6769V64.5369V66.1669H497.24H510.37Z" fill="white"/>
<path d="M543.06 67.877C544.817 67.889 546.544 67.4261 548.06 66.537C549.58 65.6683 550.843 64.4124 551.72 62.897C552.598 61.3661 553.06 59.6319 553.06 57.867C553.06 56.1021 552.598 54.368 551.72 52.837C551.61 52.637 551.47 52.467 551.35 52.277L551.28 52.187C550.606 51.1965 549.755 50.3388 548.77 49.657C548.55 49.507 548.33 49.347 548.1 49.207C546.567 48.3174 544.822 47.8579 543.05 47.877C541.298 47.8917 539.578 48.3492 538.05 49.207C536.608 50.042 535.397 51.2241 534.528 52.646C533.659 54.0678 533.159 55.6843 533.073 57.3486C532.988 59.0129 533.32 60.6721 534.039 62.1755C534.758 63.6789 535.841 64.9788 537.19 65.957C537.47 66.157 537.75 66.347 538.05 66.527C539.567 67.4213 541.299 67.8878 543.06 67.877Z" fill="white"/>
<path d="M550.58 44.617V38.537C553.441 37.6717 556.143 36.3478 558.58 34.617C560.878 32.9894 562.77 30.8542 564.11 28.377C565.469 25.8136 566.157 22.948 566.11 20.047C566.09 17.2591 565.404 14.5163 564.11 12.047C563.407 10.6761 562.562 9.38236 561.59 8.18702C560.753 7.14128 559.815 6.18003 558.79 5.31702C554.615 1.76019 549.273 -0.130606 543.79 0.00701732C539.824 -0.0226988 535.896 0.78134 532.26 2.36702C528.818 3.84432 525.844 6.23358 523.66 9.27702C521.445 12.4462 520.28 16.2307 520.33 20.097H537.38C537.36 18.9539 537.592 17.8204 538.06 16.777C538.482 15.8197 539.178 15.0089 540.06 14.447C541.046 13.8658 542.176 13.5746 543.32 13.607C544.153 13.586 544.982 13.7417 545.75 14.064C546.519 14.3864 547.211 14.8679 547.78 15.477C548.175 15.8966 548.511 16.3675 548.78 16.877C549.108 17.4658 549.338 18.1042 549.46 18.767C549.533 19.1797 549.569 19.598 549.57 20.017C549.564 20.4392 549.528 20.8603 549.46 21.277C549.291 22.2907 548.905 23.256 548.329 24.1068C547.752 24.9577 546.999 25.6741 546.12 26.207C545.656 26.5194 545.172 26.8001 544.67 27.047C544.208 27.2782 543.734 27.4852 543.25 27.667C541.742 28.2218 540.147 28.5029 538.54 28.497C537.332 28.4713 536.129 28.3238 534.95 28.057V44.617H550.59H550.58Z" fill="white"/>
</svg>
