<svg width="114" height="45" viewBox="0 0 114 45" fill="none" xmlns="http://www.w3.org/2000/svg">
<path d="M4.55499 39.3066V7.60779H13.6118V12.1362H18.1402V16.6646H22.6686V12.1362H27.197V7.60779H36.2538V39.3066H27.197V21.193H22.6686V30.2498H18.1402V21.193H13.6118V39.3066H4.55499ZM45.3106 39.3066V34.7782H54.3674V12.1362H45.3106V7.60779H72.4809V12.1362H63.4241V34.7782H72.4809V39.3066H45.3106ZM77.0093 39.3066V7.60779H86.0661V12.1362H90.5945V16.6646H95.1229V21.193H99.6513V7.60779H108.708V39.3066H99.6513V30.2498H95.1229V25.7214H90.5945V21.193H86.0661V39.3066H77.0093Z" fill="#FFFF01"/>
<path d="M3.06866 37.2795V5.57715H12.1278V10.102H16.6527V14.6363H21.187V10.102H25.7118V5.57715H34.771V37.2795H25.7118V19.1612H21.187V28.2203H16.6527V19.1612H12.1278V37.2795H3.06866Z" fill="#FCC855"/>
<path d="M43.8301 37.2795V32.7452H52.8799V10.102H43.8301V5.57715H70.9982V10.102H61.939V32.7452H70.9982V37.2795H43.8301Z" fill="#FCC855"/>
<path d="M75.5229 37.2795V5.57715H84.5821V10.102H89.1164V14.6363H93.6412V19.1612H98.1755V5.57715H107.225V37.2795H98.1755V28.2203H93.6412V23.686H89.1164V19.1612H84.5821V37.2795H75.5229Z" fill="#FCC855"/>
<path d="M1.59174 35.0216V3.31934H10.6415V7.8442H15.1758V12.3785H19.7006V7.8442H24.2349V3.31934H33.2846V35.0216H24.2349V16.9034H19.7006V25.9625H15.1758V16.9034H10.6415V35.0216H1.59174Z" fill="#FA91A9"/>
<path d="M42.3438 35.0216V30.4874H51.4029V7.8442H42.3438V3.31934H69.5118V7.8442H60.462V30.4874H69.5118V35.0216H42.3438Z" fill="#FA91A9"/>
<path d="M74.0461 35.0216V3.31934H83.1053V7.8442H87.6302V12.3785H92.1644V16.9034H96.6893V3.31934H105.748V35.0216H96.6893V25.9625H92.1644V21.4376H87.6302V16.9034H83.1053V35.0216H74.0461Z" fill="#FA91A9"/>
<path d="M0.105408 32.5334V0.834595H9.1622V5.36299H13.6906V9.89139H18.219V5.36299H22.7474V0.834595H31.8042V32.5334H22.7474V14.4198H18.219V23.4766H13.6906V14.4198H9.1622V32.5334H0.105408ZM40.861 32.5334V28.005H49.9178V5.36299H40.861V0.834595H68.0314V5.36299H58.9746V28.005H68.0314V32.5334H40.861ZM72.5598 32.5334V0.834595H81.6165V5.36299H86.1449V9.89139H90.6733V14.4198H95.2017V0.834595H104.259V32.5334H95.2017V23.4766H90.6733V18.9482H86.1449V14.4198H81.6165V32.5334H72.5598Z" fill="#F75AFD"/>
</svg>
