<svg width="435" height="103" viewBox="0 0 435 103" fill="none" xmlns="http://www.w3.org/2000/svg">
<path d="M24.07 78.5896H9.72998V81.1096H26.5V61.1996L24.07 57.3896V78.5896Z" fill="#FF4681"/>
<path d="M57.21 36.4497C57.3459 32.5488 56.3454 28.6925 54.33 25.3497C53.4018 23.8901 52.2551 22.5816 50.93 21.4697C51.2861 21.9059 51.6198 22.3598 51.93 22.8297C53.9435 26.1729 54.9407 30.0296 54.8 33.9297C54.8293 36.8056 54.2713 39.6571 53.16 42.3097C52.1008 44.8813 50.397 47.1367 48.2129 48.8585C46.0287 50.5802 43.4378 51.7103 40.69 52.1397L60.93 78.5897H40.93L42.53 81.1097H63.37L43.09 54.6697C45.8919 54.2093 48.529 53.0388 50.75 51.2697C52.3786 49.9527 53.7369 48.3329 54.75 46.4997C55.0002 43.6594 55.8091 40.8966 57.13 38.3697C57.17 37.7397 57.21 37.0997 57.21 36.4497Z" fill="#FF4681"/>
<path d="M24.07 26.9101V34.8401H24.19C24.9984 34.6449 25.7757 34.3387 26.5 33.9301V29.4401H28.13C28.7 29.4401 29.25 29.4401 29.78 29.4401C29.9322 28.7504 30.0093 28.0463 30.01 27.3401C30.01 27.2901 30.01 27.2401 30.01 27.1901C28.5875 26.9689 27.1496 26.8619 25.71 26.8701L24.07 26.9101Z" fill="#FF4681"/>
<path d="M111.64 44.9401C111.64 44.7201 111.7 44.5001 111.74 44.2801C111.131 43.5997 110.484 42.9553 109.8 42.3501C110.284 42.9262 110.738 43.527 111.16 44.1501C111.33 44.4101 111.48 44.6701 111.64 44.9401Z" fill="#FF4681"/>
<path d="M111.16 69.1698C108.769 72.7237 105.424 75.5312 101.51 77.2698C97.3543 79.103 92.8621 80.0499 88.32 80.0499C83.7779 80.0499 79.2857 79.103 75.13 77.2698C72.9782 76.2885 70.9833 74.9945 69.21 73.4298C71.4659 76.1651 74.3237 78.3417 77.56 79.7898C81.7174 81.6233 86.2113 82.5702 90.755 82.5702C95.2987 82.5702 99.7926 81.6233 103.95 79.7898C107.86 78.0477 111.2 75.2408 113.59 71.6898C115.048 69.4967 116.067 67.0412 116.59 64.4598C115.737 63.3906 114.977 62.2497 114.32 61.0498C113.851 63.949 112.774 66.7162 111.16 69.1698Z" fill="#FF4681"/>
<path d="M83 48.09C81.5191 48.9352 80.3088 50.1837 79.51 51.69C78.7006 53.231 78.2882 54.9495 78.31 56.69C78.3107 57.3603 78.3676 58.0293 78.48 58.69C79.2303 58.8444 79.994 58.9247 80.76 58.93C80.7931 57.2806 81.2182 55.6628 82 54.21C82.7976 52.7087 84.0042 51.464 85.48 50.62C87.0992 49.6997 88.938 49.2365 90.8 49.28H91C91 49.22 91 49.17 91 49.11C91.0036 48.4027 90.9434 47.6965 90.82 47C89.999 46.818 89.1609 46.7242 88.32 46.72C86.4558 46.6906 84.6181 47.1639 83 48.09Z" fill="#FF4681"/>
<path d="M171.84 40.11C171.95 39.82 172.09 39.54 172.21 39.25V37.25H169.78V78.59H156.65V81.11H172.21V58.8C170.886 55.7096 170.206 52.382 170.21 49.02C170.209 45.9757 170.761 42.9566 171.84 40.11Z" fill="#FF4681"/>
<path d="M154.22 76.0601H152.07C151.01 77.0449 149.794 77.8459 148.47 78.4301C146.05 79.5084 143.429 80.0606 140.78 80.0501C136.747 80.1036 132.784 78.9888 129.37 76.8401C128.31 76.1844 127.307 75.4418 126.37 74.6201C127.897 76.4815 129.714 78.0853 131.75 79.3701C135.167 81.51 139.128 82.6209 143.16 82.5701C145.822 82.5998 148.46 82.0647 150.9 81.0001C152.222 80.4085 153.441 79.6083 154.51 78.6301H154.22V76.0601Z" fill="#FF4681"/>
<path d="M139.38 48.0899C137.899 48.9351 136.689 50.1835 135.89 51.6899C135.081 53.2309 134.668 54.9494 134.69 56.6899C134.687 57.3599 134.741 58.0289 134.85 58.6899C135.601 58.8431 136.364 58.9235 137.13 58.9299C137.149 57.2784 137.557 55.6547 138.32 54.1899C139.123 52.6888 140.332 51.4445 141.81 50.5999C143.429 49.6795 145.268 49.2164 147.13 49.2599H147.43C147.43 49.1999 147.43 49.1499 147.43 49.0899C147.428 48.3881 147.357 47.6882 147.22 46.9999C146.389 46.8171 145.541 46.7233 144.69 46.7199C142.829 46.6923 140.995 47.1655 139.38 48.0899Z" fill="#FF4681"/>
<path d="M228.7 78.5901H215.57V81.1101H231.13V10.0901H228.7V78.5901Z" fill="#FF4681"/>
<path d="M213.14 76.0601H211C209.938 77.047 208.718 77.8482 207.39 78.4301C204.974 79.5094 202.356 80.0616 199.71 80.0501C195.677 80.1025 191.714 78.9877 188.3 76.8401C187.263 76.1827 186.283 75.4402 185.37 74.6201C186.888 76.4864 188.702 78.0911 190.74 79.3701C194.153 81.5113 198.111 82.6224 202.14 82.5701C204.785 82.5915 207.405 82.0566 209.83 81.0001C211.149 80.4085 212.365 79.6082 213.43 78.6301H213.14V76.0601Z" fill="#FF4681"/>
<path d="M198.32 48.0901C196.839 48.9352 195.629 50.1837 194.83 51.6901C194.021 53.2311 193.608 54.9495 193.63 56.6901C193.632 57.3598 193.686 58.0284 193.79 58.6901C194.544 58.8438 195.311 58.9242 196.08 58.9301C196.091 57.2787 196.496 55.6538 197.26 54.1901C198.063 52.689 199.272 51.4447 200.75 50.6001C202.369 49.6797 204.208 49.2165 206.07 49.2601H206.34V49.0901C206.336 48.3888 206.269 47.6894 206.14 47.0001C205.316 46.8175 204.474 46.7236 203.63 46.7201C201.769 46.6905 199.934 47.1638 198.32 48.0901Z" fill="#FF4681"/>
<path d="M313.35 42.88C312.54 41.162 311.333 39.6608 309.83 38.5C311.49 41.0436 312.471 43.9698 312.68 47C312.791 45.6107 313.015 44.2328 313.35 42.88Z" fill="#FF4681"/>
<path d="M312.87 78.59H299.74V81.11H315.31V60.41C314.079 58.0232 313.255 55.4479 312.87 52.79V78.59Z" fill="#FF4681"/>
<path d="M255.2 48.7098C254.316 51.5943 253.91 54.6042 254 57.6198V78.6198H240.89V81.1398H256.45V60.1398C256.352 57.1245 256.754 54.1138 257.64 51.2298C257.862 50.5455 258.241 49.9225 258.746 49.4103C259.251 48.8981 259.869 48.511 260.55 48.2798C260.55 47.2798 260.43 46.2798 260.32 45.3398C257.65 45.4998 255.94 46.6098 255.2 48.7098Z" fill="#FF4681"/>
<path d="M284.8 48.9102C283.793 51.6996 283.331 54.6566 283.44 57.6202V78.6202H270.31V81.1402H285.88V60.1402C285.768 57.1772 286.227 54.2204 287.23 51.4302C287.482 50.8155 287.858 50.2592 288.335 49.7964C288.811 49.3335 289.378 48.974 290 48.7402C290 47.6602 289.89 46.6502 289.78 45.7402C287.26 45.9302 285.59 47.0002 284.8 48.9102Z" fill="#FF4681"/>
<path d="M340.67 48.09C339.189 48.9351 337.979 50.1836 337.18 51.69C336.363 53.2284 335.947 54.9481 335.97 56.69C335.971 57.3602 336.028 58.0292 336.14 58.69C336.891 58.8432 337.654 58.9236 338.42 58.93C338.439 57.2785 338.847 55.6548 339.61 54.19C340.41 52.6873 341.621 51.4424 343.1 50.6C344.719 49.6796 346.558 49.2165 348.42 49.26H348.72C348.72 49.2 348.72 49.15 348.72 49.09C348.718 48.3882 348.647 47.6882 348.51 47C347.679 46.8172 346.831 46.7233 345.98 46.72C344.119 46.6914 342.285 47.1646 340.67 48.09Z" fill="#FF4681"/>
<path d="M355.5 76.0601H353.36C352.3 77.0449 351.084 77.8459 349.76 78.4301C347.34 79.5084 344.719 80.0606 342.07 80.0501C338.033 80.1038 334.067 78.9891 330.65 76.8401C329.612 76.1795 328.629 75.4372 327.71 74.6201C329.233 76.486 331.05 78.0905 333.09 79.3701C336.507 81.51 340.468 82.6209 344.5 82.5701C347.145 82.5915 349.765 82.0566 352.19 81.0001C353.509 80.4085 354.725 79.6082 355.79 78.6301H355.5V76.0601Z" fill="#FF4681"/>
<path d="M371.06 78.59H357.94V81.11H373.5V37.23H371.06V78.59Z" fill="#FF4681"/>
<path d="M400.63 48.0901C399.149 48.9353 397.939 50.1838 397.14 51.6901C396.331 53.2311 395.918 54.9496 395.94 56.6901C395.941 57.3604 395.998 58.0294 396.11 58.6901C396.86 58.8444 397.624 58.9248 398.39 58.9301C398.401 57.2788 398.806 55.6539 399.57 54.1901C400.376 52.6913 401.585 51.4478 403.06 50.6001C404.679 49.6798 406.518 49.2166 408.38 49.2601H408.67V49.0901C408.667 48.3884 408.597 47.6885 408.46 47.0001C407.636 46.8176 406.794 46.7237 405.95 46.7201C404.086 46.6897 402.248 47.163 400.63 48.0901Z" fill="#FF4681"/>
<path d="M432.88 50.3201C431.844 47.5374 430.286 44.9783 428.29 42.7801C427.733 42.1742 427.142 41.5999 426.52 41.0601C428.199 43.0703 429.527 45.3488 430.45 47.8001C432.576 53.5807 432.576 59.9294 430.45 65.7101C429.416 68.4691 427.869 71.0072 425.89 73.1901C423.931 75.3263 421.546 77.0294 418.89 78.1901C416.112 79.4135 413.105 80.0306 410.07 80.0001C407.489 80.0025 404.931 79.5173 402.53 78.5701C400.196 77.6786 398.116 76.2298 396.47 74.3501V100.45H383.33V103H398.9V76.9201C400.554 78.8083 402.65 80.258 405 81.1401C407.4 82.0913 409.959 82.5766 412.54 82.5701C415.578 82.6005 418.589 81.9834 421.37 80.7601C424.033 79.5891 426.419 77.8681 428.37 75.7101C430.352 73.5298 431.9 70.991 432.93 68.2301C435.07 62.4519 435.07 56.0982 432.93 50.3201H432.88Z" fill="#FF4681"/>
<path d="M24.07 57.3903L21.64 53.5703V76.0603H7.29999V78.5903H9.72999H24.07V57.3903Z" fill="#FF74A1"/>
<path d="M40.66 52.14C43.4078 51.7106 45.9987 50.5805 48.1829 48.8587C50.367 47.137 52.0708 44.8816 53.13 42.31C54.2413 39.6574 54.7993 36.8058 54.77 33.93C54.9107 30.0299 53.9135 26.1731 51.9 22.83C50.9597 21.3912 49.8104 20.1004 48.49 19C48.83 19.43 49.16 19.88 49.49 20.35C51.4989 23.6987 52.4957 27.5573 52.36 31.46C52.3846 34.3322 51.8267 37.1795 50.72 39.83C49.6638 42.4046 47.9611 44.663 45.7766 46.3868C43.592 48.1106 40.9996 49.2415 38.25 49.67L58.5 76.06H38.44L40.05 78.59H60.93L40.66 52.14Z" fill="#FF74A1"/>
<path d="M23.26 24.39H21.64V35.25C22.458 35.1655 23.2696 35.0285 24.07 34.84V26.91H25.7C27.1396 26.9019 28.5775 27.0089 30 27.23C29.9896 26.5574 29.9125 25.8875 29.77 25.23C29.53 25.15 29.31 25.06 29.06 25C27.1571 24.5711 25.2105 24.3664 23.26 24.39Z" fill="#FF74A1"/>
<path d="M108.73 41.6301C109.9 43.3832 110.794 45.3056 111.38 47.3301C111.43 46.5201 111.52 45.7201 111.64 44.9401C111.48 44.6701 111.33 44.4101 111.16 44.1501C110.738 43.527 110.284 42.9262 109.8 42.3501C109.057 41.4477 108.245 40.6051 107.37 39.8301C107.84 40.4001 108.3 41.0001 108.73 41.6301Z" fill="#FF74A1"/>
<path d="M80.57 45.5699C79.0891 46.4151 77.8788 47.6635 77.08 49.1699C76.2698 50.7106 75.8573 52.4293 75.88 54.1699C75.8612 55.5352 76.0986 56.892 76.58 58.1699C77.1915 58.4287 77.8282 58.6231 78.48 58.7499C78.3676 58.0891 78.3107 57.4201 78.31 56.7499C78.2882 55.0094 78.7006 53.2909 79.51 51.7499C80.2996 50.2214 81.5108 48.9512 83 48.0899C84.6211 47.1742 86.4586 46.7113 88.32 46.7499C89.1609 46.754 89.999 46.8479 90.82 47.0299C90.7012 46.3742 90.5204 45.7313 90.28 45.1099C88.8949 44.5108 87.399 44.2109 85.89 44.2299C84.0285 44.1904 82.1907 44.6533 80.57 45.5699Z" fill="#FF74A1"/>
<path d="M88.33 80.0502C92.873 80.091 97.3705 79.1424 101.51 77.2702C105.424 75.5315 108.769 72.724 111.16 69.1702C112.788 66.7198 113.879 63.9524 114.36 61.0502L114.15 60.6802C113.35 59.1616 112.713 57.5627 112.25 55.9102C112.065 59.7387 110.849 63.4462 108.73 66.6402C106.337 70.1945 102.993 73.0046 99.08 74.7502C94.9226 76.5768 90.431 77.52 85.89 77.52C81.349 77.52 76.8574 76.5768 72.7 74.7502C70.5471 73.7709 68.5519 72.4767 66.78 70.9102C67.5227 71.8126 68.3352 72.6552 69.21 73.4302C70.9834 74.9948 72.9782 76.2888 75.13 77.2702C79.2759 79.1443 83.7803 80.093 88.33 80.0502Z" fill="#FF74A1"/>
<path d="M169.78 37.2302V34.7002H167.34V76.0602H154.22V78.5902H154.51H156.65H169.78V37.2302Z" fill="#FF74A1"/>
<path d="M137 45.5702C135.519 46.4154 134.309 47.6638 133.51 49.1702C132.692 50.7085 132.276 52.4282 132.3 54.1702C132.281 55.5355 132.519 56.8923 133 58.1702C133.612 58.4277 134.249 58.622 134.9 58.7502C134.791 58.0891 134.737 57.4201 134.74 56.7502C134.718 55.0097 135.131 53.2912 135.94 51.7502C136.739 50.2438 137.949 48.9954 139.43 48.1502C141.051 47.2345 142.889 46.7717 144.75 46.8102C145.601 46.8136 146.449 46.9074 147.28 47.0902C147.167 46.4364 146.986 45.7962 146.74 45.1802C145.346 44.5759 143.84 44.2726 142.32 44.2902C140.464 44.2324 138.627 44.6745 137 45.5702Z" fill="#FF74A1"/>
<path d="M140.78 80.0501C143.429 80.0606 146.05 79.5084 148.47 78.4301C149.794 77.8459 151.01 77.0449 152.07 76.0601H151.78V73.5401H149.64C148.58 74.5249 147.364 75.3259 146.04 75.9101C143.616 76.9861 140.992 77.5349 138.34 77.5201C134.308 77.576 130.345 76.4647 126.93 74.3201C125.898 73.6558 124.919 72.9137 124 72.1001C124.745 73.0003 125.558 73.8427 126.43 74.6201C127.367 75.4418 128.37 76.1844 129.43 76.8401C132.827 78.9776 136.767 80.092 140.78 80.0501Z" fill="#FF74A1"/>
<path d="M228.7 10.0901V7.57007H226.27V76.0601H213.14V78.5901H213.43H215.57H228.7V10.0901Z" fill="#FF74A1"/>
<path d="M199.71 80.0501C202.356 80.0616 204.974 79.5094 207.39 78.4301C208.718 77.8482 209.938 77.047 211 76.0601H210.71V73.5401H208.56C207.502 74.527 206.285 75.3283 204.96 75.9101C202.543 76.9859 199.925 77.5348 197.28 77.5201C193.248 77.5772 189.285 76.4658 185.87 74.3201C184.832 73.6595 183.849 72.9172 182.93 72.1001C183.673 73.0051 184.489 73.8479 185.37 74.6201C186.283 75.4402 187.263 76.1827 188.3 76.8401C191.714 78.9877 195.677 80.1025 199.71 80.0501Z" fill="#FF74A1"/>
<path d="M195.89 45.5702C194.409 46.4154 193.199 47.6638 192.4 49.1702C191.59 50.7109 191.177 52.4296 191.2 54.1702C191.176 55.536 191.414 56.8937 191.9 58.1702C192.508 58.4291 193.141 58.6235 193.79 58.7502C193.686 58.0886 193.632 57.42 193.63 56.7502C193.608 55.0097 194.021 53.2912 194.83 51.7502C195.629 50.2438 196.839 48.9954 198.32 48.1502C199.937 47.2344 201.772 46.7715 203.63 46.8102C204.474 46.8138 205.316 46.9077 206.14 47.0902C206.018 46.4342 205.834 45.7914 205.59 45.1702C204.206 44.5691 202.709 44.2692 201.2 44.2902C199.347 44.2322 197.513 44.6744 195.89 45.5702Z" fill="#FF74A1"/>
<path d="M283.44 57.6201C283.331 54.6565 283.793 51.6995 284.8 48.9101C285.59 47.0001 287.26 45.9101 289.8 45.7001C289.712 44.8496 289.575 44.0049 289.39 43.1701C289.091 43.1379 288.791 43.1213 288.49 43.1201C285.33 43.1201 283.29 44.2101 282.39 46.3801C281.369 49.1666 280.897 52.1243 281 55.0901V76.0901H267.88V78.6201H283.44V57.6201Z" fill="#FF74A1"/>
<path d="M254 57.62C253.907 54.605 254.309 51.5951 255.19 48.71C255.93 46.61 257.64 45.5 260.31 45.34C260.21 44.5163 260.067 43.6985 259.88 42.89C259.426 42.8247 258.968 42.7913 258.51 42.79C255.51 42.79 253.56 43.92 252.76 46.18C251.881 49.0654 251.479 52.075 251.57 55.09V76.09H238.45V78.62H254V57.62Z" fill="#FF74A1"/>
<path d="M312.87 52.79C312.685 51.5418 312.592 50.2818 312.59 49.02C312.59 48.34 312.59 47.67 312.68 47.02C312.473 43.9864 311.492 41.0565 309.83 38.51C309.153 37.551 308.329 36.7041 307.39 36C309.39 38.8733 310.407 42.91 310.44 48.11V76.11H297.31V78.64H312.87V52.79Z" fill="#FF74A1"/>
<path d="M371.06 37.2302V34.7002H368.63V76.0602H355.5V78.5902H355.79H357.94H371.06V37.2302Z" fill="#FF74A1"/>
<path d="M338.24 45.5701C336.755 46.4138 335.542 47.6624 334.74 49.1701C333.93 50.7108 333.517 52.4295 333.54 54.1701C333.521 55.5355 333.759 56.8922 334.24 58.1701C334.852 58.4276 335.489 58.6219 336.14 58.7501C336.028 58.0893 335.971 57.4203 335.97 56.7501C335.947 55.0082 336.363 53.2885 337.18 51.7501C337.979 50.2437 339.189 48.9953 340.67 48.1501C342.288 47.2108 344.13 46.727 346 46.7501C346.851 46.7535 347.699 46.8473 348.53 47.0301C348.413 46.3774 348.232 45.7377 347.99 45.1201C346.596 44.5158 345.09 44.2125 343.57 44.2301C341.705 44.1888 339.864 44.6517 338.24 45.5701Z" fill="#FF74A1"/>
<path d="M342.07 80.0501C344.719 80.0606 347.34 79.5084 349.76 78.4301C351.084 77.8459 352.3 77.0449 353.36 76.0601H353.07V73.5401H350.93C349.868 74.527 348.648 75.3282 347.32 75.9101C344.9 76.987 342.279 77.5359 339.63 77.5201C335.598 77.576 331.635 76.4647 328.22 74.3201C327.185 73.6563 326.202 72.9141 325.28 72.1001C326.022 73.0027 326.835 73.8453 327.71 74.6201C328.629 75.4372 329.612 76.1795 330.65 76.8401C334.067 78.989 338.033 80.1038 342.07 80.0501Z" fill="#FF74A1"/>
<path d="M398.2 45.5701C396.719 46.4152 395.509 47.6637 394.71 49.1701C393.9 50.7108 393.487 52.4295 393.51 54.1701C393.486 55.5358 393.724 56.8936 394.21 58.1701C394.819 58.4348 395.457 58.6294 396.11 58.7501C395.998 58.0893 395.941 57.4203 395.94 56.7501C395.918 55.0095 396.331 53.2911 397.14 51.7501C397.939 50.2437 399.149 48.9952 400.63 48.1501C402.259 47.2037 404.116 46.7197 406 46.7501C406.844 46.7536 407.686 46.8475 408.51 47.0301C408.394 46.3759 408.209 45.7358 407.96 45.1201C406.572 44.5168 405.073 44.2135 403.56 44.2301C401.685 44.1813 399.832 44.6445 398.2 45.5701Z" fill="#FF74A1"/>
<path d="M396.46 74.4001C398.106 76.2798 400.186 77.7286 402.52 78.6201C404.921 79.5674 407.479 80.0525 410.06 80.0501C413.095 80.0806 416.102 79.4635 418.88 78.2401C421.536 77.0794 423.921 75.3763 425.88 73.2401C427.859 71.0572 429.406 68.5191 430.44 65.7601C432.566 59.9794 432.566 53.6307 430.44 47.8501C429.517 45.3988 428.189 43.1203 426.51 41.1101C426.29 40.8401 426.08 40.5701 425.85 40.3101C425.295 39.6985 424.704 39.1208 424.08 38.5801C425.747 40.5786 427.071 42.8391 428 45.2701C430.14 51.0517 430.14 57.4084 428 63.1901C426.975 65.9482 425.431 68.484 423.45 70.6601C421.496 72.8173 419.111 74.541 416.45 75.7201C413.67 76.9346 410.664 77.548 407.63 77.5201C405.05 77.5269 402.491 77.0451 400.09 76.1001C397.743 75.2118 395.652 73.759 394 71.8701V98.0001H380.9V100.53H396.46V74.4001Z" fill="#FF74A1"/>
<path d="M20.83 21.8602H19.2V35.4102C20.05 35.4102 20.87 35.3402 21.64 35.2502V24.3902H23.26C25.2101 24.3633 27.1567 24.5647 29.06 24.9902C29.31 25.0502 29.53 25.1402 29.77 25.2202C29.6448 24.6408 29.4466 24.0797 29.18 23.5502C28.3943 23.0542 27.533 22.6894 26.63 22.4702C24.7271 22.0413 22.7805 21.8366 20.83 21.8602Z" fill="#FFA3C0"/>
<path d="M58.5 76.0599L38.23 49.6199C40.9796 49.1914 43.5721 48.0605 45.7566 46.3367C47.9412 44.6129 49.6439 42.3545 50.7 39.7799C51.8068 37.1294 52.3647 34.2821 52.34 31.4099C52.4757 27.5072 51.479 23.6486 49.47 20.2999C49.16 19.8299 48.83 19.3799 48.47 18.9499C47.7515 18.0233 46.937 17.1752 46.04 16.4199C46.38 16.8599 46.71 17.3099 47.04 17.7799C49.0476 21.1255 50.0444 24.9805 49.91 28.8799C49.9346 31.7553 49.3768 34.6059 48.27 37.2599C47.2089 39.8331 45.5035 42.0898 43.3178 43.8131C41.1321 45.5365 38.5397 46.6684 35.79 47.0999L56.07 73.5399H36L37.61 76.0599H58.5Z" fill="#FFA3C0"/>
<path d="M21.64 76.0598V53.5698L19.2 49.7598V73.5398H4.87V76.0598H7.3H21.64Z" fill="#FFA3C0"/>
<path d="M72.7 74.7498C76.8574 76.5765 81.349 77.5197 85.89 77.5197C90.431 77.5197 94.9226 76.5765 99.08 74.7498C102.993 73.0043 106.337 70.1941 108.73 66.6398C110.849 63.4459 112.065 59.7384 112.25 55.9098C111.62 53.6675 111.304 51.3488 111.31 49.0198C111.31 48.4498 111.31 47.8898 111.38 47.3298C110.794 45.3054 109.9 43.383 108.73 41.6298C108.3 40.9998 107.84 40.3998 107.37 39.8298C106.625 38.9265 105.813 38.0808 104.94 37.2998C105.41 37.8798 105.87 38.4798 106.29 39.1098C108.728 42.823 109.979 47.1891 109.88 51.6298C109.978 56.0609 108.726 60.4169 106.29 64.1198C103.903 67.673 100.561 70.4805 96.65 72.2198C92.4943 74.053 88.0021 74.9999 83.46 74.9999C78.9179 74.9999 74.4257 74.053 70.27 72.2198C68.1175 71.244 66.1223 69.9532 64.35 68.3898C65.0979 69.2876 65.91 70.1298 66.78 70.9098C68.5519 72.4764 70.5471 73.7705 72.7 74.7498Z" fill="#FFA3C0"/>
<path d="M83.45 41.71C81.5911 41.6653 79.7551 42.1286 78.14 43.05C76.6605 43.8925 75.4504 45.1374 74.65 46.64C73.8414 48.1813 73.429 49.8996 73.45 51.64C73.4012 53.6252 73.9405 55.5805 75 57.26C75.4962 57.608 76.0294 57.8998 76.59 58.13C76.1086 56.8522 75.8712 55.4954 75.89 54.13C75.8673 52.3894 76.2798 50.6707 77.09 49.13C77.8888 47.6237 79.0991 46.3752 80.58 45.53C82.2007 44.6134 84.0385 44.1505 85.9 44.19C87.409 44.1711 88.9049 44.471 90.29 45.07C90.1555 44.7284 90.0019 44.3945 89.83 44.07C89.7152 43.8563 89.5883 43.6493 89.45 43.45C89.237 43.2852 89.0132 43.1348 88.78 43C87.1529 42.0953 85.3107 41.6495 83.45 41.71Z" fill="#FFA3C0"/>
<path d="M164.91 73.5397H151.78V76.0597H152.07H154.22H167.34V34.6997V32.1797H164.91V73.5397Z" fill="#FFA3C0"/>
<path d="M139.84 41.7099C137.978 41.6654 136.139 42.1286 134.52 43.0499C133.04 43.8943 131.827 45.1384 131.02 46.6399C130.211 48.1812 129.799 49.8995 129.82 51.6399C129.773 53.6248 130.312 55.5796 131.37 57.2599C131.866 57.602 132.396 57.8935 132.95 58.1299C132.469 56.852 132.231 55.4952 132.25 54.1299C132.226 52.3879 132.642 50.6681 133.46 49.1299C134.259 47.6235 135.469 46.375 136.95 45.5299C138.571 44.6133 140.408 44.1504 142.27 44.1899C143.79 44.1723 145.296 44.4755 146.69 45.0799C146.56 44.7377 146.41 44.4038 146.24 44.0799C146.12 43.8599 145.98 43.6599 145.85 43.4599C145.72 43.2599 145.42 43.1499 145.18 43.0099C143.55 42.1023 141.705 41.6531 139.84 41.7099Z" fill="#FFA3C0"/>
<path d="M126.93 74.3203C130.345 76.4649 134.308 77.5762 138.34 77.5203C140.992 77.5351 143.616 76.9863 146.04 75.9103C147.364 75.3261 148.58 74.5251 149.64 73.5403H149.35V71.0003H147.21C146.143 71.9807 144.924 72.7812 143.6 73.3703C141.18 74.4495 138.56 75.0049 135.91 75.0003C131.877 75.0527 127.914 73.9379 124.5 71.7903C123.458 71.1355 122.475 70.3928 121.56 69.5703C122.303 70.4788 123.119 71.325 124 72.1003C124.919 72.9139 125.898 73.6561 126.93 74.3203Z" fill="#FFA3C0"/>
<path d="M223.83 73.54H210.71V76.06H211H213.14H226.27V7.57005V5.05005H223.83V73.54Z" fill="#FFA3C0"/>
<path d="M198.77 41.7102C196.908 41.6667 195.069 42.1298 193.45 43.0502C191.985 43.8986 190.79 45.1429 190 46.6402C189.188 48.1807 188.773 49.899 188.79 51.6402C188.742 53.6253 189.281 55.5804 190.34 57.2602C190.834 57.6122 191.367 57.9042 191.93 58.1302C191.444 56.8537 191.206 55.4959 191.23 54.1302C191.207 52.3896 191.62 50.6709 192.43 49.1302C193.229 47.6238 194.439 46.3754 195.92 45.5302C197.537 44.6134 199.372 44.1505 201.23 44.1902C202.739 44.1691 204.236 44.4691 205.62 45.0702C205.489 44.7286 205.339 44.3948 205.17 44.0702C205.055 43.8543 204.925 43.647 204.78 43.4502C204.569 43.2877 204.348 43.1375 204.12 43.0002C202.487 42.0919 200.637 41.646 198.77 41.7102Z" fill="#FFA3C0"/>
<path d="M185.87 74.3201C189.285 76.4658 193.248 77.5771 197.28 77.5201C199.939 77.5404 202.571 76.9915 205 75.9101C206.325 75.3282 207.542 74.527 208.6 73.5401H208.31V71.0001H206.17C205.107 71.9804 203.891 72.7809 202.57 73.3701C200.138 74.4539 197.503 75.0094 194.84 75.0001C190.81 75.0539 186.85 73.939 183.44 71.7901C182.401 71.1354 181.418 70.3962 180.5 69.5801C181.243 70.4826 182.055 71.3252 182.93 72.1001C183.849 72.9171 184.832 73.6595 185.87 74.3201Z" fill="#FFA3C0"/>
<path d="M281 76.06V55.06C280.887 52.0961 281.349 49.1385 282.36 46.35C283.26 44.18 285.3 43.09 288.46 43.09C288.761 43.0911 289.061 43.1078 289.36 43.14C289.237 42.5514 289.08 41.9705 288.89 41.4C288.846 41.2808 288.796 41.164 288.74 41.05C287.866 40.7185 286.934 40.5655 286 40.6C282.827 40.6 280.793 41.6866 279.9 43.86C278.888 46.6481 278.426 49.606 278.54 52.57V73.57H265.45V76.09H281V76.06Z" fill="#FFA3C0"/>
<path d="M251.58 76.0602V55.0602C251.489 52.0452 251.891 49.0356 252.77 46.1502C253.57 43.8902 255.48 42.7602 258.52 42.7602C258.978 42.7615 259.436 42.7949 259.89 42.8602C259.754 42.2675 259.584 41.6832 259.38 41.1102C259.38 41.0102 259.3 40.9302 259.26 40.8302C258.254 40.4112 257.17 40.2102 256.08 40.2402C253.08 40.2402 251.13 41.3702 250.34 43.6302C249.459 46.5153 249.057 49.5252 249.15 52.5402V73.5402H236V76.0602H251.56H251.58Z" fill="#FFA3C0"/>
<path d="M310.44 76.06V48.06C310.44 42.8533 309.423 38.8166 307.39 35.95C306.727 35.0015 305.921 34.1615 305 33.46C307 36.32 308.017 40.3566 308.05 45.57V73.57H294.88V76.09H310.44V76.06Z" fill="#FFA3C0"/>
<path d="M366.2 73.5397H353.07V76.0597H353.36H355.5H368.63V34.6997V32.1797H366.2V73.5397Z" fill="#FFA3C0"/>
<path d="M328.22 74.3203C331.635 76.4649 335.598 77.5762 339.63 77.5203C342.279 77.5361 344.9 76.9872 347.32 75.9103C348.648 75.3284 349.868 74.5272 350.93 73.5403H350.64V71.0003H348.5C347.431 71.9785 346.212 72.7787 344.89 73.3703C342.47 74.4486 339.849 75.004 337.2 75.0003C333.167 75.0527 329.204 73.9379 325.79 71.7903C324.748 71.1355 323.765 70.3928 322.85 69.5703C323.59 70.4784 324.402 71.3245 325.28 72.1003C326.202 72.9143 327.185 73.6565 328.22 74.3203Z" fill="#FFA3C0"/>
<path d="M341.12 41.7101C339.258 41.6666 337.419 42.1297 335.8 43.0501C334.322 43.8947 333.113 45.139 332.31 46.6401C331.501 48.1814 331.089 49.8997 331.11 51.6401C331.065 53.6235 331.6 55.5768 332.65 57.2601C333.151 57.6005 333.683 57.8919 334.24 58.1301C333.759 56.8522 333.521 55.4955 333.54 54.1301C333.517 52.3895 333.93 50.6708 334.74 49.1301C335.542 47.6224 336.755 46.3738 338.24 45.5301C339.861 44.6135 341.698 44.1506 343.56 44.1901C345.08 44.1725 346.586 44.4758 347.98 45.0801C347.84 44.7401 347.7 44.4001 347.53 44.0801C347.36 43.7601 347.27 43.6601 347.14 43.4601C347.01 43.2601 346.71 43.1501 346.47 43.0101C344.837 42.1012 342.988 41.6519 341.12 41.7101Z" fill="#FFA3C0"/>
<path d="M401.08 41.7098C399.221 41.665 397.385 42.1283 395.77 43.0498C394.29 43.8922 393.08 45.1371 392.28 46.6398C391.471 48.1811 391.059 49.8994 391.08 51.6398C391.028 53.6239 391.564 55.5791 392.62 57.2598C393.114 57.6117 393.647 57.9038 394.21 58.1298C393.724 56.8533 393.486 55.4955 393.51 54.1298C393.487 52.3892 393.9 50.6705 394.71 49.1298C395.509 47.6234 396.719 46.3749 398.2 45.5298C399.817 44.613 401.652 44.1501 403.51 44.1898C405.023 44.1732 406.522 44.4765 407.91 45.0798C407.785 44.7375 407.638 44.4035 407.47 44.0798C407.348 43.8593 407.215 43.6456 407.07 43.4398C406.86 43.275 406.64 43.1247 406.41 42.9898C404.781 42.0904 402.94 41.6482 401.08 41.7098Z" fill="#FFA3C0"/>
<path d="M394 98V71.87C395.643 73.7549 397.724 75.2075 400.06 76.1C402.461 77.045 405.02 77.5268 407.6 77.52C410.634 77.5479 413.64 76.9345 416.42 75.72C419.081 74.5409 421.466 72.8172 423.42 70.66C425.411 68.4865 426.966 65.9505 428 63.19C430.14 57.4084 430.14 51.0516 428 45.27C427.076 42.8215 425.751 40.5437 424.08 38.53C423.86 38.27 423.65 37.99 423.42 37.73C422.864 37.1234 422.276 36.546 421.66 36C423.33 38.0146 424.655 40.2922 425.58 42.74C426.659 45.6173 427.205 48.6671 427.19 51.74C427.207 54.7895 426.665 57.8162 425.59 60.67C424.55 63.43 422.992 65.9655 421 68.14C419.043 70.2791 416.658 71.9827 414 73.14C411.232 74.377 408.232 75.011 405.2 75C402.619 75.0034 400.061 74.5182 397.66 73.57C395.323 72.6836 393.242 71.234 391.6 69.35V95.45H378.47V98H394Z" fill="#FFA3C0"/>
<path d="M19.2 73.5402V49.7602L16.94 46.2002H16.77V71.0202H2.42999V73.5402H4.86999H19.2Z" fill="#FFD1E0"/>
<path d="M56.07 73.5399L35.79 47.0999C38.5397 46.6683 41.1321 45.5365 43.3178 43.8131C45.5034 42.0898 47.2089 39.833 48.27 37.2599C49.3767 34.6059 49.9346 31.7553 49.91 28.8799C50.0323 24.9765 49.0216 21.1212 47 17.7799C46.69 17.3099 46.36 16.8599 46 16.4199C45.2813 15.4964 44.4668 14.6517 43.57 13.8999C43.9284 14.3342 44.2623 14.7883 44.57 15.2599C46.5864 18.6022 47.5871 22.4589 47.45 26.3599C47.4785 29.2334 46.9169 32.0822 45.8 34.7299C44.7439 37.3045 43.0411 39.5629 40.8566 41.2867C38.672 43.0105 36.0796 44.1414 33.33 44.5699L53.64 70.9999H33.58L35.19 73.5199H56.07V73.5399Z" fill="#FFD1E0"/>
<path d="M19.2 21.8603H20.83C22.7805 21.8367 24.7271 22.0414 26.63 22.4703C27.533 22.6895 28.3943 23.0543 29.18 23.5503C28.9631 23.1115 28.6872 22.7044 28.36 22.3403C27.2368 21.1641 25.7885 20.3494 24.2 20.0003C22.2979 19.5665 20.3508 19.3617 18.4 19.3903H16.77V35.4203H19.2V21.8603Z" fill="#FFD1E0"/>
<path d="M70.27 72.2203C74.4257 74.0535 78.9179 75.0003 83.46 75.0003C88.0021 75.0003 92.4943 74.0535 96.65 72.2203C100.561 70.481 103.903 67.6734 106.29 64.1203C108.726 60.4174 109.978 56.0614 109.88 51.6303C109.979 47.1896 108.728 42.8235 106.29 39.1103C105.87 38.4803 105.41 37.8803 104.94 37.3003C104.194 36.3976 103.378 35.5551 102.5 34.7803C105.871 38.7728 107.632 43.8786 107.44 49.1003C107.542 53.5335 106.293 57.8929 103.86 61.6003C101.473 65.1534 98.1314 67.961 94.22 69.7003C90.0643 71.5335 85.5721 72.4803 81.03 72.4803C76.4879 72.4803 71.9957 71.5335 67.84 69.7003C65.6858 68.7234 63.6903 67.429 61.92 65.8603C62.6624 66.766 63.4749 67.6119 64.35 68.3903C66.1223 69.9537 68.1175 71.2445 70.27 72.2203Z" fill="#FFD1E0"/>
<path d="M73.45 51.6403C73.429 49.8998 73.8414 48.1816 74.65 46.6403C75.4504 45.1376 76.6605 43.8927 78.14 43.0503C79.7735 42.1706 81.5997 41.7102 83.455 41.7102C85.3103 41.7102 87.1365 42.1706 88.77 43.0503C89.0032 43.1851 89.227 43.3354 89.44 43.5003C88.6584 42.2692 87.596 41.241 86.34 40.5003C84.7065 39.6206 82.8803 39.1602 81.025 39.1602C79.1697 39.1602 77.3435 39.6206 75.71 40.5003C74.2291 41.3454 73.0188 42.5939 72.22 44.1003C71.4106 45.6413 70.9981 47.3598 71.02 49.1003C70.9739 50.3971 71.1882 51.69 71.6502 52.9026C72.1122 54.1152 72.8126 55.2229 73.71 56.1603C74.1028 56.5684 74.5349 56.9369 75 57.2603C73.9405 55.5807 73.4012 53.6254 73.45 51.6403Z" fill="#FFD1E0"/>
<path d="M162.48 71.0202H149.35V73.5402H149.64H151.78H164.91V32.1802V29.6602H162.48V71.0202Z" fill="#FFD1E0"/>
<path d="M124.5 71.7902C127.914 73.9378 131.877 75.0525 135.91 75.0002C138.558 75.0111 141.179 74.4624 143.6 73.3902C144.925 72.7949 146.145 71.9877 147.21 71.0002H146.92V66.1602H146.75C145.411 68.258 143.465 69.8977 141.17 70.8602C138.751 71.9393 136.129 72.4916 133.48 72.4802C129.447 72.5325 125.484 71.4178 122.07 69.2701C121.031 68.6121 120.047 67.8696 119.13 67.0502C120.661 68.9017 122.473 70.5012 124.5 71.7902Z" fill="#FFD1E0"/>
<path d="M129.82 51.6402C129.799 49.8998 130.211 48.1815 131.02 46.6402C131.827 45.1387 133.04 43.8946 134.52 43.0502C136.159 42.1705 137.99 41.7101 139.85 41.7101C141.71 41.7101 143.541 42.1705 145.18 43.0502C145.42 43.1902 145.63 43.3502 145.85 43.5002C145.071 42.2669 144.008 41.2382 142.75 40.5002C141.109 39.6205 139.277 39.1602 137.415 39.1602C135.553 39.1602 133.721 39.6205 132.08 40.5002C130.599 41.3454 129.389 42.5938 128.59 44.1002C127.781 45.6412 127.368 47.3597 127.39 49.1002C127.346 50.3976 127.562 51.6908 128.026 52.9034C128.489 54.116 129.191 55.2233 130.09 56.1602C130.479 56.5628 130.908 56.9247 131.37 57.2402C130.316 55.5656 129.777 53.6184 129.82 51.6402Z" fill="#FFD1E0"/>
<path d="M221.4 71.02H208.27V73.54H208.56H210.71H223.83V5.05002V2.52002H221.4V71.02Z" fill="#FFD1E0"/>
<path d="M183.44 71.7902C186.85 73.9391 190.81 75.054 194.84 75.0002C197.488 75.0102 200.108 74.4616 202.53 73.3902C203.851 72.801 205.067 72.0005 206.13 71.0201H205.84V66.1602H205.67C204.333 68.2556 202.391 69.8949 200.1 70.8602C197.68 71.9385 195.059 72.4907 192.41 72.4802C188.376 72.536 184.413 71.4209 181 69.2701C179.958 68.6153 178.975 67.8726 178.06 67.0502C179.584 68.9086 181.397 70.5091 183.43 71.7902H183.44Z" fill="#FFD1E0"/>
<path d="M188.76 51.6403C188.742 49.899 189.158 48.1808 189.97 46.6403C190.768 45.1389 191.974 43.8942 193.45 43.0503C195.085 42.1706 196.913 41.7102 198.77 41.7102C200.627 41.7102 202.455 42.1706 204.09 43.0503C204.318 43.1876 204.539 43.3378 204.75 43.5003C203.975 42.2637 202.911 41.2342 201.65 40.5003C200.017 39.6206 198.19 39.1602 196.335 39.1602C194.48 39.1602 192.653 39.6206 191.02 40.5003C189.539 41.3454 188.329 42.5939 187.53 44.1003C186.721 45.6413 186.308 47.3598 186.33 49.1003C186.286 50.3977 186.502 51.6909 186.966 52.9035C187.429 54.116 188.131 55.2234 189.03 56.1603C189.416 56.5657 189.845 56.9278 190.31 57.2403C189.255 55.5662 188.716 53.6186 188.76 51.6403Z" fill="#FFD1E0"/>
<path d="M275.73 34.07C275.83 33.88 275.94 33.7 276.05 33.52C275.486 32.8621 274.863 32.2563 274.19 31.71C274.766 32.4538 275.281 33.2431 275.73 34.07Z" fill="#FFD1E0"/>
<path d="M246.72 32.6002H246.88C247.566 31.7083 248.325 30.8754 249.15 30.1102V29.6602H246.72V32.6002Z" fill="#FFD1E0"/>
<path d="M308 73.5399V45.5399C308 40.3199 306.983 36.2832 304.95 33.4299C304.275 32.4669 303.455 31.6135 302.52 30.8999C304.52 33.7699 305.57 37.7999 305.57 43.0199V70.9999H292.45V73.5199H308V73.5399Z" fill="#FFD1E0"/>
<path d="M278.58 73.5398V52.5398C278.466 49.5759 278.928 46.6179 279.94 43.8298C280.84 41.6565 282.873 40.5698 286.04 40.5698C286.966 40.5489 287.887 40.7121 288.75 41.0498C287.94 39.0498 286.23 38.0498 283.6 38.0498C280.44 38.0498 278.41 39.1298 277.5 41.3098C276.497 44.0967 276.039 47.0501 276.15 50.0098V70.9998H263V73.5198H278.56L278.58 73.5398Z" fill="#FFD1E0"/>
<path d="M249.15 73.54V52.54C249.057 49.5249 249.459 46.515 250.34 43.63C251.13 41.37 253.05 40.24 256.08 40.24C257.17 40.2099 258.254 40.411 259.26 40.83C258.41 38.76 256.54 37.71 253.65 37.71C250.76 37.71 248.65 38.84 247.91 41.11C247.025 43.9906 246.623 46.9979 246.72 50.01V71H233.59V73.52H249.15V73.54Z" fill="#FFD1E0"/>
<path d="M363.77 71.0202H350.64V73.5402H350.93H353.07H366.2V32.1802V29.6602H363.77V71.0202Z" fill="#FFD1E0"/>
<path d="M325.79 71.7902C329.204 73.9378 333.167 75.0525 337.2 75.0002C339.848 75.0102 342.468 74.4616 344.89 73.3902C346.214 72.7924 347.433 71.9854 348.5 71.0002H348.21V66.1602H348C346.657 68.2538 344.712 69.8922 342.42 70.8602C340 71.9385 337.379 72.4907 334.73 72.4802C330.697 72.5337 326.734 71.4188 323.32 69.2701C322.278 68.6121 321.291 67.8696 320.37 67.0502C321.116 67.9528 321.932 68.7954 322.81 69.5702C323.738 70.3945 324.735 71.1373 325.79 71.7902Z" fill="#FFD1E0"/>
<path d="M331.11 51.6402C331.089 49.8998 331.501 48.1815 332.31 46.6402C333.113 45.1391 334.322 43.8949 335.8 43.0502C337.441 42.1705 339.273 41.7102 341.135 41.7102C342.997 41.7102 344.829 42.1705 346.47 43.0502C346.71 43.1902 346.92 43.3502 347.14 43.5002C346.357 42.2665 345.291 41.2379 344.03 40.5002C342.391 39.6205 340.56 39.1602 338.7 39.1602C336.84 39.1602 335.009 39.6205 333.37 40.5002C331.889 41.3454 330.679 42.5938 329.88 44.1002C329.071 45.6412 328.658 47.3597 328.68 49.1002C328.636 50.3968 328.851 51.6891 329.313 52.9013C329.775 54.1136 330.474 55.2216 331.37 56.1602C331.763 56.5581 332.192 56.9196 332.65 57.2402C331.604 55.5627 331.069 53.6168 331.11 51.6402Z" fill="#FFD1E0"/>
<path d="M389.33 32.0802C389.916 31.1871 390.615 30.3736 391.41 29.6602H389.17V32.0802H389.33Z" fill="#FFD1E0"/>
<path d="M391.6 95.45V69.35C393.242 71.234 395.323 72.6836 397.66 73.57C400.061 74.5182 402.619 75.0034 405.2 75C408.228 75.0267 411.228 74.4098 414 73.19C416.658 72.0327 419.043 70.3291 421 68.19C422.979 66.0092 424.524 63.4703 425.55 60.71C426.625 57.8562 427.167 54.8295 427.15 51.78C427.165 48.7071 426.619 45.6573 425.54 42.78C424.631 40.3208 423.32 38.0296 421.66 36C421.44 35.73 421.23 35.46 421 35.2C420.439 34.594 419.845 34.0198 419.22 33.48C420.899 35.4902 422.227 37.7687 423.15 40.22C425.29 45.9981 425.29 52.3518 423.15 58.13C422.12 60.8885 420.576 63.4267 418.6 65.61C416.641 67.7462 414.256 69.4493 411.6 70.61C408.819 71.8334 405.808 72.4504 402.77 72.42C400.189 72.4217 397.631 71.9366 395.23 70.99C392.898 70.1007 390.82 68.6514 389.18 66.77V92.87H376V95.39H391.6V95.45Z" fill="#FFD1E0"/>
<path d="M391.08 51.6402C391.059 49.8998 391.471 48.1815 392.28 46.6402C393.08 45.1376 394.291 43.8927 395.77 43.0502C397.405 42.1706 399.233 41.7102 401.09 41.7102C402.947 41.7102 404.775 42.1706 406.41 43.0502C406.64 43.1852 406.86 43.3355 407.07 43.5002C406.3 42.2601 405.235 41.2296 403.97 40.5002C402.335 39.6206 400.507 39.1602 398.65 39.1602C396.793 39.1602 394.965 39.6206 393.33 40.5002C391.853 41.3469 390.646 42.5952 389.85 44.1002C389.033 45.6387 388.617 47.3583 388.64 49.1002C388.596 50.3977 388.812 51.6909 389.276 52.9034C389.739 54.116 390.441 55.2234 391.34 56.1602C391.728 56.5633 392.157 56.9252 392.62 57.2402C391.568 55.5653 391.032 53.6176 391.08 51.6402Z" fill="#FFD1E0"/>
<path d="M53.64 70.9999L33.36 44.5699C36.1096 44.1414 38.702 43.0105 40.8866 41.2867C43.0711 39.5629 44.7738 37.3045 45.83 34.7299C46.9469 32.0822 47.5085 29.2334 47.48 26.3599C47.6171 22.4589 46.6164 18.6022 44.6 15.2599C44.2923 14.7883 43.9584 14.3343 43.6 13.8999C41.7615 11.5725 39.3492 9.76323 36.6 8.64992C32.9329 7.18078 29.0099 6.4567 25.06 6.51992H0V70.9999H16.77V46.1999H16.94L19.2 49.7599L21.64 53.5699L24.07 57.3899L26.5 61.1999L32.75 70.9999H53.64ZM16.77 35.4199V19.3399H18.4C20.3507 19.3113 22.2979 19.5161 24.2 19.9499C25.7944 20.3129 27.2434 21.1454 28.36 22.3399C28.6872 22.704 28.9631 23.1111 29.18 23.5499C29.4466 24.0794 29.6448 24.6405 29.77 25.2199C29.9125 25.8774 29.9895 26.5473 30 27.2199C30 27.2699 30 27.3199 30 27.3699C29.9993 28.0762 29.9222 28.7803 29.77 29.4699C29.5729 30.5638 29.082 31.5835 28.35 32.4199C27.8072 33.0031 27.1802 33.502 26.49 33.8999C25.7657 34.3085 24.9883 34.6148 24.18 34.8099H24.06C23.2596 34.9984 22.4479 35.1354 21.63 35.2199C20.86 35.3099 20.04 35.3499 19.19 35.3799H16.77V35.4199Z" fill="white"/>
<path d="M67.84 69.7002C71.9957 71.5335 76.4879 72.4803 81.03 72.4803C85.5721 72.4803 90.0643 71.5335 94.22 69.7002C98.1314 67.961 101.473 65.1534 103.86 61.6003C106.293 57.8929 107.542 53.5335 107.44 49.1003C107.632 43.8786 105.871 38.7728 102.5 34.7803C100.26 32.0681 97.427 29.906 94.22 28.4603C90.0661 26.6204 85.5732 25.6699 81.03 25.6699C76.4868 25.6699 71.9939 26.6204 67.84 28.4603C63.924 30.2056 60.577 33.0156 58.18 36.5703C57.7944 37.1506 57.4405 37.7515 57.12 38.3703C55.799 40.8971 54.9902 43.66 54.74 46.5003C54.6474 47.3638 54.6007 48.2317 54.6 49.1003C54.4921 53.5451 55.7447 57.9169 58.19 61.6303C59.2483 63.1932 60.5017 64.6147 61.92 65.8603C63.6903 67.429 65.6858 68.7234 67.84 69.7002ZM71 49.1203C70.9781 47.3797 71.3906 45.6613 72.2 44.1203C72.9988 42.6139 74.2091 41.3654 75.69 40.5203C77.3235 39.6406 79.1497 39.1801 81.005 39.1801C82.8603 39.1801 84.6865 39.6406 86.32 40.5203C87.576 41.261 88.6384 42.2892 89.42 43.5203C89.5583 43.7196 89.6852 43.9266 89.8 44.1403C89.9719 44.4647 90.1255 44.7986 90.26 45.1403C90.5036 45.7417 90.6911 46.3643 90.82 47.0003C90.944 47.7 91.0042 48.4096 91 49.1203C91 49.1803 91 49.2303 91 49.2903C91.0492 50.6035 90.8218 51.9124 90.3328 53.1321C89.8437 54.3519 89.1037 55.4553 88.1609 56.3707C87.2181 57.2862 86.0935 57.9933 84.8598 58.4463C83.6262 58.8993 82.3112 59.088 81 59.0003H80.74C79.974 58.995 79.2103 58.9146 78.46 58.7603C77.8082 58.6335 77.1714 58.4391 76.56 58.1803C76.0076 57.9322 75.4844 57.6236 75 57.2603C74.5393 56.9426 74.1106 56.5809 73.72 56.1803C72.8172 55.2454 72.1113 54.1388 71.6441 52.9261C71.1769 51.7134 70.9578 50.4192 71 49.1203Z" fill="white"/>
<path d="M122.07 69.2699C125.484 71.4175 129.447 72.5323 133.48 72.4799C136.129 72.4913 138.751 71.9391 141.17 70.8599C143.465 69.8974 145.411 68.2578 146.75 66.1599H146.92V70.9999H162.48V27.1299H146.92V31.4099C145.301 29.5178 143.24 28.0545 140.92 27.1499C138.498 26.1624 135.906 25.6596 133.29 25.6699C130.306 25.6413 127.35 26.2449 124.617 27.4411C121.883 28.6373 119.434 30.3989 117.43 32.6099C115.446 34.7949 113.901 37.3412 112.88 40.1099C112.375 41.4642 111.987 42.8593 111.72 44.2799C111.72 44.4999 111.65 44.7199 111.62 44.9399C111.5 45.7199 111.41 46.5199 111.36 47.3299C111.36 47.8899 111.29 48.4499 111.29 49.0199C111.284 51.3489 111.6 53.6676 112.23 55.9099C112.693 57.5625 113.33 59.1614 114.13 60.6799L114.34 61.0499C114.997 62.2498 115.757 63.3907 116.61 64.4599C117.373 65.3882 118.209 66.2543 119.11 67.0499C120.034 67.8702 121.024 68.6127 122.07 69.2699ZM127.39 49.1199C127.368 47.3794 127.781 45.6609 128.59 44.1199C129.389 42.6136 130.599 41.3651 132.08 40.5199C133.721 39.6402 135.553 39.1799 137.415 39.1799C139.277 39.1799 141.109 39.6402 142.75 40.5199C144.008 41.2579 145.071 42.2866 145.85 43.5199C145.98 43.7199 146.12 43.9199 146.24 44.1399C146.41 44.4638 146.56 44.7977 146.69 45.1399C146.936 45.756 147.117 46.3961 147.23 47.0499C147.367 47.7382 147.438 48.4381 147.44 49.1399C147.44 49.1999 147.44 49.2499 147.44 49.3099C147.483 50.6199 147.252 51.9243 146.76 53.1393C146.269 54.3542 145.528 55.4527 144.586 56.3638C143.643 57.2749 142.521 57.9784 141.29 58.429C140.059 58.8796 138.748 59.0673 137.44 58.9799H137.17C136.404 58.9735 135.64 58.8932 134.89 58.7399C134.239 58.6118 133.602 58.4174 132.99 58.1599C132.436 57.9236 131.906 57.6321 131.41 57.2899C130.948 56.9744 130.519 56.6125 130.13 56.2099C129.22 55.2728 128.509 54.162 128.038 52.9439C127.567 51.7257 127.347 50.4252 127.39 49.1199Z" fill="white"/>
<path d="M181 69.27C184.41 71.4189 188.37 72.5339 192.4 72.48C195.049 72.4905 197.67 71.9383 200.09 70.86C202.381 69.8947 204.323 68.2555 205.66 66.16H205.83V71H221.4V0H205.84V31.41C204.226 29.5102 202.164 28.0426 199.84 27.14C197.419 26.1616 194.831 25.6624 192.22 25.67C189.238 25.6421 186.284 26.2462 183.552 27.4424C180.82 28.6385 178.372 30.3997 176.37 32.61C174.605 34.5663 173.191 36.8126 172.19 39.25C172.07 39.54 171.93 39.82 171.82 40.11C170.764 42.9542 170.232 45.9662 170.25 49C170.246 52.362 170.926 55.6896 172.25 58.78C172.52 59.41 172.8 60.04 173.13 60.66C174.394 63.0704 176.089 65.2293 178.13 67.03C179.022 67.8562 179.982 68.6055 181 69.27ZM186.32 49.12C186.298 47.3795 186.711 45.661 187.52 44.12C188.319 42.6136 189.529 41.3652 191.01 40.52C192.643 39.6404 194.47 39.1799 196.325 39.1799C198.18 39.1799 200.007 39.6404 201.64 40.52C202.901 41.2539 203.965 42.2835 204.74 43.52C204.885 43.7169 205.015 43.9241 205.13 44.14C205.299 44.4646 205.449 44.7985 205.58 45.14C205.824 45.7611 206.008 46.404 206.13 47.06C206.259 47.7493 206.326 48.4488 206.33 49.15V49.32C206.373 50.6299 206.142 51.9344 205.65 53.1494C205.159 54.3643 204.418 55.4627 203.476 56.3738C202.533 57.2849 201.411 57.9885 200.18 58.4391C198.949 58.8897 197.638 59.0774 196.33 58.99H196.07C195.301 58.9841 194.534 58.9038 193.78 58.75C193.131 58.6233 192.498 58.4289 191.89 58.17C190.808 57.704 189.832 57.0237 189.02 56.17C188.124 55.2335 187.425 54.1274 186.963 52.9167C186.501 51.706 186.286 50.4151 186.33 49.12H186.32Z" fill="white"/>
<path d="M305.58 71.0001V43.0001C305.58 37.7801 304.58 33.7501 302.53 30.8801C300.063 27.3801 296.087 25.6268 290.6 25.6201C287.591 25.6316 284.633 26.402 282 27.8601C279.551 29.1731 277.508 31.1303 276.09 33.5201C275.98 33.7001 275.87 33.8801 275.77 34.0701C275.321 33.2432 274.806 32.454 274.23 31.7101C271.15 27.7101 266.67 25.7101 260.79 25.7101C256.49 25.6099 252.324 27.2046 249.19 30.1501C248.365 30.9154 247.606 31.7483 246.92 32.6401H246.76V27.1301H231.16V71.0001H246.72V50.0001C246.623 46.9881 247.025 43.9808 247.91 41.1001C248.7 38.8301 250.62 37.7001 253.65 37.7001C256.68 37.7001 258.41 38.7001 259.26 40.8201C259.26 40.9201 259.35 41.0001 259.38 41.1001C259.584 41.6731 259.754 42.2574 259.89 42.8501C260.077 43.6586 260.22 44.4764 260.32 45.3001C260.43 46.2201 260.51 47.2001 260.55 48.2401C260.55 48.8101 260.55 49.3901 260.55 50.0001V71.0001H276.11V50.0001C275.999 47.0404 276.457 44.087 277.46 41.3001C278.37 39.1201 280.4 38.0401 283.56 38.0401C286.19 38.0401 287.9 39.0401 288.71 41.0401C288.766 41.1541 288.816 41.2709 288.86 41.3901C289.05 41.9606 289.207 42.5416 289.33 43.1301C289.515 43.9649 289.652 44.8096 289.74 45.6601C289.85 46.6101 289.93 47.6601 289.96 48.6601C289.96 49.0801 289.96 49.5201 289.96 49.9601V71.0001H305.52H305.58Z" fill="white"/>
<path d="M323.36 69.2699C326.774 71.4186 330.737 72.5334 334.77 72.4799C337.419 72.4904 340.04 71.9382 342.46 70.8599C344.752 69.892 346.697 68.2536 348.04 66.1599H348.21V70.9999H363.77V27.1299H348.21V31.4099C346.589 29.5199 344.529 28.0571 342.21 27.1499C339.788 26.1624 337.196 25.6596 334.58 25.6699C331.596 25.6413 328.64 26.2449 325.907 27.4411C323.173 28.6373 320.724 30.3989 318.72 32.6099C316.736 34.7965 315.188 37.3422 314.16 40.1099C313.829 41.0161 313.552 41.941 313.33 42.8799C312.994 44.236 312.77 45.6173 312.66 47.0099C312.61 47.6699 312.57 48.3399 312.57 49.0099C312.572 50.2717 312.665 51.5317 312.85 52.7799C313.235 55.4378 314.059 58.013 315.29 60.3999C315.29 60.4899 315.37 60.5799 315.42 60.6699C316.684 63.0807 318.378 65.2397 320.42 67.0399C321.337 67.8624 322.321 68.6083 323.36 69.2699ZM328.68 49.1199C328.658 47.3794 329.071 45.6609 329.88 44.1199C330.679 42.6136 331.889 41.3651 333.37 40.5199C335.009 39.6402 336.84 39.1799 338.7 39.1799C340.56 39.1799 342.391 39.6402 344.03 40.5199C345.291 41.2576 346.357 42.2862 347.14 43.5199C347.27 43.7199 347.41 43.9199 347.53 44.1399C347.65 44.3599 347.84 44.7999 347.98 45.1399C348.222 45.7575 348.403 46.3972 348.52 47.0499C348.657 47.7382 348.728 48.4381 348.73 49.1399C348.73 49.1999 348.73 49.2499 348.73 49.3099C348.773 50.6199 348.542 51.9243 348.05 53.1393C347.559 54.3542 346.818 55.4527 345.876 56.3638C344.933 57.2749 343.811 57.9784 342.58 58.429C341.349 58.8796 340.038 59.0673 338.73 58.9799H338.46C337.694 58.9735 336.93 58.8932 336.18 58.7399C335.529 58.6118 334.892 58.4174 334.28 58.1599C333.723 57.9217 333.191 57.6304 332.69 57.2899C332.232 56.9693 331.803 56.6078 331.41 56.2099C330.504 55.271 329.795 54.1596 329.326 52.9418C328.857 51.7239 328.637 50.4243 328.68 49.1199Z" fill="white"/>
<path d="M389.17 92.9301V66.8301C390.81 68.7115 392.888 70.1608 395.22 71.0501C397.621 71.9967 400.179 72.4818 402.76 72.4801C405.798 72.5105 408.809 71.8935 411.59 70.6701C414.246 69.5094 416.631 67.8063 418.59 65.6701C420.566 63.4868 422.11 60.9486 423.14 58.1901C425.28 52.4119 425.28 46.0582 423.14 40.2801C422.217 37.8288 420.889 35.5503 419.21 33.5401C418.99 33.2701 418.79 32.9901 418.55 32.7401C416.527 30.5119 414.055 28.7365 411.298 27.5301C408.541 26.3238 405.56 25.7138 402.55 25.7401C399.905 25.7231 397.287 26.2828 394.88 27.3801C393.589 27.9715 392.401 28.7648 391.36 29.7301C390.565 30.4436 389.866 31.257 389.28 32.1501H389.12V27.1301H373.6V92.9301H389.17ZM388.64 49.1201C388.617 47.3782 389.033 45.6585 389.85 44.1201C390.646 42.6151 391.853 41.3667 393.33 40.5201C394.965 39.6404 396.793 39.18 398.65 39.18C400.507 39.18 402.335 39.6404 403.97 40.5201C405.235 41.2494 406.3 42.2799 407.07 43.5201C407.215 43.7259 407.348 43.9396 407.47 44.1601C407.638 44.4838 407.785 44.8178 407.91 45.1601C408.159 45.7758 408.344 46.416 408.46 47.0701C408.596 47.7584 408.667 48.4583 408.67 49.1601V49.3301C408.713 50.64 408.482 51.9445 407.99 53.1594C407.499 54.3744 406.758 55.4728 405.816 56.3839C404.873 57.295 403.751 57.9985 402.52 58.4491C401.289 58.8997 399.978 59.0874 398.67 59.0001H398.41C397.644 58.9948 396.88 58.9144 396.13 58.7601C395.477 58.6394 394.839 58.4448 394.23 58.1801C393.667 57.9541 393.134 57.6621 392.64 57.3101C392.177 56.995 391.748 56.6331 391.36 56.2301C390.451 55.2889 389.742 54.1741 389.275 52.9524C388.808 51.7307 388.592 50.4272 388.64 49.1201Z" fill="white"/>
</svg>
