<svg width="72" height="28" viewBox="0 0 72 28" fill="none" xmlns="http://www.w3.org/2000/svg">
<path d="M6.41953 24.1961V21.408H3.63147V18.6199H9.20759V21.408H17.5718V15.8319H6.41953V13.0438H3.63147V7.46769H6.41953V4.67963H20.3598V7.46769H23.1479V10.2558H17.5718V7.46769H9.20759V13.0438H20.3598V15.8319H23.1479V21.408H20.3598V24.1961H6.41953ZM25.936 24.1961V4.67963H45.4524V7.46769H31.5121V13.0438H42.6643V15.8319H31.5121V21.408H45.4524V24.1961H25.936ZM53.8166 24.1961V21.408H51.0285V18.6199H48.2405V10.2558H51.0285V7.46769H53.8166V4.67963H64.9688V7.46769H67.7569V10.2558H62.1808V7.46769H56.6047V10.2558H53.8166V18.6199H56.6047V21.408H62.1808V18.6199H67.7569V21.408H64.9688V24.1961H53.8166Z" fill="#FFFF01"/>
<path d="M5.50353 23.112V20.3275H2.71899V17.5335H8.29747V20.3275H16.6605V14.749H5.50353V11.9645H2.71899V6.38598H5.50353V3.59204H19.445V6.38598H22.239V9.17052H16.6605V6.38598H8.29747V11.9645H19.445V14.749H22.239V20.3275H19.445V23.112H5.50353Z" fill="#FCC855"/>
<path d="M25.0234 23.112V3.59204H44.5434V6.38598H30.6019V11.9645H41.7589V14.749H30.6019V20.3275H44.5434V23.112H25.0234Z" fill="#FCC855"/>
<path d="M52.9064 23.112V20.3275H50.1218V17.5335H47.3279V9.17052H50.1218V6.38598H52.9064V3.59204H64.0633V6.38598H66.8478V9.17052H61.2694V6.38598H55.7003V9.17052H52.9064V17.5335H55.7003V20.3275H61.2694V17.5335H66.8478V20.3275H64.0633V23.112H52.9064Z" fill="#FCC855"/>
<path d="M4.59093 21.7292V18.9353H1.8064V16.1507H7.38487V18.9353H15.7479V13.3568H4.59093V10.5722H1.8064V4.99376H4.59093V2.20923H18.5324V4.99376H21.3264V7.78771H15.7479V4.99376H7.38487V10.5722H18.5324V13.3568H21.3264V18.9353H18.5324V21.7292H4.59093Z" fill="#FA91A9"/>
<path d="M24.111 21.7292V2.20923H43.6309V4.99376H29.6894V10.5722H40.8464V13.3568H29.6894V18.9353H43.6309V21.7292H24.111Z" fill="#FA91A9"/>
<path d="M51.994 21.7292V18.9353H49.2095V16.1507H46.4155V7.78771H49.2095V4.99376H51.994V2.20923H63.151V4.99376H65.9355V7.78771H60.357V4.99376H54.7785V7.78771H51.994V16.1507H54.7785V18.9353H60.357V16.1507H65.9355V18.9353H63.151V21.7292H51.994Z" fill="#FA91A9"/>
<path d="M3.68211 20.0288V17.2408H0.894043V14.4527H6.47017V17.2408H14.8344V11.6646H3.68211V8.87658H0.894043V3.30046H3.68211V0.512396H17.6224V3.30046H20.4105V6.08852H14.8344V3.30046H6.47017V8.87658H17.6224V11.6646H20.4105V17.2408H17.6224V20.0288H3.68211ZM23.1985 20.0288V0.512396H42.715V3.30046H28.7747V8.87658H39.9269V11.6646H28.7747V17.2408H42.715V20.0288H23.1985ZM51.0792 20.0288V17.2408H48.2911V14.4527H45.503V6.08852H48.2911V3.30046H51.0792V0.512396H62.2314V3.30046H65.0195V6.08852H59.4434V3.30046H53.8672V6.08852H51.0792V14.4527H53.8672V17.2408H59.4434V14.4527H65.0195V17.2408H62.2314V20.0288H51.0792Z" fill="#F75AFD"/>
</svg>
