<svg width="245" height="77" viewBox="0 0 245 77" fill="none" xmlns="http://www.w3.org/2000/svg">
<path d="M13.85 21.77H9.72998V24.29H13.85V21.77Z" fill="#FF4681"/>
<path d="M37.92 21.7698V72.0698H23.58V74.5898H40.35V24.2998H54.2V10.0898H51.77V21.7698H37.92Z" fill="#FF4681"/>
<path d="M101.38 52.73H94.16C94.08 52.97 93.99 53.21 93.9 53.44H97.13C96.98 54.06 96.79 54.66 96.59 55.25H102.7C102.48 54.89 102.27 54.53 102.08 54.16C101.89 53.79 101.6 53.21 101.38 52.73Z" fill="#FF4681"/>
<path d="M89.48 71.88C86.3317 72.9861 83.017 73.5442 79.68 73.53C75.1629 73.6124 70.6842 72.6866 66.57 70.82C64.7606 69.974 63.0778 68.8801 61.57 67.57C63.572 70.037 66.1141 72.0112 69 73.34C73.1142 75.2066 77.5929 76.1324 82.11 76.05C85.4465 76.0684 88.7613 75.5137 91.91 74.41C94.9279 73.3853 97.6665 71.6736 99.91 69.41C102.155 67.0709 103.718 64.1628 104.43 61H101.2C100.362 63.1719 99.0935 65.1517 97.47 66.82C95.2349 69.1032 92.4996 70.8355 89.48 71.88Z" fill="#FF4681"/>
<path d="M99.82 37.0902C99.46 36.6502 99.1 36.2102 98.7 35.8002C98.3 35.3902 97.93 35.0702 97.53 34.7202C98.3305 35.7459 99.0335 36.844 99.63 38.0002C99.68 37.6702 99.76 37.3802 99.82 37.0902Z" fill="#FF4681"/>
<path d="M70 54.77C70.7716 54.8818 71.5504 54.9353 72.33 54.93C73.4261 54.9802 74.5212 54.8115 75.5514 54.4337C76.5816 54.056 77.5262 53.4768 78.33 52.73H69.83C69.8441 53.4129 69.9009 54.0942 70 54.77Z" fill="#FF4681"/>
<path d="M127.31 41.5801C125.831 42.4226 124.62 43.6674 123.82 45.1701C123.004 46.709 122.588 48.4283 122.61 50.1701C122.611 50.8403 122.668 51.5093 122.78 52.1701C123.532 52.3135 124.295 52.3937 125.06 52.4101C125.077 50.7583 125.485 49.134 126.25 47.6701C127.049 46.1637 128.259 44.9153 129.74 44.0701C131.361 43.1544 133.199 42.6916 135.06 42.7301H135.36C135.36 42.6701 135.36 42.6101 135.36 42.5501C135.357 41.8483 135.286 41.1485 135.15 40.4601C134.319 40.2807 133.471 40.1902 132.62 40.1901C130.757 40.1626 128.921 40.6431 127.31 41.5801Z" fill="#FF4681"/>
<path d="M142.14 69.5501H140C138.935 70.5282 137.719 71.3284 136.4 71.9201C133.975 72.9915 131.351 73.54 128.7 73.5301C124.668 73.5809 120.707 72.47 117.29 70.3301C116.252 69.6661 115.269 68.9204 114.35 68.1001C115.87 69.9686 117.688 71.5735 119.73 72.8501C123.145 74.9958 127.108 76.1072 131.14 76.0501C133.788 76.0637 136.41 75.515 138.83 74.4401C140.154 73.8559 141.37 73.0549 142.43 72.0701H142.14V69.5501Z" fill="#FF4681"/>
<path d="M160.14 74.59V30.71H157.7V72.07H144.58V74.59H160.14Z" fill="#FF4681"/>
<path d="M239.42 32C241.42 34.86 242.42 38.8967 242.42 44.11V72.11H229.33V74.63H244.9V46.63C244.9 39.63 243.06 34.76 239.42 32Z" fill="#FF4681"/>
<path d="M214.39 42.3902C213.373 45.1776 212.901 48.1346 213 51.1002V72.1002H199.9V74.6202H215.47V53.6202C215.359 50.6573 215.817 47.7005 216.82 44.9102C217.072 44.2954 217.448 43.7392 217.924 43.2764C218.401 42.8135 218.968 42.454 219.59 42.2202C219.59 41.1402 219.48 40.1302 219.37 39.2202C216.85 39.4202 215.18 40.4802 214.39 42.3902Z" fill="#FF4681"/>
<path d="M184.79 42.1898C183.909 45.0748 183.507 48.0847 183.6 51.0998V72.0998H170.48V74.6198H186V53.6198C185.904 50.6045 186.306 47.5941 187.19 44.7098C187.404 44.0155 187.779 43.3817 188.285 42.8602C188.79 42.3388 189.413 41.9445 190.1 41.7098C190.1 40.7098 189.98 39.7098 189.87 38.7798C187.24 38.9998 185.53 40.0898 184.79 42.1898Z" fill="#FF4681"/>
<path d="M49.33 19.2498H35.48V69.5498H21.14V72.0698H23.58H37.92V21.7698H51.77V10.0898V7.56982H49.33V19.2498Z" fill="#FF74A1"/>
<path d="M13.85 19.25H7.29999V21.77H9.72999H13.85V19.25Z" fill="#FF74A1"/>
<path d="M98.54 38.4502C98.8374 39.2865 99.0911 40.1376 99.3 41.0002C99.3514 39.9946 99.4615 38.9929 99.63 38.0002C99.0314 36.8578 98.3284 35.7732 97.53 34.7602C97.13 34.2602 96.71 33.7602 96.27 33.3102C95.83 32.8602 95.5 32.5902 95.1 32.2402C96.585 34.1039 97.7478 36.2028 98.54 38.4502Z" fill="#FF74A1"/>
<path d="M95 64.3102C92.7558 66.573 90.0174 68.2845 87 69.3102C83.8699 70.4243 80.5725 70.9959 77.25 71.0002C72.7322 71.0791 68.2536 70.1499 64.14 68.2802C62.3327 67.4346 60.6502 66.3444 59.14 65.0402C59.878 65.9501 60.6944 66.7933 61.58 67.5602C63.0878 68.8703 64.7706 69.9642 66.58 70.8102C70.6943 72.6768 75.1729 73.6026 79.69 73.5202C83.027 73.5344 86.3417 72.9763 89.49 71.8702C92.5074 70.8445 95.2458 69.133 97.49 66.8702C99.112 65.1854 100.374 63.1883 101.2 61.0002C101.517 60.1737 101.784 59.3289 102 58.4702H98.77C97.9219 60.6522 96.6393 62.639 95 64.3102Z" fill="#FF74A1"/>
<path d="M70.87 36.0798L70.76 36.1798H80.83C80.7572 35.78 80.6569 35.3858 80.53 34.9998C79.3726 34.5229 78.1318 34.2816 76.88 34.2898C74.7373 34.2323 72.6321 34.8593 70.87 36.0798Z" fill="#FF74A1"/>
<path d="M67.4 50.2098C67.3913 51.5957 67.5937 52.9748 68 54.2998C68.6499 54.5206 69.3197 54.678 70 54.7698C69.9159 54.1065 69.8725 53.4385 69.87 52.7698H78.35C78.9022 52.2291 79.3798 51.617 79.77 50.9498H94.77C94.62 51.5798 94.43 52.1798 94.23 52.7698H101.45C100.957 51.6579 100.546 50.5115 100.22 49.3398V50.2498L67.4 50.2098Z" fill="#FF74A1"/>
<path d="M124.88 39.05C123.399 39.898 122.186 41.1455 121.38 42.65C120.571 44.191 120.158 45.9095 120.18 47.65C120.161 49.0154 120.398 50.3723 120.88 51.65C121.491 51.9122 122.128 52.1099 122.78 52.24C122.668 51.5792 122.611 50.9102 122.61 50.24C122.588 48.4982 123.004 46.7789 123.82 45.24C124.62 43.7373 125.831 42.4925 127.31 41.65C128.929 40.7287 130.768 40.2655 132.63 40.31C133.481 40.3101 134.329 40.4006 135.16 40.58C135.043 39.9273 134.862 39.2876 134.62 38.67C133.226 38.0657 131.72 37.7624 130.2 37.78C128.345 37.7191 126.508 38.1577 124.88 39.05Z" fill="#FF74A1"/>
<path d="M128.7 73.5298C131.351 73.5398 133.975 72.9912 136.4 71.9198C137.719 71.3282 138.935 70.5279 140 69.5498H139.71V66.9998H137.57C136.522 67.9901 135.315 68.798 134 69.3898C131.568 70.472 128.932 71.021 126.27 70.9998C122.237 71.0522 118.274 69.9374 114.86 67.7898C113.821 67.1317 112.837 66.3892 111.92 65.5698C112.66 66.4747 113.473 67.3175 114.35 68.0898C115.269 68.9101 116.252 69.6558 117.29 70.3198C120.706 72.4632 124.667 73.5776 128.7 73.5298Z" fill="#FF74A1"/>
<path d="M157.7 30.7099V28.1899H155.27V69.5499H142.14V72.0699H142.43H144.58H157.7V30.7099Z" fill="#FF74A1"/>
<path d="M183.6 51.1C183.507 48.0849 183.909 45.075 184.79 42.19C185.53 40.09 187.24 38.98 189.91 38.83C189.811 38.0029 189.667 37.1817 189.48 36.37C189.026 36.3047 188.568 36.2713 188.11 36.27C185.11 36.27 183.11 37.4 182.36 39.67C181.479 42.555 181.077 45.5649 181.17 48.58V69.58H168V72.1H183.6V51.1Z" fill="#FF74A1"/>
<path d="M213 51.1001C212.891 48.1364 213.353 45.1794 214.36 42.3901C215.15 40.4801 216.82 39.3901 219.36 39.1801C219.272 38.3329 219.135 37.4915 218.95 36.6601C218.65 36.6446 218.35 36.6446 218.05 36.6601C214.89 36.6601 212.85 37.7401 211.95 39.9201C210.938 42.7082 210.476 45.6661 210.59 48.6301V69.6301H197.47V72.1501H213V51.1001Z" fill="#FF74A1"/>
<path d="M242.46 44.1C242.46 38.88 241.46 34.8433 239.46 31.99C238.775 31.0251 237.945 30.1717 237 29.46C239 32.33 240.05 36.36 240.05 41.58V69.58H226.9V72.1H242.46V44.1Z" fill="#FF74A1"/>
<path d="M7.3 19.25H13.85V16.73H4.87V19.25H7.3Z" fill="#FFA3C0"/>
<path d="M46.9 16.7298H33.05V67.0198H18.71V69.5498H21.14H35.48V19.2498H49.33V7.5698V5.0498H46.9V16.7298Z" fill="#FFA3C0"/>
<path d="M92.6 61.79C90.361 64.0709 87.6222 65.7998 84.6 66.84C81.4511 67.9429 78.1364 68.4976 74.8 68.48C70.2865 68.5582 65.812 67.6326 61.7 65.77C59.8899 64.9252 58.2069 63.8313 56.7 62.52C57.4346 63.4327 58.2477 64.2792 59.13 65.05C60.6402 66.3541 62.3227 67.4444 64.13 68.29C68.2474 70.1577 72.7296 71.0835 77.25 71C80.587 71.0142 83.9017 70.4561 87.05 69.35C90.0674 68.3243 92.8058 66.6128 95.05 64.35C96.6738 62.6781 97.9426 60.695 98.78 58.52C99.0988 57.6975 99.366 56.8558 99.58 56H96.34C95.4956 58.162 94.2235 60.1313 92.6 61.79Z" fill="#FFA3C0"/>
<path d="M96.11 35.9202C97.2221 39.1799 97.7667 42.6063 97.72 46.0502V47.6802H65C64.9207 49.7033 65.3687 51.7124 66.3 53.5102C66.8357 53.8355 67.4059 54.1005 68 54.3002C67.6072 52.9731 67.4184 51.594 67.44 50.2102H100.19V49.3002C99.5781 47.0854 99.2686 44.798 99.27 42.5002C99.27 42.0002 99.27 41.5002 99.34 41.0202C99.1318 40.1508 98.8781 39.293 98.58 38.4502C97.7796 36.186 96.6031 34.0731 95.1 32.2002C94.7 31.7002 94.28 31.2002 93.84 30.7502C93.4 30.3002 93.06 30.0202 92.66 29.6802C94.1536 31.5508 95.32 33.6605 96.11 35.9202Z" fill="#FFA3C0"/>
<path d="M68.44 33.5602C67.4894 34.2474 66.7094 35.1438 66.16 36.1802H70.76L70.87 36.0802C72.6293 34.8617 74.7307 34.2348 76.87 34.2902C78.1218 34.282 79.3626 34.5233 80.52 35.0002C80.3418 34.4507 80.1001 33.9238 79.8 33.4302C78.2298 32.3322 76.3559 31.7519 74.44 31.7702C72.3 31.7092 70.1968 32.3366 68.44 33.5602Z" fill="#FFA3C0"/>
<path d="M152.84 67.0202H139.71V69.5502H140H142.14H155.27V28.1902V25.6602H152.84V67.0202Z" fill="#FFA3C0"/>
<path d="M127.76 35.1898C125.899 35.1513 124.061 35.6141 122.44 36.5298C120.959 37.375 119.749 38.6234 118.95 40.1298C118.14 41.6705 117.727 43.3892 117.75 45.1298C117.703 47.1134 118.238 49.0672 119.29 50.7498C119.786 51.0977 120.319 51.3895 120.88 51.6198C120.398 50.3421 120.161 48.9852 120.18 47.6198C120.158 45.8793 120.571 44.1608 121.38 42.6198C122.186 41.1153 123.399 39.8678 124.88 39.0198C126.501 38.1032 128.338 37.6403 130.2 37.6798C131.72 37.6622 133.226 37.9655 134.62 38.5698C134.48 38.2298 134.34 37.8998 134.17 37.5698C134 37.2398 133.91 37.1598 133.78 36.9498C133.65 36.7398 133.35 36.6398 133.11 36.4998C131.476 35.5921 129.628 35.1397 127.76 35.1898Z" fill="#FFA3C0"/>
<path d="M114.86 67.8001C118.275 69.9442 122.238 71.0554 126.27 71.0001C128.932 71.0212 131.568 70.4723 134 69.3901C135.315 68.7982 136.522 67.9904 137.57 67.0001H137.28V64.5001H135.14C134.078 65.487 132.858 66.2882 131.53 66.8701C129.11 67.9461 126.489 68.4949 123.84 68.4801C119.808 68.536 115.845 67.4247 112.43 65.2801C111.393 64.6187 110.41 63.8764 109.49 63.0601C111.021 64.9116 112.833 66.5111 114.86 67.8001Z" fill="#FFA3C0"/>
<path d="M181.17 69.5502V48.5502C181.077 45.5351 181.479 42.5252 182.36 39.6402C183.16 37.3702 185.07 36.2402 188.11 36.2402C188.568 36.2414 189.026 36.2748 189.48 36.3402C189.344 35.7475 189.174 35.1632 188.97 34.5902C188.936 34.4976 188.896 34.4074 188.85 34.3202C187.844 33.8975 186.76 33.693 185.67 33.7202C182.67 33.7202 180.72 34.8502 179.93 37.1102C179.05 39.9955 178.649 43.0052 178.74 46.0202V67.0002H165.61V69.5302H181.17V69.5502Z" fill="#FFA3C0"/>
<path d="M210.6 69.5501V48.5501C210.503 45.5936 210.978 42.6461 212 39.8701C212.9 37.6901 214.94 36.6101 218.1 36.6101C218.4 36.5946 218.7 36.5946 219 36.6101C218.876 36.0186 218.719 35.4344 218.53 34.8601C218.53 34.7401 218.43 34.6301 218.38 34.5101C217.517 34.1723 216.596 34.0092 215.67 34.0301C212.503 34.0301 210.47 35.1168 209.57 37.2901C208.559 40.0786 208.097 43.0362 208.21 46.0001V67.0001H195V69.5301H210.6V69.5501Z" fill="#FFA3C0"/>
<path d="M240 69.5502V41.5502C240 36.3302 239 32.3002 236.95 29.4302C236.277 28.468 235.457 27.6176 234.52 26.9102C236.52 29.7768 237.52 33.8135 237.52 39.0202V67.0002H224.47V69.5302H240V69.5502Z" fill="#FFA3C0"/>
<path d="M44.47 14.2H30.62V64.5H16.28V67.02H18.71H33.05V16.73H46.9V5.05002V2.52002H44.47V14.2Z" fill="#FFD1E0"/>
<path d="M13.85 16.7302V14.2002H2.42999V16.7302H4.86999H13.85Z" fill="#FFD1E0"/>
<path d="M93.9 53.4399C93.0664 55.6139 91.797 57.5945 90.17 59.2599C87.9336 61.544 85.1939 63.2734 82.17 64.3099C79.027 65.4276 75.7159 65.9992 72.38 65.9999C67.8629 66.0823 63.3843 65.1565 59.27 63.2899C57.4619 62.4415 55.7794 61.3479 54.27 60.0399C55.0048 60.9494 55.8179 61.7926 56.7 62.5599C58.2069 63.8712 59.8899 64.9652 61.7 65.8099C65.8181 67.6754 70.2998 68.6011 74.82 68.5199C78.1564 68.5376 81.4711 67.9829 84.62 66.8799C87.6422 65.8397 90.381 64.1108 92.62 61.8299C94.2409 60.1576 95.5063 58.1745 96.34 55.9999C96.43 55.7699 96.51 55.5299 96.59 55.2899C96.79 54.6999 96.98 54.0999 97.13 53.4799L93.9 53.4399Z" fill="#FFD1E0"/>
<path d="M93.68 33.3999C94.7929 36.6594 95.3375 40.0859 95.29 43.5299V45.1599H62.54C62.54 49.1599 63.7834 51.9432 66.27 53.5099C65.3491 51.7093 64.9115 49.7004 65 47.6799H97.72V46.0499C97.7667 42.606 97.2221 39.1796 96.11 35.9199C95.32 33.6603 94.1536 31.5505 92.66 29.6799C92.26 29.1799 91.85 28.6799 91.4 28.2299C90.95 27.7799 90.63 27.4999 90.23 27.1499C91.7201 29.0265 92.8862 31.1389 93.68 33.3999Z" fill="#FFD1E0"/>
<path d="M68.44 33.5602C70.1969 32.3366 72.3 31.7092 74.44 31.7702C76.356 31.7519 78.2298 32.3322 79.8 33.4302C79.281 32.5581 78.6026 31.7914 77.8 31.1702C76.1417 29.8875 74.0963 29.2069 72 29.2402C69.8633 29.1704 67.7605 29.7873 66 31.0002C64.3068 32.2351 63.1567 34.0768 62.79 36.1402H66.16C66.7144 35.1183 67.4941 34.236 68.44 33.5602Z" fill="#FFD1E0"/>
<path d="M150.41 64.5001H137.28V67.0201H137.57H139.71H152.84V25.6601V23.1401H150.41V64.5001Z" fill="#FFD1E0"/>
<path d="M112.43 65.2801C115.845 67.4248 119.808 68.5361 123.84 68.4801C126.489 68.495 129.11 67.9462 131.53 66.8701C132.858 66.2883 134.078 65.4871 135.14 64.5001H134.85V59.6401H134.68C133.337 61.7367 131.392 63.3785 129.1 64.3501C126.681 65.4342 124.061 65.9964 121.41 66.0001C117.373 66.0417 113.41 64.9129 110 62.7501C108.938 62.0978 107.934 61.355 107 60.5301C107.743 61.4384 108.559 62.2845 109.44 63.0601C110.376 63.8786 111.376 64.621 112.43 65.2801Z" fill="#FFD1E0"/>
<path d="M117.75 45.1199C117.727 43.3793 118.14 41.6606 118.95 40.1199C119.749 38.6135 120.959 37.3651 122.44 36.5199C124.081 35.6402 125.913 35.1798 127.775 35.1798C129.637 35.1798 131.469 35.6402 133.11 36.5199C133.35 36.6599 133.56 36.8199 133.78 36.9699C133.002 35.7322 131.935 34.7025 130.67 33.9699C129.027 33.0931 127.193 32.6369 125.331 32.6421C123.469 32.6474 121.638 33.1138 120 33.9999C118.521 34.8423 117.31 36.0872 116.51 37.5899C115.701 39.1312 115.289 40.8495 115.31 42.5899C115.265 43.8896 115.48 45.1852 115.942 46.4008C116.404 47.6165 117.103 48.7279 118 49.6699C118.393 50.0646 118.822 50.4228 119.28 50.7399C118.232 49.0562 117.7 47.1024 117.75 45.1199Z" fill="#FFD1E0"/>
<path d="M205.32 27.5499C205.42 27.3599 205.53 27.1899 205.64 27.0099C205.076 26.3489 204.453 25.7398 203.78 25.1899C204.352 25.937 204.866 26.7259 205.32 27.5499Z" fill="#FFD1E0"/>
<path d="M176.31 26.0901H176.47C177.153 25.1962 177.913 24.3631 178.74 23.6001V23.1401H176.31V26.0901Z" fill="#FFD1E0"/>
<path d="M237.6 67.0001V39.0001C237.6 33.7934 236.6 29.7568 234.6 26.8901C233.927 25.9279 233.107 25.0776 232.17 24.3701C234.17 27.2301 235.17 31.2601 235.17 36.4801V64.4801H222V67.0001H237.6Z" fill="#FFD1E0"/>
<path d="M178.74 67.0002V46.0002C178.649 42.9852 179.05 39.9755 179.93 37.0902C180.72 34.8302 182.64 33.7002 185.67 33.7002C186.761 33.673 187.844 33.8775 188.85 34.3002C187.997 32.2202 186.127 31.1802 183.24 31.1802C180.24 31.1802 178.24 32.3102 177.5 34.5702C176.614 37.4541 176.212 40.4648 176.31 43.4802V64.4802H163.18V67.0002H178.74Z" fill="#FFD1E0"/>
<path d="M208.17 66.9998V45.9998C208.057 43.0359 208.519 40.0783 209.53 37.2898C210.43 35.1164 212.463 34.0298 215.63 34.0298C216.556 34.0089 217.477 34.172 218.34 34.5098C217.53 32.5098 215.82 31.5098 213.19 31.5098C210.03 31.5098 207.997 32.5964 207.09 34.7698C206.087 37.5599 205.628 40.5168 205.74 43.4798V64.4798H192.61V66.9998H208.17Z" fill="#FFD1E0"/>
<path d="M13.85 14.2V16.73V19.25V21.77V24.3V64.5H16.28H30.62V14.2H44.47V2.52V0H0V14.2H2.43H13.85Z" fill="white"/>
<path d="M59.27 63.2502C63.3811 65.1305 67.8598 66.07 72.38 66.0002C75.7202 66.0145 79.0382 65.4565 82.19 64.3502C85.2139 63.3136 87.9535 61.5842 90.19 59.3002C91.817 57.6347 93.0863 55.6541 93.92 53.4802C94.01 53.2502 94.1 53.0102 94.18 52.7702C94.38 52.1802 94.57 51.5802 94.72 50.9502H79.72C79.3298 51.6174 78.8522 52.2294 78.3 52.7702C77.4961 53.517 76.5515 54.0962 75.5214 54.4739C74.4912 54.8517 73.3961 55.0204 72.3 54.9702C71.5294 54.9607 70.7606 54.8939 70 54.7702C69.3197 54.6783 68.6499 54.5209 68 54.3002C67.4093 54.0998 66.8425 53.8349 66.31 53.5102C63.8233 51.9702 62.58 49.1868 62.58 45.1602H95.29V43.5302C95.3374 40.0862 94.7928 36.6597 93.68 33.4002C92.8861 31.1392 91.7201 29.0268 90.23 27.1502C89.83 26.6502 89.42 26.1502 88.97 25.7002C86.8359 23.5394 84.251 21.8765 81.4 20.8302C78.1488 19.6639 74.7136 19.0948 71.26 19.1502C66.8862 19.0799 62.5591 20.0571 58.64 22.0002C55.015 23.7899 52.0067 26.6207 50 30.1302C47.9171 33.9457 46.882 38.2448 47 42.5902C46.8739 47.0328 48.0039 51.4209 50.26 55.2502C51.3476 57.0251 52.696 58.6263 54.26 60.0002C55.7725 61.3089 57.4584 62.4026 59.27 63.2502ZM62.79 36.1802C63.1469 34.1022 64.2981 32.2446 66 31.0002C67.7556 29.7731 69.8588 29.1421 72 29.2002C74.0758 29.1805 76.0978 29.8603 77.74 31.1302C78.5425 31.7514 79.221 32.5181 79.74 33.3902C80.0673 33.893 80.3325 34.4336 80.53 35.0002C80.6569 35.3862 80.7572 35.7804 80.83 36.1802H62.83H62.79Z" fill="white"/>
<path d="M110 62.7501C113.41 64.9128 117.373 66.0416 121.41 66.0001C124.058 66.0089 126.678 65.4603 129.1 64.3901C131.392 63.4184 133.337 61.7766 134.68 59.6801H134.85V64.5001H150.41V20.6201H134.85V24.9001C133.229 23.0101 131.169 21.5472 128.85 20.6401C126.429 19.6491 123.836 19.1429 121.22 19.1501C118.231 19.1264 115.272 19.7383 112.537 20.9451C109.803 22.1519 107.357 23.9261 105.36 26.1501C103.376 28.3367 101.828 30.8824 100.8 33.6501C100.385 34.7885 100.051 35.9547 99.8 37.1401C99.74 37.4301 99.66 37.7201 99.61 38.0101C99.4486 38.9999 99.3451 39.9982 99.3 41.0001C99.3 41.5001 99.23 42.0001 99.23 42.4801C99.2286 44.7779 99.5381 47.0653 100.15 49.2801C100.476 50.4517 100.887 51.5981 101.38 52.7101C101.6 53.1901 101.83 53.7101 102.08 54.1401C102.33 54.5701 102.48 54.8701 102.7 55.2301C103.867 57.2056 105.334 58.987 107.05 60.5101C107.968 61.3396 108.955 62.089 110 62.7501ZM115.32 42.6001C115.299 40.8597 115.711 39.1414 116.52 37.6001C117.316 36.0951 118.523 34.8467 120 34.0001C121.639 33.1204 123.47 32.66 125.33 32.66C127.19 32.66 129.021 33.1204 130.66 34.0001C131.925 34.7327 132.992 35.7624 133.77 37.0001C133.9 37.2101 134.04 37.4101 134.16 37.6201C134.28 37.8301 134.47 38.2801 134.61 38.6201C134.852 39.2377 135.032 39.8774 135.15 40.5301C135.286 41.2185 135.357 41.9183 135.36 42.6201C135.36 42.6801 135.36 42.7401 135.36 42.8001C135.403 44.11 135.172 45.4145 134.68 46.6294C134.189 47.8444 133.448 48.9428 132.506 49.8539C131.563 50.765 130.441 51.4685 129.21 51.9191C127.979 52.3697 126.668 52.5574 125.36 52.4701H125.09C124.325 52.4537 123.562 52.3734 122.81 52.2301C122.158 52.1 121.521 51.9023 120.91 51.6401C120.349 51.4098 119.816 51.118 119.32 50.7701C118.847 50.4454 118.405 50.0772 118 49.6701C117.106 48.7285 116.409 47.6184 115.949 46.4045C115.489 45.1907 115.275 43.8974 115.32 42.6001Z" fill="white"/>
<path d="M235.17 64.4998V36.4998C235.17 31.2798 234.17 27.2498 232.17 24.3898C229.703 20.8831 225.727 19.1264 220.24 19.1198C217.22 19.1078 214.247 19.8649 211.6 21.3198C209.13 22.6309 207.068 24.5958 205.64 26.9998C205.53 27.1798 205.42 27.3498 205.32 27.5398C204.866 26.7157 204.352 25.9268 203.78 25.1798C200.7 21.1798 196.22 19.1798 190.34 19.1798C186.038 19.0779 181.87 20.6769 178.74 23.6298C177.913 24.3927 177.153 25.2258 176.47 26.1198H176.31V20.6198H160.75V64.4998H176.31V43.4998C176.212 40.4844 176.614 37.4737 177.5 34.5898C178.29 32.3298 180.21 31.1998 183.24 31.1998C186.27 31.1998 188 32.1998 188.85 34.3198C188.896 34.407 188.936 34.4972 188.97 34.5898C189.174 35.1628 189.344 35.7471 189.48 36.3398C189.667 37.1514 189.811 37.9726 189.91 38.7998C190.02 39.7098 190.1 40.6898 190.14 41.7298C190.14 42.3098 190.14 42.8898 190.14 43.4998V64.4998H205.7V43.4998C205.588 40.5368 206.047 37.5799 207.05 34.7898C207.957 32.6164 209.99 31.5298 213.15 31.5298C215.78 31.5298 217.49 32.5298 218.3 34.5298C218.3 34.6498 218.41 34.7598 218.45 34.8798C218.639 35.454 218.796 36.0383 218.92 36.6298C219.105 37.4612 219.242 38.3026 219.33 39.1498C219.44 40.1498 219.52 41.1498 219.55 42.1498C219.55 42.5798 219.55 43.0098 219.55 43.4598V64.4598H235.11L235.17 64.4998Z" fill="white"/>
</svg>
