<svg width="187" height="45" viewBox="0 0 187 45" fill="none" xmlns="http://www.w3.org/2000/svg">
<path d="M4.70978 39.3066V7.60779H13.7666V21.193H27.3518V7.60779H36.4086V39.3066H27.3518V25.7214H13.7666V39.3066H4.70978ZM45.4653 39.3066V34.7782H40.937V12.1362H45.4653V7.60779H68.1073V12.1362H72.6357V34.7782H68.1073V39.3066H45.4653ZM49.9937 34.7782H63.5789V12.1362H49.9937V34.7782ZM81.6925 39.3066V34.7782H77.1641V7.60779H86.2209V34.7782H99.8061V7.60779H108.863V34.7782H104.335V39.3066H81.6925ZM113.391 39.3066V7.60779H140.562V12.1362H145.09V25.7214H136.033V30.2498H140.562V34.7782H145.09V39.3066H131.505V34.7782H126.976V30.2498H122.448V39.3066H113.391ZM122.448 25.7214H131.505V21.193H136.033V12.1362H122.448V25.7214ZM154.147 39.3066V34.7782H149.618V30.2498H158.675V34.7782H172.26V25.7214H154.147V21.193H149.618V12.1362H154.147V7.60779H176.789V12.1362H181.317V16.6646H172.26V12.1362H158.675V21.193H176.789V25.7214H181.317V34.7782H176.789V39.3066H154.147Z" fill="#FFFF01"/>
<path d="M3.22345 37.2795V5.57715H12.2826V19.1612H25.8666V5.57715H34.9258V37.2795H25.8666V23.686H12.2826V37.2795H3.22345Z" fill="#FCC855"/>
<path d="M48.5098 32.7452H62.0938V10.102H48.5098V32.7452ZM43.9849 37.2795V32.7452H39.4506V10.102H43.9849V5.57715H66.6281V10.102H71.1529V32.7452H66.6281V37.2795H43.9849Z" fill="#FCC855"/>
<path d="M80.2121 37.2795V32.7452H75.6778V5.57715H84.7369V32.7452H98.3304V5.57715H107.38V32.7452H102.855V37.2795H80.2121Z" fill="#FCC855"/>
<path d="M120.964 23.686H130.023V19.1612H134.558V10.102H120.964V23.686ZM111.914 37.2795V5.57715H139.082V10.102H143.607V23.686H134.558V28.2203H139.082V32.7452H143.607V37.2795H130.023V32.7452H125.498V28.2203H120.964V37.2795H111.914Z" fill="#FCC855"/>
<path d="M152.666 37.2795V32.7452H148.142V28.2203H157.201V32.7452H170.785V23.686H152.666V19.1612H148.142V10.102H152.666V5.57715H175.31V10.102H179.844V14.6363H170.785V10.102H157.201V19.1612H175.31V23.686H179.844V32.7452H175.31V37.2795H152.666Z" fill="#FCC855"/>
<path d="M1.73712 35.0216V3.31934H10.7963V16.9034H24.3897V3.31934H33.4394V35.0216H24.3897V21.4376H10.7963V35.0216H1.73712Z" fill="#FA91A9"/>
<path d="M47.0328 30.4874H60.6169V7.8442H47.0328V30.4874ZM42.4986 35.0216V30.4874H37.9737V7.8442H42.4986V3.31934H65.1699V7.8442H69.7042V30.4874H65.1699V35.0216H42.4986Z" fill="#FA91A9"/>
<path d="M78.7257 35.0216V30.4874H74.2009V3.31934H83.26V30.4874H96.844V3.31934H105.903V30.4874H101.369V35.0216H78.7257Z" fill="#FA91A9"/>
<path d="M119.487 21.4282H128.546V16.9034H133.071V7.8442H119.487V21.4282ZM110.428 35.0216V3.31934H137.605V7.8442H142.14V21.4282H133.081V25.9625H137.605V30.4874H142.14V35.0216H128.546V30.4874H124.012V25.9625H119.487V35.0216H110.428Z" fill="#FA91A9"/>
<path d="M151.189 35.0216V30.4874H146.655V25.9625H155.714V30.4874H169.298V21.4376H151.189V16.9034H146.655V7.8442H151.189V3.31934H173.833V7.8442H178.358V12.3785H169.298V7.8442H155.714V16.9034H173.833V21.4376H178.358V30.4874H173.833V35.0216H151.189Z" fill="#FA91A9"/>
<path d="M0.260132 32.5334V0.834595H9.31693V14.4198H22.9021V0.834595H31.9589V32.5334H22.9021V18.9482H9.31693V32.5334H0.260132ZM41.0157 32.5334V28.005H36.4873V5.36299H41.0157V0.834595H63.6577V5.36299H68.1861V28.005H63.6577V32.5334H41.0157ZM45.5441 28.005H59.1293V5.36299H45.5441V28.005ZM77.2429 32.5334V28.005H72.7145V0.834595H81.7713V28.005H95.3565V0.834595H104.413V28.005H99.8849V32.5334H77.2429ZM108.942 32.5334V0.834595H136.112V5.36299H140.64V18.9482H131.584V23.4766H136.112V28.005H140.64V32.5334H127.055V28.005H122.527V23.4766H117.998V32.5334H108.942ZM117.998 18.9482H127.055V14.4198H131.584V5.36299H117.998V18.9482ZM149.697 32.5334V28.005H145.169V23.4766H154.226V28.005H167.811V18.9482H149.697V14.4198H145.169V5.36299H149.697V0.834595H172.339V5.36299H176.868V9.89139H167.811V5.36299H154.226V14.4198H172.339V18.9482H176.868V28.005H172.339V32.5334H149.697Z" fill="#F75AFD"/>
</svg>
