<svg width="93" height="28" viewBox="0 0 93 28" fill="none" xmlns="http://www.w3.org/2000/svg">
<path d="M3.63147 24.3689V4.85248H9.20759V7.64054H11.9957V10.4286H14.7837V7.64054H17.5718V4.85248H23.1479V24.3689H17.5718V13.2167H14.7837V18.7928H11.9957V13.2167H9.20759V24.3689H3.63147ZM28.724 24.3689V21.5809H25.936V18.7928H31.5121V21.5809H39.8763V16.0047H28.724V13.2167H25.936V7.64054H28.724V4.85248H42.6643V7.64054H45.4524V10.4286H39.8763V7.64054H31.5121V13.2167H42.6643V16.0047H45.4524V21.5809H42.6643V24.3689H28.724ZM48.2405 24.3689V4.85248H67.7569V7.64054H53.8166V13.2167H64.9688V16.0047H53.8166V21.5809H67.7569V24.3689H48.2405ZM76.1211 24.3689V21.5809H73.333V18.7928H70.545V10.4286H73.333V7.64054H76.1211V4.85248H87.2733V7.64054H90.0614V10.4286H84.4853V7.64054H78.9092V10.4286H76.1211V18.7928H78.9092V21.5809H84.4853V18.7928H90.0614V21.5809H87.2733V24.3689H76.1211Z" fill="#FFFF01"/>
<path d="M2.71899 23.2846V3.76465H8.29747V6.55859H11.082V9.34313H13.8759V6.55859H16.6605V3.76465H22.239V23.2846H16.6605V12.1371H13.8759V17.7061H11.082V12.1371H8.29747V23.2846H2.71899Z" fill="#FCC855"/>
<path d="M27.8174 23.2846V20.5001H25.0234V17.7061H30.6019V20.5001H38.9649V14.9216H27.8174V12.1371H25.0234V6.55859H27.8174V3.76465H41.7589V6.55859H44.5434V9.34313H38.9649V6.55859H30.6019V12.1371H41.7589V14.9216H44.5434V20.5001H41.7589V23.2846H27.8174Z" fill="#FCC855"/>
<path d="M47.3279 23.2846V3.76465H66.8478V6.55859H52.9064V12.1371H64.0633V14.9216H52.9064V20.5001H66.8478V23.2846H47.3279Z" fill="#FCC855"/>
<path d="M75.2109 23.2846V20.5001H72.4264V17.7061H69.6418V9.34313H72.4264V6.55859H75.2109V3.76465H86.3679V6.55859H89.1524V9.34313H83.5739V6.55859H78.0049V9.34313H75.2109V17.7061H78.0049V20.5001H83.5739V17.7061H89.1524V20.5001H86.3679V23.2846H75.2109Z" fill="#FCC855"/>
<path d="M1.8064 21.9018V2.38184H7.38487V5.16637H10.1694V7.96031H12.9634V5.16637H15.7479V2.38184H21.3264V21.9018H15.7479V10.7448H12.9634V16.3233H10.1694V10.7448H7.38487V21.9018H1.8064Z" fill="#FA91A9"/>
<path d="M26.9049 21.9018V19.1079H24.111V16.3233H29.6894V19.1079H38.0525V13.5294H26.9049V10.7448H24.111V5.16637H26.9049V2.38184H40.8464V5.16637H43.6309V7.96031H38.0525V5.16637H29.6894V10.7448H40.8464V13.5294H43.6309V19.1079H40.8464V21.9018H26.9049Z" fill="#FA91A9"/>
<path d="M46.4155 21.9018V2.38184H65.9355V5.16637H51.994V10.7448H63.151V13.5294H51.994V19.1079H65.9355V21.9018H46.4155Z" fill="#FA91A9"/>
<path d="M74.2984 21.9018V19.1079H71.5139V16.3233H68.7294V7.96031H71.5139V5.16637H74.2984V2.38184H85.4554V5.16637H88.2399V7.96031H82.6614V5.16637H77.0924V7.96031H74.2984V16.3233H77.0924V19.1079H82.6614V16.3233H88.2399V19.1079H85.4554V21.9018H74.2984Z" fill="#FA91A9"/>
<path d="M0.894043 20.2017V0.685247H6.47017V3.47331H9.25823V6.26137H12.0463V3.47331H14.8344V0.685247H20.4105V20.2017H14.8344V9.04943H12.0463V14.6256H9.25823V9.04943H6.47017V20.2017H0.894043ZM25.9866 20.2017V17.4136H23.1985V14.6256H28.7747V17.4136H37.1389V11.8375H25.9866V9.04943H23.1985V3.47331H25.9866V0.685247H39.9269V3.47331H42.715V6.26137H37.1389V3.47331H28.7747V9.04943H39.9269V11.8375H42.715V17.4136H39.9269V20.2017H25.9866ZM45.503 20.2017V0.685247H65.0195V3.47331H51.0792V9.04943H62.2314V11.8375H51.0792V17.4136H65.0195V20.2017H45.503ZM73.3837 20.2017V17.4136H70.5956V14.6256H67.8075V6.26137H70.5956V3.47331H73.3837V0.685247H84.5359V3.47331H87.324V6.26137H81.7479V3.47331H76.1717V6.26137H73.3837V14.6256H76.1717V17.4136H81.7479V14.6256H87.324V17.4136H84.5359V20.2017H73.3837Z" fill="#F75AFD"/>
</svg>
